<svg xmlns="http://www.w3.org/2000/svg" viewBox="0 0 14 14" fill="none">
  <g clip-path="url(#clip0_2161_14571)">
    <path d="M10.4999 2.91663C10.6546 2.91663 10.8029 2.97808 10.9123 3.08748C11.0217 3.19688 11.0832 3.34525 11.0832 3.49996V8.16663C11.0832 8.32134 11.0217 8.46971 10.9123 8.5791C10.8029 8.6885 10.6546 8.74996 10.4999 8.74996C10.3452 8.74996 10.1968 8.6885 10.0874 8.5791C9.97799 8.46971 9.91653 8.32134 9.91653 8.16663V4.90813L4.11236 10.7123C4.00234 10.8186 3.85499 10.8773 3.70204 10.876C3.5491 10.8747 3.40279 10.8133 3.29463 10.7052C3.18648 10.597 3.12513 10.4507 3.1238 10.2978C3.12247 10.1448 3.18127 9.99748 3.28753 9.88746L9.09169 4.08329H5.83319C5.67848 4.08329 5.53011 4.02183 5.42072 3.91244C5.31132 3.80304 5.24986 3.65467 5.24986 3.49996C5.24986 3.34525 5.31132 3.19688 5.42072 3.08748C5.53011 2.97808 5.67848 2.91663 5.83319 2.91663H10.4999Z" fill="black"/>
  </g>
  <defs>
    <clipPath id="clip0_2161_14571">
      <rect width="14" height="14" fill="white"/>
    </clipPath>
  </defs>
</svg>