<svg xmlns="http://www.w3.org/2000/svg" viewBox="0 0 14 14" fill="none">
  <g clip-path="url(#clip0_1363_7345)">
    <path fill-rule="evenodd" clip-rule="evenodd" d="M7.41221 9.16264C7.30282 9.272 7.15447 9.33343 6.99979 9.33343C6.84511 9.33343 6.69677 9.272 6.58738 9.16264L3.28746 5.86272C3.23175 5.80891 3.18731 5.74454 3.15673 5.67337C3.12616 5.6022 3.11007 5.52566 3.1094 5.4482C3.10872 5.37075 3.12348 5.29394 3.15281 5.22225C3.18214 5.15056 3.22546 5.08543 3.28023 5.03066C3.335 4.97589 3.40013 4.93257 3.47182 4.90324C3.54351 4.87391 3.62032 4.85915 3.69778 4.85982C3.77523 4.8605 3.85178 4.87659 3.92295 4.90716C3.99411 4.93773 4.05848 4.98217 4.11229 5.03789L6.99979 7.92539L9.88729 5.03789C9.99731 4.93163 10.1447 4.87283 10.2976 4.87416C10.4506 4.87549 10.5969 4.93684 10.705 5.04499C10.8132 5.15315 10.8745 5.29945 10.8759 5.4524C10.8772 5.60535 10.8184 5.7527 10.7121 5.86272L7.41221 9.16264Z" fill="currentColor"/>
  </g>
  <defs>
    <clipPath id="clip0_1363_7345">
      <rect width="14" height="14" fill="white"/>
    </clipPath>
  </defs>
</svg>