<svg xmlns="http://www.w3.org/2000/svg" width="30" height="24" viewBox="0 0 30 24" fill="none">
  <g clip-path="url(#clip0_337_11775)">
    <path fill-rule="evenodd" clip-rule="evenodd" d="M17.5596 21.4306H12.4404C12.4404 22.8487 13.5874 24 14.9999 24C16.4124 24 17.5596 22.8487 17.5596 21.4306ZM13.8365 2.13456V1.16784C13.8365 0.52272 14.3575 0 14.9999 0C15.3085 0 15.6043 0.12312 15.8226 0.342C16.0406 0.56112 16.1633 0.858 16.1633 1.16784V2.13552C17.7068 2.38056 19.1457 3.10944 20.2651 4.23288C21.6613 5.63472 22.446 7.53576 22.446 9.51816V17.2039L23.6341 18.263C24.034 18.6197 24.1727 19.187 23.9829 19.6891C23.7928 20.191 23.3137 20.5229 22.7788 20.5229H7.22116C6.68633 20.5229 6.20695 20.191 6.01712 19.6891C5.82704 19.187 5.96595 18.6197 6.36595 18.263L7.55397 17.2039V9.51816C7.55397 5.78736 10.2772 2.69472 13.8365 2.13432V2.13456ZM26.5347 17.5219C26.6628 17.6542 26.8407 17.7262 27.0243 17.7204C27.2082 17.7146 27.3808 17.6314 27.5006 17.4914C29.1068 15.5851 30 13.1381 30 10.596C30 8.05392 29.1065 5.60688 27.4994 3.70152C27.3801 3.56184 27.2077 3.4788 27.0243 3.47304C26.8409 3.46728 26.6638 3.53904 26.5359 3.67104C26.5347 3.66984 26.5347 3.66984 26.5347 3.66984C26.3023 3.9096 26.2913 4.28808 26.5091 4.54128C27.9305 6.21 28.7202 8.36088 28.7202 10.596C28.7202 12.8311 27.9305 14.982 26.51 16.6517C26.2925 16.9042 26.3037 17.2817 26.5354 17.521C26.5342 17.5222 26.5344 17.5222 26.5344 17.5222L26.5347 17.5219ZM3.46534 17.5219C3.33719 17.6542 3.1593 17.7262 2.97568 17.7204C2.79183 17.7146 2.61897 17.6314 2.49942 17.4914C0.893231 15.5851 0 13.1381 0 10.596C0 8.05392 0.893231 5.60688 2.50062 3.70152C2.61992 3.56184 2.7923 3.4788 2.97568 3.47304C3.15907 3.46728 3.33623 3.53904 3.46414 3.67104C3.46534 3.66984 3.46534 3.66984 3.46534 3.66984C3.69773 3.9096 3.70873 4.28808 3.49068 4.54128C2.0693 6.21 1.2796 8.36088 1.2796 10.596C1.2796 12.8311 2.06954 14.982 3.48948 16.6517C3.70705 16.9042 3.69606 17.2817 3.46414 17.521C3.4651 17.5222 3.4651 17.5222 3.4651 17.5222L3.46534 17.5219ZM24.4276 14.5918C24.5565 14.7214 24.7343 14.7895 24.9165 14.7792C25.0987 14.7691 25.2677 14.6815 25.3818 14.5385C26.2638 13.4225 26.7515 12.0346 26.7515 10.596C26.7515 9.15744 26.2635 7.76952 25.3799 6.65496C25.2663 6.5124 25.098 6.42528 24.9165 6.4152C24.7351 6.40512 24.5579 6.47304 24.4295 6.60192C24.4278 6.60024 24.4278 6.60024 24.4278 6.60024C24.2031 6.82584 24.1837 7.18488 24.3829 7.43352C25.0973 8.3256 25.4908 9.4404 25.4908 10.596C25.4908 11.7516 25.0973 12.8664 24.3848 13.7599C24.1863 14.0076 24.2057 14.3654 24.4295 14.5901C24.4278 14.5918 24.4278 14.5918 24.4278 14.5918H24.4276ZM5.57242 14.5918C5.44355 14.7214 5.26567 14.7895 5.08348 14.7792C4.9013 14.7691 4.73226 14.6815 4.61822 14.5385C3.73622 13.4225 3.24848 12.0346 3.24848 10.596C3.24848 9.15744 3.73646 7.76952 4.62013 6.65496C4.73346 6.5124 4.90201 6.42528 5.08372 6.4152C5.26519 6.40512 5.44235 6.47304 5.57074 6.60192C5.57242 6.60024 5.57242 6.60024 5.57242 6.60024C5.79716 6.82584 5.81629 7.18488 5.61736 7.43352C4.90297 8.3256 4.50943 9.4404 4.50943 10.596C4.50943 11.7516 4.90297 12.8664 5.61545 13.7599C5.81389 14.0076 5.79453 14.3654 5.57074 14.5901C5.57242 14.5918 5.57242 14.5918 5.57242 14.5918Z" fill="url(#paint0_linear_337_11775)"/>
  </g>
  <defs>
    <linearGradient id="paint0_linear_337_11775" x1="15" y1="0" x2="15" y2="24" gradientUnits="userSpaceOnUse">
      <stop stop-color="#EEC47C"/>
      <stop offset="1" stop-color="#E79659"/>
    </linearGradient>
    <clipPath id="clip0_337_11775">
      <rect width="30" height="24" fill="white"/>
    </clipPath>
  </defs>
</svg>
