<svg  viewBox="0 0 320 98" fill="none" xmlns="http://www.w3.org/2000/svg">
<g style="mix-blend-mode:overlay" opacity="0.35">
<path d="M263.927 66.4804C265.896 68.2353 267.702 70.0403 269.369 72.0821C269.606 72.3635 269.606 72.3635 269.847 72.6505C272.414 75.7056 274.671 78.813 276.617 82.2986C276.994 82.9735 277.379 83.6428 277.766 84.3125C279.631 87.6128 280.905 90.9994 282.079 94.5968C282.276 95.1491 282.473 95.7014 282.669 96.2536C283.924 100.084 284.775 104.048 285.348 108.033C285.409 108.418 285.47 108.804 285.533 109.201C285.839 111.571 285.799 113.954 285.801 116.34C285.802 116.609 285.802 116.878 285.803 117.155C285.801 121.125 285.589 124.865 284.621 128.732C284.551 129.084 284.481 129.435 284.408 129.797C282.873 136.988 279.593 143.844 274.816 149.431C274.571 149.72 274.326 150.01 274.073 150.308C266.539 158.937 255.803 165.115 244.313 166.499C242.367 166.606 240.427 166.622 238.48 166.612C238.214 166.611 237.949 166.611 237.676 166.61C226.84 166.558 217.559 163.814 209.589 156.141C204.549 150.909 201.612 143.95 201.099 136.721C201.072 136.368 201.072 136.368 201.045 136.007C200.623 129.661 202.139 123.972 206.261 119.058C209.338 115.726 213.432 113.22 218.047 112.995C223.096 112.904 226.685 113.312 230.476 116.947C231.569 118.223 232.161 119.527 232.692 121.106C232.812 121.346 232.932 121.585 233.055 121.832C233.38 126.247 232.995 130.371 230.513 134.179C230.311 134.404 230.109 134.629 229.901 134.86C229.182 136.023 229.233 136.838 229.424 138.174C230.721 139.582 231.905 139.917 233.772 140.035C240.939 140.289 247.06 138.825 252.669 134.166C257.161 129.728 259.297 123.763 259.39 117.531C259.388 117.116 259.385 116.7 259.383 116.272C259.381 115.612 259.381 115.612 259.378 114.94C259.212 105.959 256.413 97.4544 250.486 90.6022C250.222 90.3476 249.957 90.0929 249.685 89.8306C249.033 89.1497 249.033 89.1497 249.033 88.4234C248.71 88.2781 248.71 88.2781 248.381 88.1298C247.567 87.6896 247.056 87.2325 246.401 86.585C238.885 79.8684 228.608 78.0584 218.869 78.5344C216.463 78.7246 214.271 79.271 211.993 80.0712C211.604 80.2069 211.215 80.3427 210.814 80.4825C206.62 82.0963 203.202 84.5637 200.01 87.6971C199.76 87.9382 199.51 88.1793 199.252 88.4277C195.888 91.9176 193.637 96.4871 192.384 101.133C192.307 101.397 192.23 101.66 192.151 101.932C191.21 105.353 191.216 108.854 191.207 112.374C191.203 113.153 191.192 113.932 191.181 114.711C191.143 119.509 192.06 123.912 193.45 128.505C197.431 142.151 197.431 142.151 194.47 147.75C192.379 151.128 189.23 153.758 185.322 154.738C181.364 155.337 178.216 154.701 174.885 152.495C167.065 146.204 165.934 131.307 164.921 122.15C163.45 108.24 164.256 95.0322 171.321 82.6132C171.553 82.205 171.784 81.7968 172.022 81.3762C180.004 67.913 193.364 57.234 208.592 53.2458C209.722 52.9683 210.856 52.7178 211.993 52.4725C212.473 52.3566 212.473 52.3566 212.963 52.2384C231.207 47.8663 250.067 54.6339 263.927 66.4804Z" fill="currentColor"/>
<path d="M297.748 -104.344C303.152 -100.876 304.701 -93.5075 306.047 -87.6995C306.32 -86.4086 306.583 -85.1158 306.845 -83.8224C308.566 -74.5327 308.566 -74.5327 314.307 -67.4246C318.466 -65.066 322.804 -64.9892 327.381 -66.1607C330.853 -67.2061 334.026 -68.6315 337.247 -70.2782C342.989 -73.2033 348.687 -76.0225 355.251 -74.2917C359.198 -72.7737 361.492 -70.3847 363.423 -66.6374C365.429 -59.8411 363.053 -51.3661 360.881 -44.8489C360.504 -40.1056 360.278 -35.2803 362.697 -31.0496C362.863 -30.743 363.029 -30.4364 363.2 -30.1205C365.198 -26.7865 368.374 -24.8477 372.093 -23.8776C378.927 -23.3308 384.293 -25.2488 390.507 -27.8934C396.434 -30.4124 403.472 -33.3131 409.905 -31.0496C410.131 -30.9873 410.358 -30.9251 410.591 -30.8609C413.476 -29.9808 415.669 -27.9527 417.145 -25.3528C417.408 -24.8374 417.658 -24.315 417.894 -23.7868C418.026 -23.5115 418.159 -23.2363 418.295 -22.9527C419.325 -19.8416 418.855 -15.8223 417.7 -12.8046C415.358 -8.3958 411.66 -6.60386 407.227 -4.88077C406.628 -4.64449 406.628 -4.64449 406.018 -4.40343C391.629 1.26435 374.966 6.58221 359.814 0.63443C349.167 -4.00192 341.386 -12.0475 336.914 -22.6974C336.764 -23.0442 336.615 -23.3911 336.461 -23.7485C334.86 -27.7533 334.671 -32.1288 334.261 -36.3846C334.145 -37.567 334.022 -38.6338 333.645 -39.765C331.864 -39.9056 330.466 -39.5096 328.801 -38.9493C320.619 -36.6304 310.96 -38.612 303.659 -42.5895C298.442 -45.5539 294.065 -49.5444 290.432 -54.2906C290.148 -54.6421 289.865 -54.9937 289.573 -55.3559C286.482 -59.3213 284.514 -63.8992 282.442 -68.4531C281.443 -67.9753 280.534 -67.4458 279.622 -66.8175C268.718 -59.379 258.03 -54.4026 244.535 -56.8439C238.63 -58.0204 233.574 -60.9069 229.061 -64.8217C228.621 -65.1833 228.621 -65.1833 228.171 -65.5522C222.422 -70.4354 217.842 -77.5972 216.714 -85.1575C216.144 -95.1355 216.144 -95.1355 219.381 -99.015C219.579 -99.2355 219.778 -99.456 219.982 -99.6832C220.173 -99.9074 220.364 -100.132 220.561 -100.363C223.124 -103.173 226.543 -104.551 230.286 -104.872C234.255 -105.027 237.712 -104.298 240.863 -101.771C242.253 -100.428 243.152 -98.8903 243.95 -97.1412C244.086 -96.887 244.222 -96.6328 244.362 -96.3709C244.932 -94.4721 244.688 -92.4779 244.616 -90.5132C244.575 -88.5555 244.65 -87.2116 245.765 -85.5207C247.612 -83.6738 249.799 -82.9319 252.37 -82.7971C259.997 -83.0503 265.896 -89.8385 270.822 -94.9623C271.258 -95.4501 271.69 -95.9414 272.116 -96.4376C278.943 -104.346 287.568 -109.86 297.748 -104.344Z" fill="currentColor"/>
<path opacity="0.5" d="M252.326 -14.8C252.793 -14.8028 252.793 -14.8028 253.269 -14.8057C274.444 -14.9066 294.208 -6.88616 310.768 5.98979C311.064 6.21887 311.064 6.21887 311.365 6.45258C317.259 11.0856 322.742 16.5991 327.11 22.6943C327.469 23.1828 327.828 23.6712 328.188 24.1596C330.73 27.6515 333.019 31.2561 335.099 35.041C335.226 35.2723 335.353 35.5036 335.484 35.742C343.481 50.516 348.44 69.6862 343.581 86.1997C342.127 90.8343 339.487 94.965 335.228 97.453C331.853 99.0763 328.225 100.064 324.555 98.9963C321.129 97.6883 318.002 95.7092 316.216 92.4172C314.861 89.3903 313.87 85.8192 315.038 82.5747C315.808 80.8341 316.731 79.1831 317.668 77.5285C320.324 72.8243 318.02 64.7273 316.67 59.8415C315.39 55.462 313.719 51.369 311.495 47.3878C311.37 47.1625 311.246 46.9373 311.118 46.7052C308.048 41.2043 304.24 36.3008 299.874 31.7728C299.597 31.4727 299.32 31.1727 299.035 30.8635C289.647 20.9845 275.623 14.1103 262.108 12.5263C261.847 12.495 261.587 12.4638 261.318 12.4315C258.121 12.0908 254.924 12.0907 251.713 12.0951C251.268 12.0954 251.268 12.0954 250.815 12.0958C239.097 12.1192 228.061 13.8316 216.763 16.9024C213.012 17.87 208.825 18.3992 205.218 16.6826C201.918 14.6439 199.592 11.9141 198.328 8.22396C197.659 4.29837 197.926 0.44701 200.25 -2.85608C206.069 -9.97699 216.699 -11.4525 225.294 -12.7119C225.611 -12.7585 225.928 -12.805 226.255 -12.853C227.19 -12.9892 228.126 -13.1232 229.062 -13.2567C229.53 -13.3245 229.997 -13.3924 230.479 -13.4623C231.941 -13.6605 233.405 -13.8312 234.872 -13.9829C235.191 -14.0162 235.509 -14.0495 235.838 -14.0838C241.334 -14.6316 246.807 -14.7848 252.326 -14.8Z" fill="currentColor"/>
<path opacity="0.35" d="M164.477 -34.5664C166.494 -33.0172 167.66 -30.7474 168.78 -28.5079C168.824 -27.5884 168.847 -26.6774 168.856 -25.7574C168.866 -25.1708 168.875 -24.5842 168.885 -23.9977C168.893 -23.5304 168.893 -23.5304 168.9 -23.0537C169.01 -16.3231 169.405 -9.64534 169.971 -2.93914C170.381 1.91797 170.663 6.73985 170.663 11.6148C170.663 12.5021 170.67 13.3894 170.677 14.2767C170.708 22.937 169.333 31.5647 165.511 39.3994C165.329 39.7954 165.146 40.1914 164.958 40.5994C160.07 50.9044 150.9 60.0347 140.095 63.9949C138.301 64.6054 136.485 65.1005 134.644 65.5455C134.398 65.6055 134.151 65.6654 133.897 65.7272C122.323 68.4216 110.711 65.7436 100.65 59.6955C93.7467 55.2189 87.3694 49.1883 82.3522 42.6676C82.1142 42.3623 82.1142 42.3623 81.8713 42.0508C76.3958 34.9936 72.4935 27.4977 73.2737 18.3372C73.5733 16.9862 74.037 15.9006 74.7263 14.7058C74.8718 14.4282 75.0174 14.1506 75.1674 13.8646C76.5769 11.45 78.5434 9.98293 80.8996 8.53241C81.2395 8.32317 81.2395 8.32317 81.5862 8.10969C84.3754 6.76534 88.8423 6.99073 91.7939 7.82883C95.0696 9.19743 97.2409 11.5101 98.6935 14.7058C99.1635 15.953 99.5824 17.2173 100.007 18.4805C101.553 22.9799 103.826 26.8048 107.046 30.3208C107.326 30.6303 107.606 30.9397 107.894 31.2585C111.85 35.4258 117.819 39.928 123.777 40.2122C128.672 40.3302 132.065 39.5877 135.734 36.1311C141.471 30.0512 143.739 21.8485 143.81 13.6518C143.813 13.3092 143.816 12.9665 143.82 12.6135C143.829 11.5028 143.834 10.3921 143.836 9.28139C143.838 8.90325 143.839 8.52511 143.84 8.13551C143.85 1.15097 143.538 -5.87608 142.072 -12.7305C140.8 -19.5882 142.091 -26.7867 145.947 -32.5706C150.787 -37.946 158.56 -38.1855 164.477 -34.5664Z" fill="currentColor"/>
<path d="M126.787 85.488C132.515 85.3094 137.015 85.9214 141.454 89.921C144.057 92.7657 145.13 95.7696 145.044 99.5724C144.819 103.334 143.435 106.252 140.635 108.794C135.515 112.696 128.28 112.597 122.112 112.992C116.906 113.332 111.884 113.862 107.023 115.908C106.717 116.035 106.41 116.162 106.094 116.292C97.7713 119.813 91.6807 125.107 88.075 133.484C85.947 138.855 85.5264 143.999 85.5073 149.726C85.5062 150.008 85.5052 150.29 85.5041 150.581C85.5002 155.072 85.866 159.25 87.0733 163.593C87.2222 164.184 87.2222 164.184 87.3741 164.788C87.6176 165.728 87.8859 166.657 88.1628 167.588C88.2353 167.869 88.3079 168.151 88.3826 168.442C89.1615 171.34 90.4616 173.991 91.7942 176.666C91.9268 176.933 92.0594 177.199 92.196 177.474C94.3247 181.716 96.7342 185.72 99.3001 189.709C101.088 192.507 102.706 195.299 103.778 198.455C103.86 198.691 103.942 198.928 104.026 199.172C104.973 202.348 104.829 205.678 103.583 208.74C101.797 212.003 98.9275 214.589 95.3603 215.69C91.6328 216.402 87.6187 216.301 84.3696 214.23C80.07 211.068 77.5212 206.294 74.84 201.792C74.407 201.069 73.9674 200.351 73.5237 199.635C72.6913 198.286 71.8857 196.923 71.0952 195.55C70.9437 195.287 70.7922 195.024 70.6361 194.753C66.3054 187.133 62.8876 178.73 61.0836 170.139C60.8502 169.041 60.5788 167.952 60.3144 166.861C56.3531 149.315 58.7702 130.194 68.2156 114.796C77.6145 100.348 92.0262 91.1793 108.796 87.5293C114.728 86.3271 120.742 85.6993 126.787 85.488Z" fill="currentColor"/>
<path opacity="0.25" d="M39.2457 0.270757C41.9323 2.09995 43.9749 5.07778 44.9495 8.16906C45.0751 9.20065 45.0522 10.21 45.0176 11.2472C45.0081 11.8446 44.9988 12.442 44.9895 13.0394C44.9827 13.3484 44.976 13.6574 44.969 13.9758C44.8741 18.6439 44.861 23.1799 45.6787 27.7872C46.2516 31.0308 46.5826 34.3136 46.9695 37.5835C47.3951 41.1717 47.823 44.7529 48.3904 48.322C50.563 62.5202 50.563 62.5202 50.5782 69.3356C50.5804 69.6456 50.5825 69.9557 50.5848 70.2751C50.5123 73.8172 49.4362 77.0036 47.1284 79.7078C44.1265 82.5707 41.4614 83.5327 37.3489 83.4901C33.5419 83.3456 31.1285 82.1121 28.35 79.5659C23.0595 73.535 22.7508 64.6746 22.1667 57.0654C22.1436 56.7651 22.1205 56.4648 22.0966 56.1554C21.9822 54.6558 21.8728 53.1561 21.7728 51.6554C21.5735 48.7855 21.2696 46.0107 20.6956 43.1858C20.04 39.8927 19.6701 36.5566 19.2628 33.2255C19.1209 32.0661 18.9758 30.9072 18.8304 29.7483C16.4793 10.8628 16.4793 10.8628 19.5297 5.99022C19.7001 5.71731 19.8705 5.4444 20.046 5.16323C24.5211 -1.29675 32.2687 -3.53268 39.2457 0.270757Z" fill="currentColor"/>
</g>
</svg>
