<svg xmlns="http://www.w3.org/2000/svg" viewBox="0 0 15 14" fill="none">
<g clip-path="url(#clip0_52_8474)">
<path d="M13.3332 5.83331V9.91665C13.3332 10.3808 13.1488 10.8259 12.8206 11.1541C12.4924 11.4823 12.0473 11.6666 11.5832 11.6666H3.4165C2.95238 11.6666 2.50726 11.4823 2.17907 11.1541C1.85088 10.8259 1.6665 10.3808 1.6665 9.91665V5.83331H13.3332ZM10.9998 8.16665H9.24984C9.09513 8.16665 8.94675 8.2281 8.83736 8.3375C8.72796 8.4469 8.6665 8.59527 8.6665 8.74998C8.6665 8.90469 8.72796 9.05306 8.83736 9.16246C8.94675 9.27185 9.09513 9.33331 9.24984 9.33331H10.9998C11.1545 9.33331 11.3029 9.27185 11.4123 9.16246C11.5217 9.05306 11.5832 8.90469 11.5832 8.74998C11.5832 8.59527 11.5217 8.4469 11.4123 8.3375C11.3029 8.2281 11.1545 8.16665 10.9998 8.16665ZM11.5832 2.33331C12.0473 2.33331 12.4924 2.51769 12.8206 2.84588C13.1488 3.17406 13.3332 3.61918 13.3332 4.08331V4.66665H1.6665V4.08331C1.6665 3.61918 1.85088 3.17406 2.17907 2.84588C2.50726 2.51769 2.95238 2.33331 3.4165 2.33331H11.5832Z" fill="currentColor"/>
</g>
<defs>
<clipPath id="clip0_52_8474">
<rect width="14" height="14" fill="white" transform="translate(0.5)"/>
</clipPath>
</defs>
</svg>