<svg xmlns="http://www.w3.org/2000/svg" width="24" height="24" viewBox="0 0 24 24" fill="none">
  <path d="M12 24C18.6274 24 24 18.6274 24 12C24 5.37258 18.6274 0 12 0C5.37258 0 0 5.37258 0 12C0 18.6274 5.37258 24 12 24Z" fill="#A1FF36" fill-opacity="0.8"/>
  <path d="M19.842 9.69072L11.1608 18.3293C10.8053 18.683 10.2284 18.683 9.87288 18.3293L4.15872 12.6432C3.80321 12.2894 3.80321 11.7154 4.15872 11.3616L5.60653 9.92089C5.96204 9.56713 6.53864 9.56713 6.89445 9.92089L10.5167 13.525L17.1059 6.96813C17.4618 6.61408 18.0384 6.61437 18.3939 6.96813L19.8417 8.40913C20.1972 8.76319 20.1972 9.33667 19.8417 9.69072H19.842Z" fill="white"/>
</svg>
