<svg xmlns="http://www.w3.org/2000/svg" width="12" height="8" viewBox="0 0 12 8" fill="none">
  <path d="M5.58759 7.28176C5.45425 7.28176 5.32925 7.26076 5.21259 7.21876C5.09592 7.17743 4.98759 7.10676 4.88759 7.00676L0.262587 2.38176C0.0792536 2.19843 -0.00807986 1.9691 0.000586805 1.69376C0.00858681 1.4191 0.104253 1.1901 0.287587 1.00676C0.47092 0.82343 0.704253 0.731763 0.987587 0.731763C1.27092 0.731763 1.50425 0.82343 1.68759 1.00676L5.58759 4.90676L9.51259 0.981763C9.69592 0.79843 9.92525 0.710763 10.2006 0.718763C10.4753 0.72743 10.7043 0.82343 10.8876 1.00676C11.0709 1.1901 11.1626 1.42343 11.1626 1.70676C11.1626 1.9901 11.0709 2.22343 10.8876 2.40676L6.28759 7.00676C6.18759 7.10676 6.07925 7.17743 5.96259 7.21876C5.84592 7.26076 5.72092 7.28176 5.58759 7.28176Z" fill="currentColor"/>
  <defs>
    <linearGradient id="paint0_linear_276_10393" x1="5.58129" y1="0.718262" x2="5.58129" y2="7.28176" gradientUnits="userSpaceOnUse">
      <stop stop-color="#EEC47C"/>
      <stop offset="1" stop-color="#E79659"/>
    </linearGradient>
  </defs>
</svg>
