<svg xmlns="http://www.w3.org/2000/svg" viewBox="0 0 16 16" fill="none">
  <path d="M8 1.5C11.5899 1.5 14.5 4.41006 14.5 8C14.5 11.5899 11.5899 14.5 8 14.5C4.41006 14.5 1.5 11.5899 1.5 8C1.5 4.41006 4.41006 1.5 8 1.5ZM8 4.90039C7.97348 4.90039 7.94844 4.91093 7.92969 4.92969C7.91093 4.94844 7.90039 4.97348 7.90039 5V8L7.90723 8.03809C7.91221 8.05018 7.92026 8.06089 7.92969 8.07031L9.72266 9.86426C9.74152 9.88247 9.76772 9.89281 9.79395 9.89258C9.82 9.89223 9.84485 9.88172 9.86328 9.86328C9.88172 9.84485 9.89223 9.82 9.89258 9.79395C9.89281 9.76777 9.88241 9.74248 9.86426 9.72363V9.72266L8.24609 8.10547L8.09961 7.95898V5C8.09961 4.97348 8.08907 4.94844 8.07031 4.92969C8.05156 4.91093 8.02652 4.90039 8 4.90039Z" fill="currentColor" stroke="white"/>
</svg>