<svg xmlns="http://www.w3.org/2000/svg" viewBox="0 0 16 16" fill="none">
<path d="M7.99992 1.33342C11.6866 1.33342 14.6666 4.32009 14.6666 8.00009C14.6666 11.6868 11.6866 14.6668 7.99992 14.6668C4.31992 14.6668 1.33325 11.6868 1.33325 8.00009C1.33325 4.32009 4.31992 1.33342 7.99992 1.33342ZM7.76658 4.62009C7.49325 4.62009 7.26658 4.84009 7.26658 5.12009V8.48675C7.26658 8.66009 7.35992 8.82009 7.51325 8.91342L10.1266 10.4734C10.2066 10.5201 10.2933 10.5468 10.3866 10.5468C10.5533 10.5468 10.7199 10.4601 10.8133 10.3001C10.9533 10.0668 10.8799 9.76009 10.6399 9.61342L8.26658 8.20009V5.12009C8.26658 4.84009 8.03992 4.62009 7.76658 4.62009Z" fill="currentColor"/>
</svg>