<svg xmlns="http://www.w3.org/2000/svg" viewBox="0 0 18 18" fill="none">
  <g clip-path="url(#clip0_257_3982)">
    <path fill-rule="evenodd" clip-rule="evenodd" d="M8.99901 10.0606L13.2418 14.3034C13.3832 14.44 13.5727 14.5156 13.7693 14.5139C13.966 14.5122 14.1541 14.4333 14.2931 14.2942C14.4322 14.1552 14.5111 13.9671 14.5128 13.7704C14.5145 13.5738 14.4389 13.3843 14.3023 13.2429L10.0595 9.00011L14.3023 4.75736C14.4389 4.61591 14.5145 4.42646 14.5128 4.22981C14.5111 4.03316 14.4322 3.84505 14.2931 3.706C14.1541 3.56694 13.966 3.48807 13.7693 3.48636C13.5727 3.48465 13.3832 3.56024 13.2418 3.69686L8.99901 7.93961L4.75626 3.69686C4.61417 3.56362 4.42582 3.49089 4.23106 3.49405C4.0363 3.49721 3.85041 3.57602 3.71272 3.71381C3.57503 3.85159 3.49635 4.03754 3.49333 4.2323C3.4903 4.42707 3.56317 4.61537 3.69651 4.75736L7.93851 9.00011L3.69576 13.2429C3.62413 13.312 3.56699 13.3948 3.52769 13.4863C3.48838 13.5778 3.46769 13.6762 3.46683 13.7758C3.46596 13.8754 3.48494 13.9742 3.52265 14.0663C3.56036 14.1585 3.61605 14.2422 3.68647 14.3127C3.75689 14.3831 3.84063 14.4388 3.9328 14.4765C4.02497 14.5142 4.12373 14.5332 4.22331 14.5323C4.3229 14.5314 4.42131 14.5107 4.51282 14.4714C4.60432 14.4321 4.68708 14.375 4.75626 14.3034L8.99901 10.0606Z" fill="currentColor"/>
  </g>
  <defs>
    <clipPath id="clip0_257_3982">
      <rect width="18" height="18" fill="white"/>
    </clipPath>
  </defs>
</svg>