<svg xmlns="http://www.w3.org/2000/svg" width="16" height="16" viewBox="0 0 16 16" fill="none">
  <path fill-rule="evenodd" clip-rule="evenodd" d="M0.334328 0.348911C0.548463 0.134649 0.838853 0.014294 1.14163 0.014294C1.44441 0.014294 1.7348 0.134649 1.94893 0.348911L7.99282 6.39803L14.0367 0.348911C14.1421 0.239746 14.2681 0.152683 14.4074 0.0927856C14.5467 0.0328886 14.6966 0.00136859 14.8482 4.28744e-05C14.9998 -0.00127141 15.1502 0.0276428 15.2905 0.0851056C15.4309 0.142568 15.5583 0.227437 15.6655 0.334739C15.7727 0.442042 15.8576 0.569642 15.915 0.710098C15.9723 0.850555 16.0012 1.00105 16 1.15279C15.9986 1.30454 15.9671 1.45451 15.9072 1.59394C15.8474 1.73337 15.7604 1.85948 15.6513 1.9649L9.60742 8.01403L15.6513 14.0632C15.8594 14.2787 15.9745 14.5674 15.9719 14.867C15.9692 15.1667 15.8492 15.4533 15.6374 15.6652C15.4257 15.8771 15.1393 15.9973 14.8399 16C14.5405 16.0026 14.2521 15.8874 14.0367 15.6792L7.99282 9.63002L1.94893 15.6792C1.73358 15.8874 1.44514 16.0026 1.14574 16C0.846343 15.9973 0.559951 15.8771 0.348237 15.6652C0.136522 15.4533 0.0164318 15.1667 0.0138398 14.867C0.0112363 14.5674 0.126325 14.2787 0.334328 14.0632L6.37822 8.01403L0.334328 1.9649C0.120262 1.75059 0 1.45995 0 1.1569C0 0.853858 0.120262 0.563219 0.334328 0.348911Z" fill="white" fill-opacity="0.8"/>
</svg>
