<svg xmlns="http://www.w3.org/2000/svg" viewBox="0 0 16 16" fill="none">
  <g clip-path="url(#clip0_1331_6295)">
    <path fill-rule="evenodd" clip-rule="evenodd" d="M8.00004 8.94275L11.7714 12.7141C11.8971 12.8355 12.0655 12.9027 12.2403 12.9012C12.4151 12.8997 12.5823 12.8296 12.7059 12.706C12.8295 12.5824 12.8996 12.4151 12.9012 12.2403C12.9027 12.0655 12.8355 11.8971 12.714 11.7714L8.94271 8.00008L12.714 4.22875C12.8355 4.10301 12.9027 3.93461 12.9012 3.75981C12.8996 3.58501 12.8295 3.41781 12.7059 3.2942C12.5823 3.17059 12.4151 3.10048 12.2403 3.09896C12.0655 3.09744 11.8971 3.16464 11.7714 3.28608L8.00004 7.05741L4.22871 3.28608C4.10241 3.16764 3.93499 3.10299 3.76187 3.1058C3.58874 3.10861 3.42351 3.17867 3.30112 3.30114C3.17873 3.42362 3.10879 3.5889 3.1061 3.76203C3.10341 3.93515 3.16819 4.10253 3.28671 4.22875L7.05738 8.00008L3.28604 11.7714C3.22237 11.8329 3.17158 11.9065 3.13664 11.9878C3.1017 12.0691 3.08331 12.1566 3.08254 12.2451C3.08178 12.3337 3.09864 12.4215 3.13216 12.5034C3.16568 12.5853 3.21519 12.6597 3.27778 12.7223C3.34038 12.7849 3.41481 12.8344 3.49674 12.868C3.57867 12.9015 3.66646 12.9184 3.75498 12.9176C3.8435 12.9168 3.93098 12.8984 4.01231 12.8635C4.09365 12.8285 4.16721 12.7778 4.22871 12.7141L8.00004 8.94275Z" fill="currentColor"/>
  </g>
  <defs>
    <clipPath id="clip0_1331_6295">
      <rect width="16" height="16" fill="white"/>
    </clipPath>
  </defs>
</svg>