<svg xmlns="http://www.w3.org/2000/svg" width="18" height="19" viewBox="0 0 18 19" fill="none">
  <path d="M15.0002 7.24951H8.25024C7.42182 7.24951 6.75024 7.92108 6.75024 8.74951V15.4995C6.75024 16.3279 7.42182 16.9995 8.25024 16.9995H15.0002C15.8287 16.9995 16.5002 16.3279 16.5002 15.4995V8.74951C16.5002 7.92108 15.8287 7.24951 15.0002 7.24951Z" stroke="url(#paint0_linear_276_10413)" stroke-width="1.72484" stroke-linecap="round" stroke-linejoin="round"/>
  <path d="M3.74976 11.749H2.99976C2.60193 11.749 2.2204 11.591 1.9391 11.3097C1.65779 11.0284 1.49976 10.6468 1.49976 10.249V3.49902C1.49976 3.1012 1.65779 2.71967 1.9391 2.43836C2.2204 2.15706 2.60193 1.99902 2.99976 1.99902H9.74976C10.1476 1.99902 10.5291 2.15706 10.8104 2.43836C11.0917 2.71967 11.2498 3.1012 11.2498 3.49902V4.24902" stroke="url(#paint1_linear_276_10413)" stroke-width="1.72484" stroke-linecap="round" stroke-linejoin="round"/>
  <defs>
    <linearGradient id="paint0_linear_276_10413" x1="11.6252" y1="7.24951" x2="11.6252" y2="16.9995" gradientUnits="userSpaceOnUse">
      <stop stop-color="#EEC47C"/>
      <stop offset="1" stop-color="#E79659"/>
    </linearGradient>
    <linearGradient id="paint1_linear_276_10413" x1="6.37476" y1="1.99902" x2="6.37476" y2="11.749" gradientUnits="userSpaceOnUse">
      <stop stop-color="#EEC47C"/>
      <stop offset="1" stop-color="#E79659"/>
    </linearGradient>
  </defs>
</svg>
