<svg xmlns="http://www.w3.org/2000/svg" viewBox="0 0 16 16" fill="none">
  <g clip-path="url(#clip0_1655_13014)">
    <path fill-rule="evenodd" clip-rule="evenodd" d="M5.99992 1.33337C5.6463 1.33337 5.30716 1.47385 5.05711 1.7239C4.80706 1.97395 4.66659 2.31309 4.66658 2.66671V4.00004H5.99992V2.66671H13.3333V10H11.9999V11.3334H13.3333C13.6869 11.3334 14.026 11.1929 14.2761 10.9428C14.5261 10.6928 14.6666 10.3537 14.6666 10V2.66671C14.6666 2.31309 14.5261 1.97395 14.2761 1.7239C14.026 1.47385 13.6869 1.33337 13.3333 1.33337H5.99992ZM2.66659 4.66671C2.31296 4.66671 1.97382 4.80718 1.72378 5.05723C1.47373 5.30728 1.33325 5.64642 1.33325 6.00004V13.3334C1.33325 13.687 1.47373 14.0261 1.72378 14.2762C1.97382 14.5262 2.31296 14.6667 2.66659 14.6667H9.99992C10.3535 14.6667 10.6927 14.5262 10.9427 14.2762C11.1928 14.0261 11.3333 13.687 11.3333 13.3334V6.00004C11.3333 5.64642 11.1928 5.30728 10.9427 5.05723C10.6927 4.80718 10.3535 4.66671 9.99992 4.66671H2.66659Z" fill="currentColor"/>
  </g>
  <defs>
    <clipPath id="clip0_1655_13014">
      <rect width="16" height="16" fill="white"/>
    </clipPath>
  </defs>
</svg>