<svg xmlns="http://www.w3.org/2000/svg" width="18" height="20" viewBox="0 0 18 20" fill="none">
<path fill-rule="evenodd" clip-rule="evenodd" d="M9.1905 13.9254C8.88 13.9254 8.62425 13.6734 8.62425 13.3629C8.62425 13.0524 8.87325 12.8004 9.18375 12.8004H9.1905C9.501 12.8004 9.753 13.0524 9.753 13.3629C9.753 13.6734 9.501 13.9254 9.1905 13.9254ZM8.625 7.81667C8.625 7.50617 8.877 7.25416 9.1875 7.25416C9.498 7.25416 9.75 7.50617 9.75 7.81667V10.7379C9.75 11.0484 9.498 11.3004 9.1875 11.3004C8.877 11.3004 8.625 11.0484 8.625 10.7379V7.81667ZM9.1875 3.42542C3.789 3.42542 1.875 5.33942 1.875 10.7379C1.875 16.1364 3.789 18.0504 9.1875 18.0504C14.586 18.0504 16.5 16.1364 16.5 10.7379C16.5 5.33942 14.586 3.42542 9.1875 3.42542Z" fill="#FF5100"/>
</svg>