<svg xmlns="http://www.w3.org/2000/svg" viewBox="0 0 18 20" fill="none">
  <path fill-rule="evenodd" clip-rule="evenodd" d="M9.1905 13.5888C8.88 13.5888 8.62425 13.3368 8.62425 13.0263C8.62425 12.7158 8.87325 12.4638 9.18375 12.4638H9.1905C9.501 12.4638 9.753 12.7158 9.753 13.0263C9.753 13.3368 9.501 13.5888 9.1905 13.5888ZM8.625 7.48C8.625 7.1695 8.877 6.91749 9.1875 6.91749C9.498 6.91749 9.75 7.1695 9.75 7.48V10.4013C9.75 10.7118 9.498 10.9638 9.1875 10.9638C8.877 10.9638 8.625 10.7118 8.625 10.4013V7.48ZM9.1875 3.08875C3.789 3.08875 1.875 5.00275 1.875 10.4013C1.875 15.7998 3.789 17.7138 9.1875 17.7138C14.586 17.7138 16.5 15.7998 16.5 10.4013C16.5 5.00275 14.586 3.08875 9.1875 3.08875Z" fill="currentColor"/>
</svg>