<svg xmlns="http://www.w3.org/2000/svg" viewBox="0 0 12 14" fill="none">
  <g clip-path="url(#clip0_2161_14565)">
    <path fill-rule="evenodd" clip-rule="evenodd" d="M7.08464 4.98708C7.5129 4.77353 8.05783 4.45919 8.60341 4.0285C8.71844 4.26739 8.73104 4.47585 8.67178 4.64417C8.62978 4.7628 8.55063 4.86598 8.44656 4.94807C8.33386 5.03678 8.19312 5.10137 8.03753 5.13627C7.74232 5.20277 7.39763 5.16395 7.08464 4.98708ZM7.15889 7.17509L7.7258 7.50255C6.56828 8.15131 6.2536 9.35597 5.8798 10.5293C5.50605 9.35597 5.19133 8.15131 4.03386 7.50255L4.60076 7.17509C4.6556 7.15437 4.70248 7.11682 4.73467 7.06782C4.76686 7.01882 4.78271 6.96089 4.77996 6.90233C4.72802 5.80347 5.02473 5.31753 5.42494 5.01242C5.56849 4.90313 5.7252 4.84825 5.8798 4.84825C6.03441 4.84825 6.19112 4.90313 6.33471 5.01242C6.73492 5.31753 7.03163 5.80347 6.97969 6.90233C6.97694 6.96089 6.99279 7.01882 7.02498 7.06782C7.05717 7.11682 7.10405 7.15437 7.15889 7.17509ZM5.8798 0C6.5351 0.0175933 7.19202 0.144807 7.76215 0.39228C8.15695 0.563873 8.52534 0.790533 8.85891 1.06157C9.00955 1.18393 9.13359 1.30214 9.27023 1.43822C9.63876 1.45096 10.1773 1.04155 10.4274 0.658467C9.99706 2.0692 8.03342 3.73515 6.67398 4.37262C6.67342 4.37239 6.67304 4.37206 6.67262 4.37178C6.42865 4.18549 6.15425 4.09234 5.8798 4.09234C5.60536 4.09234 5.331 4.18549 5.08703 4.37178C5.08661 4.37201 5.08624 4.37243 5.08568 4.37262C3.72618 3.73515 1.76259 2.0692 1.33228 0.658467C1.58227 1.04155 2.12085 1.45096 2.48938 1.43822C2.62606 1.30219 2.7501 1.18393 2.9007 1.06157C3.23427 0.790533 3.60266 0.563873 3.99746 0.39228C4.56763 0.144807 5.22456 0.0175933 5.8798 0ZM4.67496 4.98708C4.24675 4.77353 3.70178 4.45919 3.15624 4.0285C3.04121 4.26739 3.02861 4.47585 3.08783 4.64417C3.12988 4.7628 3.20902 4.86598 3.31304 4.94807C3.42579 5.03678 3.56654 5.10137 3.72212 5.13627C4.01734 5.20277 4.36197 5.16395 4.67496 4.98708Z" fill="black"/>
    <path fill-rule="evenodd" clip-rule="evenodd" d="M9.20113 3.50082C9.50147 3.19772 9.76612 2.86223 9.97892 2.56287L10.087 2.76629C10.4349 3.46241 10.6157 4.15574 10.6157 4.93601L10.615 6.17417L10.6215 6.81602C10.6467 8.39177 10.9877 9.98604 11.76 11.445L10.1441 10.142L9.00069 11.9974L7.79949 10.8666L5.88 13.9816L3.96051 10.8667L2.75935 11.9975L1.61597 10.142L0 11.4451C0.772333 9.98609 1.11328 8.39181 1.13853 6.81607L1.14506 6.17421L1.14431 4.93605C1.14431 4.15574 1.32505 3.46241 1.67309 2.76633L1.78113 2.56291C1.99393 2.86228 2.25853 3.19772 2.55892 3.50087L2.46512 3.6957C2.28289 4.07412 2.22255 4.49725 2.36451 4.89965C2.45602 5.15884 2.62304 5.38111 2.83836 5.55079C3.04743 5.71557 3.29485 5.82664 3.5539 5.88497C3.72265 5.92296 3.89457 5.93859 4.06537 5.93327C4.02551 6.15919 4.00811 6.3935 4.00699 6.63225L2.48267 7.51266L3.65895 8.17201C3.75296 8.22472 3.84246 8.28511 3.92653 8.35257C4.89631 9.22327 5.47937 11.7991 5.88005 13.0573C6.28077 11.7991 6.86378 9.22327 7.83361 8.35257C7.91767 8.2851 8.00717 8.22471 8.10119 8.17201L9.27747 7.51266L7.75311 6.63225C7.75199 6.3935 7.73458 6.15919 7.69473 5.93327C7.86553 5.93859 8.03745 5.92296 8.20619 5.88497C8.46524 5.82664 8.71271 5.71557 8.92173 5.55079C9.13701 5.38111 9.30407 5.15884 9.39554 4.89965C9.53755 4.49725 9.47716 4.07417 9.29497 3.6957L9.20117 3.50087L9.20113 3.50082Z" fill="black"/>
  </g>
  <defs>
    <clipPath id="clip0_2161_14565">
      <rect width="11.76" height="14" fill="white"/>
    </clipPath>
  </defs>
</svg>