<svg xmlns="http://www.w3.org/2000/svg"  viewBox="0 0 16 16" fill="none">
  <g clip-path="url(#clip0_1832_6231)">
    <path d="M8.00049 0.833374C11.9585 0.83355 15.1665 4.04233 15.1665 8.00037C15.1663 11.9583 11.9584 15.1662 8.00049 15.1664C4.04246 15.1664 0.833672 11.9584 0.833496 8.00037C0.833496 4.04222 4.04235 0.833374 8.00049 0.833374ZM8.00049 4.50037C7.95629 4.50037 7.91358 4.51794 7.88232 4.54919C7.85125 4.58036 7.83358 4.62237 7.8335 4.66638V5.83337H6.6665C6.35728 5.83346 6.06099 5.95656 5.84229 6.17517C5.62349 6.39396 5.50049 6.69095 5.50049 7.00037C5.50057 7.30967 5.62357 7.60587 5.84229 7.82458C6.061 8.0433 6.3572 8.1663 6.6665 8.16638H9.3335C9.55435 8.16638 9.76611 8.25444 9.92236 8.41052C10.0786 8.5668 10.1665 8.77935 10.1665 9.00037C10.1664 9.22126 10.0786 9.43303 9.92236 9.58923C9.7661 9.74542 9.55443 9.83337 9.3335 9.83337H6.00049C5.95629 9.83337 5.91358 9.85095 5.88232 9.8822C5.85107 9.91346 5.8335 9.95616 5.8335 10.0004C5.83358 10.0444 5.85125 10.0864 5.88232 10.1176C5.91358 10.1488 5.95629 10.1664 6.00049 10.1664H7.8335V11.3334C7.8335 11.3776 7.85107 11.4203 7.88232 11.4515C7.91356 11.4827 7.95636 11.5004 8.00049 11.5004C8.04442 11.5003 8.08653 11.4825 8.11768 11.4515C8.14893 11.4203 8.1665 11.3776 8.1665 11.3334V10.1664H9.3335C9.64292 10.1664 9.9399 10.0434 10.1587 9.82458C10.3772 9.6059 10.5004 9.30951 10.5005 9.00037C10.5005 8.69102 10.3774 8.39395 10.1587 8.17517C9.9399 7.95638 9.64292 7.83337 9.3335 7.83337H6.6665C6.44561 7.83329 6.23384 7.74544 6.07764 7.58923C5.94089 7.45248 5.85634 7.27318 5.8374 7.0824L5.8335 7.00037L5.8374 6.91736C5.8564 6.7267 5.94096 6.5472 6.07764 6.41052L6.13916 6.35583C6.28735 6.23444 6.47327 6.16646 6.6665 6.16638H10.0005C10.0446 6.1663 10.0865 6.14873 10.1177 6.11755C10.1489 6.08638 10.1664 6.04445 10.1665 6.00037C10.1665 5.95616 10.1489 5.91346 10.1177 5.8822C10.0865 5.85112 10.0445 5.83346 10.0005 5.83337H8.1665V4.66638C8.16642 4.6223 8.14886 4.58037 8.11768 4.54919C8.0865 4.51801 8.04457 4.50045 8.00049 4.50037Z" fill="currentColor" stroke="white"/>
  </g>
  <defs>
    <clipPath id="clip0_1832_6231">
      <rect width="16" height="16" fill="white"/>
    </clipPath>
  </defs>
</svg>