<svg xmlns="http://www.w3.org/2000/svg" viewBox="0 0 16 16" fill="none">
  <path fill-rule="evenodd" clip-rule="evenodd" d="M9.57992 0.524842C9.87484 0.229885 10.2696 0.056235 10.6864 0.0381838C11.1031 0.0201327 11.5114 0.158992 11.8307 0.427342L11.9366 0.524842L15.4724 4.06068C15.7671 4.35556 15.9406 4.75019 15.9587 5.16672C15.9767 5.58324 15.838 5.9914 15.5699 6.31068L15.4724 6.41734L6.87742 15.0123C6.60073 15.289 6.23552 15.4595 5.84575 15.494L5.69908 15.4998H1.33825C1.1309 15.4998 0.930839 15.4233 0.776439 15.2849C0.62204 15.1465 0.524165 14.956 0.501582 14.7498L0.496582 14.6582V10.2973C0.496678 9.90605 0.634444 9.52727 0.885749 9.22734L0.985749 9.11901L9.57992 0.524842ZM8.14158 4.31984L2.16325 10.2982V13.8332H5.69992L11.6782 7.85484L8.14242 4.31901L8.14158 4.31984ZM10.7582 1.70318L9.31991 3.14151L12.8557 6.67734L14.2941 5.23901L10.7582 1.70318Z" fill="currentColor"/>
</svg>