<svg xmlns="http://www.w3.org/2000/svg"  viewBox="0 0 14 14" fill="none">
  <path fill-rule="evenodd" clip-rule="evenodd" d="M7.44367 7.74865C7.44367 7.99015 7.24767 8.18615 7.00617 8.18615C6.76467 8.18615 6.56867 7.99015 6.56867 7.74865V5.99165C6.56867 5.75017 6.76467 5.55417 7.00617 5.55417C7.24767 5.55417 7.44367 5.75017 7.44367 5.99165V7.74865ZM7.00501 9.9484C6.76351 9.9484 6.56751 9.7664 6.56751 9.5249V9.49632C6.56751 9.25482 6.76351 9.05882 7.00501 9.05882C7.24651 9.05882 7.44251 9.25482 7.44251 9.49632C7.44251 9.73782 7.24651 9.9484 7.00501 9.9484ZM12.3489 9.84281L8.28892 2.71684C8.02701 2.25834 7.55567 1.98359 7.02776 1.98242H7.02484C6.49926 1.98242 6.02851 2.25484 5.76599 2.71042L1.65466 9.83582C1.39158 10.2908 1.39158 10.8351 1.65408 11.2901C1.91658 11.7456 2.38791 12.0169 2.91349 12.0169H11.0848C11.6093 12.0169 12.0788 11.7468 12.3425 11.293C12.6062 10.8403 12.6085 10.2978 12.3489 9.84281Z" fill="currentColor"/>
</svg>