<svg width="24" height="24" viewBox="0 0 24 24" fill="none" xmlns="http://www.w3.org/2000/svg">
<path d="M12 24C18.6274 24 24 18.6274 24 12C24 5.37258 18.6274 0 12 0C5.37258 0 0 5.37258 0 12C0 18.6274 5.37258 24 12 24Z" fill="#FF504A" fill-opacity="0.8"/>
<g clip-path="url(#clip0_337_11790)">
<path d="M17.5139 15.0465C17.8423 15.3749 17.8423 15.9077 17.5139 16.2361L16.2365 17.5135C15.9081 17.8419 15.3753 17.8419 15.0469 17.5135L12.0004 14.467L8.95354 17.5135C8.62515 17.8419 8.09236 17.8419 7.76397 17.5135L6.48653 16.2361C6.15814 15.9077 6.15814 15.3749 6.48653 15.0465L9.53307 12L6.48653 8.95346C6.15814 8.62475 6.15814 8.09228 6.48653 7.76357L7.76397 6.48613C8.09268 6.15774 8.62515 6.15774 8.95386 6.48613L12.0004 9.53267L15.0466 6.48613C15.3753 6.15774 15.9078 6.15774 16.2365 6.48613L17.5139 7.76357C17.8423 8.09228 17.8423 8.62475 17.5139 8.95346L14.4674 12L17.5139 15.0465Z" fill="white"/>
</g>
<defs>
<clipPath id="clip0_337_11790">
<rect width="11.52" height="11.52" fill="white" transform="translate(6.24023 6.24001)"/>
</clipPath>
</defs>
</svg>
