<svg xmlns="http://www.w3.org/2000/svg"  viewBox="0 0 28 28" fill="none">
  <path fill-rule="evenodd" clip-rule="evenodd" d="M14.0003 19.214C13.5173 19.214 13.1253 18.85 13.1253 18.3658V18.311C13.1253 17.828 13.5173 17.436 14.0003 17.436C14.4833 17.436 14.8753 17.828 14.8753 18.311C14.8753 18.794 14.4833 19.214 14.0003 19.214ZM13.1207 9.69281C13.1207 9.20981 13.5127 8.81781 13.9957 8.81781C14.4787 8.81781 14.8707 9.20981 14.8707 9.69281V14.7083C14.8707 15.1913 14.4787 15.5833 13.9957 15.5833C13.5127 15.5833 13.1207 15.1913 13.1207 14.7083V9.69281ZM14.0003 2.91681C7.88933 2.91681 2.91699 7.88914 2.91699 14.0001C2.91699 20.1123 7.88933 25.0835 14.0003 25.0835C20.1113 25.0835 25.0837 20.1123 25.0837 14.0001C25.0837 7.88914 20.1113 2.91681 14.0003 2.91681Z" fill="currentColor"/>
</svg>