<svg xmlns="http://www.w3.org/2000/svg" width="18" height="18" viewBox="0 0 18 18" fill="none">
  <g clip-path="url(#clip0_288_10799)">
    <path d="M13.0002 18H3.00023C2.19885 18 1.4455 17.6879 0.878895 17.1213C0.312294 16.5546 0.000244141 15.8013 0.000244141 15V4.99999C0.000244141 4.19865 0.312329 3.4453 0.87893 2.8787C1.44553 2.3121 2.19888 2.00001 3.00026 2.00001H7.00025C7.55256 2.00001 8.00026 2.4477 8.00026 3.00002C8.00026 3.55233 7.55256 4.00002 7.00025 4.00002H3.00023C2.7331 4.00002 2.48201 4.10405 2.29316 4.2929C2.10432 4.48174 2.00026 4.73287 2.00026 4.99999V15C2.00026 15.2671 2.10428 15.5182 2.29316 15.7071C2.48201 15.8959 2.7331 16 3.00023 16H13.0002C13.2673 16 13.5184 15.896 13.7073 15.707C13.8961 15.5182 14.0001 15.2671 14.0001 14.9999V11C14.0001 10.4477 14.4479 10 15.0002 10C15.5525 10 16.0002 10.4477 16.0002 11V15C16.0002 15.8013 15.6881 16.5546 15.1215 17.1213C14.5549 17.6879 13.8015 18 13.0002 18ZM7.00025 12C6.7443 12 6.48839 11.9024 6.29315 11.7071C5.90264 11.3166 5.90264 10.6834 6.29315 10.2929L14.586 2.00001H11.0002C10.4479 2.00001 10.0003 1.55232 10.0003 1.00001C10.0003 0.447692 10.4479 0 11.0002 0H17.0002C17.1385 0 17.2703 0.0280855 17.3901 0.0788421C17.5019 0.12614 17.6069 0.194677 17.6988 0.284488L17.6988 0.284558C17.6995 0.285222 17.7002 0.285851 17.7008 0.286514C17.701 0.286689 17.7012 0.286899 17.7014 0.287073C17.7019 0.287562 17.7024 0.288086 17.7029 0.28861C17.7033 0.28896 17.7036 0.289274 17.7039 0.289623C17.7043 0.290008 17.7048 0.290427 17.7051 0.290741C17.7058 0.29144 17.7065 0.292173 17.7072 0.292907C17.7079 0.293606 17.7087 0.294374 17.7094 0.295073C17.7098 0.295422 17.7102 0.295876 17.7105 0.296191C17.7109 0.29654 17.7111 0.296854 17.7115 0.297204C17.7121 0.297728 17.7125 0.298217 17.713 0.298776C17.7132 0.298915 17.7134 0.29916 17.7136 0.299335C17.7143 0.299998 17.7149 0.300662 17.7155 0.301326L17.7156 0.301396C17.8054 0.393337 17.874 0.498344 17.9212 0.610127C17.972 0.729944 18.0001 0.861639 18.0001 0.999971V6.99997C18.0001 7.55228 17.5524 7.99998 17.0001 7.99998C16.4478 7.99998 16.0001 7.55228 16.0001 6.99997V3.41424L7.70717 11.7071C7.51208 11.9024 7.25616 12 7.00025 12Z" fill="currentColor"/>
  </g>
  <defs>
    <clipPath id="clip0_288_10799">
      <rect width="18" height="18" fill="white"/>
    </clipPath>
  </defs>
</svg>
