<svg xmlns="http://www.w3.org/2000/svg" viewBox="0 0 16 17" fill="none">
  <path d="M6.62598 1.47058C6.77609 1.40124 6.95092 1.41097 7.09277 1.49597L7.93262 1.9989H7.93164C8.7879 2.50493 9.49686 3.21553 10.002 4.05945C10.0134 4.03499 10.0236 4.00933 10.0361 3.98425C10.108 3.84061 10.2448 3.74056 10.4033 3.71472C10.5619 3.68896 10.7233 3.74086 10.8369 3.85437C11.7927 4.80947 12.695 5.82036 13.3906 7.05066L13.6055 7.4491C14.0969 8.4056 14.5 9.53636 14.5 10.6669C14.5 11.9836 14.2193 13.2926 13.3545 14.33C12.4782 15.3811 11.1572 15.9714 9.46191 16.16L8.81543 16.2313C8.5771 16.2579 8.35321 16.1117 8.28223 15.8827C8.21137 15.6536 8.31274 15.4056 8.52441 15.2928C8.95975 15.0612 9.3073 14.6279 9.5293 14.0126L9.59766 13.7831C9.72401 13.2481 9.62147 12.7125 9.30859 12.204C9.19513 12.0205 9.06971 11.8463 8.93457 11.6571V11.6561C8.66257 11.2772 8.34358 10.8377 8.1582 10.2811L8.08984 10.079L7.91113 10.1913C6.63961 10.9867 6.01323 11.7978 5.79199 12.5975L5.75293 12.7567C5.67022 13.1511 5.74354 13.6543 5.96484 14.1415C6.18523 14.6267 6.52844 15.042 6.91797 15.2802C7.11766 15.4023 7.20549 15.6465 7.12988 15.868C7.05409 16.0897 6.83439 16.2298 6.60156 16.204L6.20508 16.16H6.2041C4.32438 15.9505 2.4612 14.6999 1.71875 12.8348C0.923301 10.8364 1.5376 8.50225 3.90234 6.45203V6.45105C5.00224 5.49782 5.9541 4.17691 6.18262 2.80847L6.34277 1.84265L6.35645 1.78308C6.39691 1.64607 6.49455 1.5314 6.62598 1.47058Z" fill="currentColor" stroke="white" stroke-linejoin="round"/>
</svg>