<svg xmlns="http://www.w3.org/2000/svg" width="19" height="18" viewBox="0 0 19 18" fill="none">
  <path d="M16.8772 15.7388H13.3259C13.3147 15.5288 13.2884 15.2063 13.2284 14.8688C13.0372 13.7813 12.5534 12.8138 11.8672 12.0413C12.4034 11.7713 13.0034 11.625 13.6259 11.625C15.5272 11.625 17.1509 12.99 17.4847 14.8688C17.5559 15.2775 17.2859 15.6638 16.8772 15.7388Z" fill="url(#paint0_linear_475_15786)"/>
  <path d="M13.625 10.875C15.0747 10.875 16.25 9.69975 16.25 8.25C16.25 6.80025 15.0747 5.625 13.625 5.625C12.1753 5.625 11 6.80025 11 8.25C11 9.69975 12.1753 10.875 13.625 10.875Z" fill="url(#paint1_linear_475_15786)"/>
  <path d="M7.625 9.75C9.48896 9.75 11 8.23896 11 6.375C11 4.51104 9.48896 3 7.625 3C5.76104 3 4.25 4.51104 4.25 6.375C4.25 8.23896 5.76104 9.75 7.625 9.75Z" fill="url(#paint2_linear_475_15786)"/>
  <path d="M12.4891 15.0004C12.0649 12.6101 10.0197 10.875 7.62531 10.875C5.23093 10.875 3.18568 12.6101 2.76156 15.0004C2.68956 15.408 2.96143 15.7973 3.36943 15.8696H11.8808C12.2892 15.7976 12.5611 15.4084 12.4891 15.0004Z" fill="url(#paint3_linear_475_15786)"/>
  <defs>
    <linearGradient id="paint0_linear_475_15786" x1="14.6816" y1="11.625" x2="14.6816" y2="15.7388" gradientUnits="userSpaceOnUse">
      <stop stop-color="#EEC47C"/>
      <stop offset="1" stop-color="#E79659"/>
    </linearGradient>
    <linearGradient id="paint1_linear_475_15786" x1="13.625" y1="5.625" x2="13.625" y2="10.875" gradientUnits="userSpaceOnUse">
      <stop stop-color="#EEC47C"/>
      <stop offset="1" stop-color="#E79659"/>
    </linearGradient>
    <linearGradient id="paint2_linear_475_15786" x1="7.625" y1="3" x2="7.625" y2="9.75" gradientUnits="userSpaceOnUse">
      <stop stop-color="#EEC47C"/>
      <stop offset="1" stop-color="#E79659"/>
    </linearGradient>
    <linearGradient id="paint3_linear_475_15786" x1="7.62531" y1="10.875" x2="7.62531" y2="15.8696" gradientUnits="userSpaceOnUse">
      <stop stop-color="#EEC47C"/>
      <stop offset="1" stop-color="#E79659"/>
    </linearGradient>
  </defs>
</svg>
