<svg xmlns="http://www.w3.org/2000/svg" viewBox="0 0 16 17" fill="none">
  <g clip-path="url(#clip0_885_23427)">
    <path fill-rule="evenodd" clip-rule="evenodd" d="M14 10.001V12.6676C14 13.1778 13.8051 13.6686 13.4551 14.0398C13.1052 14.411 12.6266 14.6344 12.1173 14.6643L12 14.6676H8.66667V10.001H14ZM7.33333 10.001V14.6676H4C3.48986 14.6677 2.99899 14.4727 2.62783 14.1228C2.25666 13.7728 2.03326 13.2942 2.00333 12.785L2 12.6676V10.001H7.33333ZM5.778 2.00096C6.67133 2.00096 7.47 2.40629 8 3.04363C8.25298 2.73861 8.56611 2.48902 8.91986 2.31043C9.2736 2.13183 9.66036 2.02808 10.056 2.00563L10.2227 2.00096H10.2667C10.7264 2.00096 11.1673 2.18358 11.4923 2.50864C11.8174 2.83371 12 3.27459 12 3.73429C12 4.01163 11.95 4.27696 11.8593 4.52296L11.7993 4.66763H12C12.5101 4.6676 13.001 4.86251 13.3722 5.21248C13.7433 5.56246 13.9667 6.04103 13.9967 6.55029L14 6.66763V8.66763H8.66667V4.66763H7.33333V8.66763H2V6.66763C1.99997 6.15749 2.19488 5.66662 2.54486 5.29545C2.89483 4.92429 3.3734 4.70089 3.88267 4.67096L4 4.66763H4.2C4.072 4.38296 4 4.06763 4 3.73429C3.99997 3.29349 4.16788 2.86924 4.46958 2.54785C4.77127 2.22647 5.18408 2.0321 5.624 2.00429L5.73333 2.00096H5.778ZM5.778 3.33429H5.73333C5.62725 3.33429 5.52551 3.37644 5.45049 3.45145C5.37548 3.52647 5.33333 3.62821 5.33333 3.73429C5.33333 3.98183 5.43167 4.21923 5.6067 4.39426C5.78173 4.5693 6.01913 4.66763 6.26667 4.66763H7.31733C7.2638 4.29738 7.07866 3.95881 6.79584 3.71394C6.51301 3.46907 6.1521 3.33429 5.778 3.33429ZM10.2667 3.33429H10.222C9.47533 3.33429 8.852 3.85963 8.702 4.56096L8.682 4.66763H9.73333C9.98087 4.66763 10.2183 4.5693 10.3933 4.39426C10.5683 4.21923 10.6667 3.98183 10.6667 3.73429C10.6666 3.63943 10.6329 3.54766 10.5715 3.47537C10.5101 3.40307 10.4249 3.35496 10.3313 3.33963L10.2667 3.33429Z" fill="currentColor"/>
  </g>
  <defs>
    <clipPath id="clip0_885_23427">
      <rect width="16" height="16" fill="white" transform="translate(0 0.667633)"/>
    </clipPath>
  </defs>
</svg>