<svg xmlns="http://www.w3.org/2000/svg" viewBox="0 0 96 45" fill="none">
  <path d="M10.568 44.6089C10.6407 44.5598 10.9626 44.6226 11.0952 44.5902C10.9912 45.034 10.306 44.787 10.568 44.6089ZM20.6672 12.0468C20.5702 12.1655 20.473 12.2841 20.376 12.4027C20.6963 12.4335 21.1063 12.3054 21.4075 12.3702C21.4569 12.3813 21.3712 12.7012 21.4848 12.7012C21.5984 12.7011 21.5262 12.2869 21.6834 12.2225C21.8599 12.1517 22.732 12.3398 23.0201 12.2971C24.0995 12.1359 25.1599 11.7624 26.2632 11.7992C25.1846 12.2479 26.3499 12.4203 26.6464 12.247C26.7119 12.2072 26.6029 11.4347 27.7472 11.4871C28.4744 11.5199 27.9592 12.7113 29.0749 12.0042C28.0625 11.3471 28.9674 11.2863 29.6783 11.1679C29.8004 11.1476 30.8107 11.1343 31.2444 11.0422C31.3927 11.0105 31.5679 10.575 31.7657 10.538C31.9017 10.5128 32.0347 10.7207 32.2365 10.6825C33.1768 10.5067 34.1051 10.3642 35.0628 10.3096C34.6514 11.4263 35.5579 10.694 35.6086 10.7375C35.8731 10.9893 34.8638 11.2095 35.2916 11.331C35.8503 11.2218 36.4125 11.1113 36.9703 11.0007C36.4903 10.9374 37.4605 10.0391 37.7054 10.3516C37.4884 9.44565 40.3824 10.788 40.7411 10.4208C40.8158 10.3436 40.2003 9.97016 41.504 9.99158C41.6452 9.99442 41.6338 10.2792 41.7023 10.2428C41.7434 10.2209 41.8751 9.30149 42.2252 9.747C42.3153 9.86128 42.0628 10.2287 42.3893 10.2826C42.5277 10.3053 42.7703 10.2719 43.1845 10.1392C42.4819 9.32889 45.0902 9.3557 45.598 9.50544C45.4856 9.39961 45.3731 9.29374 45.2607 9.18786C45.7753 9.44094 56.7353 7.83006 56.8422 7.83053C57.2713 7.83231 57.9031 8.04786 58.2892 7.95831C58.7426 7.85382 58.6585 7.29657 59.2274 7.42811C59.081 7.32549 58.9345 7.22285 58.7878 7.1202C59.1635 7.09097 59.5331 7.06234 59.9105 7.03212C59.1702 7.90623 60.1015 7.03765 60.1672 7.01066C60.2723 6.96623 60.1637 7.29309 60.3406 7.22608C60.3585 7.21684 60.2856 6.93731 60.5617 6.85999C61.1369 6.69955 61.1054 7.07085 61.3518 7.02665C61.374 7.02112 61.2535 6.77832 61.6704 6.64812C62.9935 6.23337 61.6958 6.84537 61.6494 6.88904C61.588 6.94681 62.231 7.93959 61.0113 7.74885C61.4198 7.80641 61.5358 8.27289 61.5816 8.27752C61.6224 8.28087 62.2827 8.10449 62.3164 8.08214C62.621 7.86721 62.2764 7.59198 62.3314 7.52347C62.3771 7.46815 63.2578 7.75531 63.2842 6.75237C63.8177 7.58455 63.1997 7.60329 62.5701 7.84843C62.5056 8.04805 63.2499 8.10894 63.2867 8.10223C64.205 7.94803 63.5746 7.29519 63.697 6.79058C63.7619 6.5264 64.2206 6.96662 63.7641 6.36356C64.5861 6.15433 64.1446 6.62184 64.208 6.66951C64.3033 6.73917 64.5621 6.50097 64.6025 6.52008C64.6623 6.54844 64.5147 6.80852 64.7396 6.85354C64.7771 6.85927 65.0527 6.408 64.58 6.29413C65.1786 6.25081 65.0724 5.92334 65.386 6.56604C65.572 5.21809 65.8069 7.27272 65.9777 7.31744C66.4355 7.43389 66.1405 6.45044 66.1546 6.39764C66.2563 6.05751 67.485 6.20148 67.7508 6.00604C67.7627 6.74899 66.8208 6.17489 66.6656 6.34583C66.1397 6.91676 67.5815 6.56071 67.2974 7.54523C67.4409 7.26353 67.5836 6.98187 67.7254 6.7003C68.1656 7.22568 67.7283 7.56425 68.6039 7.19194C68.6646 6.66194 67.9727 7.38381 68.063 6.95892C68.1152 6.70981 68.6368 6.56737 68.626 6.44258C68.6109 6.29284 68.1606 6.55191 68.1975 6.31107C68.2796 5.79141 70.0994 5.95381 68.8227 6.4538C69.1924 6.38045 69.5493 7.32414 69.8211 6.96261C69.9929 6.72859 68.5899 5.58661 70.3823 5.5244C70.5021 5.97861 69.7087 5.78413 69.6948 5.82265C69.6768 5.87848 69.9943 6.89498 70.0266 6.94222C70.1399 7.09709 71.8244 6.22263 72.3017 6.67508C72.0435 6.10168 73.6362 6.32291 73.7641 6.10996C73.7981 6.05156 73.5692 5.71324 73.6084 5.66585C73.8511 5.38223 74.763 5.89346 75.1276 5.84351C75.5415 5.78687 75.4294 5.47908 75.4526 5.47543C75.635 5.45991 75.5319 5.70172 75.6412 5.6808C75.8018 5.6502 76.9545 5.48023 76.9978 5.42536C77.012 5.40819 76.7587 5.08043 76.9934 4.9651C77.0333 4.94519 77.0925 5.37947 77.7872 5.05582C78.6257 4.66563 77.0755 4.63695 77.3562 4.11758C78.0391 4.65221 77.9049 4.01964 78.0679 4.04037C78.1268 4.04799 78.6186 4.51384 79.0459 4.39657C78.7475 4.54454 78.4666 4.68895 78.1703 4.83604C78.4945 4.87261 79.0566 4.64378 79.33 4.70205C79.4618 4.7307 79.4472 5.1932 79.7082 5.13058C79.7621 5.11503 79.7792 3.99197 79.179 4.60971C79.0495 4.23469 79.4288 4.42233 79.5589 4.28413C79.5798 4.26248 79.5411 3.60186 79.8179 3.96369C79.8813 4.05343 79.7407 6.03047 80.7901 4.41595C80.8245 4.36377 80.6293 4.15757 80.6618 4.10063C80.6847 4.06193 81.0418 4.09115 81.072 4.0506C81.1029 4.00738 80.8904 3.78226 80.9258 3.72289C81.1069 3.41729 81.608 4.37673 81.1168 4.39211C81.3014 4.48677 81.4836 4.58182 81.6665 4.67667C81.3433 3.943 81.8796 4.4107 82.0945 4.34381C83.4792 3.91344 82.4331 3.6015 82.6251 3.2953C82.9338 2.80318 82.8897 4.17669 83.3963 3.66569C83.4405 3.61834 82.6337 3.20074 84.0597 3.24198C83.8564 3.30544 83.6683 3.3657 83.4692 3.42805C83.7335 4.14681 84.1859 3.23151 84.2315 3.21141C84.7419 3.00243 84.4397 3.34201 85.1534 2.7996C85.2145 2.75149 85.4089 2.90242 85.5427 2.78C86.0921 2.27617 84.6717 2.72017 84.5657 2.4286C84.5258 2.2842 86.0801 2.00553 86.1563 2.06183C86.4479 2.32436 85.476 2.34377 85.734 2.69102C85.7669 2.74096 86.145 2.65121 86.5916 2.53325C87.2823 2.35217 88.1637 2.09751 88.4439 2.13119C88.974 2.19953 89.4247 3.15083 89.1794 2.02487C89.5589 3.10009 89.5227 2.31799 89.5855 2.31222C90.3655 2.24793 90.3711 2.25817 90.9778 2.00914C91.109 1.95496 91.3033 2.2623 91.3391 2.19452C91.3589 2.15397 91.2251 1.80799 91.3342 1.66626C91.4943 1.47186 92.6864 1.57184 92.8207 1.74556C92.9532 1.92203 92.3721 1.94757 92.55 2.24731C92.9633 2.18067 93.3139 2.0061 93.803 1.91718C94.0085 1.88075 93.9634 2.13346 94.0538 2.11518C94.0757 2.11179 94.8269 1.71097 94.7824 1.63418C94.7149 1.54679 94.0329 1.70082 93.5845 1.77253C93.1252 1.84634 92.7969 1.85763 92.9807 1.6006C93.052 1.50126 93.5301 1.93503 93.3138 1.31446C94.0326 1.19397 55.1628 5.96966 56.1819 5.81255C57.5738 5.59738 58.759 5.45867 59.9682 5.32057C58.9273 5.99072 57.6218 5.85406 56.2575 6.15723C56.1915 6.17197 56.1268 6.18741 56.0631 6.20367C55.8673 6.25186 55.1707 6.34965 55.3303 6.6526C55.6495 6.59926 55.9868 6.52753 56.3224 6.45294C57.3041 6.23517 58.2204 5.99844 59.0118 6.01005C59.0456 6.01082 58.9827 6.32567 59.113 6.34862C59.3569 6.39087 60.0009 5.78197 60.1458 5.88159C60.1714 5.90611 59.829 6.36869 60.0009 6.59001C60.44 7.15836 60.2641 5.75118 60.5463 5.71645C60.7662 5.68866 62.3219 6.10638 62.6062 5.6198C62.9092 5.09893 61.4988 5.54131 61.5396 5.15231C62.4523 4.60549 63.5111 4.83541 64.4437 4.63628C64.4601 4.63239 64.2678 4.36434 64.4727 4.28927C64.8271 4.15919 64.9918 4.55751 65.1824 4.59524C65.3848 4.63506 66.0757 4.46833 66.195 4.60544C66.2097 4.62348 66.1278 5.05602 66.1089 5.07072C65.8289 5.28635 65.6422 4.76975 65.6129 4.76722C65.5057 4.76311 65.437 4.9829 65.342 4.98537C65.1844 4.98935 65.0712 4.81371 64.8665 4.82931C64.7251 4.83944 64.9167 5.18044 64.7815 5.18516C64.7321 5.18514 64.0706 4.44363 64.1601 5.29614C64.1846 5.45713 65.7227 5.39191 67.178 5.26691C68.1606 5.18019 69.0702 5.08065 69.249 4.97446C68.8234 4.9184 68.3834 4.8678 67.9548 4.81969C68.8389 4.95566 69.7812 4.17078 69.9409 5.17125C71.7584 5.0429 72.6942 4.99435 74.1421 4.83181C75.0179 4.73551 75.9803 4.61456 76.9464 4.49024C77.4031 4.50314 77.2633 5.18466 77.969 4.87722C77.7461 4.70403 77.5202 4.53126 77.2993 4.35755C77.6928 4.44103 79.424 4.44224 79.6797 4.26362C79.7122 4.24039 79.6647 3.65206 80.0815 3.53156C80.4525 3.42469 80.5853 3.84933 80.8016 3.89894C80.9837 3.9393 81.1557 3.7937 81.2109 3.8092C81.2527 3.82199 81.3131 4.08518 81.4144 4.116C81.7337 4.21032 81.3689 3.50167 81.8062 4.31238C81.74 4.357 81.6728 4.40177 81.6076 4.44627C81.9859 4.51135 82.5391 4.82088 82.0445 5.10049C81.9596 5.1487 81.9941 4.87869 81.927 4.89028C79.3018 5.37524 81.4817 5.52654 82.3457 4.97344C82.6449 5.31518 83.9567 4.86131 84.0161 4.92929C84.0972 5.02786 83.9132 5.37043 84.2618 5.58402C84.3285 5.62891 86.1396 5.12328 85.5555 5.73534C85.4315 5.86165 84.5359 5.89199 84.3302 5.94095C84.9492 6.6694 85.945 5.32491 86.091 5.33374C86.6549 5.3759 85.1569 6.19603 86.3944 6.10136C87.3576 6.02967 86.3831 5.62368 86.7138 5.33797C86.7689 5.29254 86.904 5.29374 87.0622 5.30306C87.4766 5.32473 88.0982 5.39574 88.0016 4.84333C88.4043 4.70622 88.2149 5.14782 88.2699 5.17049C88.3195 5.18919 89.1217 4.85441 89.4596 4.98669C89.4988 5.00313 89.4251 5.41848 89.4668 5.44744C89.5218 5.49521 90.4887 5.32703 90.5642 5.29218C90.5923 5.26607 90.3029 4.93096 90.4046 4.83737C90.4637 4.78347 90.7626 4.7569 91.136 4.7383C91.4931 4.718 92.0065 4.71639 92.0662 4.66809C92.1448 4.59166 91.5592 4.5706 91.1825 4.54374C90.7963 4.51415 90.5141 4.46124 90.6176 4.25525C90.9545 4.28522 91.4096 4.21651 92.1549 4.14098C92.811 4.04413 94.3407 4.10425 93.567 3.85487C93.5438 3.84645 93.5217 3.83814 93.5006 3.82993C93.5176 3.8372 93.5396 3.84476 93.5667 3.85267C94.4456 4.02901 92.569 3.81992 92.2719 3.81129C92.3358 3.62808 92.6802 3.50957 93.1664 3.48206C93.3992 3.46704 93.6643 3.4773 93.7789 3.48437C93.9008 3.49285 93.8071 3.48423 93.6034 3.48218C93.1534 3.48318 92.9986 3.58734 93.4011 3.78014C92.694 3.4893 93.1852 3.38546 92.8077 3.13999C92.7587 3.10939 92.5057 3.09009 92.3017 3.07603C92.0925 3.0613 91.9327 3.04701 91.8799 3.00111C91.8728 2.99175 91.9922 2.92048 92.1428 2.83988C92.2893 2.75909 92.4611 2.67095 92.3759 2.61412C92.2101 2.50711 91.5957 2.51401 91.4311 2.5356C91.2303 2.55806 91.3847 2.56068 91.4135 2.58323C91.5028 2.64793 91.3948 2.75616 91.3836 2.85786C91.3606 2.96109 91.5168 3.04742 91.566 3.16513C91.5712 3.18306 91.4528 3.33107 91.479 3.45923C91.4924 3.58914 91.6321 3.69729 91.6395 3.7175C91.6929 3.93924 91.5704 3.9932 91.5715 4.01926C91.5617 4.04689 91.6799 4.05028 91.6812 4.25727C91.5934 4.35728 91.6216 4.44223 91.7373 4.50947C91.5209 4.82538 91.7755 4.64524 93.4689 4.83841C93.7613 4.88373 93.6663 4.88957 93.4671 4.88254C93.268 4.87648 93.0078 4.87251 92.8067 4.88414C92.3874 4.9062 92.1194 4.97234 91.9677 5.06909C92.269 5.05381 92.6413 5.05145 93.0563 5.07807C93.453 5.10362 93.8708 5.15395 93.442 5.1042C92.3092 5.01111 91.9544 5.1693 91.8519 5.32417C91.7549 5.49161 91.8724 5.72691 91.9302 6.11346C91.9674 6.33431 91.9656 6.51458 91.9944 6.64749C92.0203 6.78082 92.0799 6.86784 92.0827 6.92495C92.0927 7.12879 92.0422 7.12774 92.0751 7.06476C92.099 7.00307 92.1951 6.87913 92.2052 6.88827C92.2219 6.91048 92.2327 6.93313 92.2374 6.95623C92.2584 7.07365 92.1048 7.20509 92.0971 7.29339C92.0745 7.38334 92.2256 7.43479 92.2491 7.48823C92.2843 7.58208 92.2457 7.8342 92.2468 8.08126C92.2438 8.3287 92.2814 8.56928 92.2937 8.65641C92.2948 8.6743 92.3033 8.72881 92.3676 8.81266C92.4299 8.89678 92.5115 9.01644 92.4587 9.17386C92.409 9.33293 92.3769 9.41815 92.4128 9.45803C92.4448 9.49856 92.5219 9.4954 92.5288 9.51055C92.5733 9.59718 92.4613 9.7064 92.4508 9.78741C92.4283 9.86923 92.547 9.92832 92.5596 9.98369C92.5639 10.0111 92.5055 10.1139 92.5039 10.2193C92.4983 10.3251 92.543 10.43 92.5517 10.4781C92.5554 10.5774 92.5467 10.793 92.6182 11.0993C92.6424 11.329 92.6161 11.5073 92.6304 11.5427C92.6273 11.5592 92.6246 11.553 92.7975 11.5763C92.8963 11.5944 92.4918 11.5545 92.4931 11.5739C92.3933 11.6241 92.6671 11.9292 92.6102 11.9931C92.5503 12.082 92.1421 11.9519 92.1921 12.059C92.2004 12.0781 92.2947 12.1521 92.4278 12.2637C92.5577 12.3743 92.735 12.5279 92.6898 12.6569C92.6025 12.9403 92.7646 13.2549 92.7708 13.3831C92.7411 13.3878 92.6476 13.3807 92.617 13.3853C92.5743 13.8158 92.6725 12.8252 92.5031 14.5243C92.5614 14.5154 92.7392 14.5372 92.7976 14.5284C92.8031 14.5406 92.9662 14.4046 92.9723 14.4134C93.1392 14.7092 92.527 15.2711 93.3256 15.0842C92.6235 15.4652 92.464 15.5635 92.6229 15.766C92.7655 15.9582 93.1419 16.1346 93.0251 16.5097C92.9711 16.6823 92.6277 16.8183 92.272 16.8504C92.0418 16.8714 92.0358 16.8972 92.0247 16.9135C92.0148 17.1535 92.0717 17.1148 92.2437 17.1306C92.322 17.1371 92.3871 17.1506 92.4252 17.2092C92.445 17.2399 92.3597 17.2937 92.2215 17.3513C91.8752 17.4709 91.9256 17.7095 91.901 17.8766C91.9189 17.9336 91.834 17.9481 92.1577 17.9948C92.5822 18.0502 92.9357 18.0171 92.9605 18.0307C93.3955 18.2346 92.8922 18.5169 92.9894 18.6745C93.0883 18.787 93.7038 18.729 93.6996 18.7448C93.7119 18.7635 93.565 18.9095 93.329 19.068C93.1002 19.2279 92.7517 19.3883 92.6146 19.4637C92.4167 19.5871 93.1517 19.7642 93.0159 19.8172C92.7736 19.9308 92.3714 19.9185 91.9734 19.8484C91.5748 19.7737 91.7203 19.7439 91.6982 19.7949C91.6993 19.8216 91.6881 19.8712 91.6713 19.9588C91.6727 20.0475 91.5874 20.1686 91.9192 20.3855C91.9441 20.4002 91.968 20.4152 91.9929 20.4304C92.1501 20.5241 92.9141 20.5052 92.9158 20.5109C93.2756 20.7596 92.4875 20.8736 91.8611 20.9672C91.7459 20.9885 91.6818 21.0176 91.6473 21.0572C91.5413 21.2084 91.5747 21.2867 91.8231 21.3519C92.2059 21.4469 92.6706 21.4587 91.8053 21.5331C91.6953 21.5393 91.5882 21.5454 91.5275 21.56C91.5754 21.5901 91.667 21.6241 91.7928 21.657C93.1925 21.9977 93.8693 21.8362 94.5227 21.6651C93.9111 21.8582 92.707 22.166 91.732 22.2659C91.4322 22.3026 91.385 22.3637 91.366 22.4326C91.351 22.5011 91.3635 22.5728 91.3552 22.6387C91.35 22.7051 91.3239 22.7656 91.3155 22.8222C91.3151 22.8789 91.3117 22.9347 91.6574 23.0144C92.3585 23.1776 93.371 23.2076 94.1264 23.0977C93.5608 23.1602 93.1524 23.3343 92.9237 23.5029C92.6826 23.6699 92.5887 23.838 92.271 23.8339C92.1761 23.8317 91.9262 23.7874 91.5877 23.718C90.9868 23.5925 91.281 23.5686 91.3842 23.6746C91.4944 23.7804 91.5376 24.035 91.2831 24.573C91.2602 24.6345 91.1293 24.6346 91.0911 24.6357C91.0356 24.6343 91.2444 24.6626 91.4878 24.7201C91.69 24.7695 91.7528 24.8322 91.5164 24.9272C91.5 24.9254 91.4837 24.9235 91.4673 24.9215C90.7923 24.8334 91.1152 24.8644 91.1958 24.8731C91.3151 24.8856 91.3979 24.8963 91.4356 24.9084C91.5118 24.9317 91.4684 24.9642 91.3542 24.9946C91.2502 25.0266 91.0227 25.0442 91.0291 25.0813C91.0213 25.1179 91.3804 25.1909 91.3766 25.2016C91.3683 25.3097 91.0843 25.3609 91.0029 25.4133C90.9094 25.4649 91.1409 25.5407 91.3736 25.5836C91.863 25.6696 92.0018 25.6423 91.9418 25.6202C91.8149 25.5689 91.2326 25.4818 91.1056 25.5485C90.7776 25.704 90.5325 26.4238 90.4514 26.4362C90.1821 26.4749 90.3565 26.1021 90.2782 25.9854C90.2562 25.9531 90.188 25.9894 90.0946 26.0591C89.8638 26.2366 89.473 26.6351 89.4403 26.6138C89.256 26.4948 89.3583 26.0662 89.3391 26.0484C89.1058 25.8302 87.9988 26.3289 87.6517 26.2896C87.7036 26.5493 88.3652 26.4642 88.0229 26.95C87.6248 27.5162 87.4074 26.3695 87.3866 26.3207C85.1768 26.6912 82.9127 27.0874 80.5922 27.4754C80.7226 28.0839 82.1601 27.3737 82.2033 27.449C82.4895 27.8932 79.9299 28.3034 79.5639 28.1372C79.8287 28.231 80.0906 28.3247 80.3554 28.418C80.059 29.1891 78.9882 28.4205 78.4159 28.8262C78.2281 28.9582 78.6572 29.1714 78.6515 29.1913C78.4725 29.4993 78.0654 29.3446 78.2858 28.9349C77.9665 29.2153 77.8481 29.1505 77.7004 29.0764C77.614 29.036 77.5143 28.9931 77.3576 29.005C77.3337 29.0071 77.5696 29.2645 77.2301 29.4336C77.0783 29.5125 76.1775 29.6354 76.086 29.9C76.0489 30.0119 76.6622 31.0585 76.5888 30.0979C77.6299 30.4286 76.8445 29.6209 77.2195 29.5909C77.2685 29.5881 77.2381 30.0026 77.8152 29.8595C77.9013 29.8379 78.0009 29.8034 78.1187 29.7521C78.1097 30.0248 78.0122 30.1793 77.875 30.2623C77.5091 30.4802 76.8482 30.2143 76.7204 30.3166C76.441 30.5427 77.3921 30.7595 77.9063 30.4754C78.0527 30.3934 78.1668 30.2687 78.2061 30.0906C78.1851 30.8572 78.3299 30.1753 78.6728 30.1542C79.0417 30.1317 78.9208 30.3777 79.1158 30.3488C79.6533 30.2706 79.3444 29.7795 79.8577 30.1848C79.2042 28.7823 80.566 29.8735 80.9595 30.2039C80.429 30.3663 79.8923 30.5288 79.3416 30.6912C79.3864 30.7634 79.4302 30.8355 79.475 30.9076C79.3224 30.9203 79.1777 30.9316 79.0231 30.9442C79.0361 30.8665 79.049 30.7887 79.061 30.711C78.3608 31.3116 78.0696 30.7999 78.0075 30.8032C77.9896 30.8046 77.9726 30.8058 77.9546 30.8071C77.1103 30.8715 76.1068 31.0116 75.2066 31.1134C75.0733 31.1277 75.2036 31.6071 74.1901 31.331C73.8754 31.2414 74.1184 30.8357 73.7897 30.9263C73.4849 31.9915 73.4201 31.1726 73.3055 31.1827C72.9851 31.2146 72.8449 31.4852 72.8174 31.4907C72.4688 31.5659 72.0254 31.5717 71.7014 31.6504C71.6959 31.6549 71.9058 31.9478 71.6794 31.8815C71.6292 31.8656 71.2514 31.3201 70.8126 31.101C70.5845 30.9854 70.3338 30.9606 70.1221 31.1457C70.3139 31.209 70.4998 31.2738 70.6798 31.34C70.4813 31.2365 69.0441 31.8044 69.4633 32.1051C69.7224 32.2874 70.1276 31.3451 70.3082 32.1645C69.8193 31.9761 67.0561 32.8164 66.8016 32.6693C66.7663 32.6473 66.9068 32.347 66.8589 32.3202C66.8216 32.2995 66.1841 32.4776 66.0802 32.3906C66.018 32.3388 66.275 32.1238 66.2348 32.0316C66.2021 31.9661 65.3706 31.9981 65.387 32.3416C65.5598 32.1708 66.1399 32.1876 65.898 32.5226C65.867 32.5644 65.6327 32.3838 65.5953 32.4365C65.247 32.9235 66.4934 32.5958 66.6915 32.5657C65.9719 33.132 64.6448 32.8555 63.8187 33.3062C63.4059 33.0983 64.2671 32.7773 63.8157 32.6261C62.8854 32.3132 63.6691 33.054 63.6488 33.0947C63.4957 33.4153 62.5089 32.0535 62.7496 33.1947C62.4461 33.0828 62.4849 32.9263 62.1799 33.1331C62.1734 33.1375 62.1667 33.1422 62.1599 33.1469C62.1698 33.1574 62.1798 33.168 62.1898 33.1785C62.2424 33.2369 62.2962 33.295 62.3514 33.353C62.3273 33.4215 62.2964 33.4712 62.2614 33.5044C61.9163 33.8309 60.9284 32.6175 60.9364 32.4942C61.0426 32.1083 61.5901 32.5355 61.6209 32.5157C61.6569 32.4932 61.6018 31.8612 61.9001 31.8589C62.0094 31.8588 62.1762 31.9471 62.4197 32.1921C62.4848 31.7141 62.0837 31.6859 61.8483 31.6229C61.669 31.5768 61.5628 31.5132 61.755 31.234C61.5614 31.3218 61.1001 31.307 60.5711 31.3549C60.04 31.403 59.3706 31.5227 59.2564 31.7302C59.2287 31.784 59.6029 32.5058 58.9447 32.2551C58.6345 32.1347 59.2723 31.9667 59.1061 31.8224C58.5538 31.418 93.7137 27.8656 92.8553 28.0599C92.7967 28.073 92.7681 27.8284 92.7105 27.8428C92.5721 27.877 92.2427 28.1524 91.9231 28.2782C91.8188 28.3206 91.7172 28.3446 91.6301 28.3327C92.37 28.6436 91.1144 28.9391 90.7816 28.9555C90.2756 28.981 90.2258 28.5504 89.9946 28.5037C89.1144 28.3213 88.0625 29.5764 87.2417 28.7615C87.4637 29.6872 86.0683 28.5173 85.556 28.6082C85.1552 28.6793 84.6989 29.4085 85.3092 29.6808C84.6095 29.7719 83.9126 30.0864 83.2824 30.2652C83.1773 30.2951 83.2721 29.9908 83.0941 30.0506C83.0782 30.058 83.1071 30.3331 82.9543 30.3912C81.7075 30.8719 82.2265 30.1773 81.9526 30.054C81.7987 29.9848 81.6882 29.9568 81.6119 29.955C82.3615 29.7596 83.2081 29.4881 83.4367 29.4364C83.1286 28.8761 81.7882 29.8686 81.3281 29.7878C81.3121 29.7847 81.302 29.4454 81.2865 29.4459C81.1234 29.4506 80.1115 29.7651 80.3982 30.1185C80.4705 30.2137 80.9534 30.1237 81.5029 29.9836C81.3661 30.0856 81.5479 30.4337 81.5243 30.4545C81.2363 30.6977 80.3666 30.4868 80.0773 30.49C80.0106 30.4913 80.0591 30.7272 80.0486 30.7297C79.7802 30.7238 79.7616 30.0282 79.624 30.7745C79.0016 30.0184 80.4786 30.487 80.2801 29.9577C80.1288 29.5517 77.2037 30.3223 77.327 30.9843C77.304 30.9151 77.2475 30.8343 77.146 30.749C76.9238 30.5593 76.1001 30.7796 75.9836 30.9267C75.9639 30.955 76.089 31.5982 76.0604 31.6094C75.9906 31.6374 74.8823 31.3135 74.5749 31.7609C74.7954 31.815 75.0135 31.8695 75.2343 31.9236C74.0051 32.1474 74.2251 32.3059 74.6727 32.4259C74.6936 32.4239 74.718 32.4449 74.7381 32.444C75.0814 32.5303 75.5141 32.595 75.5305 32.6445C75.5867 32.8356 73.5088 33.3137 73.8078 32.6437C73.8466 32.5527 74.8691 32.6471 74.3112 32.3052C74.2119 32.2457 73.6133 32.4766 73.5721 32.4351C73.2982 32.1608 74.5846 31.5058 74.34 31.0903C74.0835 31.5722 73.6221 31.4234 73.2636 31.5989C73.1 31.6784 73.114 32.0093 73.0938 32.0192C72.7895 32.1593 72.9094 31.7889 72.8043 31.8159C72.7466 31.832 72.2506 32.662 72.1952 31.6462C70.2571 32.7346 71.7532 32.4773 73.0062 32.2009C72.668 32.6336 71.8563 32.5936 71.5167 32.7386C71.3963 32.7907 71.5281 33.1101 71.3268 33.2131C70.9104 33.4263 68.7467 33.4001 68.1849 33.4002C68.5019 33.2266 68.3429 32.8808 68.0874 32.9492C67.8315 33.0177 68.1306 33.4648 68.0885 33.5252C68.0401 33.5889 66.7913 33.5612 66.5954 33.6574C67.486 33.3308 67.2185 33.0039 66.4331 33.0943C66.5278 32.9718 66.6244 32.8491 66.7197 32.7264C66.2867 32.9482 65.2418 32.5526 65.0038 32.7594C64.9669 32.7925 65.1639 33.0724 65.1432 33.091C64.935 33.2574 64.0986 33.074 64.078 33.1836C64.0608 33.2749 64.438 33.4758 64.3334 33.6213C64.3123 33.6519 63.9191 33.2935 63.6193 33.4449C63.5074 33.5009 63.6242 33.7772 63.5972 33.7986C63.3712 33.9764 63.4408 33.4689 62.9992 33.6187C62.675 33.7291 62.502 34.2418 62.0182 34.157C63.6208 34.5233 62.3153 34.4711 61.7105 34.7528C61.614 34.7977 61.7805 35.3069 61.1363 35.1466C62.2777 34.0016 60.6927 34.7046 60.3516 34.7461C60.3324 34.7457 60.2731 34.4021 60.1058 34.4222C60.0918 34.4247 60.1478 34.6544 59.9956 34.696C58.5584 35.0877 48.5299 35.9751 48.2171 35.7878C48.084 35.708 47.4199 36.1452 47.2301 36.1818C47.186 36.1892 47.1701 35.9441 47.0009 35.9791C46.7015 36.0416 46.4686 36.3398 46.2713 36.3899C46.2682 36.3906 46.2642 36.3838 46.259 36.3723C46.2265 36.2998 46.1412 36.0376 45.8316 36.1925C45.7306 36.2428 45.6313 36.396 45.7983 36.4836C45.9424 36.5585 46.1071 36.562 46.2826 36.5309C46.7848 36.4424 47.3703 36.0759 47.8297 36.2791C48.3957 36.5295 46.7731 36.8056 46.6875 36.8198C46.6566 36.8257 46.9469 36.5885 46.6176 36.5992C46.5295 36.6023 46.4289 36.6767 46.3188 36.7748C46.0794 36.9894 45.7946 37.3175 45.4975 37.2604C45.4645 37.2543 45.0538 36.7428 45.0641 36.7079C45.0746 36.6821 45.5611 36.4866 45.4641 36.3354C45.4527 36.3183 45.1328 36.3691 45.0732 36.2546C45.0004 36.1153 44.6518 34.6949 44.5784 34.6688C44.3907 34.605 44.5523 34.9169 44.4359 34.9106C44.1866 34.8979 43.2831 34.5933 43.3273 35.0967C43.471 35.1063 43.6145 35.1159 43.7579 35.1254C42.9905 35.2884 43.3513 35.4534 43.2551 35.5628C43.1517 35.6811 43.1219 35.2373 42.8554 35.2334C42.798 35.2326 41.7183 35.4796 41.7649 35.6607C42.3269 35.282 42.1803 35.8562 42.2095 35.8621C42.3204 35.8824 42.4123 35.5588 42.5551 35.5446C43.5597 35.4497 42.6221 36.0739 42.8753 36.1639C42.9624 36.1938 43.0868 35.9108 43.1231 35.9192C43.241 35.9463 43.2916 36.2863 43.3623 36.248C43.5273 36.1591 43.2548 35.7069 43.2651 35.6799C43.3772 35.3564 44.0421 35.643 43.7374 36.2216C43.993 36.3774 43.9277 35.7371 44.1454 35.9654C44.578 36.417 44.0206 36.3658 43.8863 36.4705C43.4048 36.8481 43.2158 36.6259 42.4857 36.8152C42.2226 36.8827 41.95 37.2367 41.8287 37.2712C41.752 37.293 40.8649 36.3198 41.0785 38.0076C40.7677 37.8849 40.1658 36.8367 39.878 36.9283C39.6197 37.0111 39.7861 37.5957 39.7647 37.6222C39.7318 37.6637 39.4045 37.6608 39.3079 37.76C39.1947 37.8769 39.2894 38.0959 39.1008 38.2162C38.6312 38.515 38.5612 37.9044 38.5043 37.8718C37.8441 37.4959 38.2234 38.3262 38.1001 38.4137C37.9855 38.4946 36.2099 38.3939 35.8759 38.6608C36.0079 38.5191 36.1396 38.3775 36.2714 38.2358C35.9561 37.8913 35.7574 38.5481 35.6622 37.8676C35.7544 38.9745 35.1086 38.3118 34.9491 38.3617C34.8859 38.3819 34.9157 38.5687 34.8359 38.5874C34.5241 38.662 33.7902 38.6061 33.6313 38.7233C32.942 39.2292 34.9304 39.6625 35.0855 39.6833C34.785 39.7111 33.1219 40.1782 33.9695 40.6057C34.1008 40.6715 34.2503 40.1513 34.3153 40.1233C34.7568 39.9366 34.4543 40.4248 34.4957 40.4621C34.5657 40.5218 34.8112 40.0559 34.8974 40.0962C34.926 40.1091 34.8077 40.5309 35.2454 40.4819C35.0822 40.8976 33.8109 40.7428 33.6627 40.8543C33.6096 40.8942 34.0767 41.6754 32.9217 41.0073C32.9438 41.0826 32.9659 41.1579 32.988 41.2331C32.4061 41.3404 31.827 41.4467 31.2453 41.5528C31.2864 41.3677 31.5696 40.9703 31.1655 41.0984C30.9333 41.1723 31.1593 41.5443 31.139 41.5585C30.9392 41.6958 27.1451 42.0373 26.4206 42.169C26.1739 42.2138 25.519 42.6157 25.4669 42.628C25.1554 42.6983 24.0108 42.6274 23.7939 42.6989C23.6581 42.7445 23.8302 43.0584 23.704 43.0579C23.5865 43.057 23.6679 42.7237 23.632 42.7145C23.3337 42.6335 21.2229 43.3101 20.6754 43.0694C20.9987 43.123 22.4874 42.2992 22.4285 42.0779C22.418 42.0479 22.0094 41.8507 21.9451 41.9783C21.7828 41.7176 21.4384 42.6114 21.1767 42.475C21.1472 42.4595 21.1986 41.9751 20.7575 41.9406C20.6055 41.9289 20.2601 42.3427 19.8198 41.9767C19.2764 42.2424 16.2282 41.9778 16.084 42.5077C16.0811 42.5352 16.5201 42.6612 16.2613 42.902C15.9172 43.2222 16.147 42.2516 15.6994 42.222C15.6317 42.2175 14.4237 42.4524 14.3904 42.5146C14.0813 43.08 15.1712 43.1692 15.1633 43.2316C15.1438 43.389 14.269 43.5836 14.2289 43.5516C14.1904 43.518 14.8326 42.7421 13.9952 43.1047C14.1042 43.176 14.2131 43.2473 14.3221 43.3187C13.9324 43.5269 13.8384 43.052 13.7363 43.0341C13.4188 42.9767 13.1699 43.7428 12.575 42.8998C12.4176 42.676 12.6033 42.3863 12.5829 42.3524C12.3899 42.049 12.2888 42.9311 11.9808 42.3169C11.9577 42.2712 12.4601 41.8249 11.5053 41.9329C11.578 41.9868 11.6507 42.0408 11.7234 42.0948C11.6045 42.2473 10.6467 42.4391 10.5132 42.4213C10.1227 42.3697 10.4038 41.8909 10.0281 41.987C10.3417 42.5638 9.18957 42.7744 9.19757 42.2463C9.10972 42.9184 8.06681 42.5257 7.60222 42.5624C7.30907 42.5861 6.74536 42.9386 6.64878 42.9157C6.53111 42.8876 6.51513 42.4377 6.29991 42.3614C6.23855 42.3397 5.66788 42.735 5.08282 42.3333C4.96947 42.256 4.66753 41.5239 4.83819 41.3132C5.13042 40.9527 5.82078 41.4922 5.76251 41.0461C5.69935 40.569 4.89394 40.9476 4.66163 40.9105C3.58909 40.7388 4.13257 40.1629 4.08849 40.0118C3.9771 39.6457 3.41022 39.7211 3.38273 39.6902C3.2677 39.5518 3.63708 39.2107 3.6175 38.9817C3.59144 38.6838 2.9836 38.209 3.09685 38.0949C3.25905 37.9326 3.81252 38.323 3.84204 38.2981C4.22497 37.9632 3.5785 37.3406 3.38373 37.0209C3.3245 36.9225 3.49484 36.7306 3.45199 36.7047C2.79822 36.3105 3.43351 37.6838 3.02244 37.6335C2.65574 37.5887 3.0646 37.0859 3.04817 37.0626C3.02744 37.0372 2.59769 37.0605 2.51294 36.9084C2.47099 36.8322 3.48232 35.83 3.39175 35.4417C3.04738 35.5682 2.70295 35.6947 2.35868 35.8211C2.27333 35.3112 2.82493 35.6317 2.87172 35.5729C2.96585 35.4548 2.64095 35.2284 2.63545 35.0648C2.63066 34.9609 2.93638 34.5537 2.6058 34.4373C2.49218 34.397 2.30648 34.7821 1.87284 34.4586C3.18565 33.8359 2.20699 33.6538 2.14635 33.4766C2.08653 33.2993 4.69033 32.7985 3.90762 32.9629C3.76123 31.9683 3.88924 32.6454 4.09435 32.4447C4.34555 32.198 3.67203 31.9407 4.70672 32.0771C4.59691 31.6161 3.79161 31.7401 3.74459 31.7076C3.70381 31.6779 3.85783 31.4278 3.78496 31.3571C2.92518 30.539 3.49238 30.893 3.20799 30.3409C3.18266 30.2915 2.44187 30.1581 2.97814 30.0129C3.95512 29.7487 4.44501 30.3643 4.45297 28.9294C3.64856 28.3969 2.86042 29.4109 2.63857 29.4516C2.29895 29.5122 2.62094 29.1837 2.56971 29.1075C2.55213 29.083 2.25999 29.1398 2.25345 29.1173C1.92203 28.0609 3.56394 28.9522 4.02216 28.7105C3.87549 28.5632 3.72888 28.4159 3.58222 28.2685C3.75581 28.2425 3.92936 28.2165 4.10298 28.1904C3.23602 27.9585 4.05988 28.0706 4.1687 27.1728C4.19311 26.971 3.68546 27.3694 4.24639 26.7532C3.77327 26.6787 3.89953 26.4836 3.51169 26.7768C3.48302 26.4251 4.37369 25.9246 4.72209 25.7033C3.37527 25.4558 4.26242 26.6581 3.05985 26.1042C2.89971 26.5617 3.42783 26.4168 3.39203 26.4935C3.26367 26.7687 2.84907 26.4011 2.50542 27.3536C2.44959 27.5099 2.80735 27.9317 2.35123 27.9605C2.30071 27.9631 1.96792 27.6056 1.96875 27.5769C1.97283 27.2674 2.27168 27.3496 2.26919 27.2209C2.26675 27.0991 1.95578 27.2074 1.95092 27.174C1.89821 26.7927 2.20077 26.998 2.14723 26.8827C2.03143 26.6321 0.791295 25.9378 2.31632 26.0108C1.12062 26.5829 2.2044 26.451 2.67031 26.2305C2.7892 26.1751 2.79485 25.9431 2.962 25.844C3.17691 25.7159 3.45424 25.7958 3.56669 25.7407C3.68751 25.6803 2.91086 25.2207 3.96452 25.2656C3.37715 24.7877 2.51062 25.4649 1.95042 25.1458C0.820246 24.5008 2.57494 24.1383 2.75126 24.0437C2.7982 24.0181 2.59864 23.7282 2.62931 23.7055C2.67971 23.6706 3.70164 23.7002 3.77215 23.4338C3.84241 23.1676 3.40502 23.4869 3.34406 23.2243C3.30297 23.0477 4.48055 22.5937 3.81001 22.5451C3.34788 22.512 2.59418 23.3255 2.36671 22.5676C3.0254 22.4288 3.68404 22.2899 4.34238 22.151C3.94501 21.8976 3.5476 21.6442 3.15013 21.3907C3.88694 21.2135 4.5699 21.4732 5.23185 20.972C3.42119 20.2204 5.70058 20.1569 5.71217 20.0392C5.71276 19.9696 4.95597 19.2795 4.83227 19.1516C5.39354 18.7902 7.18193 18.4427 6.01947 17.6164C6.23523 17.8083 6.63968 17.229 6.62904 17.1899C6.52309 16.7789 5.5416 17.1639 5.66411 16.768C5.80607 16.3087 6.14107 16.8724 6.42989 16.7917C7.91126 16.374 7.25054 14.2406 8.80108 14.4142C8.76222 14.34 8.72334 14.2657 8.68447 14.1915C10.3409 14.1287 11.9952 14.0648 13.6481 13.9993C14.2126 13.2599 15.8698 12.6569 16.7136 12.6326C16.8838 12.6273 17.7511 12.8796 17.8205 12.9335C17.9498 13.0373 17.3202 13.1566 17.633 13.343C17.6988 13.3812 19.1151 13.3629 18.9709 13.0023C18.8092 12.9777 18.3407 13.2228 18.2499 13.1445C17.6137 12.5857 19.9799 12.5743 20.1611 12.2949C20.0514 12.1854 19.9417 12.076 19.832 11.9666C20.1103 11.9934 20.3884 12.0202 20.6672 12.0468ZM11.5669 43.4258C11.4439 43.8184 10.9964 43.585 10.7634 43.7178C10.4415 43.9032 10.0288 45.4078 10.1131 43.9372C10.5976 43.7668 11.082 43.5964 11.5669 43.4258ZM18.9174 43.1409C18.559 42.9795 18.7243 42.1438 19.0379 42.4463C19.0728 42.4809 19.4023 43.3578 18.9174 43.1409ZM15.3651 43.167C15.3779 43.1547 15.6694 43.1427 15.6809 43.1541C15.9776 43.4476 15.0985 43.4822 15.3651 43.167ZM32.3045 40.6969C31.9382 40.7791 32.3005 41.4758 32.4924 41.1453C32.5045 41.1243 32.3286 40.692 32.3045 40.6969ZM32.0384 40.7113C31.6669 40.0934 31.2557 41.4944 31.7003 41.3019C31.7433 41.2827 32.0558 40.7414 32.0384 40.7113ZM17.6867 42.9605C17.6951 42.7048 18.0543 42.7858 18.2086 42.8287C18.2315 43.0586 17.828 42.9155 17.6867 42.9605ZM26.4467 41.843C26.4375 41.6439 25.234 41.8021 25.1843 42.0721C25.3602 41.9388 26.455 42.0222 26.4467 41.843ZM29.5024 41.1824C29.4676 41.1522 29.0579 41.2562 29.0917 41.4288C29.3237 41.6318 29.6593 41.3196 29.5024 41.1824ZM35.6576 40.4019C35.6744 40.3552 35.2153 39.2896 36.0528 39.92C36.1758 40.0122 35.8255 40.3531 35.8694 40.3877C35.9607 40.4544 36.0295 40.482 36.0818 40.4817C35.7488 40.6193 35.3949 40.7098 35.3518 40.6471C35.1471 40.3514 35.6497 40.4215 35.6576 40.4019ZM38.7829 39.1428C38.8295 38.9527 39.2967 38.987 39.4101 39.0472C39.4298 39.0586 39.4175 39.5437 39.6173 39.48C39.7779 39.4281 39.4652 38.9762 39.7964 39.0098C40.131 39.0432 39.746 39.449 39.7777 39.4698C39.8202 39.497 40.291 39.2097 40.3144 39.4943C40.3318 39.7052 39.7753 39.6378 39.6485 39.7005C39.4865 39.781 39.7403 40.1014 39.4463 40.0654C39.2616 40.043 39.2765 39.4163 39.2347 39.3906C39.1998 39.3699 38.6248 39.8079 38.7841 39.1445L38.7829 39.1428ZM36.1716 40.4421C36.1484 40.4663 36.1193 40.4813 36.0818 40.4817C36.1121 40.4691 36.1419 40.4553 36.1716 40.4421ZM12.5004 43.0459C12.6957 43.2157 12.2083 43.5177 11.985 43.2916C11.9588 43.0917 12.4692 43.0196 12.5004 43.0459ZM36.4251 39.9001C36.9577 39.9854 36.6096 40.2471 36.1716 40.4421C36.3011 40.3075 36.2463 39.8716 36.4251 39.9001ZM21.9451 41.9783C21.972 42.0216 21.9942 42.0915 22.01 42.2086C21.9382 42.0869 21.9248 42.0186 21.9451 41.9783ZM23.1595 42.0454C23.5244 41.6388 22.6975 41.7528 22.7334 42.008C22.7474 42.1043 23.1448 42.0616 23.1595 42.0454ZM32.7847 40.6705C32.7429 40.6403 33.1858 39.4869 32.4451 40.405C32.9124 40.4741 32.4515 40.6529 32.4709 40.7463C32.5239 41.0156 33.2489 40.6569 33.4316 40.7523C33.4999 40.2497 32.9226 40.7699 32.7847 40.6705ZM44.6612 38.5826C44.5994 38.8815 44.2588 38.8375 44.0353 38.8526C44.0977 38.5537 44.4381 38.5979 44.6612 38.5826ZM71.4829 31.999C71.2793 32.0746 71.105 32.0988 70.952 32.0907C70.3554 32.0618 70.2445 31.5161 70.8748 31.5411C70.9649 31.5449 71.0626 31.5619 71.1801 31.5938C71.203 31.6002 71.5373 31.8723 71.4829 31.999ZM60.483 33.7341C60.2169 33.2765 60.6654 33.0768 60.9615 33.219C61.0317 33.2501 61.3575 33.7002 61.151 33.8561C61.0129 33.254 60.5684 33.1237 60.483 33.7341ZM36.6714 39.5381C36.7757 39.1816 37.2676 39.3595 37.5164 39.3775C37.4062 39.6745 36.8996 39.615 36.6714 39.5381ZM67.1195 32.0667C66.9682 32.0538 66.9469 32.5073 66.9781 32.5393C67.1183 32.6864 67.327 32.2868 67.1195 32.0667ZM35.1821 39.6825C35.1343 39.4841 35.7174 39.21 35.8255 39.7019C35.6908 39.6832 35.2134 39.8069 35.1821 39.6825ZM44.2232 38.492C44.1136 38.4036 44.5781 38.1497 44.741 38.2295C44.7603 38.4451 44.2949 38.5495 44.2232 38.492ZM64.8298 32.6315C64.6946 32.6175 64.3758 32.6659 64.3752 32.8486C64.3732 33.0767 64.8214 32.9141 64.8298 32.6315ZM90.2179 28.4024C90.2442 28.4796 89.8593 29.124 89.6117 29.0142C89.1534 28.8007 90.2032 28.3459 90.2179 28.4024ZM68.4449 31.6108C68.9181 31.9602 68.402 31.6313 68.4926 32.0661C68.7684 32.0364 69.4386 31.9511 68.9101 31.5943C68.8058 31.5255 68.5772 31.6181 68.4449 31.6108ZM68.0466 31.5264C68.0269 31.6755 67.8083 32.1718 68.0566 32.0971C68.1709 32.062 68.2759 31.534 68.0466 31.5264ZM87.1039 29.096C86.6595 28.7704 88.4448 28.6927 88.4994 28.7547C88.5314 28.7864 88.5532 28.8176 88.5675 28.8447C88.6141 28.7111 88.9297 28.6382 89.0172 28.9432C88.9163 28.9328 88.6586 29.0019 88.6209 28.9726C88.6043 28.9602 88.5928 28.9479 88.5832 28.9352C88.5185 29.2217 87.1926 29.1565 87.1039 29.096ZM84.0767 29.1876C84.4331 28.5409 84.6735 29.4998 84.6407 29.5374C84.2161 30.0167 84.417 29.2468 84.3962 29.2157C84.353 29.1654 84.0589 29.5561 84.0786 29.1872L84.0767 29.1876ZM86.4774 29.0348C86.4926 29.0192 86.8706 28.988 86.8872 29.001C87.2452 29.2776 86.1814 29.3669 86.4774 29.0348ZM41.128 38.123C41.4187 38.1812 41.1971 38.5783 40.9947 38.4749C40.9778 38.4643 40.8717 38.0715 41.128 38.123ZM67.8621 31.6564C67.7946 31.5967 66.2534 31.6018 66.439 32.1263C66.5555 32.0379 68.2972 32.026 67.8621 31.6564ZM56.6635 33.9153C56.9694 33.8503 56.7502 34.4295 56.5443 34.2784C56.469 34.222 56.5844 33.9324 56.6635 33.9153ZM34.302 39.3252C34.0388 39.6458 33.9776 38.694 34.2798 38.9834C34.2917 38.9947 34.3123 39.3127 34.302 39.3252ZM59.223 33.6168C58.2003 34.1877 58.0881 32.5358 59.6131 32.724C59.5886 32.8054 59.5639 32.8869 59.5381 32.9685C61.1407 32.8143 59.6951 33.0496 59.3031 33.2408C59.1581 33.3128 59.3508 33.5464 59.2246 33.6185L59.223 33.6168ZM55.0765 34.2341C53.852 33.31 55.8845 33.6455 56.404 33.3711C55.9767 33.9589 55.2753 34.0389 56.3199 34.3106C54.9631 34.7082 55.4443 34.1268 55.3786 34.1023C55.3071 34.0738 55.1237 34.2749 55.0765 34.2341ZM57.7304 33.6301C57.7843 33.583 58.2896 33.7068 58.4451 33.6295C58.308 34.0715 57.3833 33.948 57.7304 33.6301ZM80.9358 29.9781C80.922 29.6654 80.9711 29.4254 81.3226 29.4858C81.2442 29.657 81.0565 29.8238 80.9358 29.9781ZM11.0673 41.8353C10.8395 41.8388 10.3786 41.7734 10.5529 42.0826C10.571 42.1086 11.0873 42.0178 11.0673 41.8353ZM63.5173 32.1888C63.4607 32.1595 62.4023 32.3485 62.834 32.6108C62.9538 32.6905 63.9305 32.4527 63.5173 32.1888ZM69.3684 31.1947C69.2755 31.2059 68.905 31.3245 68.9086 31.3986C68.9238 31.6536 69.3657 31.4412 69.3684 31.1947ZM9.89657 41.6481C9.86334 41.6194 9.1828 41.7541 9.27535 41.8954C9.45082 42.1627 10.0107 41.7469 9.89657 41.6481ZM42.033 37.2601C42.0893 37.2404 42.2134 37.5641 42.2342 37.565C42.2825 37.5633 43.3281 37.283 42.9829 37.7703C42.9249 37.8524 41.3711 37.9039 41.166 37.8889C41.0248 37.4404 41.7397 37.7856 41.8919 37.7159C41.9186 37.703 41.8824 37.3163 42.0328 37.262L42.033 37.2601ZM82.6052 29.3722C82.605 29.0735 83.8067 28.6764 83.8497 29.0313C83.4372 29.1447 83.0217 29.2585 82.6052 29.3722ZM81.9653 29.4281C81.6662 29.2659 82.2783 29.0954 82.4748 29.1561C82.5091 29.3515 82.0094 29.4519 81.9653 29.4281ZM67.0421 30.4626C66.9392 30.5535 67.366 30.9167 67.3008 31.0127C67.2591 31.0727 66.9751 30.958 66.9162 31.1048C66.9006 31.1509 67.2303 31.5042 67.303 31.4741C67.4062 31.4328 67.2485 31.1368 67.3652 31.1147C67.7532 31.0415 68.1346 31.2078 68.4941 31.1434C68.5268 31.137 68.2364 30.9568 68.5161 30.9143C68.559 30.9073 68.8706 31.1954 69.1909 31.0943C69.6342 30.1917 70.1646 30.5857 70.7352 30.5487C70.8851 30.5391 71.0346 30.5008 71.1921 30.402C71.1629 30.3429 70.8959 30.2479 70.6845 30.1892C70.5687 30.1552 70.4674 30.1329 70.4531 30.1314C69.7154 30.0636 68.3017 30.2712 67.475 30.4105C67.2623 30.4457 67.4023 30.6446 67.3124 30.668C67.2413 30.6862 67.259 30.2708 67.0421 30.4626ZM11.1613 41.5985C11.0082 41.2076 10.661 41.5056 10.4186 41.5121C10.5444 41.8662 10.9163 41.536 11.1613 41.5985ZM75.9593 30.0205C75.8213 30.0542 75.3642 29.9869 75.3438 30.112C75.313 30.2769 75.967 30.2983 75.9593 30.0205ZM48.0513 36.4965C48.0614 36.4837 48.3583 36.4607 48.3713 36.4716C48.6825 36.7539 47.7916 36.8215 48.0513 36.4965ZM65.9912 34.1779C66.2048 34.0923 66.4069 33.9306 66.5344 34.2434C66.3858 34.2167 66.0023 34.4085 65.9912 34.1779ZM75.6162 32.5241C75.4954 32.1077 76.2089 32.2639 76.3393 32.2797C76.3281 32.4766 75.7052 32.8239 75.6162 32.5241ZM80.6708 28.6499C81.0878 28.6081 80.8934 27.9779 81.2028 28.227C81.2521 28.2695 81.6108 29.5891 81.0756 29.16C80.9799 29.0827 81.2471 28.7119 80.6708 28.6499ZM59.8379 32.6812C59.8788 32.3765 60.2261 32.375 60.4291 32.3467C60.4422 32.562 60.0016 32.6186 59.8379 32.6812ZM8.61961 41.4645C8.38494 41.0859 7.54342 41.4816 7.78986 41.7216C7.8245 41.7525 8.49516 41.4634 8.61961 41.4645ZM37.5369 38.1094C37.858 37.7461 37.0922 37.7504 36.8953 38.0893C37.0005 38.0548 37.5153 38.1334 37.5369 38.1094ZM73.2667 32.7008C73.2822 32.6848 73.6717 32.6478 73.6913 32.6602C74.0635 32.9312 72.9609 33.0381 73.2667 32.7008ZM63.6078 34.0323C63.7036 33.7529 64.6536 33.8138 64.8986 34.0387C64.7635 34.4475 63.4855 34.382 63.6078 34.0323ZM78.9779 29.1072C79.2818 29.0462 79.5799 29.0805 79.8689 29.1487C79.8493 29.3746 79.0367 29.2645 78.9779 29.1072ZM74.6727 32.4259C74.6936 32.4239 74.718 32.4449 74.7381 32.444C74.716 32.4385 74.694 32.4316 74.6727 32.4259ZM72.0246 29.813C71.8196 29.7487 71.9087 30.1439 71.9211 30.155C72.0785 30.268 72.2558 29.886 72.0246 29.813ZM10.8176 41.0361C10.6925 40.6848 10.3184 41.011 10.0749 40.9516C10.1751 41.229 10.6334 41.0955 10.8176 41.0361ZM93.8715 28.7316C93.4757 28.4134 54.6527 32.6943 54.973 32.8834C55.0392 33.1188 93.933 28.7744 93.8715 28.7316ZM36.335 37.7209C36.2729 37.442 35.7958 37.8521 35.9245 37.9706C36.0061 38.0462 36.373 37.8943 36.335 37.7209ZM55.6541 32.9039C55.7516 32.7934 56.1018 33.0032 56.0376 33.1929C55.9507 33.4371 55.6298 32.9348 55.6541 32.9039ZM65.3542 30.5031C65.2985 30.4687 64.7226 30.8717 65.0347 31.1096C65.2511 31.275 65.2059 30.8649 65.248 30.856C65.2952 30.8482 66.3985 31.1613 65.3542 30.5031ZM86.8423 29.9091C87.0844 29.75 87.4083 29.8157 87.6858 29.7528C87.6032 29.9487 87.0013 30.1163 86.8423 29.9091ZM38.3429 37.3734C38.2634 37.2685 36.5371 37.4314 37.5602 37.651C37.6191 37.6635 38.5818 37.6929 38.3429 37.3734ZM80.6708 28.6499C80.6181 28.6552 80.5552 28.6516 80.4818 28.635C80.5522 28.6348 80.6158 28.6441 80.6708 28.6499ZM75.6809 29.3449C75.7628 29.1261 75.2134 29.138 75.0614 29.2663C75.0406 29.5241 75.6715 29.3759 75.6809 29.3449ZM87.6503 29.4651C87.7851 29.3176 88.0907 29.386 88.2782 29.3346C88.284 29.5298 87.7581 29.6433 87.6503 29.4651ZM76.6743 31.3165C77.0051 31.3733 77.3734 31.2531 77.337 31.0202C77.3499 31.0553 77.3716 31.0911 77.4035 31.1253C77.4361 31.1589 77.7503 30.9905 77.9085 31.0434C78.8578 31.3579 74.6231 31.9218 76.9401 30.828C76.8519 30.9908 76.7632 31.1536 76.6743 31.3165ZM62.2849 33.6802C62.0645 33.4245 61.6255 33.8571 61.7713 33.9486C61.8731 34.0111 62.5063 33.9377 62.2849 33.6802ZM69.0393 32.4074C68.9778 32.3659 68.5322 32.6444 68.5444 32.7956C68.8466 32.9064 69.3189 32.6016 69.0393 32.4074ZM60.8756 33.5603C60.7585 33.5346 60.6879 34.0136 60.704 34.0316C60.8426 34.181 61.1008 33.786 60.8756 33.5603ZM79.6151 27.5574C79.4285 27.4532 78.939 27.8693 78.8652 28.1897C78.8335 28.1348 78.7632 28.0678 78.6396 27.9934C78.5835 27.9626 78.1102 27.9958 77.5508 28.0596C76.3386 28.198 74.7839 28.4619 77.0278 28.5666C77.128 28.5714 76.9582 28.319 77.3629 28.3095C77.389 28.3094 77.4342 28.5291 77.5176 28.5279C77.5407 28.5273 77.5749 28.5269 77.6201 28.5258C77.9416 28.5197 78.7207 28.4918 78.8602 28.3091C78.868 28.3499 78.8865 28.3869 78.9185 28.4186C79.2057 28.701 79.7615 27.6377 79.6151 27.5574ZM69.9873 32.2054C69.8772 32.14 69.5842 32.2696 69.5853 32.4697C69.7541 32.5395 70.2436 32.3583 69.9873 32.2054ZM38.1803 36.5775C37.9604 36.4435 37.5001 36.8123 37.6731 36.9519C37.7788 37.0379 38.434 36.7313 38.1803 36.5775ZM66.934 32.8237C68.1035 32.8669 67.2011 32.7605 67.327 32.446C67.1964 32.5719 67.0654 32.6978 66.934 32.8237ZM84.958 27.4373C84.7704 27.4009 84.8839 26.8026 85.1297 27.0762C85.2065 27.1633 85.062 27.4568 84.958 27.4373ZM91.951 26.2002C91.9082 25.9493 91.957 25.8932 91.9684 25.9473C91.9819 26.0012 91.9538 26.1641 91.9883 26.3366C92.0037 26.3474 91.9653 26.2185 91.951 26.2002ZM87.2753 26.6654C87.2132 27.0252 87.1439 27.0779 86.797 27.0483C87.2736 26.8717 86.7664 26.6454 87.2753 26.6654ZM77.327 30.9843C77.3315 30.9976 77.335 31.0075 77.337 31.0202C77.3326 31.0081 77.3295 30.9964 77.327 30.9843ZM59.8209 33.8138C59.6347 33.5465 48.3168 34.9218 48.4796 35.1946C48.4953 35.2199 59.7953 34.0362 59.8209 33.8138ZM78.8652 28.1897C78.8931 28.2384 78.8882 28.2735 78.8602 28.3091C78.8526 28.2707 78.8552 28.2331 78.8652 28.1897ZM61.924 33.2465C61.9441 33.4642 62.5605 33.4531 62.582 33.4237C62.8712 32.9951 62.1713 33.1945 61.924 33.2465ZM34.1394 36.8073C34.1111 36.8341 34.3855 37.366 34.4801 37.131C34.5532 36.9488 34.245 36.7061 34.1394 36.8073ZM88.3674 26.3469C88.5454 26.3189 88.8004 26.2784 88.8862 26.5357C88.7628 26.5134 88.3945 26.5412 88.3674 26.3469ZM91.8111 25.8434C91.7424 26.1646 91.4132 26.1992 91.1532 26.1803C91.1083 25.7674 91.7525 25.9436 91.8111 25.8434ZM80.1688 27.625C80.1491 27.6112 79.6424 27.5673 79.7521 27.8303C79.9155 28.2158 80.3299 27.7517 80.1688 27.625ZM35.1106 36.9811C35.3005 36.7635 34.7292 36.2475 34.5623 36.7263C34.4764 36.9716 35.0781 37.0176 35.1106 36.9811ZM47.5954 34.918C47.3342 35.1196 48.0837 35.2952 48.1383 34.9938C48.0039 34.9906 47.6883 34.8465 47.5954 34.918ZM68.1213 31.7989C67.0897 31.1239 67.8269 32.5463 67.9641 32.3876C67.9835 32.3649 68.1464 31.8147 68.1213 31.7989ZM6.23419 40.0534C6.12181 40.1828 6.63632 40.5481 6.66578 40.2661C6.68372 40.0897 6.30606 39.9708 6.23419 40.0534ZM81.6119 29.955C81.5753 29.9647 81.539 29.9744 81.5029 29.9836C81.5278 29.965 81.563 29.9538 81.6119 29.955ZM44.8521 34.1945C45.6535 35.2692 45.4552 34.3792 45.5104 34.376C45.6006 34.3724 45.8045 34.5267 45.9914 34.5676C46.0535 34.5811 46.1138 34.5822 46.1675 34.5611C46.1142 34.5993 46.0608 34.6374 46.0074 34.6757C45.8251 34.8067 45.6424 34.9377 45.4595 35.0686C45.5305 35.0867 45.7779 35.1176 46.0768 35.1436C46.6827 35.1954 47.495 35.2264 47.5005 35.0962C47.5121 34.819 46.9746 34.9863 46.9546 34.9649C46.9264 34.9346 46.7281 34.1985 46.6727 34.1777C46.6315 34.1627 46.3079 34.1964 45.9403 34.2233C45.4993 34.2555 44.9955 34.2776 44.8521 34.1945ZM66.2763 32.2372C66.4336 32.3026 66.5243 32.5918 66.5794 32.51C66.5982 32.482 66.5555 32.1991 66.6211 32.1132C66.5064 32.1545 66.3901 32.1961 66.2763 32.2372ZM43.8773 35.4081C43.6489 35.0878 44.4674 35.1034 44.4985 35.1383C44.6695 35.3531 44.0641 35.6699 43.8773 35.4081ZM61.5824 33.043C61.5504 33.0275 60.9176 33.0155 60.9536 33.2062C61.1379 33.3275 61.9676 33.2414 61.5824 33.043ZM66.7139 32.0781C66.9351 32.0755 67.3877 32.2927 67.2706 31.8752C67.0859 31.9428 66.8998 32.0105 66.7139 32.0781ZM35.7263 35.9812C35.2373 35.3538 35.5403 36.1886 35.9225 36.3611C35.9887 36.0414 35.8064 36.0833 35.7263 35.9812ZM34.3839 35.6426C34.2574 35.5348 33.1321 35.8182 33.3535 36.1555C33.4321 36.2759 34.0474 35.8663 34.0806 35.8873C34.1314 35.9181 33.9741 36.344 34.3141 36.2191C34.2759 36.0868 34.4272 35.6785 34.3839 35.6426ZM35.3386 35.5894C34.8741 35.1244 34.911 36.0907 35.2096 36.0538C35.3263 36.0401 35.405 35.6566 35.3386 35.5894ZM36.9672 35.4546C36.8125 35.3833 36.4152 35.3023 36.1955 35.6547C36.5498 35.6349 36.9039 35.6149 37.2576 35.5948C37.2737 35.4096 37.1036 35.5173 36.9672 35.4546ZM94.373 23.3011C93.9693 23.2173 94.2411 23.0889 94.5238 22.9928C94.8123 22.8953 95.0201 22.8469 95.0369 22.8784C95.1003 22.9801 95.0578 23.0977 94.9264 23.1867C94.7989 23.2751 94.5466 23.3385 94.373 23.3011ZM4.8195 31.636C4.72073 31.5375 4.62413 31.1881 4.45442 31.396C4.67569 31.637 4.89698 31.8782 5.11828 32.1193C5.19967 31.5007 4.92759 31.7447 4.8195 31.636ZM3.84026 29.5191C3.86571 29.5015 3.61385 28.5926 4.03309 29.1712C4.31634 29.5619 3.07649 30.1128 2.79833 29.7284C3.03336 29.509 3.6205 29.6641 3.84026 29.5191ZM1.13899 25.7655C1.1159 25.6934 1.59213 25.5303 1.65449 25.576C1.98207 25.817 1.26356 26.152 1.13899 25.7655ZM2.71673 25.7673C2.46756 25.6134 2.96187 25.4406 3.12464 25.527C3.15866 25.6976 2.75506 25.7896 2.71673 25.7673ZM89.4251 10.0534C89.0667 9.45902 88.9958 10.8417 89.3813 10.5171C89.4006 10.5017 89.4396 10.0829 89.4251 10.0534ZM1.51171 24.7784C1.76089 24.9323 1.26653 25.1052 1.1037 25.0187C1.07034 24.8481 1.47389 24.756 1.51171 24.7784ZM89.0443 8.58075C88.6127 8.17582 88.9383 9.67595 88.9922 9.73102C89.2031 9.94802 89.8011 9.27425 89.9409 9.11155C88.9291 9.45325 89.2573 8.77268 89.0443 8.58075ZM87.5093 9.71799C87.3465 9.83133 87.5302 9.93687 87.7402 9.9416C87.9279 9.94424 88.1331 9.87478 88.1814 9.67032C88.0759 9.69823 87.8699 9.68426 87.7032 9.68815C87.6147 9.68952 87.54 9.69627 87.5093 9.71799ZM85.5234 9.52956C85.349 9.50188 84.8326 9.45242 84.7888 9.7033C84.9624 9.63088 85.4923 9.78507 85.5234 9.52956ZM85.0315 8.87855C84.7193 8.59787 84.8106 9.54777 85.0628 9.21971C85.0734 9.20691 85.0445 8.89488 85.0315 8.87855ZM83.521 8.77646C83.2907 8.43056 83.2462 9.37254 83.5256 9.35174C83.6073 9.34403 83.5458 8.81637 83.521 8.77646ZM88.3629 7.01001C88.0652 6.88553 87.8079 7.58734 88.3952 7.58104C88.2049 7.70815 88.0176 7.83583 87.8324 7.96398C88.6278 8.22664 88.456 7.32838 88.6855 7.33641C89.0034 7.35049 89.0784 8.10342 89.0408 8.34699C89.2536 7.85658 90.2996 7.70986 91.3535 7.58717C90.4187 7.42278 89.4467 7.19975 88.8704 7.14588C88.7094 7.12985 88.579 7.35559 88.4484 7.34942C88.2307 7.33962 88.379 7.01891 88.3629 7.01001ZM81.6231 9.07671C81.0611 8.73524 81.5236 9.59728 81.7748 9.3881C81.7851 9.37352 81.6372 9.08499 81.6231 9.07671ZM0.541729 22.0549C1.24601 22.3655 0.822805 22.9293 2.11869 21.9998C1.59927 22.6132 2.13081 22.3977 2.04223 22.6315C1.97088 22.8167 1.61376 22.71 1.85142 23.0401C1.54803 22.6859 0.429015 22.9188 0.371565 22.8621L0.372999 22.8621C0.338564 22.8285 0.317022 21.9563 0.541729 22.0549ZM85.1386 7.13835C84.7919 6.05571 85.0077 7.82757 84.5296 6.9613C84.3033 8.36754 85.749 6.76525 86.1367 7.86254C84.2951 8.01769 87.5156 8.79272 85.9787 7.30207C87.1345 7.75112 86.2949 7.03879 86.4255 6.79803C86.5623 6.54177 87.2233 6.69825 87.1306 6.28916C86.748 6.37499 86.3825 6.46041 86.0191 6.54656C86.514 7.38348 85.7276 7.23153 85.3604 6.54527C85.2871 6.7428 85.2129 6.94053 85.1386 7.13835ZM87.3487 7.65485C87.3065 7.63937 86.5132 7.88714 86.5969 8.05818C86.6786 8.1277 87.2689 7.99324 87.4333 7.84247C87.4934 7.78917 87.5 7.73365 87.4105 7.68404C87.3932 7.67412 87.3729 7.66434 87.3487 7.65485ZM91.8843 7.0274C91.1776 7.0205 90.5289 6.89951 90.3415 7.2558C90.7194 7.22395 91.4707 7.36085 91.8843 7.0274ZM76.5268 9.1453C76.2345 9.47478 77.285 9.39112 76.9328 9.11222C76.9171 9.09901 76.5391 9.13021 76.5268 9.1453ZM84.3543 7.43688C83.9414 7.1561 84.2844 8.20776 84.5068 7.88309C84.5196 7.864 84.3739 7.44957 84.3543 7.43688ZM1.06268 21.8628C1.05661 21.594 2.03665 21.6734 2.20635 21.652C2.13757 21.9102 1.06967 22.1711 1.06268 21.8628ZM93.4476 6.12937C91.2693 4.92838 90.3203 6.26897 90.1983 6.22508C90.0798 6.21032 90.2296 5.77504 90.2034 5.76597C90.1013 5.7455 88.9647 5.90104 88.9338 5.93796C88.9007 5.96492 89.1569 6.53013 88.9674 6.74049C89.1591 6.54859 89.7281 6.44676 90.4129 6.39592C91.0536 6.33832 92.1317 6.36952 92.3181 6.35356C92.4182 6.33096 92.1018 6.15109 92.0537 6.03382C92.0296 5.97492 92.0634 5.92839 92.2553 5.92514C92.3549 5.92394 92.497 5.93393 92.7082 5.96523C92.905 5.99439 93.2601 6.05934 93.4456 6.12919L93.4476 6.12937ZM89.8962 6.12283C90.2131 6.34123 89.3934 6.45201 89.2131 6.38318C88.7816 6.22577 89.8306 6.09582 89.8962 6.12283ZM88.0677 6.10751C87.9768 6.06278 87.2746 6.11078 87.2557 6.39326C87.6244 6.70045 88.2633 6.21164 88.0677 6.10751ZM80.9275 7.27567C80.7727 7.33726 80.2994 7.2009 80.314 7.44302C80.4678 7.38179 80.9421 7.51784 80.9275 7.27567ZM4.09865 19.4032C3.80856 19.2326 4.41915 19.081 4.61086 19.1569C4.63867 19.3157 4.12335 19.4178 4.09865 19.4032ZM83.9237 5.16987C83.8093 5.11326 81.8761 5.61714 81.6248 5.77389C81.9188 5.90951 83.8643 5.60328 83.9448 5.50086C83.9664 5.47034 83.9379 5.17926 83.9237 5.16987ZM88.5018 4.37317C88.6863 3.99232 88.8864 4.39823 88.9169 4.40006C89.1992 4.42027 89.8547 4.27555 89.7437 4.6305C89.1376 4.54658 88.1581 5.12764 88.5018 4.37317ZM80.527 5.71274C79.8917 5.95194 81.2146 6.11148 80.9882 5.77268C80.9737 5.75231 80.5925 5.68782 80.527 5.71274ZM84.1299 5.03154C84.2253 4.72364 86.2926 4.6465 86.6523 4.59672C86.4266 5.16573 86.1211 4.8054 85.7288 4.89372C85.6229 4.91823 85.6854 5.13143 85.6746 5.13349C85.4889 5.17284 85.5885 4.89976 85.4754 4.9136C85.3969 4.92305 83.9818 5.46467 84.1299 5.03154ZM88.6019 4.11292C88.6565 4.00385 89.0667 3.88004 89.5368 3.79305C89.9976 3.70507 90.5841 3.65765 90.6424 3.68234C91.0253 3.86305 90.3435 3.97295 89.7861 4.04465C89.2164 4.11461 88.6627 4.14142 88.6019 4.11292ZM83.871 4.59667C83.9872 3.95403 85.0496 4.20103 84.4167 4.61331C84.3538 4.65167 84.0398 4.43213 83.871 4.59667ZM80.5005 5.12312C80.4648 5.11071 79.762 5.10284 79.7821 5.29795C79.8927 5.35675 80.9012 5.2583 80.5005 5.12312ZM80.7475 4.41086C80.7322 4.41818 80.9544 4.7635 80.6248 4.76981C80.5976 4.76978 80.4776 4.35967 80.0998 4.57987C80.0236 4.62497 79.9431 4.92286 79.955 4.93856C80.4817 5.52596 81.5443 4.05673 80.7475 4.41086ZM88.5893 3.76817C88.4839 3.60063 88.6199 3.04837 88.8443 3.29363C88.9404 3.39972 88.8189 3.73413 88.5893 3.76817ZM78.3174 5.31078C78.6558 4.92839 77.4169 5.07048 77.3713 5.1612C77.4413 5.35336 78.2816 5.34871 78.3174 5.31078ZM4.44686 16.8599C4.79166 16.8946 4.61219 17.1847 4.6289 17.1913C5.38994 17.502 5.13173 16.9198 5.23581 16.836C5.45876 16.6548 5.5027 17.3932 5.87384 17.0432C5.2543 17.5681 5.84313 17.3109 5.89156 17.5699C6.08674 18.627 4.94314 17.1715 4.634 17.4325C4.59091 17.4686 4.97304 17.77 4.86462 17.8802C4.51188 18.2374 3.12378 16.7277 4.44686 16.8599ZM88.9878 3.23024C89.0776 3.06179 89.5375 3.0082 90.0204 3.03869C90.4883 3.06906 90.9927 3.18768 90.6627 3.33487C90.608 3.35757 90.0117 3.44984 89.6065 3.48036C89.1871 3.51037 88.8578 3.47621 88.9878 3.23024ZM73.2102 7.668C73.4394 7.3494 72.7403 7.15051 72.6601 7.38051C72.6205 7.49509 73.1088 7.80801 73.2102 7.668ZM68.5031 7.32053C68.1845 7.43219 68.0328 8.61215 68.4112 8.36743C68.4513 8.34092 68.5674 7.46938 68.5031 7.32053ZM90.0362 3.76511C89.63 3.4382 89.8076 4.17191 90.0431 4.10952C90.1249 4.08787 90.0487 3.77551 90.0362 3.76511ZM77.1154 6.45458C77.077 6.43501 76.6908 6.55644 76.7368 6.72429C76.9035 6.79902 77.3687 6.59102 77.1154 6.45458ZM90.1177 3.63719C89.9504 3.81325 90.4075 4.27189 90.5208 3.70002C90.4103 3.76949 90.137 3.61874 90.1177 3.63719ZM82.8577 3.07197C82.7292 3.40709 82.2124 3.39727 81.9333 3.49746C81.8366 3.10639 82.6618 3.17775 82.8577 3.07197ZM69.981 7.52545C69.7171 7.85938 70.4279 7.96921 70.3009 7.61175C70.2889 7.59324 69.9913 7.51139 69.981 7.52545ZM61.7428 6.05455C61.5385 6.33391 62.3761 6.51303 62.088 6.13639C62.0744 6.12129 61.7539 6.03898 61.7428 6.05455ZM65.2116 5.61098C65.0052 5.5613 64.1991 5.71764 64.5517 5.89705C64.6055 5.92434 65.2316 5.82964 65.2116 5.61098ZM5.22331 16.5465C5.08205 16.1473 5.645 16.1827 5.73215 16.2454C5.76657 16.2717 5.40743 17.0658 5.22331 16.5465ZM87.8816 4.16084C87.7161 4.24839 87.2501 4.24536 87.2125 4.47412C87.4162 4.38621 88.0276 4.57071 87.8816 4.16084ZM71.4023 7.27109C71.0527 6.87831 70.5933 7.00488 70.8114 7.5609C71.3193 7.43066 70.6567 7.05395 71.4023 7.27109ZM91.0733 2.92898C90.9357 2.92526 90.9618 3.49591 90.9817 3.51859C91.1774 3.73282 91.2533 3.11233 91.0733 2.92898ZM80.7339 5.53514C80.6808 5.30065 80.2471 5.49575 80.3367 5.63595C80.3672 5.68297 80.7781 5.72472 80.7339 5.53514ZM76.7378 3.94432C76.4956 3.76141 77.0948 3.44689 77.3244 3.66865C77.4756 4.01796 76.7684 3.96504 76.7378 3.94432ZM54.8517 7.14614C54.7783 6.79587 93.9948 2.20144 94.3931 2.4058C94.4873 2.45797 54.8676 7.26479 54.8517 7.14614ZM62.6656 5.15368C62.213 5.66146 64.4672 5.58639 63.8009 5.16155C63.7528 5.13059 62.7049 5.10981 62.6656 5.15368ZM66.3835 4.82222C66.2817 4.79011 66.1472 3.59771 66.6261 3.99503C66.6881 4.04656 66.4836 4.3965 66.5379 4.46185C66.5544 4.48154 66.8184 4.501 67.0724 4.51089C67.3039 4.51868 67.5215 4.51988 67.5408 4.50402C67.5827 4.46634 67.478 4.09281 67.5186 4.04388C67.5634 3.98886 68.1891 4.24715 68.4964 4.21444C69.077 4.15141 69.1003 3.82907 69.1478 3.82229C69.2837 3.80501 69.5381 4.00562 69.7987 3.97835C71.2007 3.83687 72.3128 3.44837 73.1887 4.00866C72.4828 3.82961 71.9587 4.18274 71.2787 4.34178C71.44 3.65519 70.2305 4.96356 70.9371 4.11917C70.8007 4.25976 68.3768 4.60762 67.11 4.77776C66.7302 4.82457 66.4619 4.84551 66.3846 4.82206L66.3835 4.82222ZM67.1469 7.21441C67.2792 6.77653 66.2614 7.04464 66.2508 7.5265C66.4005 7.56774 67.1308 7.26436 67.1469 7.21441ZM71.754 5.39042C71.838 5.30352 71.7895 4.49966 72.3631 4.80824L72.3644 4.80799C72.5319 4.89809 72.3998 5.12006 72.4389 5.18356C72.454 5.20968 72.9806 5.51866 72.6134 5.6502C72.0512 5.85161 72.4534 5.07445 72.1423 5.12203C72.1053 5.1281 71.5907 5.6606 71.6422 5.74785C71.6469 5.75828 71.8096 5.63598 71.8457 5.66961C71.9829 5.79582 71.9732 6.05136 71.991 6.06025C72.0504 6.08067 72.8963 5.49534 73.1025 5.83544C73.1649 5.9463 71.69 6.49363 71.6195 6.4425C71.5752 6.41055 71.4686 5.72525 71.4179 5.66506C71.3928 5.63513 70.8251 6.00048 70.7328 5.95208C70.7063 5.93807 70.685 5.92168 70.6691 5.90788C70.7986 6.10275 70.242 6.18595 70.2169 5.94454C70.2105 5.84908 70.5986 5.83611 70.6172 5.84966C70.6245 5.85551 70.6315 5.86413 70.6375 5.86985C70.515 5.6264 71.8087 5.40703 71.4608 5.07398C71.7981 4.79686 71.5071 5.64555 71.754 5.39042ZM73.4801 4.64293C73.4548 4.72168 73.4293 4.80044 73.4039 4.87921C74.026 4.5843 74.8481 4.78998 75.6026 4.64697C75.7927 4.61146 75.4928 4.21368 75.7636 4.28721C75.9848 4.34534 76.2842 4.71016 76.1913 4.82136C76.1685 4.84906 75.7072 4.66106 75.5097 4.72583C74.9197 4.91858 75.1404 5.26647 75.1072 5.28316C75.0684 5.30143 74.64 5.10707 74.4346 5.15699C73.9149 5.28399 73.7205 5.55842 72.9476 5.38714C73.317 5.06378 72.9929 4.56626 73.4801 4.64293ZM58.3324 5.28231C58.3148 5.0403 58.8406 5.15574 59.0096 5.08771C59.0269 5.32992 58.5028 5.21265 58.3324 5.28231ZM22.8632 12.4108C22.7769 12.8195 23.7965 12.7926 23.4907 12.499C23.4228 12.4338 22.9901 12.3981 22.8632 12.4108ZM27.4124 12.085C27.5327 11.9596 26.9564 11.7461 26.9959 12.0493C27.009 12.1464 27.3969 12.1013 27.4124 12.085ZM82.0126 3.42032C82.0347 3.40339 82.4106 3.41885 82.4279 3.43588C82.7466 3.80059 81.5149 3.79636 82.0126 3.42032ZM32.8225 10.8901C32.3906 11.2091 33.8091 11.1325 33.3363 10.8627C33.313 10.8497 32.8429 10.8747 32.8225 10.8901ZM34.7614 10.5557C34.6519 10.5847 34.1383 10.5246 34.1483 10.6449C34.1641 10.839 34.7503 10.8936 34.7614 10.5557ZM90.8294 1.45402C90.6837 1.03101 91.3348 1.22701 91.5144 1.12646C91.6685 1.54802 91.016 1.3542 90.8294 1.45402ZM86.9 1.96955C89.4617 1.07072 89.0852 2.12422 86.7861 2.2147C86.7245 1.93586 86.7379 2.02587 86.9 1.96955ZM90.2312 1.30705C90.2054 1.60513 89.8989 1.58682 89.6988 1.60745C89.6928 1.40588 90.1066 1.3877 90.2312 1.30705ZM21.5891 11.9507C21.7195 11.572 22.5461 11.9183 22.4267 12.0826C22.3988 12.1184 21.5486 12.1552 21.5891 11.9507ZM82.1632 3.0024C82.0166 2.59025 82.868 2.60161 82.9434 2.68444C83.2683 3.01416 82.2161 2.8948 82.1632 3.0024ZM94.4037 0.182562C94.5076 -0.192699 55.1066 4.84275 55.4638 4.76692C55.3681 5.08508 94.6924 0.116725 94.4037 0.182562ZM92.3782 0.420636C92.3885 0.404811 92.7121 0.355115 92.7327 0.365869C93.0765 0.620986 92.1524 0.76539 92.3782 0.420636ZM3.61624 13.6768C3.62767 13.6646 3.91781 13.6537 3.92926 13.6652C4.22246 13.9598 3.35149 13.9909 3.61624 13.6768Z" fill="url(#paint0_linear_1655_13068)"/>
  <defs>
    <linearGradient id="paint0_linear_1655_13068" x1="45.8088" y1="5.77528" x2="49.886" y2="40.2121" gradientUnits="userSpaceOnUse">
      <stop stop-color="#19BF58"/>
      <stop offset="1" stop-color="#0D6C32"/>
    </linearGradient>
  </defs>
</svg>