<svg xmlns="http://www.w3.org/2000/svg" width="20" height="20" viewBox="0 0 20 20" fill="none">
<path fill-rule="evenodd" clip-rule="evenodd" d="M14.9223 8.91497H14.9015C14.5565 8.90247 14.2857 8.61413 14.2973 8.26912C14.324 7.47662 13.9365 6.96245 13.2607 6.89328C12.9173 6.85828 12.6673 6.55162 12.7023 6.20828C12.7382 5.86578 13.0465 5.61328 13.3882 5.64995C14.7282 5.78662 15.5957 6.85578 15.5465 8.31078C15.5348 8.64913 15.2573 8.91497 14.9223 8.91497ZM14.854 2.73662C13.4207 2.27828 11.4365 2.46828 10.1982 3.87328C8.89734 2.47828 6.98066 2.27578 5.55733 2.73745C2.29483 3.78745 1.27733 7.56745 2.20566 10.4666C3.67066 15.0258 8.5415 17.4858 10.2098 17.4858C11.699 17.4858 16.7632 15.0725 18.2115 10.4666C19.1398 7.56828 18.1198 3.78828 14.854 2.73662Z" fill="#FF3E56"/>
</svg>