<svg xmlns="http://www.w3.org/2000/svg" width="19" height="17" viewBox="0 0 19 17" fill="none">
  <g clip-path="url(#clip0_475_15798)">
    <path d="M18.5 5.41C18.5 6.93 17.93 8.33 16.72 9.8C15.63 11.11 14.06 12.45 12.25 13.99C11.63 14.52 10.93 15.12 10.2 15.76C10 15.92 9.76 16.02 9.5 16.02C9.24 16.02 9 15.92 8.8 15.76C8.08 15.12 7.38 14.52 6.76 13.99C4.94 12.45 3.38 11.11 2.29 9.8C1.07 8.33 0.5 6.93 0.5 5.41C0.5 3.89 1.01 2.57 1.93 1.57C2.86 0.56 4.14 0 5.53 0C6.57 0 7.52 0.33 8.36 0.98C8.78 1.31 9.16 1.71 9.5 2.17C9.84 1.71 10.22 1.31 10.64 0.98C11.48 0.33 12.43 0 13.47 0C14.86 0 16.14 0.56 17.07 1.57C17.99 2.57 18.5 3.93 18.5 5.41Z" fill="#FF7373"/>
    <path d="M17.07 1.57C16.14 0.56 14.86 0 13.47 0C12.43 0 11.48 0.33 10.64 0.98C10.22 1.31 9.84 1.71 9.5 2.17C9.16 1.71 8.78 1.31 8.36 0.98C7.52 0.33 6.57 0 5.53 0C4.14 0 2.86 0.56 1.93 1.57C1.01 2.57 0.5 3.93 0.5 5.41C0.5 6.89 1.07 8.33 2.29 9.8C3.38 11.11 4.94 12.45 6.76 13.99C7.38 14.52 8.08 15.12 8.8 15.76C9 15.92 9.24 16.02 9.5 16.02C9.76 16.02 10 15.92 10.2 15.76C10.93 15.12 11.63 14.52 12.25 13.99C14.06 12.45 15.63 11.11 16.72 9.8C17.93 8.33 18.5 6.93 18.5 5.41C18.5 3.89 17.99 2.57 17.07 1.57ZM15.9 9.12C14.87 10.37 13.34 11.68 11.56 13.19C10.94 13.72 10.24 14.32 9.5 14.96C8.77 14.32 8.06 13.72 7.44 13.19C5.66 11.68 4.13 10.37 3.1 9.12C2.03 7.84 1.56 6.69 1.56 5.41C1.56 4.2 1.96 3.09 2.7 2.28C3.43 1.49 4.44 1.06 5.53 1.06C6.33 1.06 7.06 1.31 7.71 1.81C8.29 2.26 8.69 2.82 8.93 3.22C9.05 3.42 9.26 3.55 9.5 3.55C9.74 3.55 9.95 3.42 10.07 3.22C10.31 2.82 10.71 2.26 11.29 1.81C11.94 1.31 12.67 1.06 13.47 1.06C14.56 1.06 15.57 1.49 16.3 2.28C17.04 3.09 17.45 4.2 17.45 5.41C17.45 6.69 16.97 7.84 15.9 9.12Z" fill="#FF7373"/>
  </g>
  <defs>
    <clipPath id="clip0_475_15798">
      <rect width="18" height="16.02" fill="white" transform="translate(0.5)"/>
    </clipPath>
  </defs>
</svg>
