<svg xmlns="http://www.w3.org/2000/svg"  viewBox="0 0 20 20" fill="none">
  <g clip-path="url(#clip0_1163_5294)">
    <path d="M10.8334 10.8333C11.7175 10.8333 12.5653 11.1845 13.1904 11.8096C13.8156 12.4348 14.1667 13.2826 14.1667 14.1667V15.4167C14.1667 15.7482 14.0351 16.0661 13.8006 16.3006C13.5662 16.535 13.2483 16.6667 12.9167 16.6667H2.91675C2.58523 16.6667 2.26729 16.535 2.03286 16.3006C1.79844 16.0661 1.66675 15.7482 1.66675 15.4167V14.1667C1.66675 13.2826 2.01794 12.4348 2.64306 11.8096C3.26818 11.1845 4.11603 10.8333 5.00008 10.8333H10.8334ZM15.8334 10.8333C16.4965 10.8333 17.1323 11.0967 17.6012 11.5656C18.07 12.0344 18.3334 12.6703 18.3334 13.3333V14.5833C18.3334 14.9149 18.2017 15.2328 17.9673 15.4672C17.7329 15.7016 17.4149 15.8333 17.0834 15.8333H15.8334V14.1667C15.8339 13.5197 15.6836 12.8816 15.3942 12.3029C15.1049 11.7243 14.6846 11.2211 14.1667 10.8333H15.8334ZM7.91675 2.5C8.91131 2.5 9.86514 2.89509 10.5684 3.59835C11.2717 4.30161 11.6667 5.25544 11.6667 6.25C11.6667 7.24456 11.2717 8.19839 10.5684 8.90165C9.86514 9.60491 8.91131 10 7.91675 10C6.92219 10 5.96836 9.60491 5.2651 8.90165C4.56184 8.19839 4.16675 7.24456 4.16675 6.25C4.16675 5.25544 4.56184 4.30161 5.2651 3.59835C5.96836 2.89509 6.92219 2.5 7.91675 2.5ZM15.0001 5C15.6631 5 16.299 5.26339 16.7678 5.73223C17.2367 6.20107 17.5001 6.83696 17.5001 7.5C17.5001 8.16304 17.2367 8.79893 16.7678 9.26777C16.299 9.73661 15.6631 10 15.0001 10C14.337 10 13.7012 9.73661 13.2323 9.26777C12.7635 8.79893 12.5001 8.16304 12.5001 7.5C12.5001 6.83696 12.7635 6.20107 13.2323 5.73223C13.7012 5.26339 14.337 5 15.0001 5Z" fill="currentColor"/>
  </g>
  <defs>
    <clipPath id="clip0_1163_5294">
      <rect width="20" height="20" fill="white"/>
    </clipPath>
  </defs>
</svg>