     <svg xmlns="http://www.w3.org/2000/svg" viewBox="0 0 14 14" fill="none">
                <g clip-path="url(#clip0_1415_8527)">
                  <path
                    d="M7.00008 1.16669C10.2218 1.16669 12.8334 3.77827 12.8334 7.00002C12.8334 10.2218 10.2218 12.8334 7.00008 12.8334C3.77833 12.8334 1.16675 10.2218 1.16675 7.00002C1.16675 3.77827 3.77833 1.16669 7.00008 1.16669ZM7.00008 2.33335C5.7624 2.33335 4.57542 2.82502 3.70025 3.70019C2.82508 4.57536 2.33341 5.76234 2.33341 7.00002C2.33341 8.2377 2.82508 9.42468 3.70025 10.2999C4.57542 11.175 5.7624 11.6667 7.00008 11.6667C8.23776 11.6667 9.42474 11.175 10.2999 10.2999C11.1751 9.42468 11.6667 8.2377 11.6667 7.00002C11.6667 5.76234 11.1751 4.57536 10.2999 3.70019C9.42474 2.82502 8.23776 2.33335 7.00008 2.33335ZM6.99425 5.83335C7.31975 5.83335 7.58342 6.09702 7.58342 6.42252V9.41152C7.69462 9.47573 7.78152 9.57484 7.83066 9.69347C7.87979 9.8121 7.88841 9.94363 7.85518 10.0677C7.82194 10.1917 7.74871 10.3013 7.64684 10.3795C7.54497 10.4576 7.42016 10.5 7.29175 10.5H7.00592C6.92854 10.5 6.85193 10.4848 6.78045 10.4552C6.70897 10.4256 6.64402 10.3822 6.58931 10.3275C6.5346 10.2727 6.4912 10.2078 6.4616 10.1363C6.43199 10.0648 6.41675 9.98822 6.41675 9.91085V7.00002C6.26204 7.00002 6.11367 6.93856 6.00427 6.82917C5.89487 6.71977 5.83342 6.5714 5.83342 6.41669C5.83342 6.26198 5.89487 6.1136 6.00427 6.00421C6.11367 5.89481 6.26204 5.83335 6.41675 5.83335H6.99425ZM7.00008 4.08335C7.15479 4.08335 7.30316 4.14481 7.41256 4.25421C7.52196 4.3636 7.58342 4.51198 7.58342 4.66669C7.58342 4.8214 7.52196 4.96977 7.41256 5.07917C7.30316 5.18856 7.15479 5.25002 7.00008 5.25002C6.84537 5.25002 6.697 5.18856 6.5876 5.07917C6.47821 4.96977 6.41675 4.8214 6.41675 4.66669C6.41675 4.51198 6.47821 4.3636 6.5876 4.25421C6.697 4.14481 6.84537 4.08335 7.00008 4.08335Z"
                    fill="currentColor"
                  />
                </g>
                <defs>
                  <clipPath id="clip0_1415_8527">
                    <rect width="14" height="14" fill="white" />
                  </clipPath>
                </defs>
              </svg>