<svg xmlns="http://www.w3.org/2000/svg" width="72" height="57" viewBox="0 0 72 57" fill="none">
  <path d="M7.483 6.47435C6.61127 7.12049 6.22926 8.22352 6.77576 9.16066C7.3224 10.0972 8.52423 10.4147 9.46165 9.86845C11.1582 8.87913 10.8118 6.55548 12.6572 6.42662C11.425 5.44049 9.07074 5.29799 7.483 6.47435Z" fill="#00643A"/>
  <path d="M8.90268 3.96802C8.97658 5.05017 8.3854 6.05717 7.31745 6.24936C6.25047 6.44141 5.22913 5.73194 5.03667 4.66426C4.68792 2.73168 6.68091 1.48726 5.58136 0C7.13264 0.297535 8.76769 1.99633 8.90268 3.96802Z" fill="#00643A"/>
  <path d="M5.47937 12.4822C4.76852 13.3023 4.63561 14.462 5.37291 15.258C6.10896 16.0542 7.3524 16.1018 8.14814 15.3647C9.58962 14.03 8.74725 11.837 10.5201 11.3106C9.10282 10.6157 6.7743 10.9881 5.47937 12.4822Z" fill="#00643A"/>
  <path d="M6.32127 9.72704C6.62827 10.7679 6.27047 11.8785 5.2689 12.2988C4.26928 12.7181 3.11852 12.2473 2.69796 11.2473C1.93853 9.43591 3.61311 7.78861 2.21631 6.57592C3.79444 6.5293 5.76127 7.83216 6.32127 9.72704Z" fill="#00643A"/>
  <path d="M4.47218 18.7631C3.85624 19.6562 3.85025 20.8238 4.6698 21.5342C5.48934 22.2448 6.7293 22.1572 7.4403 21.3373C8.72758 19.8527 7.65016 17.7653 9.35466 17.0485C7.8699 16.5124 5.59538 17.1374 4.47218 18.7631Z" fill="#00643A"/>
  <path d="M5.00735 15.9332C5.42805 16.9338 5.19314 18.0768 4.24361 18.6041C3.29548 19.1301 2.10047 18.7883 1.57317 17.8399C0.620167 16.1224 2.10478 14.3015 0.583984 13.2493C2.14653 13.03 4.24389 14.1106 5.00735 15.9332Z" fill="#00643A"/>
  <path d="M4.84263 25.1269C4.32772 26.0814 4.44935 27.2429 5.3414 27.8595C6.23345 28.4767 7.45768 28.2532 8.07405 27.3606C9.19043 25.7448 7.89132 23.7881 9.50745 22.8887C7.97357 22.5177 5.7813 23.3877 4.84263 25.1269Z" fill="#00643A"/>
  <path d="M5.06536 22.2551C5.59182 23.2037 5.48327 24.3664 4.59887 24.9929C3.71323 25.6207 2.48676 25.4108 1.86038 24.5257C0.724373 22.9232 2.00024 20.9511 0.374512 20.0708C1.9045 19.6824 4.1072 20.5263 5.06536 22.2551Z" fill="#00643A"/>
  <path d="M6.47675 31.278C6.18547 32.3232 6.56024 33.4288 7.56766 33.8324C8.57494 34.2366 9.71791 33.7482 10.1223 32.7414C10.8535 30.9186 9.15276 29.2976 10.5305 28.0628C8.95305 28.0409 7.00738 29.3743 6.47675 31.278Z" fill="#00643A"/>
  <path d="M6.05824 28.4281C6.78134 29.2369 6.93317 30.394 6.20882 31.2015C5.48405 32.0094 4.24158 32.0767 3.43414 31.3516C1.97318 30.0403 2.78104 27.8343 1 27.3358C2.4064 26.6183 4.74118 26.9548 6.05824 28.4281Z" fill="#00643A"/>
  <path d="M9.18564 37.0087C9.13833 38.0924 9.75538 39.0845 10.8274 39.25C11.8991 39.415 12.9029 38.6808 13.0682 37.6077C13.3677 35.6667 11.3449 34.473 12.4059 32.959C10.864 33.2949 9.27165 35.0339 9.18564 37.0087Z" fill="#00643A"/>
  <path d="M8.13204 34.3279C9.01977 34.9513 9.43017 36.0443 8.90691 36.9951C8.38448 37.9462 7.18961 38.2927 6.23883 37.77C4.51819 36.823 4.8064 34.4914 2.95898 34.4091C4.16555 33.392 6.51591 33.1906 8.13204 34.3279Z" fill="#00643A"/>
  <path d="M12.8963 42.1213C13.1229 43.1821 13.9685 43.9889 15.0471 43.8794C16.1268 43.7712 16.9135 42.8079 16.8052 41.7286C16.6086 39.7743 14.35 39.1252 14.999 37.3936C13.5896 38.1055 12.4843 40.1887 12.8963 42.1213Z" fill="#00643A"/>
  <path d="M11.2052 39.7895C12.2197 40.1711 12.891 41.1268 12.6229 42.1784C12.3545 43.2298 11.2859 43.8644 10.2349 43.5975C8.33169 43.1124 8.02497 40.7828 6.21582 41.1668C7.12944 39.879 9.35428 39.0945 11.2052 39.7895Z" fill="#00643A"/>
  <path d="M17.2184 46.7961C17.4453 47.8569 18.2901 48.6634 19.3703 48.5547C20.4488 48.446 21.2361 47.4833 21.1281 46.4034C20.9318 44.4493 18.6739 43.8003 19.3209 42.0684C17.9127 42.7803 16.8068 44.8635 17.2184 46.7961Z" fill="#00643A"/>
  <path d="M15.5276 44.4644C16.5432 44.8468 17.2137 45.8022 16.9454 46.8533C16.6786 47.9047 15.6084 48.5396 14.5582 48.2721C12.6547 47.787 12.3481 45.458 10.54 45.841C11.453 44.5537 13.6772 43.7705 15.5276 44.4644Z" fill="#00643A"/>
  <path d="M22.6891 50.0727C23.1962 51.0329 24.2286 51.5779 25.2371 51.1789C26.2465 50.7802 26.7413 49.6392 26.3429 48.6304C25.6212 46.8032 23.2721 46.7943 23.4239 44.9507C22.2621 46.02 21.7653 48.3257 22.6891 50.0727Z" fill="#00643A"/>
  <path d="M20.4259 48.2905C21.5069 48.3802 22.4126 49.1181 22.4409 50.2018C22.4704 51.286 21.6138 52.1886 20.5294 52.2177C18.5663 52.2691 17.6366 50.1112 16.001 50.9734C16.5291 49.4856 18.4567 48.1254 20.4259 48.2905Z" fill="#00643A"/>
  <path d="M28.5225 52.4833C29.2655 53.2738 30.4059 53.5268 31.2731 52.8748C32.1399 52.223 32.3154 50.9921 31.6636 50.1255C30.4832 48.5542 28.2163 49.1676 27.8747 47.3501C27.0372 48.688 27.1684 51.0433 28.5225 52.4833Z" fill="#00643A"/>
  <path d="M25.8687 51.364C26.9349 51.1653 28.0032 51.6349 28.3179 52.6735C28.6328 53.7116 28.0464 54.8083 27.0086 55.1235C25.1293 55.6936 23.662 53.858 22.3125 55.1227C22.4283 53.5487 23.9261 51.7273 25.8687 51.364Z" fill="#00643A"/>
  <path d="M31.9868 53.1277C33.0525 52.9289 34.1218 53.3986 34.4365 54.4369C34.7516 55.475 34.1652 56.572 33.1272 56.8869C31.2474 57.4564 29.7803 55.6228 28.4307 56.8864C28.546 55.3124 30.0437 53.4907 31.9868 53.1277Z" fill="#00643A"/>
  <path d="M59.3442 6.42662C61.1896 6.55562 60.8432 8.87913 62.5399 9.86845C63.477 10.4147 64.679 10.0974 65.2256 9.16066C65.7721 8.22366 65.3901 7.12049 64.5184 6.47435C62.9307 5.29799 60.5764 5.44049 59.3442 6.42662Z" fill="#00643A"/>
  <path d="M66.4198 0C65.3204 1.48726 67.3132 2.73168 66.9645 4.66426C66.772 5.73194 65.7508 6.44141 64.6837 6.24936C63.6158 6.05717 63.0246 5.05031 63.0985 3.96802C63.2337 1.99633 64.8687 0.297535 66.4198 0Z" fill="#00643A"/>
  <path d="M61.481 11.3106C63.2539 11.837 62.4114 14.03 63.8529 15.3647C64.6488 16.1019 65.8921 16.0542 66.6281 15.258C67.3656 14.4618 67.2327 13.3022 66.5217 12.4822C65.2267 10.9881 62.8982 10.6157 61.481 11.3106Z" fill="#00643A"/>
  <path d="M69.7853 6.57593C68.3885 7.78875 70.063 9.43605 69.3036 11.2473C68.8832 12.2473 67.7323 12.718 66.7327 12.2988C65.7312 11.8784 65.3733 10.7679 65.6803 9.72705C66.2404 7.83203 68.2074 6.52917 69.7853 6.57593Z" fill="#00643A"/>
  <path d="M62.6465 17.0485C64.351 17.7653 63.2736 19.8527 64.5608 21.3373C65.272 22.1572 66.5119 22.2448 67.3313 21.5342C68.1509 20.8238 68.1449 19.6562 67.529 18.7631C66.4058 17.1374 64.1312 16.5124 62.6465 17.0485Z" fill="#00643A"/>
  <path d="M71.4174 13.2493C69.8965 14.3017 71.3811 16.1225 70.4283 17.8399C69.901 18.7883 68.7058 19.1301 67.7578 18.6041C66.8083 18.0768 66.5732 16.9338 66.9941 15.9332C67.7574 14.1106 69.8548 13.03 71.4174 13.2493Z" fill="#00643A"/>
  <path d="M62.4932 22.8887C64.1093 23.7881 62.81 25.7446 63.9267 27.3606C64.5429 28.2532 65.7672 28.4767 66.6592 27.8595C67.5513 27.2429 67.6729 26.0815 67.158 25.1269C66.2193 23.3877 64.027 22.5177 62.4932 22.8887Z" fill="#00643A"/>
  <path d="M71.6266 20.0708C70.0008 20.9511 71.2767 22.9232 70.1406 24.5257C69.5142 25.4108 68.2879 25.6207 67.4021 24.9929C66.5178 24.3664 66.4091 23.2038 66.9356 22.2551C67.8939 20.5263 70.0966 19.6824 71.6266 20.0708Z" fill="#00643A"/>
  <path d="M61.4707 28.0628C62.8482 29.2976 61.1476 30.9186 61.8787 32.7414C62.2832 33.7481 63.4261 34.2366 64.4334 33.8324C65.4408 33.4288 65.8156 32.323 65.5243 31.278C64.9935 29.3743 63.0479 28.0409 61.4707 28.0628Z" fill="#00643A"/>
  <path d="M71.0012 27.3358C69.22 27.8343 70.0279 30.0405 68.5669 31.3516C67.7593 32.0767 66.517 32.0094 65.7922 31.2015C65.0679 30.394 65.2197 29.2369 65.9428 28.4281C67.2597 26.9548 69.5945 26.6183 71.0012 27.3358Z" fill="#00643A"/>
  <path d="M59.5952 32.959C60.6562 34.473 58.6335 35.6667 58.933 37.6077C59.0983 38.6808 60.1019 39.4149 61.1738 39.25C62.2458 39.0845 62.8628 38.0924 62.8155 37.0087C62.7295 35.0339 61.1372 33.2949 59.5952 32.959Z" fill="#00643A"/>
  <path d="M69.0414 34.4091C67.194 34.4915 67.4822 36.8231 65.7616 37.77C64.8108 38.2927 63.6159 37.9462 63.0935 36.9951C62.5702 36.0443 62.9806 34.9513 63.8684 34.3279C65.4845 33.1906 67.8349 33.392 69.0414 34.4091Z" fill="#00643A"/>
  <path d="M57.0022 37.3936C57.651 39.1252 55.3927 39.7743 55.196 41.7286C55.0876 42.8079 55.8743 43.7712 56.954 43.8794C58.0326 43.9889 58.8783 43.1821 59.1048 42.1213C59.517 40.1888 58.4116 38.1057 57.0022 37.3936Z" fill="#00643A"/>
  <path d="M65.7847 41.1668C63.9756 40.7827 63.669 43.1123 61.7656 43.5976C60.7146 43.8645 59.646 43.2298 59.3777 42.1785C59.1094 41.1269 59.7807 40.1712 60.7954 39.7896C62.6463 39.0945 64.8711 39.879 65.7847 41.1668Z" fill="#00643A"/>
  <path d="M52.6804 42.0684C53.3272 43.8003 51.0694 44.4493 50.8732 46.4034C50.7652 47.4833 51.5526 48.446 52.631 48.5547C53.7112 48.6634 54.5559 47.8569 54.783 46.7961C55.1944 44.8636 54.0886 42.7805 52.6804 42.0684Z" fill="#00643A"/>
  <path d="M61.4613 45.841C59.6533 45.458 59.3468 47.7868 57.4432 48.2721C56.3929 48.5396 55.3227 47.9046 55.0559 46.8533C54.7876 45.8022 55.4583 44.8468 56.4738 44.4644C58.3241 43.7705 60.5484 44.5537 61.4613 45.841Z" fill="#00643A"/>
  <path d="M48.5777 44.9507C48.7297 46.7943 46.3805 46.8034 45.6588 48.6304C45.2605 49.639 45.7552 50.78 46.7646 51.1789C47.7731 51.5779 48.8054 51.0329 49.3125 50.0727C50.2363 48.3257 49.7395 46.02 48.5777 44.9507Z" fill="#00643A"/>
  <path d="M56.0002 50.9734C54.3646 50.1113 53.4348 52.2692 51.4717 52.2177C50.3874 52.1886 49.5308 51.286 49.5603 50.2018C49.5884 49.1181 50.4942 48.3801 51.5753 48.2905C53.5445 48.1254 55.4719 49.4856 56.0002 50.9734Z" fill="#00643A"/>
  <path d="M44.1263 47.3496C43.7846 49.1672 41.5179 48.5537 40.3374 50.125C39.6854 50.9916 39.8609 52.2225 40.728 52.8743C41.5949 53.5265 42.7355 53.2733 43.4785 52.4829C44.8324 51.0429 44.9637 48.6877 44.1263 47.3496Z" fill="#00643A"/>
  <path d="M49.6881 55.1232C48.3386 53.8585 46.8712 55.694 44.9919 55.124C43.9542 54.8087 43.3677 53.7121 43.6828 52.674C43.9973 51.6354 45.0657 51.1657 46.1319 51.3645C48.0745 51.7277 49.5723 53.5491 49.6881 55.1232Z" fill="#00643A"/>
  <path d="M43.57 56.8864C42.2204 55.6227 40.7533 57.4564 38.8734 56.8869C37.8354 56.5719 37.2491 55.475 37.5642 54.4369C37.8788 53.3986 38.948 52.9289 40.0139 53.1277C41.9568 53.4906 43.4545 55.3123 43.57 56.8864Z" fill="#00643A"/>
</svg>