<svg viewBox="0 0 367 324" fill="none" xmlns="http://www.w3.org/2000/svg">
<g filter="url(#filter0_d_1699_13623)">
<g clip-path="url(#clip0_1699_13623)">
<rect x="12" y="10" width="343" height="300" rx="20" fill="#00CF79"/>
<path d="M223.747 218.922L326.735 233.396L294.811 374.325L215.589 363.191L223.747 218.922Z" fill="url(#paint0_linear_1699_13623)"/>
<path d="M223.747 218.922L326.735 233.396L315.965 223.804L236.744 212.67L223.747 218.922Z" fill="url(#paint1_linear_1699_13623)"/>
<g filter="url(#filter1_i_1699_13623)">
<path d="M265.376 289.24L262.524 288.839C259.038 288.349 255.903 287.666 253.118 286.79C250.327 285.954 248.031 285.045 246.23 284.065C244.429 283.085 242.885 281.999 241.598 280.809C240.311 279.618 239.341 278.472 238.688 277.37C238.035 276.269 237.552 275.11 237.238 273.895C236.924 272.679 236.746 271.644 236.705 270.79C236.703 269.942 236.76 269.102 236.877 268.27L236.952 267.735L254.361 270.182C254.379 270.629 254.389 270.993 254.389 271.276C254.435 271.525 254.643 272.059 255.012 272.879C255.427 273.664 255.98 274.327 256.671 274.869C257.363 275.41 258.453 275.988 259.942 276.601C261.437 277.174 263.234 277.609 265.333 277.904C267.472 278.204 269.328 278.364 270.901 278.383C272.474 278.402 273.675 278.329 274.507 278.163C275.377 278.003 276.078 277.758 276.609 277.429C277.146 277.06 277.496 276.725 277.659 276.425C277.823 276.125 277.935 275.757 277.996 275.321C278.286 273.261 276.608 271.975 272.964 271.463L258.169 269.384L259.656 258.808L274.034 260.829C277.362 261.296 279.145 260.678 279.385 258.975L279.393 258.916C279.482 258.282 279.359 257.719 279.024 257.228C278.729 256.742 277.695 256.193 275.923 255.58C274.157 254.928 271.57 254.363 268.164 253.884C266.104 253.595 264.302 253.483 262.758 253.548C261.214 253.614 260.06 253.775 259.297 254.031C258.579 254.254 257.963 254.611 257.45 255.105C256.976 255.604 256.685 255.947 256.578 256.133C256.511 256.326 256.432 256.598 256.342 256.949L239.052 254.519L239.136 253.924C239.242 253.172 239.404 252.447 239.623 251.751C239.848 251.015 240.25 250.163 240.831 249.194C241.411 248.226 242.139 247.359 243.014 246.593C243.889 245.827 245.064 245.083 246.539 244.362C248.053 243.645 249.766 243.099 251.677 242.721C253.628 242.349 256.017 242.159 258.846 242.153C261.714 242.152 264.871 242.394 268.317 242.878L270.872 243.237C275.744 243.922 279.926 244.772 283.419 245.788C286.917 246.765 289.564 247.763 291.36 248.783C293.2 249.768 294.597 250.894 295.551 252.159C296.509 253.384 297.063 254.472 297.213 255.422C297.401 256.377 297.415 257.43 297.254 258.578L297.204 258.935C296.92 260.955 295.891 262.527 294.117 263.651C292.389 264.741 290.469 265.32 288.36 265.387C290.856 266.303 292.893 267.761 294.47 269.76C296.087 271.764 296.673 274.351 296.228 277.52L296.169 277.936C294.733 288.155 284.468 291.923 265.376 289.24Z" fill="#E7E7E7"/>
</g>
<path d="M41.1135 235.969L144.101 221.495L152.259 365.764L73.0377 376.898L41.1135 235.969Z" fill="url(#paint2_linear_1699_13623)"/>
<path d="M41.1135 235.969L144.101 221.495L131.105 215.243L51.8834 226.377L41.1135 235.969Z" fill="url(#paint3_linear_1699_13623)"/>
<g filter="url(#filter2_i_1699_13623)">
<path d="M128.15 287.356L71.3482 295.339L70.6217 290.17C70.4658 289.061 70.3548 288.127 70.2886 287.369C70.2565 286.566 70.3098 285.508 70.4486 284.196C70.6214 282.839 70.938 281.643 71.3986 280.609C71.8536 279.535 72.5692 278.303 73.5453 276.914C74.561 275.519 75.8141 274.232 77.3046 273.053C78.8346 271.869 80.7806 270.626 83.1424 269.324C85.5439 268.017 88.2818 266.805 91.356 265.686C93.5755 264.808 96.3467 263.833 99.6697 262.76C102.212 261.878 103.826 261.146 104.511 260.565C105.197 259.984 105.487 259.317 105.381 258.565C105.298 257.97 105.013 257.526 104.527 257.23C104.076 256.89 103.078 256.687 101.533 256.621C100.023 256.51 97.9413 256.641 95.2874 257.014C93.3465 257.287 91.6853 257.682 90.3038 258.199C88.962 258.711 87.9624 259.215 87.3051 259.712C86.6818 260.163 86.1968 260.736 85.8502 261.431C85.5432 262.12 85.3553 262.651 85.2865 263.025C85.2519 263.353 85.2509 263.777 85.2837 264.297L68.053 266.719L67.9945 266.303C66.4859 255.569 74.4856 248.971 91.9935 246.511L94.5484 246.151C98.866 245.545 102.665 245.273 105.946 245.337C109.261 245.356 111.927 245.648 113.946 246.212C115.998 246.732 117.685 247.525 119.006 248.591C120.327 249.658 121.275 250.797 121.849 252.009C122.458 253.176 122.873 254.551 123.096 256.136L123.129 256.373C123.485 258.908 123.203 261.069 122.283 262.854C121.357 264.6 119.509 266.253 116.739 267.814C114.009 269.369 110.051 270.955 104.866 272.573L95.5848 275.513C87.8915 277.968 84.1841 280.185 84.4624 282.166L110.962 278.441L110.227 273.213L125.854 271.017L128.15 287.356Z" fill="#E7E7E7"/>
</g>
<g filter="url(#filter3_d_1699_13623)">
<path d="M129.706 208H233.706L221.706 352H141.706L129.706 208Z" fill="url(#paint4_linear_1699_13623)"/>
<path d="M129.706 208H233.706L221.706 200H141.706L129.706 208Z" fill="url(#paint5_linear_1699_13623)"/>
<g filter="url(#filter4_i_1699_13623)">
<path d="M175.586 244.6H164.786V235.3C171.986 234.86 176.706 231.88 178.946 226.36H192.506V271H175.586V244.6Z" fill="#E7E7E7"/>
</g>
</g>
</g>
<rect x="13" y="11" width="341" height="298" rx="19" stroke="black" stroke-opacity="0.12" stroke-width="2"/>
</g>
<defs>
<filter id="filter0_d_1699_13623" x="0" y="0" width="367" height="324" filterUnits="userSpaceOnUse" color-interpolation-filters="sRGB">
<feFlood flood-opacity="0" result="BackgroundImageFix"/>
<feColorMatrix in="SourceAlpha" type="matrix" values="0 0 0 0 0 0 0 0 0 0 0 0 0 0 0 0 0 0 127 0" result="hardAlpha"/>
<feOffset dy="2"/>
<feGaussianBlur stdDeviation="6"/>
<feComposite in2="hardAlpha" operator="out"/>
<feColorMatrix type="matrix" values="0 0 0 0 0 0 0 0 0 0 0 0 0 0 0 0 0 0 0.12 0"/>
<feBlend mode="normal" in2="BackgroundImageFix" result="effect1_dropShadow_1699_13623"/>
<feBlend mode="normal" in="SourceGraphic" in2="effect1_dropShadow_1699_13623" result="shape"/>
</filter>
<filter id="filter1_i_1699_13623" x="234.539" y="239.037" width="65.922" height="58.2279" filterUnits="userSpaceOnUse" color-interpolation-filters="sRGB">
<feFlood flood-opacity="0" result="BackgroundImageFix"/>
<feBlend mode="normal" in="SourceGraphic" in2="BackgroundImageFix" result="shape"/>
<feColorMatrix in="SourceAlpha" type="matrix" values="0 0 0 0 0 0 0 0 0 0 0 0 0 0 0 0 0 0 127 0" result="hardAlpha"/>
<feOffset dy="4"/>
<feGaussianBlur stdDeviation="3"/>
<feComposite in2="hardAlpha" operator="arithmetic" k2="-1" k3="1"/>
<feColorMatrix type="matrix" values="0 0 0 0 0 0 0 0 0 0 0 0 0 0 0 0 0 0 0.12 0"/>
<feBlend mode="normal" in2="shape" result="effect1_innerShadow_1699_13623"/>
</filter>
<filter id="filter2_i_1699_13623" x="65.0186" y="242.319" width="63.1314" height="57.0204" filterUnits="userSpaceOnUse" color-interpolation-filters="sRGB">
<feFlood flood-opacity="0" result="BackgroundImageFix"/>
<feBlend mode="normal" in="SourceGraphic" in2="BackgroundImageFix" result="shape"/>
<feColorMatrix in="SourceAlpha" type="matrix" values="0 0 0 0 0 0 0 0 0 0 0 0 0 0 0 0 0 0 127 0" result="hardAlpha"/>
<feOffset dy="4"/>
<feGaussianBlur stdDeviation="3"/>
<feComposite in2="hardAlpha" operator="arithmetic" k2="-1" k3="1"/>
<feColorMatrix type="matrix" values="0 0 0 0 0 0 0 0 0 0 0 0 0 0 0 0 0 0 0.12 0"/>
<feBlend mode="normal" in2="shape" result="effect1_innerShadow_1699_13623"/>
</filter>
<filter id="filter3_d_1699_13623" x="117.706" y="192" width="128" height="176" filterUnits="userSpaceOnUse" color-interpolation-filters="sRGB">
<feFlood flood-opacity="0" result="BackgroundImageFix"/>
<feColorMatrix in="SourceAlpha" type="matrix" values="0 0 0 0 0 0 0 0 0 0 0 0 0 0 0 0 0 0 127 0" result="hardAlpha"/>
<feOffset dy="4"/>
<feGaussianBlur stdDeviation="6"/>
<feComposite in2="hardAlpha" operator="out"/>
<feColorMatrix type="matrix" values="0 0 0 0 0 0 0 0 0 0 0 0 0 0 0 0 0 0 0.12 0"/>
<feBlend mode="normal" in2="BackgroundImageFix" result="effect1_dropShadow_1699_13623"/>
<feBlend mode="normal" in="SourceGraphic" in2="effect1_dropShadow_1699_13623" result="shape"/>
</filter>
<filter id="filter4_i_1699_13623" x="164.786" y="226.36" width="27.72" height="48.64" filterUnits="userSpaceOnUse" color-interpolation-filters="sRGB">
<feFlood flood-opacity="0" result="BackgroundImageFix"/>
<feBlend mode="normal" in="SourceGraphic" in2="BackgroundImageFix" result="shape"/>
<feColorMatrix in="SourceAlpha" type="matrix" values="0 0 0 0 0 0 0 0 0 0 0 0 0 0 0 0 0 0 127 0" result="hardAlpha"/>
<feOffset dy="4"/>
<feGaussianBlur stdDeviation="3"/>
<feComposite in2="hardAlpha" operator="arithmetic" k2="-1" k3="1"/>
<feColorMatrix type="matrix" values="0 0 0 0 0 0 0 0 0 0 0 0 0 0 0 0 0 0 0.12 0"/>
<feBlend mode="normal" in2="shape" result="effect1_innerShadow_1699_13623"/>
</filter>
<linearGradient id="paint0_linear_1699_13623" x1="235.135" y1="220.523" x2="255.2" y2="368.758" gradientUnits="userSpaceOnUse">
<stop stop-color="#E7E7E7"/>
<stop offset="0.278844" stop-color="white"/>
</linearGradient>
<linearGradient id="paint1_linear_1699_13623" x1="275.241" y1="226.159" x2="276.354" y2="218.237" gradientUnits="userSpaceOnUse">
<stop stop-color="white"/>
<stop offset="1" stop-color="#E7E7E7"/>
</linearGradient>
<linearGradient id="paint2_linear_1699_13623" x1="52.5016" y1="234.369" x2="112.648" y2="371.331" gradientUnits="userSpaceOnUse">
<stop stop-color="#E7E7E7"/>
<stop offset="0.278844" stop-color="white"/>
</linearGradient>
<linearGradient id="paint3_linear_1699_13623" x1="92.6075" y1="228.732" x2="91.4941" y2="220.81" gradientUnits="userSpaceOnUse">
<stop stop-color="white"/>
<stop offset="1" stop-color="#E7E7E7"/>
</linearGradient>
<linearGradient id="paint4_linear_1699_13623" x1="141.206" y1="208" x2="181.706" y2="352" gradientUnits="userSpaceOnUse">
<stop stop-color="#E7E7E7"/>
<stop offset="0.278844" stop-color="white"/>
</linearGradient>
<linearGradient id="paint5_linear_1699_13623" x1="181.706" y1="208" x2="181.706" y2="200" gradientUnits="userSpaceOnUse">
<stop stop-color="white"/>
<stop offset="1" stop-color="#E7E7E7"/>
</linearGradient>
<clipPath id="clip0_1699_13623">
<rect x="12" y="10" width="343" height="300" rx="20" fill="white"/>
</clipPath>
</defs>
</svg>
