<svg xmlns="http://www.w3.org/2000/svg" viewBox="0 0 47 54" fill="none">
  <g filter="url(#filter0_d_885_17781)">
    <path d="M37.0027 30.268C37.7147 30.3383 38.3694 30.6884 38.8231 31.2415C39.2769 31.7946 39.4922 32.5052 39.422 33.2171L38.6649 40.8888C38.5945 41.6008 38.2445 42.2555 37.6913 42.7092C37.1382 43.163 36.4277 43.3783 35.7157 43.3081L27.2675 42.4744C26.7643 42.418 26.3024 42.1678 25.9812 41.7763C25.6601 41.3848 25.5049 40.8829 25.5481 40.3784L26.3819 31.9301C26.4522 31.2182 26.8023 30.5635 27.3554 30.1097C27.9085 29.656 28.619 29.4407 29.331 29.5108L37.0027 30.268Z" fill="#EF5350" stroke="white" stroke-width="1.54167"/>
    <path d="M18.8953 25.3826C19.6072 25.453 20.262 25.8031 20.7157 26.3562C21.1695 26.9093 21.3848 27.6198 21.3146 28.3318L20.1779 39.8491C20.1215 40.3521 19.8713 40.8133 19.48 41.1344C19.0885 41.4556 18.5865 41.6116 18.0819 41.5685L9.63371 40.7347C8.92192 40.6644 8.26704 40.3141 7.8133 39.7612C7.35948 39.208 7.14422 38.4967 7.2145 37.7846L8.27445 27.0448C8.3448 26.3329 8.69487 25.6781 9.24799 25.2244C9.80111 24.7706 10.5116 24.5553 11.2236 24.6255L18.8953 25.3826Z" fill="#F57C00" stroke="white" stroke-width="1.54167"/>
    <path d="M28.5547 21.6885C29.2667 21.7589 29.9214 22.1089 30.3751 22.6621C30.8289 23.2152 31.0442 23.9257 30.974 24.6377L29.3831 40.7576C29.3267 41.2606 29.0764 41.7218 28.6851 42.0429C28.2936 42.3641 27.7917 42.5202 27.2871 42.477L18.0624 41.5666C17.5591 41.5103 17.0974 41.2591 16.7762 40.8676C16.4552 40.4762 16.2999 39.975 16.3429 39.4706L17.9339 23.3507C18.0042 22.6387 18.3543 21.984 18.9074 21.5303C19.4605 21.0765 20.171 20.8612 20.883 20.9314L28.5547 21.6885Z" fill="#FBC02D" stroke="white" stroke-width="1.54167"/>
    <path d="M26.488 4.32734L26.6035 4.35051C26.8697 4.41485 27.1161 4.54521 27.3197 4.7303C27.5322 4.92352 27.6891 5.16909 27.7764 5.44169L28.8221 8.2003L31.717 8.85596L31.7361 8.86079L31.7562 8.86572C32.0103 8.93441 32.2437 9.06283 32.4377 9.23915L32.5183 9.31775L32.5934 9.40171C32.7375 9.57391 32.8458 9.77331 32.9103 9.98841L32.9389 10.0972L32.9593 10.2081C32.9998 10.467 32.979 10.7322 32.8967 10.9821C32.8025 11.2678 32.6319 11.5223 32.404 11.7185L32.3867 11.7345L30.0208 13.6736L30.2338 16.6758L30.2328 16.6757C30.2554 16.9788 30.1942 17.2823 30.0541 17.5521C29.9124 17.8247 29.6968 18.0522 29.4319 18.208C29.167 18.3638 28.8633 18.4413 28.556 18.4326C28.2488 18.4239 27.9498 18.3287 27.6941 18.1582L27.6942 18.1572L25.2034 16.5189L22.4234 17.7116L22.4121 17.7164L22.0358 16.8059L22.4111 17.7163C22.1271 17.8334 21.816 17.8685 21.5131 17.817C21.2101 17.7655 20.9275 17.6291 20.6981 17.4245C20.469 17.2201 20.3018 16.9555 20.2161 16.6606C20.1307 16.3662 20.1303 16.0535 20.2139 15.7586L21.009 12.8529L19.1725 10.5402C18.969 10.3324 18.822 10.0751 18.7498 9.79198C18.669 9.47473 18.6846 9.14036 18.7936 8.83168C18.9026 8.52308 19.1006 8.25376 19.3626 8.05765L19.4637 7.98814C19.7039 7.83469 19.9803 7.74509 20.2664 7.72979L20.2713 7.7293L23.259 7.58453L24.8431 5.05602L24.8512 5.04308L24.8593 5.03112C25.0343 4.76966 25.2815 4.56375 25.5703 4.43891L25.6795 4.39669C25.9012 4.31918 26.1369 4.29006 26.3708 4.31184L26.488 4.32734Z" fill="#FBC02D" stroke="white" stroke-width="1.97096"/>
  </g>
  <defs>
    <filter id="filter0_d_885_17781" x="0.263631" y="0.235881" width="46.1092" height="53.1064" filterUnits="userSpaceOnUse" color-interpolation-filters="sRGB">
      <feFlood flood-opacity="0" result="BackgroundImageFix"/>
      <feColorMatrix in="SourceAlpha" type="matrix" values="0 0 0 0 0 0 0 0 0 0 0 0 0 0 0 0 0 0 127 0" result="hardAlpha"/>
      <feOffset dy="3.08333"/>
      <feGaussianBlur stdDeviation="3.08333"/>
      <feComposite in2="hardAlpha" operator="out"/>
      <feColorMatrix type="matrix" values="0 0 0 0 0 0 0 0 0 0 0 0 0 0 0 0 0 0 0.08 0"/>
      <feBlend mode="normal" in2="BackgroundImageFix" result="effect1_dropShadow_885_17781"/>
      <feBlend mode="normal" in="SourceGraphic" in2="effect1_dropShadow_885_17781" result="shape"/>
    </filter>
  </defs>
</svg>