<svg xmlns="http://www.w3.org/2000/svg" width="194" height="45" viewBox="0 0 194 45" fill="none">
  <path fill-rule="evenodd" clip-rule="evenodd" d="M58.4154 33.2702C58.6184 33.1878 58.9243 30.4223 59.3303 24.9736C59.7364 19.522 60.1012 14.0939 60.4277 8.68351L60.8543 0.569336L72.5078 1.7285L70.7396 26.5006C69.8452 37.239 69.1333 42.7701 68.6037 43.0967C67.9123 43.5027 63.5286 43.8292 55.4557 44.0734C47.3797 44.3176 43.0991 44.2558 42.6107 43.891C42.3253 43.6468 41.7163 40.0163 40.7807 32.9995C39.8452 25.9828 38.989 19.0189 38.2182 12.1022L36.9973 1.7285L48.7743 0.569336C50.1982 22.6965 51.175 33.7615 51.7016 33.7615C52.19 33.7615 53.3992 33.6997 55.3321 33.5791C57.265 33.4585 58.2918 33.3555 58.4124 33.2732L58.4154 33.2702ZM1.12396 0.81099C23.8219 7.88956 35.1694 12.2614 35.1694 13.9296C35.1694 14.7033 33.8278 16.6951 31.1417 19.9078C28.4585 23.1205 25.7724 26.1538 23.0864 28.9988L19.0587 33.3295L11.7359 25.4595C16.7404 20.864 19.2411 18.3603 19.2411 17.9543C19.2411 17.7513 18.4997 17.3541 17.014 16.7657C15.5282 16.1773 14.0543 15.636 12.5891 15.1476L10.3326 14.3532L11.3711 42.7264L0.208984 44.0091C0.614987 27.6984 0.92096 13.3 1.12396 0.81099ZM118.34 2.11956C117.931 1.16634 117.586 0.686781 117.301 0.686781C115.754 0.686781 110.364 7.50057 101.129 21.1281L99.8489 19.054C98.9545 17.63 97.8541 15.9237 96.5538 13.9289C95.2534 11.9372 93.9206 9.9307 92.5585 7.91834C91.1933 5.90598 89.9341 4.19665 88.775 2.79329C87.6158 1.38993 86.8332 0.686781 86.4272 0.686781C84.9621 0.686781 80.752 14.5997 73.8029 42.4256L85.1504 44.0732L86.1271 38.9481C86.8185 35.4912 87.5923 32.0225 88.4455 28.545C89.2987 25.0675 89.8871 23.2876 90.2136 23.2052C90.4166 23.164 91.0462 23.9172 92.1054 25.4618C93.1645 27.0093 94.2825 28.7157 95.4623 30.5868C96.642 32.458 97.8012 34.1761 98.9398 35.7413C100.078 37.3065 100.811 38.089 101.137 38.089C101.382 38.089 101.767 37.8154 102.297 37.2653C102.823 36.7151 103.435 36.0031 104.127 35.1293C104.818 34.2556 105.551 33.2906 106.324 32.2314C107.095 31.1752 107.848 30.119 108.581 29.0599C109.31 28.0008 109.984 27.0446 110.593 26.1914C111.202 25.3382 111.711 24.6468 112.117 24.1173C112.523 23.5877 112.767 23.3435 112.85 23.3847C113.338 23.7113 114.353 30.4427 115.901 43.5819L128.225 42.8493C127.816 40.9399 127.439 39.1688 127.095 37.5418C126.955 36.8806 126.807 36.1791 126.649 35.4372L126.64 35.3944L126.64 35.3925L126.632 35.3556C126.407 34.295 126.165 33.1526 125.907 31.9284C125.456 29.8131 124.971 27.5948 124.441 25.2764C123.912 22.9581 123.373 20.628 122.823 18.2891C122.273 15.9501 121.726 13.723 121.176 11.6077C120.629 9.49233 120.12 7.62119 119.652 5.99424C119.184 4.36728 118.746 3.07573 118.34 2.11956ZM132.79 0.810719C155.488 7.88929 166.836 12.2612 166.836 13.9293C166.836 14.7031 165.494 16.6948 162.808 19.9076C160.125 23.1203 157.439 26.1535 154.753 28.9985L150.725 33.3292L143.402 25.4592C148.407 20.8637 150.907 18.36 150.907 17.954C150.907 17.751 150.166 17.3539 148.68 16.7655C147.195 16.177 145.721 15.6357 144.255 15.1473L141.999 14.353L143.037 42.7261L131.872 44.0059C132.278 27.6952 132.584 13.2968 132.787 0.807777L132.79 0.810719ZM193.63 36.7094C184.397 37.2096 179.846 37.2419 179.97 36.8036L179.967 36.8006C179.967 36.7388 180.511 35.9739 181.602 34.5088C182.694 33.0436 183.753 31.5461 184.783 30.0192C185.813 28.4923 186.28 27.6038 186.186 27.3537C186.124 27.1036 185.548 26.2769 184.456 24.8736C183.365 23.4702 182.297 22.108 181.252 20.7812C180.208 19.4543 179.717 18.76 179.778 18.6982C179.967 18.3569 184.706 18.2157 194 18.2775L193.58 10.7458L190.914 10.7929C189.137 10.8253 186.978 10.8959 184.436 11.0047C181.894 11.1136 179.358 11.2372 176.833 11.3784C174.309 11.5196 172.147 11.7079 170.355 11.9403C168.563 12.1727 167.666 12.414 167.666 12.6641C167.666 13.632 170.596 18.5276 176.46 27.3537L174.168 30.9548C172.609 33.3879 171.105 35.9062 169.655 38.51C168.204 41.1166 167.542 42.5876 167.666 42.9319C168.043 43.7439 176.68 44.0704 193.582 43.9145L193.63 36.7094Z" fill="white"/>
</svg>
