<svg xmlns="http://www.w3.org/2000/svg" width="24" height="25" viewBox="0 0 24 25" fill="none">
  <path d="M13.853 15.7178C13.6284 15.7178 13.4129 15.8067 13.2541 15.965C13.0952 16.1234 13.006 16.3381 13.006 16.562V18.6189C13.0057 18.935 12.8796 19.2381 12.6554 19.4617C12.4312 19.6853 12.1271 19.8111 11.8099 19.8114H5.89006C5.5729 19.8111 5.26885 19.6853 5.04462 19.4617C4.82039 19.2381 4.6943 18.935 4.69402 18.6189V6.3811C4.6943 6.06496 4.82039 5.76185 5.04462 5.53828C5.26885 5.3147 5.5729 5.18893 5.89006 5.18856H11.8099C12.1271 5.18893 12.4312 5.3147 12.6554 5.53828C12.8796 5.76185 13.0057 6.06496 13.006 6.3811V8.15901C13.006 8.38292 13.0952 8.59767 13.2541 8.756C13.4129 8.91433 13.6284 9.00328 13.853 9.00328C14.0776 9.00328 14.2931 8.91433 14.4519 8.756C14.6108 8.59767 14.7 8.38292 14.7 8.15901V6.3811C14.6991 5.61733 14.3943 4.88511 13.8525 4.34501C13.3107 3.80491 12.5762 3.50102 11.8099 3.5H5.89006C5.12382 3.50102 4.38927 3.80491 3.84749 4.34501C3.30571 4.88511 3.00093 5.61733 3 6.3811V18.6189C3.00093 19.3827 3.30571 20.1149 3.84749 20.655C4.38927 21.1951 5.12382 21.499 5.89006 21.5H11.8099C12.5762 21.499 13.3107 21.1951 13.8525 20.655C14.3943 20.1149 14.6991 19.3827 14.7 18.6189V16.562C14.7 16.3381 14.6108 16.1234 14.4519 15.965C14.2931 15.8067 14.0776 15.7178 13.853 15.7178Z" fill="currentColor" />
  <path d="M20.7507 11.9269L17.8105 9.13017C17.6576 8.98462 17.4508 8.90196 17.2345 8.89994C17.0182 8.89792 16.8098 8.9767 16.6538 9.11936C16.3199 9.42509 16.3278 9.94282 16.6556 10.2548L18.1864 11.713H11.0261C10.807 11.713 10.5969 11.7958 10.4419 11.9433C10.287 12.0908 10.2 12.2908 10.2 12.4994C10.2 12.708 10.287 12.908 10.4419 13.0555C10.5969 13.203 10.807 13.2858 11.0261 13.2858H18.1864L16.6408 14.7571C16.4858 14.9046 16.3987 15.1047 16.3987 15.3133C16.3986 15.5219 16.4857 15.7219 16.6406 15.8695C16.7955 16.017 17.0057 16.0999 17.2248 16.0999C17.444 16.0999 17.6542 16.0171 17.8091 15.8696L20.7507 13.0709C20.8297 12.9958 20.8924 12.9067 20.9352 12.8085C20.9779 12.7104 21 12.6052 21 12.4989C21 12.3927 20.9779 12.2874 20.9352 12.1893C20.8924 12.0912 20.8297 12.002 20.7507 11.9269Z" fill="currentColor" />
</svg>
