<svg xmlns="http://www.w3.org/2000/svg" width="73" height="56" viewBox="0 0 73 56" fill="none">
  <g clip-path="url(#clip0_131_8880)">
    <path d="M34.1535 55.7932C45.6607 55.7932 54.9891 46.4377 54.9891 34.8971C54.9891 23.3565 45.6607 14.001 34.1535 14.001C22.6463 14.001 13.3179 23.3565 13.3179 34.8971C13.3179 46.4377 22.6463 55.7932 34.1535 55.7932Z" fill="#F5AB77"/>
    <path d="M43.2435 33.9357L43.3073 33.9559L42.9807 33.8168C43.0117 33.8278 43.0409 33.8406 43.0683 33.8589C43.1595 33.9119 43.1121 33.8717 42.9241 33.7381C42.9497 33.7783 43.103 33.9449 42.9533 33.7472C42.8074 33.5551 42.9333 33.7271 42.9625 33.7765C42.9971 33.8369 43.0281 33.8973 43.0592 33.9595C43.2179 34.2779 43.3694 34.5634 43.6139 34.8324C43.8839 35.1307 44.2872 35.3741 44.6849 35.4473C45.34 35.5662 45.9038 35.4161 46.4019 34.9733C46.8362 34.5872 46.9292 33.7966 46.6154 33.3099C46.3016 32.8231 45.6648 32.4937 45.0699 32.6786C43.5062 33.1672 41.9042 33.5258 40.2821 33.7491L40.6452 33.6997C39.5942 33.8406 38.5267 33.954 37.4703 33.8186L37.8334 33.868C37.3809 33.804 36.9393 33.6923 36.5142 33.5203L36.8408 33.6594C36.6182 33.5642 36.4065 33.4545 36.2003 33.3264C35.5927 32.9457 34.6658 33.1763 34.3282 33.8186C33.9743 34.492 34.1695 35.2899 34.8191 35.6961C36.474 36.7319 38.472 36.7191 40.3404 36.4848C42.2089 36.2506 44.0153 35.8828 45.798 35.3246L44.466 33.0299C44.6722 32.8908 44.7159 32.8524 44.5937 32.9128L44.9203 32.7737C44.8838 32.7865 44.8437 32.7957 44.8054 32.7993L45.1685 32.7499C45.1283 32.7536 45.0882 32.7536 45.0462 32.7499L45.4093 32.7993C45.3454 32.7884 45.2889 32.7737 45.2268 32.7518L45.5535 32.8908C45.5151 32.8744 45.4768 32.8542 45.4403 32.8323C45.6301 32.9915 45.6739 33.0208 45.5681 32.9183C45.8436 33.2312 45.6392 33.0098 45.579 32.9C45.4987 32.7518 45.4349 32.5962 45.3546 32.448C45.0499 31.8953 44.5718 31.4745 43.966 31.2896C43.2818 31.0792 42.4443 31.5385 42.2819 32.2485C42.114 32.9896 42.5045 33.7125 43.238 33.9376L43.2435 33.9357Z" fill="#F5AB77"/>
    <path d="M54.3906 36.0758C54.6405 35.9404 54.8996 35.8013 55.1715 35.6823C55.1788 35.4701 55.1806 35.2743 55.1806 35.0913C55.1806 23.6523 45.6998 14.3452 34.0439 14.3452C22.3881 14.3452 12.9072 23.6523 12.9072 35.0913C12.9072 46.5302 22.3881 55.8373 34.0439 55.8373C39.8281 55.8373 45.2746 53.5407 49.2542 49.4801C48.7086 49.6247 48.1174 49.7271 47.4715 49.7912C43.7656 53.0229 39.0033 54.7997 34.0439 54.7997C22.9154 54.7997 13.8615 45.9575 13.8615 35.0894C13.8615 24.2214 22.9154 15.3791 34.0439 15.3791C45.1724 15.3791 54.2263 24.2214 54.2263 35.0894C54.2263 35.4463 54.2154 35.8104 54.1953 36.1782C54.2592 36.1435 54.3249 36.1087 54.3906 36.0739V36.0758Z" fill="#30150D"/>
    <path d="M37.8884 44.9246C38.3847 45.2997 38.9357 45.5705 39.5251 45.759C42.5376 46.7216 45.592 46.7545 48.6702 46.1543C49.7248 45.9512 50.7247 45.5943 51.6699 45.0911C51.8159 45.0142 52.095 44.9209 52.0075 44.7361C51.9053 44.5201 51.6845 44.7214 51.5385 44.791C50.8178 45.1313 50.077 45.415 49.3088 45.6181C46.5919 46.3318 43.8531 46.3208 41.1125 45.8011C40.0214 45.5943 38.9448 45.2869 38.0526 44.5677C36.6841 43.4643 36.8957 41.5007 38.4595 40.6828C39.2222 40.2838 40.025 40.3406 40.826 40.5016C41.9427 40.7267 43.0339 41.0616 44.1597 41.2427C46.9678 41.6947 49.2431 40.7065 51.1298 38.6643C51.2101 38.5765 51.3962 38.4704 51.2667 38.3331C51.1207 38.1794 51.0039 38.3551 50.8963 38.4502C50.6627 38.6607 50.4364 38.8803 50.1974 39.0871C48.8891 40.2253 47.3984 40.9316 45.6413 40.9701C44.4917 40.9938 43.3842 40.7212 42.2766 40.4522C41.2475 40.2015 40.2275 39.8794 39.1382 40.0551C38.0489 40.2308 37.1129 41.0853 36.8319 42.1961C36.5728 43.2172 36.9633 44.2274 37.8865 44.9246H37.8884Z" fill="#F5AB77"/>
    <path d="M52.3354 45.9164C52.3499 45.8615 52.3609 45.8011 52.3682 45.7407C52.297 45.942 52.2167 46.1378 52.1328 46.33C52.2204 46.2128 52.2897 46.0811 52.3354 45.9164Z" fill="#F5AB77"/>
    <path d="M44.3456 31.8681C44.2215 31.9669 44.331 32.0804 44.3967 32.1773C44.4003 32.1828 44.404 32.1883 44.4076 32.1938C44.4477 32.0913 44.4788 31.9852 44.4934 31.8772C44.4496 31.8425 44.4003 31.8242 44.3456 31.8681Z" fill="#F5AB77"/>
    <path d="M32.7887 26.6206C31.5972 27.6765 31.745 31.1881 33.0021 32.2221C32.1336 30.3885 31.9694 28.5256 32.7887 26.6206Z" fill="#F5AB77"/>
    <path d="M43.0973 24.2321C43.9038 24.3017 44.1173 24.7775 43.7085 25.482C43.6629 25.5607 43.621 25.6412 43.5607 25.7071C43.4038 25.8791 43.3819 26.0676 43.4294 26.2908C43.6118 27.1289 43.7742 27.9707 43.964 28.8052C44.0315 29.1016 44.0041 29.4237 44.1994 29.6927C44.1282 28.7484 44.068 27.8005 43.8326 26.8819C43.7067 26.386 43.7031 25.9779 44.0114 25.5039C44.5205 24.7189 44.2231 24.1736 43.2907 23.9869C42.8382 23.8954 42.3674 23.868 41.9934 23.5422C41.9295 23.4873 41.8328 23.4617 41.7744 23.5715C42.1193 23.9888 42.5517 24.1846 43.0973 24.2321Z" fill="#F5AB77"/>
    <path d="M33.9211 32.4077C34.2769 32.6639 34.6747 32.8304 35.098 32.9457C36.8113 33.4123 38.5082 33.2568 40.0975 32.8634C40.2909 32.8213 40.3785 32.803 40.4661 32.7828C41.5518 32.545 42.6192 32.2558 43.5735 31.6593C43.8435 31.4909 44.0935 31.3006 44.1975 30.9767C44.2559 30.7919 44.2358 30.6235 44.0935 30.479C43.9548 30.338 43.7778 30.3289 43.641 30.4295C43.2414 30.7223 42.9476 30.5247 42.6429 30.2685C41.6485 29.4341 41.1175 28.3672 41.0098 27.0753C40.9642 26.5354 40.9533 26.5354 40.4114 26.6507C39.4388 26.8593 38.5247 27.2326 37.6324 27.6627C35.8935 28.5008 34.5013 29.6884 33.6748 31.4836C33.4813 31.9045 33.5945 32.1716 33.9211 32.4059V32.4077Z" fill="#F5AB77"/>
    <path d="M45.8115 44.0466C45.9611 44.0429 46.1126 44.032 46.264 44.0063C46.1144 44.021 45.963 44.0356 45.8115 44.0466Z" fill="#F5AB77"/>
    <path d="M41.4518 45.0362C43.4698 45.4223 45.4788 45.285 47.4695 44.866C49.347 44.4707 51.1388 43.8559 52.646 42.5987C52.7664 42.498 52.9106 42.423 53.0565 42.359C53.7864 41.7002 54.5418 41.0707 55.3227 40.476C57.2204 39.0358 59.2694 37.8006 61.4225 36.785C61.4298 36.7813 61.4353 36.7758 61.4426 36.7721C61.4463 36.7721 61.4499 36.7722 61.4535 36.7703C62.0009 36.5123 62.5538 36.2653 63.114 36.0365C64.2215 35.526 65.3601 35.1142 66.5534 34.8452C66.7195 34.7976 66.8873 34.7482 67.0534 34.7025C66.933 34.245 66.9257 33.7601 67.0607 33.3026C67.1592 32.9659 67.6938 33.0848 67.5953 33.4252C67.2997 34.4353 67.827 35.601 68.7959 36.0255C69.7539 36.4446 70.9818 35.9523 71.4709 35.0502C71.9398 34.1864 71.6789 33.0921 71.0658 32.3638C71.0019 32.3803 70.9417 32.4114 70.8961 32.4608C70.6899 32.6804 70.6717 32.5139 70.5695 32.4151C70.4618 32.3126 70.3487 32.2083 70.221 32.1351C69.9564 31.985 69.6334 31.9118 69.7849 31.469C69.1317 31.2128 68.4036 31.1396 67.7084 31.2055C66.4567 31.3226 65.2634 31.8533 64.1686 32.448C63.1924 32.9787 62.2673 33.6027 61.3824 34.2761C60.7164 34.783 60.0723 35.3173 59.4373 35.8645C59.4355 35.8645 59.4337 35.8663 59.4318 35.8682C56.7478 38.1849 54.2389 40.745 51.1005 42.4358C50.9089 42.5621 50.7173 42.6902 50.5221 42.811C50.513 42.8183 50.5057 42.8274 50.4966 42.8347C50.4874 42.8421 50.4783 42.8512 50.4674 42.8585C50.1973 43.0397 49.9218 43.2007 49.6298 43.338C49.5879 43.3544 49.5477 43.3673 49.5058 43.3819C48.8379 43.7204 48.1464 43.9949 47.4311 44.2035C47.152 44.3243 46.8673 44.4268 46.5754 44.4982C46.236 44.5805 45.9003 44.6025 45.5645 44.5878C45.2306 44.6263 44.915 44.564 44.5975 44.4927C43.7873 44.3078 42.9735 44.1761 42.1543 44.145C42.147 44.145 42.1415 44.145 42.1342 44.145C41.6434 44.1267 41.1507 44.145 40.6544 44.209C40.3333 44.2822 40.0194 44.3792 39.7129 44.5018C40.2639 44.7507 40.846 44.919 41.45 45.0343L41.4518 45.0362Z" fill="#F5AB77"/>
    <path d="M53.6123 40.1506C54.1688 39.7315 54.7089 39.2905 55.2417 38.8403C54.6907 39.2685 54.1488 39.7041 53.6123 40.1506Z" fill="#F5AB77"/>
    <path d="M46.5831 44.4997C46.8751 44.4283 47.1597 44.3259 47.4389 44.2051C46.8367 44.3808 46.2182 44.5107 45.5814 44.5894C45.5777 44.5894 45.5759 44.5894 45.5723 44.5894C45.908 44.604 46.2456 44.582 46.5831 44.4997Z" fill="black"/>
    <path d="M39.7194 44.5042C40.0259 44.3816 40.3398 44.2846 40.6609 44.2114C40.6116 44.2187 40.5605 44.2205 40.5113 44.2297C40.3507 44.2535 40.223 44.1803 40.077 44.1711C41.1189 43.8417 42.1753 43.9424 43.2318 44.0595C43.4836 44.087 43.7427 44.1126 43.9836 44.1876C45.5801 44.689 47.0618 44.2132 48.516 43.6313C50.8023 42.7163 52.647 41.1243 54.5519 39.6219C56.6703 37.9512 58.6264 36.0846 60.7466 34.4194C62.6534 32.9243 64.7608 31.7641 67.069 30.9919C67.5744 30.8217 68.0999 30.7778 68.6218 30.8107C69.1345 30.8437 69.6363 30.959 70.1453 31.0285C70.1235 31.0193 70.1016 31.0084 70.0797 30.9992C67.5854 29.9708 64.8502 31.3195 62.7482 32.6571C60.6864 33.971 58.8727 35.6308 57.0553 37.2576C56.4587 37.792 55.8584 38.3226 55.2453 38.8423C54.7125 39.2925 54.1724 39.7335 53.6159 40.1526C52.9408 40.6613 52.2456 41.1426 51.5194 41.5763C51.5011 41.5818 51.4829 41.5873 51.4646 41.5982C50.6308 42.0136 49.7951 42.429 48.9612 42.8444C48.1857 43.2305 47.4066 43.6972 46.5709 43.9387C46.4687 43.968 46.3666 43.9918 46.2644 44.0083C46.1129 44.0339 45.9633 44.0467 45.8119 44.0485C45.2243 44.0595 44.6404 43.9186 44.0602 43.7795C43.2574 43.5874 42.4545 43.4611 41.628 43.516C40.7466 43.5746 39.8945 43.807 39.0972 44.1821C39.2979 44.3029 39.5059 44.409 39.7157 44.5042H39.7194Z" fill="black"/>
    <path d="M72.2315 33.6673C72.1312 32.9975 71.8301 32.3973 71.3922 31.916C71.3758 31.9508 71.3612 31.9874 71.3521 32.0331C71.8429 32.7285 72.2315 33.4513 72.1914 34.348C72.1786 34.6115 72.1293 34.8604 72.0491 35.0928C72.2352 34.6554 72.3045 34.1632 72.2315 33.6673Z" fill="black"/>
    <path d="M59.4409 35.8655C60.0759 35.3183 60.72 34.784 61.386 34.2771C62.271 33.6036 63.1942 32.9796 64.1722 32.449C65.267 31.8542 66.4604 31.3254 67.7121 31.2064C68.4054 31.1405 69.1353 31.2156 69.7885 31.4699C69.7885 31.4681 69.7885 31.4663 69.7903 31.4626C69.8797 31.2046 69.6352 31.1607 69.4418 31.1113C68.1646 30.7855 66.9913 31.1296 65.8272 31.6346C62.9023 32.9009 60.4408 34.8224 58.0633 36.9177C55.8427 38.8757 53.5911 40.81 51.106 42.4368C54.2443 40.7459 56.7532 38.1858 59.4373 35.8691C59.4391 35.8691 59.4409 35.8655 59.4428 35.8636L59.4409 35.8655Z" fill="black"/>
    <path d="M71.4711 35.0526C70.9821 35.9566 69.7541 36.447 68.7962 36.028C67.8273 35.6034 67.2982 34.4396 67.5956 33.4276C67.6959 33.0873 67.1613 32.9683 67.061 33.305C66.9278 33.7625 66.9332 34.2474 67.0537 34.7049C66.8858 34.7507 66.7198 34.7982 66.5537 34.8477C66.6249 34.8312 66.696 34.8129 66.7672 34.7983C67.1376 34.7214 67.3219 34.6098 67.2015 34.1779C67.1121 33.8595 67.1248 33.5118 67.2307 33.1769C67.3639 33.7369 67.4149 34.3078 67.581 34.8605C67.9751 36.178 68.9604 36.8569 70.1592 36.5953C71.3452 36.3372 72.1827 35.0618 71.9839 33.8211C71.9145 33.3837 71.7284 32.9958 71.5204 32.6096C71.4 32.3882 71.2175 32.3278 71.0661 32.3663C71.6773 33.0946 71.9382 34.1889 71.4711 35.0526Z" fill="black"/>
    <path d="M67.4544 35.1416C67.3468 34.9 67.2337 34.8616 66.9563 34.9201C63.8362 35.5826 61.1448 37.1582 58.521 38.8765C57.0339 39.8518 55.5577 40.8455 54.078 41.8318C54.0068 41.8318 53.9338 41.8355 53.744 41.8391C54.4137 41.3981 54.9976 41.023 55.5742 40.635C57.8094 39.1308 60.0099 37.5754 62.4275 36.3658C62.6556 36.2523 62.8837 36.1444 63.1136 36.0382C62.5534 36.267 62.0006 36.514 61.4532 36.772C61.4422 36.7775 61.4313 36.7812 61.4222 36.7867C59.2691 37.8023 57.2182 39.0375 55.3224 40.4777C54.5396 41.0724 53.7842 41.7019 53.0562 42.3607C53.089 42.346 53.1218 42.3314 53.1547 42.3186C53.3335 42.2436 53.5379 42.1832 53.7076 42.3332C53.744 42.3662 53.7696 42.4009 53.7897 42.4394C56.7346 39.8537 60.1321 37.784 63.7796 36.3621C64.9109 35.9211 66.0659 35.5423 67.2373 35.2239H67.241C67.407 35.5661 67.6387 35.8772 67.927 36.1261C68.0894 36.2651 68.2646 36.3786 68.4489 36.4683C67.9617 36.1462 67.6825 35.6631 67.4508 35.1452L67.4544 35.1416Z" fill="black"/>
    <path d="M53.7084 42.3318C53.5387 42.1817 53.3344 42.2403 53.1556 42.3172C53.1227 42.33 53.0899 42.3446 53.057 42.3592C52.9111 42.4251 52.7669 42.5001 52.6465 42.599C51.1375 43.8561 49.3457 44.471 47.47 44.8663C45.4793 45.2853 43.4703 45.4207 41.4523 45.0364C40.8502 44.9212 40.2681 44.7528 39.7152 44.5039C39.5036 44.4088 39.2974 44.3026 39.0967 44.1819C39.0073 44.1288 38.9179 44.0739 38.8303 44.0135C38.1424 43.5505 37.9143 42.8826 38.2099 42.1854C38.5183 41.4571 39.281 41.0453 40.0437 41.2411C40.5217 41.3638 40.9888 41.5358 41.4523 41.7041C44.1947 42.6996 46.8715 42.4233 49.5026 41.2906C50.3803 40.9118 51.278 40.5567 52.0042 39.9035C52.1703 39.7534 52.3308 39.5905 52.464 39.4112C52.6556 39.1532 52.8162 38.8586 52.6392 38.5365C52.464 38.2163 52.1776 37.982 51.8035 38.0278C51.4495 38.0717 51.3108 37.896 51.1357 37.6453C50.2836 36.4193 49.3366 35.2792 48.0685 34.4521C47.7783 34.2636 47.4827 34.0769 47.1507 33.9836C46.8021 33.8848 46.7565 33.6963 46.8624 33.3761C47.0466 32.8179 47.105 32.2397 46.7237 31.7401C46.3807 31.2899 45.9756 30.9221 45.3187 31.1673C45.0176 31.279 44.7476 31.1728 44.5889 30.8855C44.4119 30.5653 44.3006 30.2139 44.421 29.8516C44.4775 29.6832 44.6655 29.6869 44.8096 29.7528C44.9301 29.8077 45.0286 29.9083 45.1454 29.976C45.6526 30.2707 45.9938 30.095 46.0686 29.524C46.2091 28.4499 45.8351 27.5093 45.3041 26.6217C45.0961 26.2741 45.0724 25.9886 45.3315 25.6812C45.3607 25.6464 45.3789 25.6043 45.4008 25.5659C45.846 24.7808 45.7767 24.4514 45.0176 23.9702C44.4994 23.6408 43.9484 23.3718 43.3298 23.2748C43.1948 23.2547 43.0561 23.2528 43.016 23.079C42.9813 22.9344 43.078 22.863 43.1602 22.7734C43.9466 21.8987 43.8937 21.4028 42.9467 20.7147C42.2953 20.2407 41.5545 20.0285 40.7626 19.9827C40.529 19.9699 40.3338 19.9187 40.1385 19.7833C36.4163 17.1902 32.309 15.8837 27.7674 16.2826C24.7787 16.5443 21.9724 17.4354 19.6478 19.4502C17.5367 21.2802 16.7557 23.6682 16.9455 26.4022C17.0714 28.2321 17.5494 29.9834 18.3468 31.6358C18.5092 31.9725 18.4964 32.2378 18.3413 32.5636C17.4783 34.3642 17.0531 36.2692 17.0185 38.2675C16.9692 41.1002 17.949 43.5487 19.6952 45.7373C20.3284 46.5297 20.9816 47.3037 21.6786 48.0376C21.695 48.0559 21.7133 48.0742 21.7333 48.0943C21.9523 48.323 22.1767 48.5499 22.4066 48.7695C23.1693 49.5125 24.3079 50.5464 25.4392 51.2912C25.7348 51.4705 26.0322 51.6462 26.3314 51.8145C26.4044 51.853 26.4701 51.8896 26.5303 51.9243C28.5977 53.0699 30.7763 53.9428 33.121 54.3966C36.0057 54.9547 38.8394 54.7461 41.6493 53.8989C44.1619 53.1413 46.5649 52.1622 48.6633 50.5537C50.154 49.4118 51.3857 48.0467 52.1374 46.3302C52.2213 46.1381 52.3016 45.9423 52.3728 45.741C52.3728 45.7373 52.3764 45.7337 52.3764 45.73C52.6082 45.0785 52.7943 44.4362 53.3034 43.9257C53.5789 43.6493 53.7249 43.2687 53.8106 42.8826C53.8435 42.7344 53.8654 42.5733 53.7924 42.4398C53.7723 42.4013 53.7467 42.3666 53.7103 42.3336L53.7084 42.3318ZM33.6775 31.4839C34.504 29.6887 35.8981 28.4993 37.6351 27.663C38.5274 27.2329 39.4415 26.8596 40.4141 26.651C40.956 26.5357 40.9669 26.5357 41.0125 27.0756C41.1202 28.3675 41.6512 29.4344 42.6456 30.2688C42.9503 30.525 43.2441 30.7226 43.6437 30.4299C43.7805 30.3292 43.9575 30.3384 44.0962 30.4793C44.2385 30.6238 44.2586 30.7922 44.2002 30.977C44.098 31.3009 43.8462 31.4912 43.5762 31.6596C42.6201 32.2561 41.5526 32.5453 40.4688 32.7832C40.3812 32.8033 40.2936 32.8216 40.1002 32.8637C38.511 33.2571 36.814 33.4127 35.1007 32.946C34.6774 32.8307 34.2796 32.6624 33.9238 32.408C33.5972 32.1738 33.4841 31.9066 33.6775 31.4857V31.4839ZM41.9869 23.542C42.361 23.8677 42.8317 23.897 43.2842 23.9866C44.2148 24.1733 44.5122 24.7186 44.005 25.5037C43.6984 25.9776 43.7002 26.3857 43.8261 26.8816C44.0615 27.8002 44.1217 28.7481 44.1929 29.6924C43.9977 29.4234 44.0232 29.1013 43.9575 28.8049C43.7678 27.9686 43.6054 27.1268 43.4229 26.2905C43.3736 26.0673 43.3974 25.8788 43.5543 25.7068C43.6145 25.6409 43.6583 25.5586 43.7021 25.4817C44.1108 24.7772 43.8973 24.3014 43.0908 24.2318C42.5452 24.1843 42.1128 23.9885 41.7679 23.5712C41.8245 23.4614 41.923 23.4871 41.9869 23.542ZM35.4383 35.2646C36.1973 35.7403 36.971 36.1722 37.9782 36.293C37.2082 36.6041 35.8397 36.0258 35.4383 35.2646ZM36.8341 42.1964C37.1151 41.0856 38.0511 40.2329 39.1405 40.0553C40.2279 39.8797 41.2498 40.1999 42.2789 40.4524C43.3864 40.7233 44.494 40.9959 45.6435 40.9703C47.4025 40.9319 48.8914 40.2274 50.1996 39.0873C50.4368 38.8805 50.6649 38.6609 50.8985 38.4505C51.0043 38.3553 51.1229 38.1797 51.2689 38.3334C51.4003 38.4706 51.2123 38.5768 51.132 38.6646C49.2453 40.7068 46.97 41.6931 44.1619 41.243C43.0343 41.0618 41.9431 40.7269 40.8283 40.5019C40.0272 40.3408 39.2244 40.2841 38.4617 40.683C36.898 41.4992 36.6863 43.4645 38.0548 44.568C38.9452 45.2871 40.0236 45.5946 41.1147 45.8014C43.8553 46.3211 46.5941 46.332 49.311 45.6184C50.0792 45.4171 50.8218 45.1316 51.5408 44.7912C51.6849 44.7235 51.9057 44.5204 52.0097 44.7363C52.0973 44.9212 51.8181 45.0145 51.6721 45.0913C50.727 45.5946 49.7271 45.9496 48.6724 46.1545C45.5942 46.7566 42.5398 46.7218 39.5273 45.7593C38.9379 45.5708 38.3869 45.3 37.8906 44.9248C36.9673 44.2276 36.5787 43.2193 36.8359 42.1964H36.8341ZM44.6034 31.9816C44.8443 32.1683 45.1107 32.3952 45.1563 32.6734C45.2403 33.1876 45.5796 33.2901 45.9811 33.3834C46.1781 33.4291 46.3661 33.5133 46.6671 33.6176C46.2347 33.7787 45.9245 33.6377 45.6161 33.6304C45.4483 33.6268 45.2968 33.5975 45.2001 33.7933C44.9355 34.3349 44.4611 34.6534 43.9411 34.8986C42.0526 35.7916 40.0765 36.2253 37.9836 36.0002C37.4965 35.9471 37.0129 35.8465 36.5659 35.6196C36.5221 35.5903 36.4783 35.561 36.4345 35.5317C36.5002 35.4494 36.5568 35.5025 36.6133 35.5445C37.1644 35.636 37.7026 35.8081 38.2683 35.8154C39.3631 35.8264 40.4341 35.6781 41.4833 35.3652C42.2442 35.1383 42.9941 34.8839 43.7021 34.5179C43.8754 34.4283 44.0488 34.3368 44.2057 34.2233C44.9976 33.6524 45.0779 33.1711 44.525 32.3604C44.4867 32.3037 44.4447 32.2506 44.4064 32.1939C44.4027 32.1884 44.3991 32.1829 44.3954 32.1774C44.3316 32.0805 44.2203 31.967 44.3443 31.8682C44.4009 31.8243 44.4484 31.8407 44.4921 31.8773C44.5323 31.9084 44.5688 31.9542 44.6053 31.9816H44.6034ZM32.7907 26.6199C31.9714 28.5249 32.1356 30.3878 33.0042 32.2214C31.747 31.1893 31.5992 27.6776 32.7907 26.6199Z" fill="#170C08"/>
    <path d="M71.3467 32.0323C71.2828 31.9573 71.3339 31.8109 71.208 31.7779C70.9891 31.7212 70.75 31.7084 70.9562 31.3644C71.031 31.2381 70.7811 31.2015 70.73 31.0826C70.5329 31.0771 70.3358 31.0551 70.1406 31.0295C69.6315 30.96 69.1279 30.8428 68.617 30.8117C68.0952 30.7788 67.5715 30.8245 67.0643 30.9929C64.7561 31.7651 62.6486 32.9253 60.7419 34.4204C58.6216 36.0856 56.6656 37.9503 54.5472 39.6229C52.6423 41.1253 50.7957 42.7173 48.5113 43.6323C47.057 44.2142 45.5754 44.69 43.9788 44.1886C43.738 44.1136 43.4807 44.0879 43.2271 44.0605C42.1706 43.9434 41.1141 43.8446 40.0723 44.1721C40.2182 44.1794 40.346 44.2545 40.5065 44.2307C40.5558 44.2234 40.6069 44.2197 40.6562 44.2124C41.1525 44.1483 41.6451 44.13 42.1359 44.1483C42.1432 44.1483 42.1487 44.1483 42.156 44.1483C42.9753 44.1794 43.7891 44.3112 44.5992 44.496C44.9185 44.5692 45.2324 44.6314 45.5663 44.5912C45.5699 44.5912 45.5717 44.5912 45.5754 44.5912C46.2122 44.5125 46.8308 44.3826 47.4329 44.2069C48.1482 43.9983 48.8397 43.722 49.5075 43.3853C49.8524 43.2114 50.1899 43.0211 50.522 42.8143C50.7173 42.6917 50.907 42.5636 51.1004 42.4392C53.5856 40.8124 55.839 38.8781 58.0578 36.9201C60.4353 34.8248 62.8949 32.9033 65.8217 31.637C66.9858 31.1338 68.159 30.7879 69.4363 31.1137C69.6315 31.1631 69.876 31.207 69.7848 31.465C69.7848 31.4668 69.7848 31.4687 69.783 31.4723C69.6315 31.9152 69.9545 31.9884 70.2191 32.1384C70.3468 32.2116 70.4617 32.3141 70.5676 32.4184C70.6698 32.5172 70.6898 32.6838 70.8942 32.4642C70.9398 32.4166 70.9982 32.3836 71.0639 32.3672C71.2153 32.3287 71.3996 32.3891 71.5182 32.6106C71.7262 32.9967 71.9123 33.3846 71.9817 33.822C72.1787 35.0645 71.3431 36.3382 70.157 36.5962C68.9582 36.8579 67.9729 36.1771 67.5788 34.8614C67.4128 34.3087 67.3617 33.7378 67.2285 33.1778C67.1226 33.5127 67.1099 33.8604 67.1993 34.1788C67.3197 34.6125 67.1354 34.7223 66.765 34.7992C66.6939 34.8138 66.6227 34.8321 66.5515 34.8486C65.36 35.1176 64.2196 35.5293 63.1121 36.0399C62.8822 36.146 62.6541 36.254 62.426 36.3674C60.0083 37.5789 57.8078 39.1325 55.5726 40.6367C54.996 41.0246 54.4122 41.3998 53.7425 41.8408C53.9323 41.8371 54.0034 41.8353 54.0764 41.8335C55.558 40.8471 57.0324 39.8535 58.5194 38.8781C61.1433 37.1598 63.8328 35.5842 66.9548 34.9218C67.2321 34.8632 67.3453 34.9016 67.4529 35.1432C67.6846 35.6611 67.962 36.1442 68.451 36.4662C68.4711 36.4791 68.4893 36.4937 68.5094 36.5065C69.8468 37.3208 71.5438 36.5413 72.0419 35.092C72.1222 34.8596 72.1733 34.6107 72.1842 34.3472C72.2244 33.4505 71.8357 32.7277 71.3449 32.0323H71.3467Z" fill="#170C08"/>
    <path d="M70.9558 31.3634C70.7496 31.7075 70.9886 31.7203 71.2076 31.777C71.3353 31.8099 71.2824 31.9563 71.3463 32.0314C71.3554 31.9856 71.37 31.949 71.3864 31.9142C71.463 31.7587 71.6181 31.7001 71.7933 31.6599C71.9466 31.6233 72.0871 31.5556 72.0634 31.3634C72.0396 31.1713 71.89 31.1329 71.7313 31.142C71.3901 31.1621 71.1966 31.0908 71.3627 30.6845C71.4247 30.5326 71.4083 30.3295 71.2076 30.2764C71.0288 30.2307 70.8901 30.3698 70.8116 30.5143C70.7186 30.6845 70.7076 30.8858 70.7277 31.0816C70.7788 31.2006 71.0306 31.2372 70.954 31.3634H70.9558Z" fill="#EEAD7F"/>
    <path d="M43.9292 23.1868C36.3642 21.926 29.9962 29.0152 29.9962 29.0152C30.3374 31.0574 33.921 33.0484 33.921 33.0484C33.1036 40.3608 35.5522 43.2631 35.5522 43.2631C29.5856 43.8047 27.0275 40.6353 27.0275 40.6353C28.4726 39.3653 29.6605 35.9635 28.7208 33.4857C27.7792 31.008 26.5549 33.1197 26.0677 36.0202C25.5805 38.9206 23.8198 42.6446 23.8198 42.6446C18.6706 45.3968 11.5837 43.5046 11.5837 43.5046C16.3515 41.5503 17.7528 32.525 13.9211 30.5907C13.6565 30.4572 13.3682 30.3565 13.0525 30.2961C12.7423 30.2357 12.4048 30.2119 12.0435 30.2302C11.9723 30.2339 11.903 30.2394 11.8355 30.2449C11.6384 30.2632 11.4505 30.2888 11.2717 30.3254C6.93266 31.1836 7.10053 37.1657 7.33408 39.4897C7.36693 39.8063 6.98923 39.9948 6.7575 39.7752C-1.83841 31.6173 -0.229075 20.9067 1.5828 15.9421C3.38008 11.0122 7.26292 5.48578 15.5067 2.31266C30.9888 -3.64563 41.7323 4.44088 43.2869 5.71269C43.3873 5.79504 43.3836 5.95058 43.2778 6.02744C43.2157 6.07319 43.13 6.07868 43.0625 6.04025C42.1301 5.51689 35.5705 2.10222 33.4393 8.10626C33.0579 9.18043 32.8955 10.1558 32.8901 11.0323C32.8901 11.0945 32.8901 11.1568 32.8901 11.219C32.8992 11.6746 32.9503 12.1028 33.0342 12.5054C33.1437 13.027 33.3079 13.5046 33.5068 13.9383C34.6034 16.3209 36.7802 17.4207 36.7802 17.4207C37.5758 17.1864 37.7199 15.0692 37.7199 15.0692C43.9438 18.5534 43.9274 23.1831 43.9274 23.1831L43.9292 23.1868Z" fill="#30150D"/>
    <path d="M17.263 44.2833C16.7284 44.2925 16.2248 44.2796 15.7631 44.254C13.3601 44.1259 11.5646 43.652 11.5464 43.6483L11.1231 43.5349L11.5281 43.3683C14.2925 42.2356 15.858 38.6453 15.973 35.6826C16.066 33.2927 15.2741 31.4389 13.8546 30.7216C13.5991 30.5917 13.3181 30.4965 13.0243 30.4398C12.7214 30.3794 12.393 30.3593 12.05 30.3776C11.9806 30.3812 11.9131 30.3867 11.8474 30.3922C11.6595 30.4087 11.4752 30.4343 11.2982 30.4691C7.11431 31.2962 7.23291 37.0422 7.47924 39.4742C7.49931 39.681 7.39348 39.8731 7.20737 39.9646C7.02308 40.0561 6.80595 40.0232 6.65633 39.8805C2.85194 36.2718 0.653241 31.8287 0.122269 26.6774C-0.397755 21.6433 0.874023 17.4582 1.44514 15.8936C2.48154 13.0535 4.01971 10.5209 6.01953 8.37071C8.47915 5.72278 11.654 3.64031 15.4548 2.17819C19.0274 0.802072 22.6275 0.0719253 26.1581 0.0060474C26.1855 0.0060474 26.2129 0.0060474 26.2402 0.0060474C29.1013 -0.0397011 31.935 0.350076 34.6628 1.16257C39.4744 2.59724 42.5526 4.9231 43.381 5.60201C43.4649 5.66972 43.5105 5.77036 43.5069 5.87833C43.5051 5.9863 43.4521 6.08511 43.3664 6.14916C43.2569 6.22968 43.1109 6.23883 42.9923 6.17295C42.3464 5.81062 38.9854 4.05571 36.3305 5.05669C35.0661 5.5343 34.141 6.57737 33.579 8.16027C33.2268 9.15392 33.0444 10.122 33.0389 11.0388C33.0389 11.101 33.0389 11.1614 33.0389 11.2218C33.0462 11.65 33.0936 12.0745 33.1794 12.4808C33.2797 12.962 33.4348 13.4342 33.6428 13.8825C34.6081 15.9796 36.4528 17.0776 36.794 17.2661C37.3268 17.0245 37.5385 15.6081 37.575 15.0646L37.5914 14.8322L37.7939 14.9457C41.0418 16.7647 42.5763 18.902 43.2916 20.3733C44.0707 21.9782 44.0762 23.1402 44.0762 23.1896V23.3634L43.9046 23.336C40.0419 22.6918 36.4966 24.2967 34.203 25.757C31.9532 27.188 30.4388 28.7599 30.1523 29.0655C30.5482 30.9906 33.9549 32.9047 33.9895 32.9249L34.0753 32.9724L34.0643 33.0694C33.2651 40.2208 35.6372 43.1433 35.6609 43.1725L35.8415 43.3885L35.5605 43.4141C32.4422 43.6977 30.2618 42.9584 28.979 42.2868C27.5832 41.5567 26.9354 40.7662 26.9081 40.7314L26.8187 40.6216L26.9245 40.5283C28.2401 39.3717 29.5392 36.076 28.5776 33.5415C28.3222 32.8718 28.0339 32.5168 27.7584 32.5442C27.1909 32.601 26.5377 34.0741 26.2074 36.0486C25.7221 38.9362 23.9649 42.673 23.9467 42.7114L23.9266 42.7553L23.8846 42.7791C21.7534 43.9173 19.2938 44.2559 17.2593 44.287L17.263 44.2833ZM12.0354 43.4598C13.6137 43.8039 19.3796 44.8231 23.7076 42.5375C23.9065 42.1112 25.4739 38.6764 25.9228 35.9973C26.2038 34.3229 26.8479 32.3374 27.7346 32.2478C28.1653 32.2057 28.543 32.6046 28.8568 33.4336C29.7636 35.8217 28.7382 39.2071 27.2329 40.6454C27.4536 40.8796 28.0758 41.478 29.1341 42.0288C30.3421 42.6583 32.3784 43.35 35.2777 43.1359C35.0569 42.8065 34.6482 42.0984 34.2888 40.94C33.8235 39.4431 33.3564 36.8775 33.7633 33.1262C33.1994 32.8004 30.1742 30.9705 29.8512 29.0362L29.8403 28.9667L29.8877 28.9136C29.9041 28.8953 31.5226 27.1075 34.0479 25.5008C36.3488 24.0368 39.8904 22.4301 43.7733 23.0102C43.7404 22.6333 43.6036 21.678 43.0197 20.4813C42.3355 19.0814 40.8849 17.0611 37.8468 15.3098C37.783 15.9009 37.5531 17.3466 36.8232 17.5625L36.7666 17.579L36.7155 17.5534C36.6243 17.5076 34.4804 16.4042 33.3746 14.0014C33.1593 13.533 32.9951 13.0389 32.8911 12.5357C32.8017 12.1111 32.7524 11.6683 32.7451 11.2218C32.7451 11.1577 32.7451 11.0955 32.7451 11.0314C32.7506 10.0817 32.9385 9.08073 33.3016 8.05596C33.8928 6.38888 34.8763 5.28543 36.2265 4.7767C39.0036 3.72815 42.4687 5.53796 43.1346 5.91127C43.1529 5.92042 43.1748 5.92042 43.1912 5.90761C43.2095 5.8948 43.2131 5.8765 43.2131 5.86735C43.2131 5.8582 43.2113 5.8399 43.1949 5.82709C42.3774 5.15733 39.3394 2.86076 34.5789 1.44255C28.4462 -0.38373 22.049 -0.045191 15.5606 2.45085C8.69081 5.09511 4.03431 9.65167 1.72066 15.9942C0.870374 18.3256 -2.87927 30.427 6.85521 39.67C6.94645 39.756 7.0468 39.7176 7.07417 39.703C7.10336 39.6883 7.19642 39.6334 7.18365 39.5053C6.93002 36.9928 6.81872 31.0565 11.238 30.1818C11.4241 30.1452 11.6194 30.1177 11.8182 30.0994C11.8876 30.0939 11.9587 30.0884 12.0317 30.0848C12.4003 30.0665 12.7525 30.0885 13.0791 30.1525C13.4002 30.2147 13.7049 30.319 13.9859 30.4599C15.5113 31.2303 16.3634 33.1865 16.2649 35.6954C16.201 37.3277 15.7431 39.0039 14.9749 40.4185C14.2104 41.8239 13.2013 42.8669 12.0336 43.4598H12.0354Z" fill="#F5AA77"/>
    <path d="M17.6534 43.122C17.2063 43.1293 16.7903 43.1128 16.4144 43.0854C14.5971 42.9481 13.3362 42.4925 13.3235 42.487C13.2852 42.4723 13.2651 42.4303 13.2797 42.3918C13.2943 42.3534 13.3362 42.3333 13.3746 42.3479C13.4238 42.3662 18.3723 44.1266 22.9649 41.6434C22.9959 41.6233 23.8079 41.0011 25.7493 33.5294C25.9975 32.5742 26.6689 31.7471 27.4225 31.4726C27.855 31.3152 28.2746 31.3573 28.6031 31.5933C29.3566 32.1313 30.2197 34.4755 29.8566 36.9276C29.6686 38.1994 28.4571 40.1502 28.229 40.507C28.583 40.8016 30.8875 42.5931 34.3689 42.6078C34.0058 42.013 32.4768 39.1327 33.0442 33.6099C32.6355 33.405 29.6997 31.8459 28.8129 29.1357C28.8056 29.1138 28.8092 29.0882 28.8238 29.068C28.8366 29.0497 30.1613 27.2783 32.5972 25.5417C34.847 23.9387 38.5328 22.0374 43.3188 22.0813C43.359 22.0813 43.3918 22.1143 43.3918 22.1563C43.3918 22.1966 43.359 22.2295 43.3188 22.2295C43.3188 22.2295 43.3188 22.2295 43.317 22.2295C38.5693 22.1875 34.9163 24.0705 32.6848 25.6588C30.4405 27.2582 29.1468 28.885 28.9625 29.1248C29.9059 31.941 33.1191 33.4837 33.1519 33.4983C33.1811 33.5111 33.1975 33.5422 33.1939 33.5733C32.5461 39.764 34.5405 42.6096 34.5605 42.637C34.5769 42.659 34.5788 42.6883 34.566 42.7139C34.5532 42.7377 34.5295 42.7542 34.5021 42.7542C30.5937 42.7908 28.1068 40.5985 28.0812 40.5765C28.0538 40.5527 28.0484 40.5125 28.0684 40.4814C28.083 40.4594 29.5099 38.2488 29.7088 36.9057C30.0646 34.5084 29.2399 32.2283 28.5155 31.7123C28.2217 31.5037 27.8604 31.4671 27.47 31.6098C26.762 31.8678 26.127 32.6547 25.8898 33.566C23.8991 41.2298 23.0671 41.755 23.0324 41.7733C21.1439 42.7944 19.208 43.0964 17.6515 43.122H17.6534Z" fill="#F5AA77"/>
    <path d="M26.8719 21.3151C26.9486 21.37 27.0307 21.3846 27.1146 21.3883C27.1985 21.3919 27.2825 21.3828 27.3646 21.3663C27.5288 21.3316 27.6784 21.2639 27.797 21.1724C27.9156 21.0809 27.9941 20.9528 28.0288 20.799C28.047 20.7222 28.0525 20.6398 28.0488 20.5538C28.0452 20.4843 28.0306 20.4257 27.9996 20.369C27.9394 20.2556 27.8098 20.1549 27.6547 20.0909C27.4978 20.025 27.319 19.9884 27.1383 19.9811C26.9577 19.9737 26.7716 19.9939 26.5982 20.0396C26.4249 20.0872 26.257 20.1622 26.1092 20.2629C25.81 20.4623 25.5892 20.757 25.56 21.0845C25.5381 21.2639 25.5472 21.4432 25.5856 21.6152C25.6257 21.7872 25.6969 21.9483 25.7954 22.0928C25.9925 22.3801 26.3008 22.5906 26.6475 22.6802C26.9942 22.7736 27.3719 22.7516 27.7277 22.64C27.9065 22.5832 28.078 22.5064 28.2441 22.4131C28.4119 22.3197 28.5579 22.2154 28.6929 22.0855C28.963 21.833 29.1655 21.5072 29.2878 21.1522C29.5359 20.4422 29.4666 19.6078 29.067 18.9819C28.8681 18.669 28.5908 18.4146 28.2605 18.2481C27.9321 18.0779 27.5544 17.9992 27.1712 17.9846C26.9796 17.9791 26.7844 17.9883 26.5909 18.0139C26.3975 18.0395 26.1986 18.0743 26.0198 18.1255C25.6567 18.2298 25.3137 18.4091 25.0199 18.6507C24.7262 18.8941 24.478 19.196 24.2901 19.5327C24.1039 19.8694 23.978 20.2427 23.9233 20.6234C23.8959 20.8137 23.8868 21.0077 23.8959 21.198C23.9051 21.3865 23.9361 21.5768 23.9853 21.7634C24.0839 22.1349 24.2517 22.4936 24.4725 22.8138C24.9159 23.4543 25.5746 23.9484 26.3209 24.157C26.507 24.2101 26.6986 24.2467 26.892 24.2631C26.9394 24.2686 26.9887 24.2723 27.038 24.2741C27.0872 24.2741 27.1347 24.2796 27.1839 24.2778H27.3299L27.4814 24.2686C27.8828 24.2448 28.2824 24.1844 28.6747 24.0875C29.4593 23.8953 30.211 23.5677 30.9135 23.1505C31.6178 22.7351 32.2729 22.2337 32.8896 21.6866C33.5063 21.1376 34.0811 20.5429 34.6303 19.9207C34.9059 19.6114 35.1777 19.2948 35.4514 18.9819C35.7251 18.6672 35.9988 18.3524 36.2853 18.0468C36.3327 17.9956 36.413 17.9937 36.4641 18.0413C36.5097 18.0852 36.517 18.1548 36.4823 18.2042C36.0189 18.9032 35.508 19.573 34.9551 20.2098C34.4023 20.8448 33.8165 21.4578 33.1889 22.0251C32.5594 22.5924 31.8842 23.1158 31.1507 23.5549C30.419 23.9941 29.6271 24.3491 28.7896 24.5596C28.3718 24.6657 27.943 24.7334 27.5106 24.7627C27.0763 24.7956 26.6165 24.7627 26.1877 24.6401C25.3192 24.404 24.5601 23.8404 24.0474 23.1103C23.7919 22.7443 23.593 22.3362 23.4744 21.8988C23.4161 21.6811 23.3777 21.456 23.365 21.2254C23.3522 20.9985 23.3613 20.7716 23.3923 20.5483C23.4544 20.1 23.5967 19.6663 23.812 19.2692C24.0291 18.874 24.3174 18.5153 24.6659 18.2225C25.0144 17.9315 25.425 17.7101 25.8647 17.5838C26.0873 17.5198 26.3008 17.4832 26.5216 17.4539C26.7406 17.4265 26.965 17.4137 27.1894 17.421C27.6383 17.4356 28.0999 17.5289 28.5159 17.743C28.9338 17.9517 29.2932 18.281 29.5432 18.6763C29.795 19.0698 29.941 19.5236 29.9848 19.9792C30.0286 20.4367 29.9757 20.9034 29.8242 21.3371C29.6728 21.7707 29.4246 22.1788 29.0834 22.4991C28.9155 22.6601 28.7203 22.7992 28.5214 22.9071C28.3225 23.0188 28.1127 23.1121 27.8919 23.1798C27.4522 23.317 26.9632 23.3463 26.5015 23.2182C26.0399 23.0956 25.6148 22.8083 25.3411 22.4021C25.2042 22.2008 25.1057 21.972 25.0528 21.736C24.9998 21.4981 24.9925 21.2547 25.0217 21.0186C25.0272 20.9619 25.0382 20.896 25.0546 20.832C25.0692 20.7698 25.0893 20.7076 25.113 20.649C25.1586 20.53 25.2206 20.4184 25.2918 20.3178C25.4341 20.1146 25.6148 19.9481 25.8136 19.8164C26.0125 19.6846 26.2315 19.5876 26.4614 19.5254C26.6931 19.465 26.9267 19.4412 27.1621 19.4522C27.3974 19.4632 27.6346 19.5089 27.8627 19.6078C27.9758 19.6572 28.089 19.7212 28.1912 19.8036C28.2933 19.8877 28.39 19.992 28.4576 20.122C28.5269 20.2482 28.5634 20.4001 28.567 20.5392C28.5707 20.6618 28.5616 20.7899 28.5324 20.918C28.5032 21.0443 28.4539 21.1724 28.3809 21.2858C28.3079 21.4011 28.2149 21.5017 28.1072 21.5841C27.8919 21.747 27.6255 21.8147 27.3737 21.7909C27.2478 21.7781 27.1219 21.7433 27.0088 21.6738C26.9522 21.639 26.8993 21.5969 26.8573 21.5438C26.8154 21.4908 26.7825 21.4267 26.7752 21.3627C26.7716 21.3316 26.7935 21.3041 26.8245 21.3005C26.8391 21.3005 26.8519 21.3023 26.8628 21.3114L26.8701 21.3169L26.8719 21.3151Z" fill="#F5AA77"/>
    <path d="M41.509 19.639C41.2353 19.7433 40.9726 19.8184 40.7007 19.8934C40.5657 19.93 40.4306 19.9629 40.2938 19.9922C40.1588 20.0233 40.0219 20.0526 39.8851 20.0782C39.7482 20.1075 39.6114 20.1313 39.4745 20.1533C39.3377 20.1752 39.199 20.199 39.0622 20.2155C38.9235 20.2319 38.7866 20.2557 38.648 20.2685L38.232 20.3088C38.0933 20.3198 37.9546 20.3289 37.8159 20.3381L37.6079 20.3509L37.3999 20.3582L36.9821 20.3692L36.5642 20.3655C36.2869 20.3655 36.0077 20.3436 35.7304 20.3289C35.5917 20.3234 35.453 20.3033 35.3162 20.2905C35.1775 20.2759 35.0406 20.2612 34.902 20.2447C34.7615 20.2283 34.6611 20.0984 34.6775 19.9574C34.694 19.8257 34.8053 19.7287 34.9348 19.7305H34.9476C35.2195 19.7342 35.4877 19.7543 35.7596 19.758L36.1646 19.7653C36.2997 19.7708 36.4347 19.769 36.5697 19.7671H36.9748L37.3798 19.7543L37.5824 19.7488L37.7849 19.7379L38.1882 19.7159C38.7264 19.6793 39.2629 19.6207 39.7975 19.5475C39.9307 19.5292 40.0639 19.5091 40.1971 19.4853C40.3303 19.4652 40.4617 19.4377 40.5949 19.414C40.8576 19.3645 41.1258 19.306 41.374 19.2419H41.3831C41.4962 19.2108 41.6112 19.2785 41.6404 19.392C41.6678 19.4981 41.6112 19.6043 41.5108 19.6427L41.509 19.639Z" fill="#F5AA77"/>
    <path d="M15.2922 31.8339C15.2812 31.8339 15.2721 31.8339 15.2611 31.8321C15.1608 31.8174 15.0915 31.7223 15.1079 31.6216C15.1115 31.6015 15.4126 29.6563 16.4326 27.2188C17.3759 24.9661 19.1458 21.8131 22.2185 19.5916C25.6105 17.1395 28.6723 16.0397 30.6447 15.5493C32.7905 15.0149 34.1152 15.0625 34.17 15.0643C34.2703 15.068 34.3506 15.154 34.3451 15.2565C34.3396 15.3589 34.2575 15.4358 34.1535 15.4321C34.1006 15.4303 28.8164 15.2748 22.432 19.8899C19.4323 22.0584 17.6989 25.1455 16.7738 27.3506C15.7684 29.7496 15.471 31.6582 15.4692 31.6765C15.4564 31.7662 15.3779 31.8321 15.2903 31.8339H15.2922Z" fill="#F5AA77"/>
    <path d="M33.5073 13.9426C32.5476 13.97 28.1319 14.3342 21.7657 18.4479C15.3211 22.611 14.1059 29.2152 13.9179 30.5932C13.6534 30.4596 13.3651 30.359 13.0494 30.2986C12.7392 30.2382 12.4017 30.2144 12.0404 30.2327C11.9692 30.2363 11.8999 30.2418 11.8324 30.2473C11.6353 30.2656 11.4474 30.2912 11.2685 30.3278C11.1043 27.5866 11.451 21.0263 17.518 15.509C23.5502 10.0228 30.0934 10.6139 32.8596 11.1464C32.8322 12.0412 33.1552 13.2051 33.511 13.9426H33.5073Z" fill="#5E2513"/>
    <path d="M14.0382 30.8166L13.8539 30.7232C13.5984 30.5933 13.3193 30.4982 13.0237 30.4414C12.7208 30.381 12.3923 30.3609 12.0493 30.3792C11.98 30.3829 11.9125 30.3884 11.8468 30.3939C11.6588 30.4103 11.4745 30.4359 11.2976 30.4707L11.1333 30.5036L11.1224 30.3353C10.9655 27.7093 11.2629 20.9971 17.4192 15.3975C23.2417 10.1016 29.6097 10.3688 32.8886 11.0001L33.0108 11.0239L33.0072 11.1502C32.9798 12.0615 33.3174 13.2034 33.644 13.8786L33.7425 14.0836L33.5163 14.0909C32.6879 14.1147 28.2376 14.4459 21.8495 18.5724C15.4377 22.7154 14.2425 29.3307 14.0674 30.6134L14.04 30.8184L14.0382 30.8166ZM12.2081 30.0791C12.5128 30.0736 12.8047 30.0992 13.0784 30.1523C13.332 30.2017 13.5747 30.2749 13.8028 30.3737C14.0655 28.692 15.4468 22.3531 21.6871 18.3217C27.7066 14.4331 32.0456 13.8805 33.2845 13.8036C32.9908 13.1192 32.7116 12.1164 32.7098 11.2655C29.4528 10.6616 23.2727 10.4695 17.6145 15.6152C11.6771 21.0136 11.272 27.4605 11.4034 30.1505C11.5384 30.1285 11.6771 30.1102 11.8176 30.0974C11.8869 30.0919 11.9581 30.0864 12.0311 30.0828C12.0894 30.0791 12.1478 30.0773 12.2062 30.0773L12.2081 30.0791Z" fill="#F5AA77"/>
    <path d="M10.6894 30.6658C10.6018 30.6658 10.5252 30.6072 10.5069 30.5176C10.5015 30.4883 9.91941 27.5055 10.7241 23.7706C11.1967 21.5765 12.0506 19.5526 13.2567 17.7556C14.7657 15.5102 16.8348 13.6162 19.4076 12.1267C23.3452 9.84655 26.7974 9.51533 29.0016 9.63977C31.3973 9.77518 32.8406 10.4449 32.9008 10.4724C32.9921 10.5163 33.0322 10.6261 32.9884 10.7176C32.9446 10.8091 32.8351 10.8494 32.7439 10.8054C32.7293 10.7981 31.2915 10.1339 28.9614 10.0058C26.812 9.88681 23.4419 10.2144 19.5919 12.4451C13.8789 15.7536 11.8116 20.473 11.0835 23.8493C10.2935 27.5091 10.8609 30.4169 10.8664 30.4462C10.8865 30.545 10.8226 30.6438 10.7223 30.664C10.7113 30.6658 10.7004 30.6676 10.6894 30.6676V30.6658Z" fill="#F5AA77"/>
  </g>
  <defs>
    <clipPath id="clip0_131_8880">
      <rect width="72.2596" height="55.837" fill="white"/>
    </clipPath>
  </defs>
</svg>
