<svg xmlns="http://www.w3.org/2000/svg" width="24" height="24" viewBox="0 0 24 24" fill="none">
  <g clip-path="url(#clip0_131_8963)">
    <path opacity="0.998" d="M11.9998 24.0002C9.22943 24.0021 6.54374 23.0453 4.39852 21.2923C2.25329 19.5393 0.780695 17.0981 0.230632 14.3828C-0.319431 11.6676 0.0869273 8.8457 1.38075 6.396C2.67456 3.9463 4.77614 2.01972 7.32881 0.943215C10.2613 -0.295611 13.5658 -0.318767 16.5154 0.87884C19.465 2.07645 21.818 4.39672 23.0568 7.32922C24.2956 10.2617 24.3188 13.5662 23.1212 16.5158C21.9236 19.4654 19.6033 21.8184 16.6708 23.0572C15.1931 23.6826 13.6044 24.0033 11.9998 24.0002ZM14.2738 9.57822V15.1592C14.2738 15.3062 14.2738 15.3372 14.1738 15.4332L13.1798 16.3962V16.6002H17.9998V16.4002L17.0418 15.4602C17.0005 15.4288 16.9685 15.3866 16.9493 15.3383C16.9301 15.2901 16.9244 15.2375 16.9328 15.1862V8.27222C16.9254 8.22081 16.9321 8.16835 16.9522 8.12045C16.9723 8.07255 17.005 8.031 17.0468 8.00022L18.0268 7.06022V6.85122H14.6268L12.2098 12.8902L9.45581 6.85122H5.89381V7.05722L7.03981 8.43922C7.09484 8.48935 7.13748 8.55157 7.16437 8.62098C7.19127 8.69039 7.20169 8.76509 7.19481 8.83922V14.2712C7.21181 14.3678 7.20562 14.467 7.17676 14.5607C7.1479 14.6544 7.09719 14.7399 7.02881 14.8102L5.73881 16.3782V16.5782H9.39981V16.3722L8.10681 14.8112C8.03756 14.7412 7.98545 14.6561 7.95457 14.5626C7.92369 14.4691 7.91487 14.3697 7.92881 14.2722V9.57222L11.1398 16.5812H11.5138L14.2738 9.57822Z" fill="currentColor"/>
  </g>
  <defs>
    <clipPath id="clip0_131_8963">
      <rect width="24" height="24" fill="white"/>
    </clipPath>
  </defs>
</svg>
