<svg width="15" height="14" viewBox="0 0 15 14" fill="none" xmlns="http://www.w3.org/2000/svg">
<path d="M10.3814 1.75C11.1637 1.75 11.9162 2.05917 12.4697 2.61392C13.0239 3.1675 13.3337 3.91417 13.3337 4.69583V9.30417C13.3337 10.9317 12.0095 12.25 10.3814 12.25H4.61866C2.99058 12.25 1.66699 10.9317 1.66699 9.30417V4.69583C1.66699 3.06833 2.98474 1.75 4.61866 1.75H10.3814ZM11.0412 4.78333C10.9187 4.77692 10.802 4.81833 10.7139 4.9L8.08366 7C7.74533 7.28058 7.26058 7.28058 6.91699 7L4.29199 4.9C4.11058 4.76583 3.85974 4.78333 3.70866 4.94083C3.55116 5.09833 3.53366 5.34917 3.66724 5.52417L3.74366 5.6L6.39783 7.67083C6.72449 7.9275 7.12058 8.0675 7.53533 8.0675C7.94891 8.0675 8.35199 7.9275 8.67808 7.67083L11.3095 5.565L11.3562 5.51833C11.4956 5.34917 11.4956 5.10417 11.3497 4.935C11.2687 4.84808 11.1572 4.795 11.0412 4.78333Z" fill="#141416"/>
</svg>
