<svg xmlns="http://www.w3.org/2000/svg"  viewBox="0 0 16 17" fill="none">
<g clip-path="url(#clip0_262_5799)">
<path d="M8.66634 9.16667C9.37358 9.16667 10.0519 9.44762 10.552 9.94771C11.0521 10.4478 11.333 11.1261 11.333 11.8333V12.8333C11.333 13.0985 11.2276 13.3529 11.0401 13.5404C10.8526 13.728 10.5982 13.8333 10.333 13.8333H2.33301C2.06779 13.8333 1.81344 13.728 1.6259 13.5404C1.43836 13.3529 1.33301 13.0985 1.33301 12.8333V11.8333C1.33301 11.1261 1.61396 10.4478 2.11406 9.94771C2.61415 9.44762 3.29243 9.16667 3.99967 9.16667H8.66634ZM12.6663 9.16667C13.1968 9.16667 13.7055 9.37738 14.0806 9.75245C14.4556 10.1275 14.6663 10.6362 14.6663 11.1667V12.1667C14.6663 12.4319 14.561 12.6862 14.3734 12.8738C14.1859 13.0613 13.9316 13.1667 13.6663 13.1667H12.6663V11.8333C12.6668 11.3158 12.5465 10.8053 12.315 10.3423C12.0835 9.87942 11.7473 9.47687 11.333 9.16667H12.6663ZM6.33301 2.5C7.12866 2.5 7.89172 2.81607 8.45433 3.37868C9.01694 3.94129 9.33301 4.70435 9.33301 5.5C9.33301 6.29565 9.01694 7.05871 8.45433 7.62132C7.89172 8.18393 7.12866 8.5 6.33301 8.5C5.53736 8.5 4.7743 8.18393 4.21169 7.62132C3.64908 7.05871 3.33301 6.29565 3.33301 5.5C3.33301 4.70435 3.64908 3.94129 4.21169 3.37868C4.7743 2.81607 5.53736 2.5 6.33301 2.5ZM11.9997 4.5C12.5301 4.5 13.0388 4.71071 13.4139 5.08579C13.789 5.46086 13.9997 5.96957 13.9997 6.5C13.9997 7.03043 13.789 7.53914 13.4139 7.91421C13.0388 8.28929 12.5301 8.5 11.9997 8.5C11.4692 8.5 10.9605 8.28929 10.5855 7.91421C10.2104 7.53914 9.99967 7.03043 9.99967 6.5C9.99967 5.96957 10.2104 5.46086 10.5855 5.08579C10.9605 4.71071 11.4692 4.5 11.9997 4.5Z" fill="currentColor"/>
</g>
<defs>
<clipPath id="clip0_262_5799">
<rect width="16" height="16" fill="white" transform="translate(0 0.5)"/>
</clipPath>
</defs>
</svg>