<svg xmlns="http://www.w3.org/2000/svg" width="24" height="24" viewBox="0 0 24 24" fill="none">
  <g clip-path="url(#clip0_131_8965)">
    <path opacity="0.998" d="M9.36203 14.3951C9.12385 14.3971 8.89047 14.3281 8.69161 14.1971C8.49275 14.066 8.33739 13.8787 8.24533 13.659C8.15327 13.4393 8.12866 13.1972 8.17464 12.9635C8.22063 12.7298 8.33512 12.5151 8.50354 12.3466C8.67196 12.1782 8.8867 12.0637 9.1204 12.0177C9.35411 11.9718 9.59621 11.9964 9.81589 12.0884C10.0356 12.1805 10.2229 12.3358 10.354 12.5347C10.4851 12.7336 10.554 12.9669 10.552 13.2051C10.5494 13.5199 10.4232 13.8211 10.2006 14.0437C9.97799 14.2663 9.67683 14.3925 9.36203 14.3951ZM23.999 11.9951C23.999 14.3685 23.2952 16.6886 21.9767 18.662C20.6581 20.6353 18.7839 22.1734 16.5912 23.0817C14.3985 23.9899 11.9857 24.2276 9.65794 23.7645C7.33017 23.3015 5.19198 22.1586 3.51375 20.4804C1.83552 18.8022 0.692628 16.664 0.229605 14.3362C-0.233417 12.0084 0.00422287 9.59563 0.912474 7.40292C1.82073 5.2102 3.3588 3.33606 5.33219 2.01748C7.30558 0.698905 9.62565 -0.00488277 11.999 -0.00488277C13.5754 -0.00501427 15.1363 0.305444 16.5927 0.908754C18.049 1.51206 19.3722 2.3964 20.4867 3.51125C21.6012 4.6261 22.4851 5.9496 23.0879 7.40615C23.6907 8.8627 24.0007 10.4237 24 12.0001L23.999 11.9951ZM17.599 10.0011C17.3845 10.0015 17.1722 10.0444 16.9745 10.1275C16.7767 10.2106 16.5974 10.3321 16.447 10.4851C15.2084 9.66997 13.7636 9.22363 12.281 9.19812L13.123 5.40912L15.804 6.00912C15.8048 6.32448 15.9304 6.6267 16.1534 6.8497C16.3764 7.0727 16.6787 7.19833 16.994 7.19912C17.2082 7.20012 17.4187 7.1438 17.6037 7.03599C17.7888 6.92819 17.9416 6.77283 18.0463 6.58604C18.1511 6.39924 18.2039 6.18783 18.1994 5.97372C18.1948 5.75962 18.1331 5.55063 18.0205 5.36844C17.908 5.18625 17.7487 5.0375 17.5593 4.93762C17.3699 4.83775 17.1571 4.79039 16.9432 4.80046C16.7293 4.81053 16.522 4.87766 16.3428 4.99488C16.1636 5.11211 16.019 5.27516 15.924 5.46712L12.963 4.80912C12.8906 4.79464 12.8154 4.80873 12.7532 4.84843C12.6909 4.88813 12.6464 4.95037 12.629 5.02212L11.705 9.20312C10.2317 9.24171 8.79861 9.69204 7.56803 10.5031C7.40598 10.3357 7.20932 10.2057 6.9918 10.1222C6.77428 10.0387 6.54116 10.0038 6.30871 10.0197C6.07627 10.0357 5.85012 10.1023 5.64607 10.2147C5.44203 10.3272 5.26501 10.4829 5.12738 10.6709C4.98976 10.8589 4.89486 11.0747 4.84931 11.3032C4.80376 11.5317 4.80866 11.7674 4.86368 11.9938C4.91869 12.2202 5.02249 12.4318 5.16781 12.6139C5.31314 12.7961 5.49648 12.9442 5.70503 13.0481C5.65069 13.2944 5.6232 13.5459 5.62303 13.7981C5.62303 16.3431 8.48803 18.4041 12.01 18.4041C15.532 18.4041 18.41 16.3431 18.41 13.7981C18.4114 13.5403 18.3805 13.2833 18.318 13.0331C18.637 12.8697 18.8918 12.604 19.0418 12.2785C19.1917 11.953 19.228 11.5866 19.1449 11.238C19.0618 10.8894 18.8641 10.5788 18.5834 10.356C18.3027 10.1332 17.9554 10.011 17.597 10.0091L17.599 10.0011ZM14.265 15.6241C13.384 16.5051 10.583 16.4901 9.73603 15.6241C9.68188 15.5732 9.61035 15.5449 9.53603 15.5449C9.46171 15.5449 9.39018 15.5732 9.33603 15.6241C9.30744 15.6507 9.28463 15.6829 9.26904 15.7187C9.25345 15.7545 9.2454 15.7931 9.2454 15.8321C9.2454 15.8712 9.25345 15.9098 9.26904 15.9456C9.28463 15.9813 9.30744 16.0135 9.33603 16.0401C10.436 17.1401 13.56 17.1401 14.668 16.0401C14.6966 16.0135 14.7194 15.9813 14.735 15.9456C14.7506 15.9098 14.7587 15.8712 14.7587 15.8321C14.7587 15.7931 14.7506 15.7545 14.735 15.7187C14.7194 15.6829 14.6966 15.6507 14.668 15.6241C14.613 15.5727 14.5403 15.5445 14.465 15.5455C14.3897 15.5464 14.3177 15.5764 14.264 15.6291L14.265 15.6241ZM14.638 11.9951C14.4007 11.9951 14.1687 12.0655 13.9713 12.1974C13.774 12.3292 13.6202 12.5166 13.5294 12.7359C13.4385 12.9552 13.4148 13.1964 13.4611 13.4292C13.5074 13.662 13.6217 13.8758 13.7895 14.0436C13.9573 14.2115 14.1711 14.3258 14.4039 14.3721C14.6367 14.4184 14.878 14.3946 15.0972 14.3038C15.3165 14.2129 15.5039 14.0591 15.6358 13.8618C15.7676 13.6645 15.838 13.4325 15.838 13.1951C15.8367 12.8776 15.7096 12.5735 15.4844 12.3495C15.2593 12.1255 14.9546 11.9999 14.637 12.0001L14.638 11.9951Z" fill="currentColor"/>
  </g>
  <defs>
    <clipPath id="clip0_131_8965">
      <rect width="24" height="24" fill="white"/>
    </clipPath>
  </defs>
</svg>
