<svg xmlns="http://www.w3.org/2000/svg" viewBox="0 0 16 16" fill="none">
<path fill-rule="evenodd" clip-rule="evenodd" d="M10.9671 7.77972C10.9671 7.03705 10.3625 6.43237 9.61979 6.43237C8.87646 6.43237 8.27246 7.03705 8.27246 7.77972C8.27246 8.52172 8.87646 9.12639 9.61979 9.12639C10.3625 9.12639 10.9671 8.52172 10.9671 7.77972Z" fill="currentColor"/>
<path fill-rule="evenodd" clip-rule="evenodd" d="M12.16 10.4126C12.0627 10.5106 11.934 10.56 11.806 10.56C11.678 10.56 11.5507 10.5106 11.4527 10.414L10.8213 9.78395C10.468 9.99662 10.06 10.126 9.61867 10.126C8.32467 10.126 7.272 9.07328 7.272 7.77995C7.272 6.48528 8.32467 5.43262 9.61867 5.43262C10.9133 5.43262 11.9667 6.48528 11.9667 7.77995C11.9667 8.27062 11.8133 8.72595 11.5547 9.10328L12.1587 9.70529C12.3547 9.89995 12.3547 10.2173 12.16 10.4126ZM11.4487 3.19995H4.55133C2.42667 3.19995 1 4.69195 1 6.91328V9.08662C1 11.308 2.42667 12.8 4.55133 12.8H11.4493C13.5727 12.8 15 11.308 15 9.08662V6.91328C15 4.69195 13.5727 3.19995 11.4487 3.19995Z" fill="currentColor"/>
</svg>