<svg xmlns="http://www.w3.org/2000/svg" viewBox="0 0 20 20" fill="none">
<path fill-rule="evenodd" clip-rule="evenodd" d="M10.8172 17.9162C10.1572 17.9162 9.50138 17.8354 8.86888 17.6745C8.49554 17.5804 8.20304 17.2579 8.10387 16.8337C7.98721 16.3312 7.67887 15.9145 7.23388 15.657C6.82804 15.4229 6.35388 15.3529 5.89554 15.4604C5.47388 15.562 5.05471 15.442 4.80304 15.1495C4.15554 14.3929 3.66388 13.5387 3.34054 12.6095C3.19721 12.1979 3.35054 11.7287 3.73221 11.4154C4.15721 11.0662 4.40054 10.5504 4.40054 9.99952C4.40054 9.44952 4.15721 8.93369 3.73221 8.58452C3.35054 8.27115 3.19721 7.80198 3.34054 7.39031C3.66388 6.46031 4.15637 5.60615 4.80304 4.85115C5.05387 4.55781 5.47388 4.43865 5.89721 4.53948C6.35304 4.64698 6.82804 4.57615 7.23388 4.34198C7.67887 4.08531 7.98721 3.66865 8.10304 3.16781C8.20304 2.74115 8.49554 2.41948 8.86971 2.32448C10.133 2.00448 11.4989 2.00365 12.7655 2.32448C13.1397 2.41948 13.4322 2.74198 13.5305 3.16781C13.6464 3.66781 13.9555 4.08531 14.4005 4.34198C14.8072 4.57781 15.2814 4.64698 15.738 4.53948C16.1597 4.43781 16.5797 4.55781 16.8305 4.85031C17.4764 5.60448 17.968 6.45865 18.293 7.39031C18.4372 7.80198 18.283 8.27115 17.9014 8.58452C17.4772 8.93452 17.2339 9.45036 17.2339 9.99952C17.2339 10.5495 17.4772 11.0654 17.9022 11.4162C18.283 11.7287 18.4372 12.1979 18.2939 12.6095C17.968 13.5412 17.4764 14.3954 16.8314 15.1487C16.5797 15.4412 16.1622 15.5595 15.7364 15.4604C15.2797 15.3537 14.8064 15.4229 14.4005 15.657C13.9555 15.9145 13.6464 16.332 13.5305 16.832C13.4322 17.257 13.1397 17.5804 12.7647 17.6745C12.133 17.8354 11.4764 17.9162 10.8172 17.9162ZM8.56804 10.0007C8.56804 8.75819 9.57554 7.75065 10.818 7.75065C12.0605 7.75065 13.068 8.75819 13.068 10.0007C13.068 11.2432 12.0605 12.2507 10.818 12.2507C9.57554 12.2507 8.56804 11.2432 8.56804 10.0007Z" fill="currentColor"/>
</svg>