<svg width="25" height="24" viewBox="0 0 25 24" fill="none" xmlns="http://www.w3.org/2000/svg">
<g clip-path="url(#clip0_76_5634)">
<path fill-rule="evenodd" clip-rule="evenodd" d="M9.74994 2C10.0782 2 10.4033 2.06466 10.7066 2.1903C11.01 2.31594 11.2856 2.50009 11.5177 2.73223C11.7499 2.96438 11.934 3.23998 12.0596 3.54329C12.1853 3.84661 12.2499 4.1717 12.2499 4.5V9.105L17.6919 9.71C18.6702 9.81876 19.5739 10.2844 20.2304 11.0177C20.8868 11.7511 21.2498 12.7008 21.2499 13.685V14C21.2499 16.1217 20.4071 18.1566 18.9068 19.6569C17.4065 21.1571 15.3717 22 13.2499 22H12.5759C11.0903 22 9.63411 21.5862 8.37039 20.8052C7.10666 20.0242 6.08537 18.9067 5.42094 17.578L2.57894 11.894C2.21894 11.174 2.48594 10.211 3.32594 9.866C4.36794 9.439 5.35994 9.359 6.37994 9.878C6.67694 10.028 6.96494 10.225 7.24994 10.462V4.5C7.24994 3.83696 7.51333 3.20107 7.98217 2.73223C8.45101 2.26339 9.0869 2 9.74994 2ZM9.74994 4C9.61733 4 9.49015 4.05268 9.39639 4.14645C9.30262 4.24021 9.24994 4.36739 9.24994 4.5V13C9.25004 13.2073 9.18572 13.4095 9.0659 13.5786C8.94607 13.7477 8.77665 13.8754 8.58107 13.9441C8.38549 14.0127 8.17341 14.0189 7.97418 13.9617C7.77494 13.9045 7.59839 13.7869 7.46894 13.625L7.13694 13.218L6.83494 12.864C6.25494 12.207 5.83294 11.844 5.47494 11.661C5.21952 11.5235 4.92331 11.482 4.63994 11.544L7.20994 16.684C7.70831 17.6804 8.47427 18.5184 9.42201 19.1041C10.3698 19.6897 11.4618 20 12.5759 20H13.2499C14.8412 20 16.3674 19.3679 17.4926 18.2426C18.6178 17.1174 19.2499 15.5913 19.2499 14V13.685C19.25 13.1926 19.0684 12.7176 18.74 12.3507C18.4115 11.9839 17.9593 11.7512 17.4699 11.697L12.0289 11.093C11.5396 11.0388 11.0874 10.8061 10.7589 10.4393C10.4305 10.0724 10.2489 9.59736 10.2489 9.105V4.5C10.2489 4.36739 10.1963 4.24021 10.1025 4.14645C10.0087 4.05268 9.88155 4 9.74894 4H9.74994ZM6.10994 3.798C6.17721 3.91103 6.22152 4.03621 6.24033 4.16638C6.25914 4.29656 6.25209 4.42917 6.21958 4.55661C6.18707 4.68406 6.12974 4.80384 6.05086 4.90909C5.97199 5.01435 5.87313 5.10301 5.75994 5.17C5.28168 5.45283 4.83802 5.79044 4.43794 6.176C4.34794 6.264 4.25794 6.354 4.17494 6.449L4.05394 6.595C3.89701 6.80763 3.6623 6.94949 3.40109 6.98959C3.13988 7.02969 2.87342 6.96476 2.65994 6.809C2.44773 6.65097 2.306 6.41598 2.26524 6.15455C2.22447 5.89312 2.28792 5.62614 2.44194 5.411C2.62304 5.17175 2.82373 4.94797 3.04194 4.742C3.55515 4.24789 4.12395 3.815 4.73694 3.452C4.84975 3.38476 4.97469 3.3404 5.10464 3.32145C5.23459 3.3025 5.367 3.30933 5.49431 3.34155C5.62162 3.37377 5.74133 3.43076 5.84662 3.50925C5.95191 3.58773 6.0407 3.68619 6.10794 3.799L6.10994 3.798ZM13.3329 3.398C13.4389 3.15497 13.6371 2.96398 13.8839 2.86703C14.1307 2.77008 14.4059 2.7751 14.6489 2.881C15.5713 3.27939 16.4251 3.82071 17.1789 4.485C17.4949 4.765 17.8079 5.068 18.0579 5.411C18.2141 5.6253 18.2788 5.89287 18.2377 6.15485C18.1967 6.41683 18.0532 6.65177 17.8389 6.808C17.4289 7.108 16.8679 7.038 16.5249 6.686L16.2809 6.401L16.1409 6.254L15.9589 6.077C15.3371 5.50837 14.6247 5.04768 13.8509 4.714C13.608 4.60818 13.417 4.41025 13.3198 4.16369C13.2227 3.91712 13.2274 3.64109 13.3329 3.398Z" fill="white"/>
</g>
<defs>
<clipPath id="clip0_76_5634">
<rect width="24" height="24" fill="white" transform="translate(0.25)"/>
</clipPath>
</defs>
</svg>
