<svg width="25" height="24" viewBox="0 0 25 24" fill="none" xmlns="http://www.w3.org/2000/svg">
<g clip-path="url(#clip0_76_5625)">
<path fill-rule="evenodd" clip-rule="evenodd" d="M10.2499 2C10.5782 2 10.9033 2.06466 11.2066 2.1903C11.51 2.31594 11.7856 2.50009 12.0177 2.73223C12.2499 2.96438 12.434 3.23998 12.5596 3.54329C12.6853 3.84661 12.7499 4.1717 12.7499 4.5V9.105L18.1919 9.71C19.1702 9.81876 20.0739 10.2844 20.7304 11.0177C21.3868 11.7511 21.7498 12.7008 21.7499 13.685V14C21.7499 16.1217 20.9071 18.1566 19.4068 19.6569C17.9065 21.1571 15.8717 22 13.7499 22H13.0759C11.5903 22 10.1341 21.5862 8.87039 20.8052C7.60666 20.0242 6.58537 18.9067 5.92094 17.578L3.07894 11.894C2.71894 11.174 2.98594 10.211 3.82594 9.866C4.86794 9.439 5.85994 9.359 6.87994 9.878C7.17694 10.028 7.46494 10.225 7.74994 10.462V4.5C7.74994 3.83696 8.01333 3.20107 8.48217 2.73223C8.95101 2.26339 9.5869 2 10.2499 2ZM10.2499 4C10.1173 4 9.99015 4.05268 9.89639 4.14645C9.80262 4.24021 9.74994 4.36739 9.74994 4.5V13C9.75004 13.2073 9.68572 13.4095 9.5659 13.5786C9.44607 13.7477 9.27665 13.8754 9.08107 13.9441C8.88549 14.0127 8.67341 14.0189 8.47418 13.9617C8.27494 13.9045 8.09839 13.7869 7.96894 13.625L7.63694 13.218L7.33494 12.864C6.75494 12.207 6.33294 11.844 5.97494 11.661C5.71952 11.5235 5.42331 11.482 5.13994 11.544L7.70994 16.684C8.20831 17.6804 8.97427 18.5184 9.92201 19.1041C10.8698 19.6897 11.9618 20 13.0759 20H13.7499C15.3412 20 16.8674 19.3679 17.9926 18.2426C19.1178 17.1174 19.7499 15.5913 19.7499 14V13.685C19.75 13.1926 19.5684 12.7176 19.24 12.3507C18.9115 11.9839 18.4593 11.7512 17.9699 11.697L12.5289 11.093C12.0396 11.0388 11.5874 10.8061 11.2589 10.4393C10.9305 10.0724 10.7489 9.59736 10.7489 9.105V4.5C10.7489 4.36739 10.6963 4.24021 10.6025 4.14645C10.5087 4.05268 10.3815 4 10.2489 4H10.2499ZM6.60994 3.798C6.67721 3.91103 6.72152 4.03621 6.74033 4.16638C6.75914 4.29656 6.75209 4.42917 6.71958 4.55661C6.68707 4.68406 6.62974 4.80384 6.55086 4.90909C6.47199 5.01435 6.37313 5.10301 6.25994 5.17C5.78168 5.45283 5.33802 5.79044 4.93794 6.176C4.84794 6.264 4.75794 6.354 4.67494 6.449L4.55394 6.595C4.39701 6.80763 4.1623 6.94949 3.90109 6.98959C3.63988 7.02969 3.37342 6.96476 3.15994 6.809C2.94773 6.65097 2.806 6.41598 2.76524 6.15455C2.72447 5.89312 2.78792 5.62614 2.94194 5.411C3.12304 5.17175 3.32373 4.94797 3.54194 4.742C4.05515 4.24789 4.62395 3.815 5.23694 3.452C5.34975 3.38476 5.47469 3.3404 5.60464 3.32145C5.73459 3.3025 5.867 3.30933 5.99431 3.34155C6.12162 3.37377 6.24133 3.43076 6.34662 3.50925C6.45191 3.58773 6.5407 3.68619 6.60794 3.799L6.60994 3.798ZM13.8329 3.398C13.9389 3.15497 14.1371 2.96398 14.3839 2.86703C14.6307 2.77008 14.9059 2.7751 15.1489 2.881C16.0713 3.27939 16.9251 3.82071 17.6789 4.485C17.9949 4.765 18.3079 5.068 18.5579 5.411C18.7141 5.6253 18.7788 5.89287 18.7377 6.15485C18.6967 6.41683 18.5532 6.65177 18.3389 6.808C17.9289 7.108 17.3679 7.038 17.0249 6.686L16.7809 6.401L16.6409 6.254L16.4589 6.077C15.8371 5.50837 15.1247 5.04768 14.3509 4.714C14.108 4.60818 13.917 4.41025 13.8198 4.16369C13.7227 3.91712 13.7274 3.64109 13.8329 3.398Z" fill="white"/>
</g>
<defs>
<clipPath id="clip0_76_5625">
<rect width="24" height="24" fill="white" transform="translate(0.75)"/>
</clipPath>
</defs>
</svg>
