<svg xmlns="http://www.w3.org/2000/svg" viewBox="0 0 20 20" fill="none">
  <g clip-path="url(#clip0_2274_17202)">
    <path d="M14.4108 2.8871C14.5542 2.7435 14.7451 2.65715 14.9476 2.64426C15.1501 2.63137 15.3504 2.69283 15.5108 2.8171L15.5892 2.8871L17.9458 5.24377C18.0953 5.39373 18.1821 5.59496 18.1885 5.80659C18.195 6.01821 18.1207 6.22436 17.9806 6.38316C17.8406 6.54197 17.6454 6.64152 17.4346 6.6616C17.2238 6.68168 17.0133 6.62078 16.8458 6.49127L16.7675 6.4221L15.8333 5.48793V15.8329C15.8331 16.0453 15.7518 16.2496 15.606 16.4041C15.4602 16.5585 15.2609 16.6515 15.0488 16.6639C14.8368 16.6764 14.628 16.6074 14.4651 16.471C14.3023 16.3347 14.1976 16.1413 14.1725 15.9304L14.1667 15.8329V5.48793L13.2325 6.4221C13.0829 6.57314 12.8812 6.66129 12.6687 6.6685C12.4562 6.67571 12.249 6.60143 12.0895 6.46088C11.93 6.32032 11.8302 6.12411 11.8107 5.91241C11.7911 5.70071 11.8531 5.48953 11.9842 5.3221L12.0533 5.24377L14.4108 2.8871ZM10.8333 14.9996C11.0457 14.9998 11.25 15.0812 11.4045 15.227C11.5589 15.3728 11.6519 15.5721 11.6643 15.7841C11.6768 15.9961 11.6078 16.2049 11.4714 16.3678C11.3351 16.5307 11.1417 16.6353 10.9308 16.6604L10.8333 16.6663H3.33333C3.12093 16.666 2.91664 16.5847 2.76219 16.4389C2.60775 16.2931 2.5148 16.0938 2.50236 15.8818C2.48991 15.6697 2.5589 15.4609 2.69522 15.2981C2.83155 15.1352 3.02492 15.0305 3.23583 15.0054L3.33333 14.9996H10.8333ZM10.8333 9.16627C11.0543 9.16627 11.2663 9.25406 11.4226 9.41034C11.5789 9.56662 11.6667 9.77858 11.6667 9.9996C11.6667 10.2206 11.5789 10.4326 11.4226 10.5889C11.2663 10.7451 11.0543 10.8329 10.8333 10.8329H3.33333C3.11232 10.8329 2.90036 10.7451 2.74408 10.5889C2.5878 10.4326 2.5 10.2206 2.5 9.9996C2.5 9.77858 2.5878 9.56662 2.74408 9.41034C2.90036 9.25406 3.11232 9.16627 3.33333 9.16627H10.8333ZM9.16667 3.33293C9.38768 3.33293 9.59964 3.42073 9.75592 3.57701C9.9122 3.73329 10 3.94525 10 4.16627C10 4.38728 9.9122 4.59924 9.75592 4.75552C9.59964 4.9118 9.38768 4.9996 9.16667 4.9996H3.33333C3.11232 4.9996 2.90036 4.9118 2.74408 4.75552C2.5878 4.59924 2.5 4.38728 2.5 4.16627C2.5 3.94525 2.5878 3.73329 2.74408 3.57701C2.90036 3.42073 3.11232 3.33293 3.33333 3.33293H9.16667Z" fill="currentColor"/>
  </g>
  <defs>
    <clipPath id="clip0_2274_17202">
      <rect width="20" height="20" fill="white"/>
    </clipPath>
  </defs>
</svg>