<svg xmlns="http://www.w3.org/2000/svg" viewBox="0 0 41 41" fill="none">
  <g clip-path="url(#clip0_2016_8371)">
    <path fill-rule="evenodd" clip-rule="evenodd" d="M16.3334 3.83337C16.8805 3.83337 17.4223 3.94115 17.9279 4.15054C18.4334 4.35994 18.8927 4.66685 19.2796 5.05376C19.6665 5.44067 19.9735 5.9 20.1829 6.40553C20.3922 6.91105 20.5 7.45287 20.5 8.00004V15.675L29.57 16.6834C31.2004 16.8646 32.7067 17.6406 33.8008 18.8629C34.8948 20.0852 35.4998 21.668 35.5 23.3084V23.8334C35.5 27.3696 34.0953 30.761 31.5948 33.2615C29.0943 35.7619 25.7029 37.1667 22.1667 37.1667H21.0434C18.5674 37.1666 16.1403 36.4771 14.0341 35.1754C11.9279 33.8737 10.2257 32.0113 9.11836 29.7967L4.38169 20.3234C3.78169 19.1234 4.22669 17.5184 5.62669 16.9434C7.36336 16.2317 9.01669 16.0984 10.7167 16.9634C11.2117 17.2134 11.6917 17.5417 12.1667 17.9367V8.00004C12.1667 6.89497 12.6057 5.83516 13.3871 5.05376C14.1685 4.27236 15.2283 3.83337 16.3334 3.83337ZM16.3334 7.16671C16.1123 7.16671 15.9004 7.2545 15.7441 7.41079C15.5878 7.56707 15.5 7.77903 15.5 8.00004V22.1667C15.5002 22.5122 15.393 22.8491 15.1933 23.131C14.9936 23.4129 14.7112 23.6257 14.3852 23.7401C14.0593 23.8545 13.7058 23.8648 13.3738 23.7695C13.0417 23.6743 12.7474 23.4782 12.5317 23.2084L11.9784 22.53L11.475 21.94C10.5084 20.845 9.80502 20.24 9.20835 19.935C8.78266 19.7059 8.28898 19.6367 7.81669 19.74L12.1 28.3067C12.9306 29.9674 14.2072 31.364 15.7868 32.3401C17.3664 33.3163 19.1865 33.8333 21.0434 33.8334H22.1667C24.8189 33.8334 27.3624 32.7798 29.2378 30.9044C31.1131 29.0291 32.1667 26.4855 32.1667 23.8334V23.3084C32.1667 22.4878 31.8641 21.696 31.3167 21.0846C30.7693 20.4733 30.0156 20.0853 29.2 19.995L20.1317 18.9884C19.3161 18.8981 18.5624 18.5101 18.015 17.8988C17.4676 17.2874 17.165 16.4956 17.165 15.675V8.00004C17.165 7.77903 17.0772 7.56707 16.9209 7.41079C16.7647 7.2545 16.5527 7.16671 16.3317 7.16671H16.3334ZM10.2667 6.83004C10.3788 7.01842 10.4526 7.22706 10.484 7.44401C10.5154 7.66097 10.5036 7.88199 10.4494 8.09439C10.3952 8.3068 10.2997 8.50644 10.1682 8.68186C10.0368 8.85729 9.872 9.00506 9.68336 9.11671C8.88626 9.58809 8.14682 10.1508 7.48002 10.7934C7.33002 10.94 7.18002 11.09 7.04169 11.2484L6.84002 11.4917C6.57847 11.8461 6.18728 12.0825 5.75194 12.1494C5.31659 12.2162 4.87249 12.108 4.51669 11.8484C4.163 11.585 3.9268 11.1933 3.85885 10.7576C3.79091 10.3219 3.89665 9.87694 4.15336 9.51837C4.45519 9.11962 4.78968 8.74667 5.15336 8.40337C6.0087 7.57986 6.9567 6.85837 7.97835 6.25337C8.16636 6.14131 8.3746 6.06737 8.59119 6.03579C8.80777 6.00421 9.02845 6.01559 9.24063 6.06929C9.45282 6.123 9.65234 6.21797 9.82782 6.34878C10.0033 6.4796 10.1513 6.6437 10.2634 6.83171L10.2667 6.83004ZM22.305 6.16337C22.4817 5.75832 22.812 5.44001 23.2233 5.27842C23.6346 5.11684 24.0932 5.12522 24.4984 5.30171C26.0357 5.9657 27.4587 6.86788 28.715 7.97504C29.2417 8.44171 29.7634 8.94671 30.18 9.51837C30.4403 9.87555 30.5481 10.3215 30.4797 10.7581C30.4112 11.1948 30.1721 11.5863 29.815 11.8467C29.1317 12.3467 28.1967 12.23 27.625 11.6434L27.2184 11.1684L26.985 10.9234L26.6817 10.6284C25.6454 9.68065 24.4579 8.91285 23.1684 8.35671C22.7634 8.18034 22.445 7.85046 22.2832 7.43952C22.1213 7.02858 22.1292 6.56852 22.305 6.16337Z" fill="white"/>
  </g>
  <defs>
    <clipPath id="clip0_2016_8371">
      <rect width="40" height="40" fill="white" transform="translate(0.5 0.5)"/>
    </clipPath>
  </defs>
</svg>