<svg xmlns="http://www.w3.org/2000/svg" width="24" height="24" viewBox="0 0 24 24" fill="none">
  <g clip-path="url(#clip0_131_8959)">
    <path opacity="0.998" d="M12 0C9.62663 0 7.30655 0.703788 5.33316 2.02236C3.35977 3.34094 1.8217 5.21509 0.913451 7.4078C0.00519943 9.60051 -0.232441 12.0133 0.230582 14.3411C0.693605 16.6689 1.83649 18.8071 3.51472 20.4853C5.19295 22.1635 7.33115 23.3064 9.65892 23.7694C11.9867 24.2324 14.3995 23.9948 16.5922 23.0866C18.7849 22.1783 20.6591 20.6402 21.9776 18.6668C23.2962 16.6935 24 14.3734 24 12C24 8.8174 22.7357 5.76516 20.4853 3.51472C18.2348 1.26428 15.1826 0 12 0ZM17.894 8.221L15.925 17.502C15.78 18.16 15.388 18.32 14.841 18.01L11.841 15.799L10.394 17.193C10.3238 17.2857 10.2331 17.3611 10.1291 17.4131C10.025 17.4651 9.91034 17.4925 9.79401 17.493L10 14.437L15.56 9.414C15.802 9.201 15.507 9.08 15.187 9.293L8.31801 13.616L5.35701 12.692C4.71301 12.492 4.69901 12.048 5.49201 11.739L17.061 7.277C17.598 7.083 18.068 7.408 17.894 8.221Z" fill="currentColor"/>
  </g>
  <defs>
    <clipPath id="clip0_131_8959">
      <rect width="24" height="24" fill="white"/>
    </clipPath>
  </defs>
</svg>
