<svg width="14" height="14" viewBox="0 0 14 14" fill="none" xmlns="http://www.w3.org/2000/svg">
<g clip-path="url(#clip0_69_8029)">
<path fill-rule="evenodd" clip-rule="evenodd" d="M12.3617 3.18785C12.4711 3.29724 12.5325 3.44559 12.5325 3.60027C12.5325 3.75495 12.4711 3.90329 12.3617 4.01268L5.80391 10.5711C5.74432 10.6307 5.67357 10.678 5.5957 10.7103C5.51783 10.7425 5.43437 10.7591 5.35008 10.7591C5.26579 10.7591 5.18232 10.7425 5.10445 10.7103C5.02658 10.678 4.95583 10.6307 4.89625 10.5711L1.63775 7.3126C1.58355 7.2584 1.54056 7.19406 1.51123 7.12325C1.48189 7.05244 1.4668 6.97654 1.4668 6.89989C1.4668 6.82325 1.48189 6.74735 1.51123 6.67654C1.54056 6.60572 1.58355 6.54138 1.63775 6.48718C1.69194 6.43299 1.75629 6.39 1.8271 6.36066C1.89791 6.33133 1.97381 6.31624 2.05045 6.31624C2.1271 6.31624 2.203 6.33133 2.27381 6.36066C2.34462 6.39 2.40897 6.43299 2.46316 6.48718L5.35066 9.37468L11.5363 3.18785C11.6457 3.07849 11.7941 3.01706 11.9487 3.01706C12.1034 3.01706 12.2524 3.07849 12.3617 3.18785Z" fill="#141416"/>
</g>
<defs>
<clipPath id="clip0_69_8029">
<rect width="14" height="14" fill="white"/>
</clipPath>
</defs>
</svg>
