<svg xmlns="http://www.w3.org/2000/svg" width="16" height="16" viewBox="0 0 16 16" fill="none">
  <path fill-rule="evenodd" clip-rule="evenodd" d="M10.389 7.03863L7.67363 9.75529C7.57963 9.84929 7.4523 9.90196 7.31963 9.90196C7.18697 9.90196 7.05963 9.84929 6.9663 9.75529L5.64833 8.43529C5.45367 8.23929 5.45367 7.92263 5.649 7.72729C5.845 7.53263 6.16099 7.53329 6.35633 7.72796L7.3203 8.69396L9.68163 6.33127C9.87697 6.13594 10.1936 6.13594 10.389 6.33127C10.5843 6.52661 10.5843 6.84329 10.389 7.03863ZM13.8023 6.72396L13.3363 6.25794C13.1236 6.04461 13.007 5.76061 13.007 5.45994V4.79327C13.007 3.80061 12.199 2.99327 11.207 2.99327H10.539C10.237 2.99327 9.95363 2.87661 9.74163 2.66461L9.26763 2.19127C8.56297 1.49261 7.42163 1.49594 6.7223 2.19861L6.25766 2.66461C6.04366 2.87727 5.76033 2.99394 5.459 2.99394H4.79167C3.811 2.99461 3.011 3.78394 2.993 4.76127C2.99233 4.77194 2.99167 4.78261 2.99167 4.79394V5.45861C2.99167 5.75994 2.875 6.04327 2.66233 6.25594L2.19033 6.72863C2.18967 6.73063 2.18767 6.73129 2.18633 6.73263C1.48967 7.43796 1.49567 8.57929 2.19767 9.27463L2.66367 9.74196C2.87567 9.95463 2.993 10.2373 2.993 10.5386V11.2086C2.993 12.2006 3.79967 13.008 4.79167 13.008H5.45767C5.75967 13.0086 6.043 13.1253 6.255 13.3366L6.7303 13.8106C7.06897 14.1473 7.5183 14.3326 7.9963 14.3326H8.0043C8.48497 14.3306 8.93563 14.1413 9.27297 13.802L9.7403 13.3353C9.9503 13.126 10.241 13.006 10.5376 13.006H11.2083C12.1983 13.006 13.0056 12.2 13.0076 11.2086V10.54C13.0076 10.2393 13.1243 9.95596 13.3356 9.74329L13.8096 9.26929C14.5096 8.56529 14.5056 7.42329 13.8023 6.72396Z" fill="white"/>
  <path fill-rule="evenodd" clip-rule="evenodd" d="M10.389 7.03863L7.67363 9.75529C7.57963 9.84929 7.4523 9.90196 7.31963 9.90196C7.18697 9.90196 7.05963 9.84929 6.9663 9.75529L5.64833 8.43529C5.45367 8.23929 5.45367 7.92263 5.649 7.72729C5.845 7.53263 6.16099 7.53329 6.35633 7.72796L7.3203 8.69396L9.68163 6.33127C9.87697 6.13594 10.1936 6.13594 10.389 6.33127C10.5843 6.52661 10.5843 6.84329 10.389 7.03863ZM13.8023 6.72396L13.3363 6.25794C13.1236 6.04461 13.007 5.76061 13.007 5.45994V4.79327C13.007 3.80061 12.199 2.99327 11.207 2.99327H10.539C10.237 2.99327 9.95363 2.87661 9.74163 2.66461L9.26763 2.19127C8.56297 1.49261 7.42163 1.49594 6.7223 2.19861L6.25766 2.66461C6.04366 2.87727 5.76033 2.99394 5.459 2.99394H4.79167C3.811 2.99461 3.011 3.78394 2.993 4.76127C2.99233 4.77194 2.99167 4.78261 2.99167 4.79394V5.45861C2.99167 5.75994 2.875 6.04327 2.66233 6.25594L2.19033 6.72863C2.18967 6.73063 2.18767 6.73129 2.18633 6.73263C1.48967 7.43796 1.49567 8.57929 2.19767 9.27463L2.66367 9.74196C2.87567 9.95463 2.993 10.2373 2.993 10.5386V11.2086C2.993 12.2006 3.79967 13.008 4.79167 13.008H5.45767C5.75967 13.0086 6.043 13.1253 6.255 13.3366L6.7303 13.8106C7.06897 14.1473 7.5183 14.3326 7.9963 14.3326H8.0043C8.48497 14.3306 8.93563 14.1413 9.27297 13.802L9.7403 13.3353C9.9503 13.126 10.241 13.006 10.5376 13.006H11.2083C12.1983 13.006 13.0056 12.2 13.0076 11.2086V10.54C13.0076 10.2393 13.1243 9.95596 13.3356 9.74329L13.8096 9.26929C14.5096 8.56529 14.5056 7.42329 13.8023 6.72396Z" fill="url(#paint0_linear_66_13737)"/>
  <defs>
    <linearGradient id="paint0_linear_66_13737" x1="1.66748" y1="8.00103" x2="14.3322" y2="8.00103" gradientUnits="userSpaceOnUse">
      <stop stop-color="#FF5E0D"/>
      <stop offset="1" stop-color="#F50083"/>
    </linearGradient>
  </defs>
</svg>