<svg xmlns="http://www.w3.org/2000/svg" width="37" height="49" viewBox="0 0 37 49" fill="none">
  <path d="M34.2715 6.85327C34.3159 11.3488 34.7201 15.681 30.8116 18.7305C28.3028 20.6872 23.3317 21.8016 25.0568 26.0271C25.8572 27.9877 29.3576 29.0864 31.0649 30.5324C34.7132 33.624 34.31 37.8065 34.2715 42.1719H36.3909C36.4836 42.1719 36.9478 42.5427 36.9301 42.713C36.8089 44.5092 37.0996 46.5227 36.937 48.2916C36.9074 48.6095 36.8798 48.8541 36.5437 48.9774L0.53042 48.9999C0.198223 48.9177 0.10162 48.7044 0.0641615 48.3865C-0.139888 46.6626 0.223852 44.5679 0.0612043 42.803C-0.0107553 42.5946 0.489018 42.1719 0.608294 42.1719H2.72765C2.69315 37.8114 2.28998 33.6201 5.93428 30.5324C7.68004 29.0532 11.3293 27.931 12.04 25.8305C13.4417 21.692 8.6648 20.6696 6.18762 18.7295C2.27913 15.6692 2.6823 11.3576 2.72765 6.8523H0.411144C0.258354 6.8523 0.0838764 6.38171 0.0641615 6.21832C-0.140874 4.49837 0.225824 2.39784 0.0612043 0.634841C0.066133 0.321767 0.355942 0.122182 0.62998 0.0253251L36.1001 -0.000112151C36.4855 -0.0157659 36.9143 0.239585 36.938 0.635819C36.7734 2.39882 37.1411 4.49935 36.935 6.2193C36.9153 6.38268 36.7408 6.85327 36.588 6.85327H34.2715ZM31.8072 42.1719C31.7017 39.4286 32.2232 36.3439 30.7396 33.8882C28.4882 30.1616 22.4593 30.551 22.2415 24.811C21.9832 18.0193 29.9047 19.0661 31.4385 13.5805C31.8446 12.1286 31.9905 8.69552 31.8121 7.19081C31.7953 7.04797 31.8003 6.93937 31.6593 6.85327H5.33988C5.19892 6.93937 5.20384 7.04797 5.18709 7.19081C5.00768 8.71117 5.15061 12.1129 5.56069 13.5805C6.92594 18.4634 12.7537 17.9185 14.3614 22.3583C15.4448 25.3491 14.2717 28.2 11.6891 29.8857C7.7451 32.4598 5.45817 32.5694 5.18709 38.1078C5.12104 39.455 5.24426 40.8238 5.19103 42.1719H31.8062H31.8072Z" fill="white"/>
</svg>
