<svg width="20" height="20" viewBox="0 0 20 20" fill="none" xmlns="http://www.w3.org/2000/svg">
<path opacity="0.4" d="M18.3322 9.99984C18.3322 14.6032 14.6014 18.3332 9.99886 18.3332C5.39636 18.3332 1.66553 14.6032 1.66553 9.99984C1.66553 5.39817 5.39636 1.6665 9.99886 1.6665C14.6014 1.6665 18.3322 5.39817 18.3322 9.99984Z" fill="#777E91"/>
<path d="M12.9769 13.1785C12.8677 13.1785 12.7577 13.1502 12.6569 13.091L9.38522 11.1393C9.19689 11.026 9.08105 10.8218 9.08105 10.6018V6.396C9.08105 6.051 9.36105 5.771 9.70605 5.771C10.0511 5.771 10.3311 6.051 10.3311 6.396V10.2468L13.2977 12.016C13.5936 12.1935 13.6911 12.5768 13.5144 12.8735C13.3969 13.0693 13.1894 13.1785 12.9769 13.1785Z" fill="#777E91"/>
</svg>
