<svg viewBox="0 0 132 86" fill="none" xmlns="http://www.w3.org/2000/svg">
<g filter="url(#filter0_d_885_17790)">
<mask id="path-1-outside-1_885_17790" maskUnits="userSpaceOnUse" x="0" y="0" width="132" height="82" fill="black">
<rect fill="white" width="132" height="82"/>
<path d="M16.0783 34V12.36H3.23828V4.24H40.2783V12.36H27.4383V34H16.0783ZM62.8861 3.68H64.6861C67.3261 3.68 69.7261 3.86667 71.8861 4.24C74.0728 4.58667 75.8994 5.05333 77.3661 5.64C78.8594 6.2 80.1528 6.90667 81.2461 7.76C82.3661 8.58667 83.2461 9.42667 83.8861 10.28C84.5261 11.1333 85.0328 12.0667 85.4061 13.08C85.8061 14.0933 86.0594 15.0133 86.1661 15.84C86.2994 16.6667 86.3661 17.5333 86.3661 18.44V19.64C86.3661 20.5467 86.2994 21.4133 86.1661 22.24C86.0594 23.0667 85.8061 24 85.4061 25.04C85.0328 26.0533 84.5261 27 83.8861 27.88C83.2728 28.7333 82.4061 29.5867 81.2861 30.44C80.1661 31.2933 78.8728 32.0133 77.4061 32.6C75.9394 33.1867 74.1128 33.6533 71.9261 34C69.7661 34.3733 67.3528 34.56 64.6861 34.56H62.8861C60.2194 34.56 57.7928 34.3733 55.6061 34C53.4461 33.6533 51.6194 33.1867 50.1261 32.6C48.6594 32.0133 47.3661 31.2933 46.2461 30.44C45.1261 29.5867 44.2461 28.7333 43.6061 27.88C42.9928 27 42.4861 26.0533 42.0861 25.04C41.7128 24 41.4594 23.0667 41.3261 22.24C41.2194 21.4133 41.1661 20.5467 41.1661 19.64V18.44C41.1661 17.5333 41.2194 16.6667 41.3261 15.84C41.4594 15.0133 41.7128 14.0933 42.0861 13.08C42.4861 12.0667 42.9928 11.1333 43.6061 10.28C44.2461 9.42667 45.1261 8.58667 46.2461 7.76C47.3661 6.90667 48.6594 6.2 50.1261 5.64C51.6194 5.05333 53.4461 4.58667 55.6061 4.24C57.7928 3.86667 60.2194 3.68 62.8861 3.68ZM74.6061 19.28V18.72C74.6061 17.84 74.4461 17.0267 74.1261 16.28C73.8061 15.5067 73.2594 14.76 72.4861 14.04C71.7394 13.32 70.6194 12.7467 69.1261 12.32C67.6328 11.8933 65.8461 11.68 63.7661 11.68C61.6328 11.68 59.8194 11.8933 58.3261 12.32C56.8328 12.7467 55.7128 13.32 54.9661 14.04C54.2194 14.76 53.6861 15.5067 53.3661 16.28C53.0728 17.0267 52.9261 17.84 52.9261 18.72V19.2C52.9261 20.08 53.0861 20.92 53.4061 21.72C53.7261 22.4933 54.2594 23.2667 55.0061 24.04C55.7528 24.7867 56.8728 25.3867 58.3661 25.84C59.8861 26.2933 61.6861 26.52 63.7661 26.52C65.8461 26.52 67.6328 26.3067 69.1261 25.88C70.6461 25.4267 71.7794 24.8267 72.5261 24.08C73.2728 23.3333 73.8061 22.5733 74.1261 21.8C74.4461 21 74.6061 20.16 74.6061 19.28ZM113.997 24.68H100.557V34H89.1973V4.24H113.997C123.411 4.24 128.117 7.52 128.117 14.08V14.72C128.117 21.36 123.411 24.68 113.997 24.68ZM100.557 11.68V17.24H112.637C115.144 17.24 116.397 16.3333 116.397 14.52V14.4C116.397 12.5867 115.144 11.68 112.637 11.68H100.557ZM17.3653 60.4H10.1653V54.2C14.9653 53.9067 18.112 51.92 19.6053 48.24H28.6453V78H17.3653V60.4ZM75.2153 62.48V63.68C75.2153 64.9333 75.082 66.1467 74.8153 67.32C74.5753 68.4933 74.002 69.8 73.0953 71.24C72.2153 72.6533 71.0553 73.88 69.6153 74.92C68.1753 75.9333 66.1353 76.8 63.4953 77.52C60.882 78.2133 57.8286 78.56 54.3353 78.56H52.5353C49.042 78.56 45.9753 78.2133 43.3353 77.52C40.6953 76.8 38.6553 75.9333 37.2153 74.92C35.7753 73.88 34.602 72.6533 33.6953 71.24C32.8153 69.8 32.242 68.4933 31.9753 67.32C31.7353 66.1467 31.6153 64.9333 31.6153 63.68V62.48C31.6153 61.6 31.6686 60.7467 31.7753 59.92C31.9086 59.0933 32.162 58.1733 32.5353 57.16C32.9353 56.1467 33.442 55.2133 34.0553 54.36C34.6686 53.48 35.5086 52.6267 36.5753 51.8C37.6686 50.9467 38.922 50.2267 40.3353 49.64C41.7753 49.0533 43.5353 48.5867 45.6153 48.24C47.6953 47.8667 50.002 47.68 52.5353 47.68H54.3353C56.8686 47.68 59.1753 47.8667 61.2553 48.24C63.3353 48.5867 65.082 49.0533 66.4953 49.64C67.9086 50.2267 69.1486 50.9467 70.2153 51.8C71.3086 52.6267 72.162 53.48 72.7753 54.36C73.3886 55.2133 73.882 56.1467 74.2553 57.16C74.6553 58.1733 74.9086 59.0933 75.0153 59.92C75.1486 60.7467 75.2153 61.6 75.2153 62.48ZM63.4153 63.24V62.72C63.4153 61.8667 63.2553 61.0667 62.9353 60.32C62.642 59.5467 62.1353 58.8 61.4153 58.08C60.722 57.3333 59.682 56.7467 58.2953 56.32C56.9353 55.8933 55.3086 55.68 53.4153 55.68C51.4686 55.68 49.802 55.8933 48.4153 56.32C47.0286 56.7467 45.9886 57.3333 45.2953 58.08C44.602 58.8 44.1086 59.5467 43.8153 60.32C43.522 61.0667 43.3753 61.8667 43.3753 62.72V63.2C43.3753 64.0533 43.522 64.88 43.8153 65.68C44.1353 66.4533 44.642 67.2267 45.3353 68C46.0553 68.7467 47.1086 69.3467 48.4953 69.8C49.882 70.2533 51.522 70.48 53.4153 70.48C55.3086 70.48 56.9353 70.2533 58.2953 69.8C59.682 69.3467 60.722 68.7467 61.4153 68C62.1353 67.2533 62.642 66.4933 62.9353 65.72C63.2553 64.92 63.4153 64.0933 63.4153 63.24ZM120.645 62.48V63.68C120.645 64.9333 120.512 66.1467 120.245 67.32C120.005 68.4933 119.432 69.8 118.525 71.24C117.645 72.6533 116.485 73.88 115.045 74.92C113.605 75.9333 111.565 76.8 108.925 77.52C106.312 78.2133 103.258 78.56 99.765 78.56H97.965C94.4717 78.56 91.405 78.2133 88.765 77.52C86.125 76.8 84.085 75.9333 82.645 74.92C81.205 73.88 80.0317 72.6533 79.125 71.24C78.245 69.8 77.6717 68.4933 77.405 67.32C77.165 66.1467 77.045 64.9333 77.045 63.68V62.48C77.045 61.6 77.0983 60.7467 77.205 59.92C77.3383 59.0933 77.5917 58.1733 77.965 57.16C78.365 56.1467 78.8717 55.2133 79.485 54.36C80.0983 53.48 80.9383 52.6267 82.005 51.8C83.0983 50.9467 84.3517 50.2267 85.765 49.64C87.205 49.0533 88.965 48.5867 91.045 48.24C93.125 47.8667 95.4317 47.68 97.965 47.68H99.765C102.298 47.68 104.605 47.8667 106.685 48.24C108.765 48.5867 110.512 49.0533 111.925 49.64C113.338 50.2267 114.578 50.9467 115.645 51.8C116.738 52.6267 117.592 53.48 118.205 54.36C118.818 55.2133 119.312 56.1467 119.685 57.16C120.085 58.1733 120.338 59.0933 120.445 59.92C120.578 60.7467 120.645 61.6 120.645 62.48ZM108.845 63.24V62.72C108.845 61.8667 108.685 61.0667 108.365 60.32C108.072 59.5467 107.565 58.8 106.845 58.08C106.152 57.3333 105.112 56.7467 103.725 56.32C102.365 55.8933 100.738 55.68 98.845 55.68C96.8983 55.68 95.2317 55.8933 93.845 56.32C92.4583 56.7467 91.4183 57.3333 90.725 58.08C90.0317 58.8 89.5383 59.5467 89.245 60.32C88.9517 61.0667 88.805 61.8667 88.805 62.72V63.2C88.805 64.0533 88.9517 64.88 89.245 65.68C89.565 66.4533 90.0717 67.2267 90.765 68C91.485 68.7467 92.5383 69.3467 93.925 69.8C95.3117 70.2533 96.9517 70.48 98.845 70.48C100.738 70.48 102.365 70.2533 103.725 69.8C105.112 69.3467 106.152 68.7467 106.845 68C107.565 67.2533 108.072 66.4933 108.365 65.72C108.685 64.92 108.845 64.0933 108.845 63.24Z"/>
</mask>
<path d="M16.0783 34V12.36H3.23828V4.24H40.2783V12.36H27.4383V34H16.0783ZM62.8861 3.68H64.6861C67.3261 3.68 69.7261 3.86667 71.8861 4.24C74.0728 4.58667 75.8994 5.05333 77.3661 5.64C78.8594 6.2 80.1528 6.90667 81.2461 7.76C82.3661 8.58667 83.2461 9.42667 83.8861 10.28C84.5261 11.1333 85.0328 12.0667 85.4061 13.08C85.8061 14.0933 86.0594 15.0133 86.1661 15.84C86.2994 16.6667 86.3661 17.5333 86.3661 18.44V19.64C86.3661 20.5467 86.2994 21.4133 86.1661 22.24C86.0594 23.0667 85.8061 24 85.4061 25.04C85.0328 26.0533 84.5261 27 83.8861 27.88C83.2728 28.7333 82.4061 29.5867 81.2861 30.44C80.1661 31.2933 78.8728 32.0133 77.4061 32.6C75.9394 33.1867 74.1128 33.6533 71.9261 34C69.7661 34.3733 67.3528 34.56 64.6861 34.56H62.8861C60.2194 34.56 57.7928 34.3733 55.6061 34C53.4461 33.6533 51.6194 33.1867 50.1261 32.6C48.6594 32.0133 47.3661 31.2933 46.2461 30.44C45.1261 29.5867 44.2461 28.7333 43.6061 27.88C42.9928 27 42.4861 26.0533 42.0861 25.04C41.7128 24 41.4594 23.0667 41.3261 22.24C41.2194 21.4133 41.1661 20.5467 41.1661 19.64V18.44C41.1661 17.5333 41.2194 16.6667 41.3261 15.84C41.4594 15.0133 41.7128 14.0933 42.0861 13.08C42.4861 12.0667 42.9928 11.1333 43.6061 10.28C44.2461 9.42667 45.1261 8.58667 46.2461 7.76C47.3661 6.90667 48.6594 6.2 50.1261 5.64C51.6194 5.05333 53.4461 4.58667 55.6061 4.24C57.7928 3.86667 60.2194 3.68 62.8861 3.68ZM74.6061 19.28V18.72C74.6061 17.84 74.4461 17.0267 74.1261 16.28C73.8061 15.5067 73.2594 14.76 72.4861 14.04C71.7394 13.32 70.6194 12.7467 69.1261 12.32C67.6328 11.8933 65.8461 11.68 63.7661 11.68C61.6328 11.68 59.8194 11.8933 58.3261 12.32C56.8328 12.7467 55.7128 13.32 54.9661 14.04C54.2194 14.76 53.6861 15.5067 53.3661 16.28C53.0728 17.0267 52.9261 17.84 52.9261 18.72V19.2C52.9261 20.08 53.0861 20.92 53.4061 21.72C53.7261 22.4933 54.2594 23.2667 55.0061 24.04C55.7528 24.7867 56.8728 25.3867 58.3661 25.84C59.8861 26.2933 61.6861 26.52 63.7661 26.52C65.8461 26.52 67.6328 26.3067 69.1261 25.88C70.6461 25.4267 71.7794 24.8267 72.5261 24.08C73.2728 23.3333 73.8061 22.5733 74.1261 21.8C74.4461 21 74.6061 20.16 74.6061 19.28ZM113.997 24.68H100.557V34H89.1973V4.24H113.997C123.411 4.24 128.117 7.52 128.117 14.08V14.72C128.117 21.36 123.411 24.68 113.997 24.68ZM100.557 11.68V17.24H112.637C115.144 17.24 116.397 16.3333 116.397 14.52V14.4C116.397 12.5867 115.144 11.68 112.637 11.68H100.557ZM17.3653 60.4H10.1653V54.2C14.9653 53.9067 18.112 51.92 19.6053 48.24H28.6453V78H17.3653V60.4ZM75.2153 62.48V63.68C75.2153 64.9333 75.082 66.1467 74.8153 67.32C74.5753 68.4933 74.002 69.8 73.0953 71.24C72.2153 72.6533 71.0553 73.88 69.6153 74.92C68.1753 75.9333 66.1353 76.8 63.4953 77.52C60.882 78.2133 57.8286 78.56 54.3353 78.56H52.5353C49.042 78.56 45.9753 78.2133 43.3353 77.52C40.6953 76.8 38.6553 75.9333 37.2153 74.92C35.7753 73.88 34.602 72.6533 33.6953 71.24C32.8153 69.8 32.242 68.4933 31.9753 67.32C31.7353 66.1467 31.6153 64.9333 31.6153 63.68V62.48C31.6153 61.6 31.6686 60.7467 31.7753 59.92C31.9086 59.0933 32.162 58.1733 32.5353 57.16C32.9353 56.1467 33.442 55.2133 34.0553 54.36C34.6686 53.48 35.5086 52.6267 36.5753 51.8C37.6686 50.9467 38.922 50.2267 40.3353 49.64C41.7753 49.0533 43.5353 48.5867 45.6153 48.24C47.6953 47.8667 50.002 47.68 52.5353 47.68H54.3353C56.8686 47.68 59.1753 47.8667 61.2553 48.24C63.3353 48.5867 65.082 49.0533 66.4953 49.64C67.9086 50.2267 69.1486 50.9467 70.2153 51.8C71.3086 52.6267 72.162 53.48 72.7753 54.36C73.3886 55.2133 73.882 56.1467 74.2553 57.16C74.6553 58.1733 74.9086 59.0933 75.0153 59.92C75.1486 60.7467 75.2153 61.6 75.2153 62.48ZM63.4153 63.24V62.72C63.4153 61.8667 63.2553 61.0667 62.9353 60.32C62.642 59.5467 62.1353 58.8 61.4153 58.08C60.722 57.3333 59.682 56.7467 58.2953 56.32C56.9353 55.8933 55.3086 55.68 53.4153 55.68C51.4686 55.68 49.802 55.8933 48.4153 56.32C47.0286 56.7467 45.9886 57.3333 45.2953 58.08C44.602 58.8 44.1086 59.5467 43.8153 60.32C43.522 61.0667 43.3753 61.8667 43.3753 62.72V63.2C43.3753 64.0533 43.522 64.88 43.8153 65.68C44.1353 66.4533 44.642 67.2267 45.3353 68C46.0553 68.7467 47.1086 69.3467 48.4953 69.8C49.882 70.2533 51.522 70.48 53.4153 70.48C55.3086 70.48 56.9353 70.2533 58.2953 69.8C59.682 69.3467 60.722 68.7467 61.4153 68C62.1353 67.2533 62.642 66.4933 62.9353 65.72C63.2553 64.92 63.4153 64.0933 63.4153 63.24ZM120.645 62.48V63.68C120.645 64.9333 120.512 66.1467 120.245 67.32C120.005 68.4933 119.432 69.8 118.525 71.24C117.645 72.6533 116.485 73.88 115.045 74.92C113.605 75.9333 111.565 76.8 108.925 77.52C106.312 78.2133 103.258 78.56 99.765 78.56H97.965C94.4717 78.56 91.405 78.2133 88.765 77.52C86.125 76.8 84.085 75.9333 82.645 74.92C81.205 73.88 80.0317 72.6533 79.125 71.24C78.245 69.8 77.6717 68.4933 77.405 67.32C77.165 66.1467 77.045 64.9333 77.045 63.68V62.48C77.045 61.6 77.0983 60.7467 77.205 59.92C77.3383 59.0933 77.5917 58.1733 77.965 57.16C78.365 56.1467 78.8717 55.2133 79.485 54.36C80.0983 53.48 80.9383 52.6267 82.005 51.8C83.0983 50.9467 84.3517 50.2267 85.765 49.64C87.205 49.0533 88.965 48.5867 91.045 48.24C93.125 47.8667 95.4317 47.68 97.965 47.68H99.765C102.298 47.68 104.605 47.8667 106.685 48.24C108.765 48.5867 110.512 49.0533 111.925 49.64C113.338 50.2267 114.578 50.9467 115.645 51.8C116.738 52.6267 117.592 53.48 118.205 54.36C118.818 55.2133 119.312 56.1467 119.685 57.16C120.085 58.1733 120.338 59.0933 120.445 59.92C120.578 60.7467 120.645 61.6 120.645 62.48ZM108.845 63.24V62.72C108.845 61.8667 108.685 61.0667 108.365 60.32C108.072 59.5467 107.565 58.8 106.845 58.08C106.152 57.3333 105.112 56.7467 103.725 56.32C102.365 55.8933 100.738 55.68 98.845 55.68C96.8983 55.68 95.2317 55.8933 93.845 56.32C92.4583 56.7467 91.4183 57.3333 90.725 58.08C90.0317 58.8 89.5383 59.5467 89.245 60.32C88.9517 61.0667 88.805 61.8667 88.805 62.72V63.2C88.805 64.0533 88.9517 64.88 89.245 65.68C89.565 66.4533 90.0717 67.2267 90.765 68C91.485 68.7467 92.5383 69.3467 93.925 69.8C95.3117 70.2533 96.9517 70.48 98.845 70.48C100.738 70.48 102.365 70.2533 103.725 69.8C105.112 69.3467 106.152 68.7467 106.845 68C107.565 67.2533 108.072 66.4933 108.365 65.72C108.685 64.92 108.845 64.0933 108.845 63.24Z" fill="white"/>
<path d="M16.0783 34H13.0783C13.0783 35.6569 14.4214 37 16.0783 37V34ZM16.0783 12.36H19.0783C19.0783 10.7031 17.7351 9.36 16.0783 9.36V12.36ZM3.23828 12.36H0.238281C0.238281 14.0169 1.58143 15.36 3.23828 15.36V12.36ZM3.23828 4.24V1.24C1.58143 1.24 0.238281 2.58315 0.238281 4.24H3.23828ZM40.2783 4.24H43.2783C43.2783 2.58315 41.9351 1.24 40.2783 1.24V4.24ZM40.2783 12.36V15.36C41.9351 15.36 43.2783 14.0169 43.2783 12.36H40.2783ZM27.4383 12.36V9.36C25.7814 9.36 24.4383 10.7031 24.4383 12.36H27.4383ZM27.4383 34V37C29.0951 37 30.4383 35.6569 30.4383 34H27.4383ZM16.0783 34H19.0783V12.36H16.0783H13.0783V34H16.0783ZM16.0783 12.36V9.36H3.23828V12.36V15.36H16.0783V12.36ZM3.23828 12.36H6.23828V4.24H3.23828H0.238281V12.36H3.23828ZM3.23828 4.24V7.24H40.2783V4.24V1.24H3.23828V4.24ZM40.2783 4.24H37.2783V12.36H40.2783H43.2783V4.24H40.2783ZM40.2783 12.36V9.36H27.4383V12.36V15.36H40.2783V12.36ZM27.4383 12.36H24.4383V34H27.4383H30.4383V12.36H27.4383ZM27.4383 34V31H16.0783V34V37H27.4383V34ZM71.8861 4.24L71.3752 7.19617C71.3889 7.19854 71.4026 7.20082 71.4164 7.20299L71.8861 4.24ZM77.3661 5.64L76.2519 8.42543C76.2721 8.4335 76.2924 8.44135 76.3127 8.44899L77.3661 5.64ZM81.2461 7.76L79.4003 10.1249C79.4215 10.1415 79.4429 10.1578 79.4645 10.1737L81.2461 7.76ZM83.8861 10.28L86.2861 8.48L86.2861 8.47999L83.8861 10.28ZM85.4061 13.08L82.5911 14.1171C82.599 14.1387 82.6072 14.1601 82.6156 14.1815L85.4061 13.08ZM86.1661 15.84L83.1908 16.2239C83.1948 16.2552 83.1993 16.2865 83.2044 16.3177L86.1661 15.84ZM86.1661 22.24L83.2044 21.7623C83.1993 21.7935 83.1948 21.8248 83.1908 21.8561L86.1661 22.24ZM85.4061 25.04L82.6061 23.9631C82.601 23.9763 82.596 23.9896 82.5911 24.0029L85.4061 25.04ZM83.8861 27.88L81.4599 26.1155C81.4566 26.12 81.4533 26.1245 81.4501 26.1291L83.8861 27.88ZM81.2861 30.44L79.468 28.0537V28.0537L81.2861 30.44ZM77.4061 32.6L78.5203 35.3854L77.4061 32.6ZM71.9261 34L71.4564 31.037C71.4426 31.0392 71.4289 31.0415 71.4152 31.0438L71.9261 34ZM55.6061 34L56.111 31.0428C56.1012 31.0411 56.0913 31.0395 56.0815 31.0379L55.6061 34ZM50.1261 32.6L49.0119 35.3854C49.0177 35.3877 49.0234 35.39 49.0291 35.3923L50.1261 32.6ZM46.2461 30.44L44.428 32.8263L46.2461 30.44ZM43.6061 27.88L41.1449 29.5954C41.1648 29.6239 41.1852 29.6521 41.2061 29.68L43.6061 27.88ZM42.0861 25.04L39.2625 26.0536C39.2731 26.0831 39.2841 26.1124 39.2956 26.1415L42.0861 25.04ZM41.3261 22.24L38.3508 22.6239C38.3548 22.6552 38.3593 22.6865 38.3644 22.7177L41.3261 22.24ZM41.3261 15.84L38.3644 15.3623C38.3593 15.3935 38.3548 15.4248 38.3508 15.4561L41.3261 15.84ZM42.0861 13.08L39.2956 11.9785C39.2872 11.9999 39.279 12.0213 39.2711 12.0429L42.0861 13.08ZM43.6061 10.28L41.2061 8.48C41.1939 8.49624 41.1819 8.5126 41.17 8.52909L43.6061 10.28ZM46.2461 7.76L48.0277 10.1737C48.0399 10.1647 48.0521 10.1555 48.0642 10.1463L46.2461 7.76ZM50.1261 5.64L51.1962 8.44265C51.2052 8.43923 51.2141 8.43576 51.223 8.43225L50.1261 5.64ZM55.6061 4.24L56.0815 7.20209C56.0913 7.20051 56.1012 7.19889 56.111 7.19721L55.6061 4.24ZM74.1261 16.28L71.354 17.4271C71.3588 17.4387 71.3637 17.4502 71.3687 17.4618L74.1261 16.28ZM72.4861 14.04L70.4037 16.1995C70.4163 16.2117 70.429 16.2237 70.4418 16.2357L72.4861 14.04ZM69.1261 12.32L69.9503 9.43543L69.9503 9.43543L69.1261 12.32ZM58.3261 12.32L57.5019 9.43543V9.43543L58.3261 12.32ZM54.9661 14.04L57.0485 16.1995V16.1995L54.9661 14.04ZM53.3661 16.28L50.594 15.1329C50.5872 15.1496 50.5804 15.1663 50.5738 15.183L53.3661 16.28ZM53.4061 21.72L50.6207 22.8342C50.6251 22.8452 50.6295 22.8561 50.634 22.8671L53.4061 21.72ZM55.0061 24.04L52.8479 26.1238C52.8601 26.1364 52.8724 26.1489 52.8848 26.1613L55.0061 24.04ZM58.3661 25.84L57.4947 28.7106C57.4993 28.7121 57.504 28.7135 57.5087 28.7149L58.3661 25.84ZM69.1261 25.88L69.9503 28.7646C69.9614 28.7614 69.9725 28.7582 69.9835 28.7549L69.1261 25.88ZM72.5261 24.08L74.6474 26.2013V26.2013L72.5261 24.08ZM74.1261 21.8L76.8981 22.9471C76.9027 22.9361 76.9071 22.9252 76.9115 22.9142L74.1261 21.8ZM62.8861 3.68V6.68H64.6861V3.68V0.679999H62.8861V3.68ZM64.6861 3.68V6.68C67.1882 6.68 69.4139 6.85719 71.3752 7.19617L71.8861 4.24L72.397 1.28383C70.0383 0.876144 67.4639 0.679999 64.6861 0.679999V3.68ZM71.8861 4.24L71.4164 7.20299C73.463 7.52746 75.057 7.94745 76.2519 8.42543L77.3661 5.64L78.4803 2.85457C76.7419 2.15922 74.6825 1.64587 72.3558 1.277L71.8861 4.24ZM77.3661 5.64L76.3127 8.44899C77.5628 8.91776 78.5799 9.48466 79.4003 10.1249L81.2461 7.76L83.0919 5.39505C81.7256 4.32867 80.1561 3.48224 78.4195 2.83101L77.3661 5.64ZM81.2461 7.76L79.4645 10.1737C80.417 10.8767 81.0653 11.5189 81.4861 12.08L83.8861 10.28L86.2861 8.47999C85.4269 7.33443 84.3152 6.29663 83.0277 5.34628L81.2461 7.76ZM83.8861 10.28L81.4861 12.08C81.9493 12.6976 82.3171 13.3734 82.5911 14.1171L85.4061 13.08L88.2211 12.0429C87.7485 10.7599 87.1029 9.56906 86.2861 8.48L83.8861 10.28ZM85.4061 13.08L82.6156 14.1815C82.9507 15.0304 83.1238 15.705 83.1908 16.2239L86.1661 15.84L89.1414 15.4561C88.9951 14.3217 88.6615 13.1562 88.1966 11.9785L85.4061 13.08ZM86.1661 15.84L83.2044 16.3177C83.3102 16.974 83.3661 17.6803 83.3661 18.44H86.3661H89.3661C89.3661 17.3864 89.2886 16.3593 89.1278 15.3623L86.1661 15.84ZM86.3661 18.44H83.3661V19.64H86.3661H89.3661V18.44H86.3661ZM86.3661 19.64H83.3661C83.3661 20.3997 83.3102 21.106 83.2044 21.7623L86.1661 22.24L89.1278 22.7177C89.2886 21.7207 89.3661 20.6936 89.3661 19.64H86.3661ZM86.1661 22.24L83.1908 21.8561C83.123 22.3815 82.947 23.0765 82.6061 23.9631L85.4061 25.04L88.2061 26.1169C88.6652 24.9235 88.9959 23.7519 89.1414 22.6239L86.1661 22.24ZM85.4061 25.04L82.5911 24.0029C82.314 24.755 81.9387 25.4572 81.4599 26.1155L83.8861 27.88L86.3123 29.6445C87.1135 28.5428 87.7516 27.3516 88.2211 26.0771L85.4061 25.04ZM83.8861 27.88L81.4501 26.1291C81.0576 26.6751 80.4265 27.3234 79.468 28.0537L81.2861 30.44L83.1042 32.8263C84.3857 31.8499 85.488 30.7915 86.3221 29.6309L83.8861 27.88ZM81.2861 30.44L79.468 28.0537C78.5879 28.7242 77.5371 29.3165 76.2919 29.8146L77.4061 32.6L78.5203 35.3854C80.2084 34.7102 81.7443 33.8624 83.1042 32.8263L81.2861 30.44ZM77.4061 32.6L76.2919 29.8146C75.097 30.2926 73.503 30.7125 71.4564 31.037L71.9261 34L72.3958 36.963C74.7225 36.5941 76.7819 36.0808 78.5203 35.3854L77.4061 32.6ZM71.9261 34L71.4152 31.0438C69.4554 31.3825 67.2168 31.56 64.6861 31.56V34.56V37.56C67.4887 37.56 70.0768 37.3641 72.437 36.9562L71.9261 34ZM64.6861 34.56V31.56H62.8861V34.56V37.56H64.6861V34.56ZM62.8861 34.56V31.56C60.356 31.56 58.1015 31.3826 56.111 31.0428L55.6061 34L55.1012 36.9572C57.484 37.364 60.0829 37.56 62.8861 37.56V34.56ZM55.6061 34L56.0815 31.0379C54.0631 30.714 52.4585 30.2931 51.2231 29.8077L50.1261 32.6L49.0291 35.3923C50.7804 36.0802 52.8291 36.5927 55.1307 36.9621L55.6061 34ZM50.1261 32.6L51.2403 29.8146C49.9951 29.3165 48.9443 28.7242 48.0642 28.0537L46.2461 30.44L44.428 32.8263C45.7879 33.8624 47.3238 34.7102 49.0119 35.3854L50.1261 32.6ZM46.2461 30.44L48.0642 28.0537C47.0985 27.3179 46.4369 26.6543 46.0061 26.08L43.6061 27.88L41.2061 29.68C42.0553 30.8123 43.1537 31.8554 44.428 32.8263L46.2461 30.44ZM43.6061 27.88L46.0673 26.1646C45.5893 25.4788 45.1924 24.7385 44.8766 23.9385L42.0861 25.04L39.2956 26.1415C39.7798 27.3681 40.3963 28.5212 41.1449 29.5954L43.6061 27.88ZM42.0861 25.04L44.9097 24.0264C44.5803 23.1088 44.3841 22.3593 44.2878 21.7623L41.3261 22.24L38.3644 22.7177C38.5347 23.774 38.8452 24.8912 39.2625 26.0536L42.0861 25.04ZM41.3261 22.24L44.3014 21.8561C44.2125 21.1672 44.1661 20.4294 44.1661 19.64H41.1661H38.1661C38.1661 20.664 38.2263 21.6594 38.3508 22.6239L41.3261 22.24ZM41.1661 19.64H44.1661V18.44H41.1661H38.1661V19.64H41.1661ZM41.1661 18.44H44.1661C44.1661 17.6506 44.2125 16.9128 44.3014 16.2239L41.3261 15.84L38.3508 15.4561C38.2263 16.4206 38.1661 17.416 38.1661 18.44H41.1661ZM41.3261 15.84L44.2878 16.3177C44.383 15.7273 44.5765 14.9983 44.9011 14.1171L42.0861 13.08L39.2711 12.0429C38.849 13.1884 38.5358 14.2993 38.3644 15.3623L41.3261 15.84ZM42.0861 13.08L44.8766 14.1815C45.189 13.39 45.5785 12.676 46.0421 12.0309L43.6061 10.28L41.17 8.52909C40.407 9.5907 39.7832 10.7434 39.2956 11.9785L42.0861 13.08ZM43.6061 10.28L46.0061 12.08C46.4269 11.5189 47.0752 10.8767 48.0277 10.1737L46.2461 7.76L44.4645 5.34628C43.177 6.29663 42.0653 7.33443 41.2061 8.48L43.6061 10.28ZM46.2461 7.76L48.0642 10.1463C48.9316 9.48547 49.9671 8.91194 51.1962 8.44265L50.1261 5.64L49.056 2.83734C47.3517 3.48805 45.8006 4.32787 44.428 5.3737L46.2461 7.76ZM50.1261 5.64L51.223 8.43225C52.4585 7.94691 54.0631 7.52603 56.0815 7.20209L55.6061 4.24L55.1307 1.27791C52.8291 1.6473 50.7804 2.15976 49.0291 2.84774L50.1261 5.64ZM55.6061 4.24L56.111 7.19721C58.1015 6.85737 60.356 6.68 62.8861 6.68V3.68V0.679999C60.0829 0.679999 57.484 0.875967 55.1012 1.28279L55.6061 4.24ZM74.6061 19.28H77.6061V18.72H74.6061H71.6061V19.28H74.6061ZM74.6061 18.72H77.6061C77.6061 17.4679 77.3765 16.2485 76.8835 15.0982L74.1261 16.28L71.3687 17.4618C71.5157 17.8048 71.6061 18.2121 71.6061 18.72H74.6061ZM74.1261 16.28L76.8981 15.1329C76.3763 13.8719 75.5386 12.7831 74.5303 11.8443L72.4861 14.04L70.4418 16.2357C70.9802 16.7369 71.2358 17.1414 71.354 17.4271L74.1261 16.28ZM72.4861 14.04L74.5685 11.8805C73.3355 10.6915 71.6998 9.9353 69.9503 9.43543L69.1261 12.32L68.3019 15.2046C69.539 15.558 70.1433 15.9485 70.4037 16.1995L72.4861 14.04ZM69.1261 12.32L69.9503 9.43543C68.1157 8.91128 66.0369 8.68 63.7661 8.68V11.68V14.68C65.6553 14.68 67.1498 14.8754 68.3019 15.2046L69.1261 12.32ZM63.7661 11.68V8.68C61.45 8.68 59.3421 8.90965 57.5019 9.43543L58.3261 12.32L59.1503 15.2046C60.2967 14.877 61.8155 14.68 63.7661 14.68V11.68ZM58.3261 12.32L57.5019 9.43543C55.7524 9.9353 54.1166 10.6915 52.8837 11.8805L54.9661 14.04L57.0485 16.1995C57.3089 15.9485 57.9132 15.558 59.1503 15.2046L58.3261 12.32ZM54.9661 14.04L52.8837 11.8805C51.909 12.8203 51.1048 13.8986 50.594 15.1329L53.3661 16.28L56.1381 17.4271C56.2674 17.1147 56.5298 16.6997 57.0485 16.1995L54.9661 14.04ZM53.3661 16.28L50.5738 15.183C50.1305 16.3116 49.9261 17.501 49.9261 18.72H52.9261H55.9261C55.9261 18.179 56.015 17.7418 56.1583 17.377L53.3661 16.28ZM52.9261 18.72H49.9261V19.2H52.9261H55.9261V18.72H52.9261ZM52.9261 19.2H49.9261C49.9261 20.4533 50.1559 21.6722 50.6207 22.8342L53.4061 21.72L56.1915 20.6058C56.0163 20.1678 55.9261 19.7067 55.9261 19.2H52.9261ZM53.4061 21.72L50.634 22.8671C51.1326 24.0718 51.9107 25.1531 52.8479 26.1238L55.0061 24.04L57.1643 21.9562C56.6082 21.3802 56.3196 20.9148 56.1781 20.5729L53.4061 21.72ZM55.0061 24.04L52.8848 26.1613C54.1072 27.3838 55.7381 28.1774 57.4947 28.7106L58.3661 25.84L59.2375 22.9694C58.0074 22.5959 57.3983 22.1896 57.1274 21.9187L55.0061 24.04ZM58.3661 25.84L57.5087 28.7149C59.3779 29.2724 61.4805 29.52 63.7661 29.52V26.52V23.52C61.8916 23.52 60.3943 23.3143 59.2235 22.9651L58.3661 25.84ZM63.7661 26.52V29.52C66.0369 29.52 68.1158 29.2887 69.9503 28.7646L69.1261 25.88L68.3019 22.9954C67.1498 23.3246 65.6553 23.52 63.7661 23.52V26.52ZM69.1261 25.88L69.9835 28.7549C71.7603 28.225 73.4155 27.4333 74.6474 26.2013L72.5261 24.08L70.4048 21.9587C70.1434 22.22 69.5319 22.6284 68.2687 23.0051L69.1261 25.88ZM72.5261 24.08L74.6474 26.2013C75.6027 25.2461 76.3935 24.1665 76.8981 22.9471L74.1261 21.8L71.354 20.6529C71.2187 20.9801 70.9429 21.4206 70.4048 21.9587L72.5261 24.08ZM74.1261 21.8L76.9115 22.9142C77.3763 21.7522 77.6061 20.5333 77.6061 19.28H74.6061H71.6061C71.6061 19.7867 71.5159 20.2478 71.3407 20.6858L74.1261 21.8ZM100.557 24.68V21.68C98.9005 21.68 97.5573 23.0231 97.5573 24.68H100.557ZM100.557 34V37C102.214 37 103.557 35.6569 103.557 34H100.557ZM89.1973 34H86.1973C86.1973 35.6569 87.5405 37 89.1973 37V34ZM89.1973 4.24V1.24C87.5405 1.24 86.1973 2.58315 86.1973 4.24H89.1973ZM100.557 11.68V8.68C98.9005 8.68 97.5573 10.0231 97.5573 11.68H100.557ZM100.557 17.24H97.5573C97.5573 18.8969 98.9005 20.24 100.557 20.24V17.24ZM113.997 24.68V21.68H100.557V24.68V27.68H113.997V24.68ZM100.557 24.68H97.5573V34H100.557H103.557V24.68H100.557ZM100.557 34V31H89.1973V34V37H100.557V34ZM89.1973 34H92.1973V4.24H89.1973H86.1973V34H89.1973ZM89.1973 4.24V7.24H113.997V4.24V1.24H89.1973V4.24ZM113.997 4.24V7.24C118.448 7.24 121.252 8.03209 122.872 9.16129C124.296 10.1532 125.117 11.6183 125.117 14.08H128.117H131.117C131.117 9.98168 129.586 6.52676 126.303 4.23871C123.216 2.08791 118.96 1.24 113.997 1.24V4.24ZM128.117 14.08H125.117V14.72H128.117H131.117V14.08H128.117ZM128.117 14.72H125.117C125.117 17.2364 124.284 18.7327 122.858 19.7385C121.241 20.8795 118.443 21.68 113.997 21.68V24.68V27.68C118.965 27.68 123.227 26.8205 126.317 24.6415C129.597 22.3273 131.117 18.8436 131.117 14.72H128.117ZM100.557 11.68H97.5573V17.24H100.557H103.557V11.68H100.557ZM100.557 17.24V20.24H112.637V17.24V14.24H100.557V17.24ZM112.637 17.24V20.24C114.163 20.24 115.848 19.9802 117.216 18.9907C118.764 17.8709 119.397 16.2002 119.397 14.52H116.397H113.397C113.397 14.6296 113.379 14.5823 113.438 14.4545C113.504 14.3104 113.609 14.1944 113.699 14.1293C113.771 14.0774 113.761 14.1098 113.579 14.1536C113.396 14.1978 113.093 14.24 112.637 14.24V17.24ZM116.397 14.52H119.397V14.4H116.397H113.397V14.52H116.397ZM116.397 14.4H119.397C119.397 12.7198 118.764 11.0491 117.216 9.92933C115.848 8.9398 114.163 8.68 112.637 8.68V11.68V14.68C113.093 14.68 113.396 14.7221 113.579 14.7664C113.761 14.8102 113.771 14.8426 113.699 14.7907C113.609 14.7256 113.504 14.6096 113.438 14.4655C113.379 14.3377 113.397 14.2904 113.397 14.4H116.397ZM112.637 11.68V8.68H100.557V11.68V14.68H112.637V11.68ZM17.3653 60.4H20.3653C20.3653 58.7431 19.0222 57.4 17.3653 57.4V60.4ZM10.1653 60.4H7.16531C7.16531 62.0569 8.50846 63.4 10.1653 63.4V60.4ZM10.1653 54.2L9.98232 51.2056C8.39948 51.3023 7.16531 52.6142 7.16531 54.2H10.1653ZM19.6053 48.24V45.24C18.3841 45.24 17.2847 45.9803 16.8255 47.1119L19.6053 48.24ZM28.6453 48.24H31.6453C31.6453 46.5831 30.3022 45.24 28.6453 45.24V48.24ZM28.6453 78V81C30.3022 81 31.6453 79.6569 31.6453 78H28.6453ZM17.3653 78H14.3653C14.3653 79.6569 15.7085 81 17.3653 81V78ZM17.3653 60.4V57.4H10.1653V60.4V63.4H17.3653V60.4ZM10.1653 60.4H13.1653V54.2H10.1653H7.16531V60.4H10.1653ZM10.1653 54.2L10.3483 57.1944C13.1088 57.0257 15.6199 56.357 17.7269 55.0267C19.8671 53.6755 21.4194 51.7479 22.3852 49.368L19.6053 48.24L16.8255 47.1119C16.2979 48.4121 15.5302 49.3179 14.5237 49.9533C13.4841 50.6097 12.0218 51.081 9.98232 51.2056L10.1653 54.2ZM19.6053 48.24V51.24H28.6453V48.24V45.24H19.6053V48.24ZM28.6453 48.24H25.6453V78H28.6453H31.6453V48.24H28.6453ZM28.6453 78V75H17.3653V78V81H28.6453V78ZM17.3653 78H20.3653V60.4H17.3653H14.3653V78H17.3653ZM74.8153 67.32L71.8899 66.6551C71.8851 66.6763 71.8805 66.6975 71.8762 66.7188L74.8153 67.32ZM73.0953 71.24L70.5566 69.6416C70.5539 69.6458 70.5513 69.6501 70.5486 69.6543L73.0953 71.24ZM69.6153 74.92L71.3418 77.3734C71.3518 77.3664 71.3618 77.3592 71.3718 77.352L69.6153 74.92ZM63.4953 77.52L64.2646 80.4197C64.2713 80.4179 64.278 80.4161 64.2847 80.4143L63.4953 77.52ZM43.3353 77.52L42.546 80.4143C42.5551 80.4168 42.5642 80.4192 42.5733 80.4216L43.3353 77.52ZM37.2153 74.92L35.4588 77.352C35.4688 77.3592 35.4788 77.3664 35.4888 77.3734L37.2153 74.92ZM33.6953 71.24L31.1355 72.8044C31.1469 72.823 31.1584 72.8415 31.1702 72.8599L33.6953 71.24ZM31.9753 67.32L29.0362 67.9212C29.0405 67.9425 29.0451 67.9637 29.0499 67.9849L31.9753 67.32ZM31.7753 59.92L28.8136 59.4423C28.8086 59.4735 28.804 59.5048 28.8 59.5361L31.7753 59.92ZM32.5353 57.16L29.7448 56.0585C29.7364 56.0799 29.7282 56.1013 29.7203 56.1229L32.5353 57.16ZM34.0553 54.36L36.4914 56.1109C36.4998 56.0991 36.5082 56.0873 36.5165 56.0754L34.0553 54.36ZM36.5753 51.8L38.413 54.1713L38.4211 54.1649L36.5753 51.8ZM40.3353 49.64L39.2034 46.8617C39.1973 46.8642 39.1913 46.8667 39.1852 46.8692L40.3353 49.64ZM45.6153 48.24L46.1085 51.1992C46.1208 51.1971 46.1331 51.195 46.1453 51.1928L45.6153 48.24ZM61.2553 48.24L60.7253 51.1928C60.7376 51.195 60.7498 51.1971 60.7621 51.1992L61.2553 48.24ZM66.4953 49.64L67.6454 46.8692V46.8692L66.4953 49.64ZM70.2153 51.8L68.3412 54.1426C68.3626 54.1597 68.3842 54.1765 68.406 54.193L70.2153 51.8ZM72.7753 54.36L70.3141 56.0754C70.3224 56.0873 70.3308 56.0991 70.3393 56.1109L72.7753 54.36ZM74.2553 57.16L71.4403 58.1971C71.4482 58.2187 71.4564 58.2401 71.4649 58.2615L74.2553 57.16ZM75.0153 59.92L72.04 60.3039C72.044 60.3352 72.0486 60.3665 72.0536 60.3977L75.0153 59.92ZM62.9353 60.32L60.1303 61.384C60.1453 61.4236 60.1612 61.4628 60.1779 61.5018L62.9353 60.32ZM61.4153 58.08L59.2169 60.1213C59.2421 60.1485 59.2678 60.1751 59.294 60.2013L61.4153 58.08ZM58.2953 56.32L57.3973 59.1824C57.4025 59.1841 57.4078 59.1857 57.4131 59.1873L58.2953 56.32ZM48.4153 56.32L47.5331 53.4527H47.5331L48.4153 56.32ZM45.2953 58.08L47.4563 60.1609C47.4689 60.1478 47.4813 60.1347 47.4937 60.1214L45.2953 58.08ZM43.8153 60.32L46.6076 61.417C46.6119 61.406 46.6161 61.395 46.6203 61.384L43.8153 60.32ZM43.8153 65.68L40.9987 66.7128C41.0128 66.7512 41.0276 66.7893 41.0433 66.8271L43.8153 65.68ZM45.3353 68L43.1016 70.0026C43.1258 70.0297 43.1506 70.0563 43.1758 70.0824L45.3353 68ZM48.4953 69.8L49.4275 66.9485H49.4275L48.4953 69.8ZM58.2953 69.8L57.3631 66.9485C57.3576 66.9503 57.3521 66.9521 57.3466 66.9539L58.2953 69.8ZM61.4153 68L59.2558 65.9176C59.2427 65.9312 59.2298 65.9448 59.2169 65.9586L61.4153 68ZM62.9353 65.72L60.1499 64.6058C60.1432 64.6225 60.1367 64.6392 60.1303 64.656L62.9353 65.72ZM75.2153 62.48H72.2153V63.68H75.2153H78.2153V62.48H75.2153ZM75.2153 63.68H72.2153C72.2153 64.7189 72.105 65.7088 71.8899 66.6551L74.8153 67.32L77.7407 67.9849C78.059 66.5845 78.2153 65.1477 78.2153 63.68H75.2153ZM74.8153 67.32L71.8762 66.7188C71.7321 67.4233 71.3453 68.3889 70.5566 69.6416L73.0953 71.24L75.634 72.8384C76.6586 71.2111 77.4186 69.5634 77.7545 67.9212L74.8153 67.32ZM73.0953 71.24L70.5486 69.6543C69.8881 70.7152 69.0044 71.6607 67.8588 72.488L69.6153 74.92L71.3718 77.352C73.1063 76.0993 74.5426 74.5914 75.642 72.8257L73.0953 71.24ZM69.6153 74.92L67.8888 72.4666C66.8458 73.2006 65.1754 73.9522 62.706 74.6257L63.4953 77.52L64.2847 80.4143C67.0953 79.6478 69.5049 78.6661 71.3418 77.3734L69.6153 74.92ZM63.4953 77.52L62.726 74.6203C60.4243 75.231 57.6402 75.56 54.3353 75.56V78.56V81.56C58.0171 81.56 61.3396 81.1957 64.2646 80.4197L63.4953 77.52ZM54.3353 78.56V75.56H52.5353V78.56V81.56H54.3353V78.56ZM52.5353 78.56V75.56C49.2313 75.56 46.4306 75.2312 44.0974 74.6184L43.3353 77.52L42.5733 80.4216C45.52 81.1955 48.8526 81.56 52.5353 81.56V78.56ZM43.3353 77.52L44.1247 74.6257C41.6553 73.9522 39.9849 73.2006 38.9418 72.4666L37.2153 74.92L35.4888 77.3734C37.3258 78.6661 39.7354 79.6478 42.546 80.4143L43.3353 77.52ZM37.2153 74.92L38.9718 72.488C37.8188 71.6552 36.9125 70.699 36.2204 69.6201L33.6953 71.24L31.1702 72.8599C32.2915 74.6077 33.7318 76.1048 35.4588 77.352L37.2153 74.92ZM33.6953 71.24L36.2552 69.6757C35.4821 68.4107 35.0726 67.4113 34.9007 66.6551L31.9753 67.32L29.0499 67.9849C29.4114 69.5753 30.1485 71.1893 31.1355 72.8044L33.6953 71.24ZM31.9753 67.32L34.9145 66.7188C34.7168 65.7523 34.6153 64.7408 34.6153 63.68H31.6153H28.6153C28.6153 65.1259 28.7539 66.5411 29.0362 67.9212L31.9753 67.32ZM31.6153 63.68H34.6153V62.48H31.6153H28.6153V63.68H31.6153ZM31.6153 62.48H34.6153C34.6153 61.7213 34.6613 60.9964 34.7506 60.3039L31.7753 59.92L28.8 59.5361C28.676 60.4969 28.6153 61.4787 28.6153 62.48H31.6153ZM31.7753 59.92L34.737 60.3977C34.8323 59.8073 35.0257 59.0783 35.3503 58.1971L32.5353 57.16L29.7203 56.1229C29.2982 57.2684 28.985 58.3793 28.8136 59.4423L31.7753 59.92ZM32.5353 57.16L35.3258 58.2615C35.6382 57.47 36.0277 56.756 36.4914 56.1109L34.0553 54.36L31.6193 52.6091C30.8562 53.6707 30.2324 54.8234 29.7448 56.0585L32.5353 57.16ZM34.0553 54.36L36.5165 56.0754C36.9183 55.4988 37.5272 54.8578 38.413 54.1712L36.5753 51.8L34.7376 49.4288C33.4901 50.3956 32.419 51.4612 31.5941 52.6446L34.0553 54.36ZM36.5753 51.8L38.4211 54.1649C39.2812 53.4937 40.2958 52.9046 41.4854 52.4108L40.3353 49.64L39.1852 46.8692C37.5482 47.5487 36.0561 48.3997 34.7295 49.4351L36.5753 51.8ZM40.3353 49.64L41.4672 52.4183C42.6437 51.939 44.1756 51.5213 46.1085 51.1992L45.6153 48.24L45.1221 45.2808C42.895 45.652 40.9069 46.1677 39.2034 46.8617L40.3353 49.64ZM45.6153 48.24L46.1453 51.1928C48.02 50.8563 50.1459 50.68 52.5353 50.68V47.68V44.68C49.8581 44.68 47.3706 44.877 45.0853 45.2872L45.6153 48.24ZM52.5353 47.68V50.68H54.3353V47.68V44.68H52.5353V47.68ZM54.3353 47.68V50.68C56.7247 50.68 58.8506 50.8563 60.7253 51.1928L61.2553 48.24L61.7853 45.2872C59.5 44.877 57.0126 44.68 54.3353 44.68V47.68ZM61.2553 48.24L60.7621 51.1992C62.6948 51.5213 64.2053 51.9376 65.3452 52.4108L66.4953 49.64L67.6454 46.8692C65.9587 46.169 63.9758 45.652 61.7485 45.2808L61.2553 48.24ZM66.4953 49.64L65.3452 52.4108C66.5291 52.9022 67.5192 53.485 68.3412 54.1426L70.2153 51.8L72.0894 49.4574C70.7781 48.4084 69.2882 47.5511 67.6454 46.8692L66.4953 49.64ZM70.2153 51.8L68.406 54.193C69.3141 54.8796 69.9232 55.5145 70.3141 56.0754L72.7753 54.36L75.2365 52.6446C74.4008 51.4455 73.3032 50.3737 72.0246 49.407L70.2153 51.8ZM72.7753 54.36L70.3393 56.1109C70.7903 56.7385 71.1579 57.4307 71.4403 58.1971L74.2553 57.16L77.0703 56.1229C76.6061 54.8627 75.987 53.6882 75.2114 52.6091L72.7753 54.36ZM74.2553 57.16L71.4649 58.2615C71.7999 59.1104 71.973 59.785 72.04 60.3039L75.0153 59.92L77.9906 59.5361C77.8443 58.4017 77.5107 57.2363 77.0458 56.0585L74.2553 57.16ZM75.0153 59.92L72.0536 60.3977C72.1602 61.0586 72.2153 61.7519 72.2153 62.48H75.2153H78.2153C78.2153 61.4481 78.1371 60.4347 77.977 59.4423L75.0153 59.92ZM63.4153 63.24H66.4153V62.72H63.4153H60.4153V63.24H63.4153ZM63.4153 62.72H66.4153C66.4153 61.4813 66.1808 60.2771 65.6927 59.1382L62.9353 60.32L60.1779 61.5018C60.3298 61.8563 60.4153 62.2521 60.4153 62.72H63.4153ZM62.9353 60.32L65.7403 59.256C65.2659 58.0052 64.4891 56.9112 63.5366 55.9587L61.4153 58.08L59.294 60.2013C59.7815 60.6888 60.0181 61.0881 60.1303 61.384L62.9353 60.32ZM61.4153 58.08L63.6137 56.0386C62.4414 54.7761 60.8663 53.9723 59.1776 53.4527L58.2953 56.32L57.4131 59.1873C58.4977 59.5211 59.0026 59.8905 59.2169 60.1213L61.4153 58.08ZM58.2953 56.32L59.1933 53.4576C57.4652 52.9154 55.5197 52.68 53.4153 52.68V55.68V58.68C55.0976 58.68 56.4054 58.8713 57.3973 59.1824L58.2953 56.32ZM53.4153 55.68V52.68C51.2648 52.68 49.2842 52.9139 47.5331 53.4527L48.4153 56.32L49.2976 59.1873C50.3198 58.8728 51.6725 58.68 53.4153 58.68V55.68ZM48.4153 56.32L47.5331 53.4527C45.8443 53.9723 44.2693 54.7761 43.0969 56.0386L45.2953 58.08L47.4937 60.1214C47.708 59.8905 48.213 59.5211 49.2976 59.1873L48.4153 56.32ZM45.2953 58.08L43.1343 55.9991C42.2172 56.9515 41.4741 58.0334 41.0103 59.256L43.8153 60.32L46.6203 61.384C46.7432 61.06 46.9868 60.6485 47.4563 60.1609L45.2953 58.08ZM43.8153 60.32L41.0231 59.223C40.5839 60.341 40.3753 61.5154 40.3753 62.72H43.3753H46.3753C46.3753 62.2179 46.4601 61.7924 46.6076 61.417L43.8153 60.32ZM43.3753 62.72H40.3753V63.2H43.3753H46.3753V62.72H43.3753ZM43.3753 63.2H40.3753C40.3753 64.4052 40.5839 65.5815 40.9987 66.7128L43.8153 65.68L46.6319 64.6472C46.4601 64.1785 46.3753 63.7015 46.3753 63.2H43.3753ZM43.8153 65.68L41.0433 66.8271C41.52 67.9792 42.2342 69.0351 43.1016 70.0026L45.3353 68L47.569 65.9974C47.0498 65.4182 46.7506 64.9275 46.5874 64.5329L43.8153 65.68ZM45.3353 68L43.1758 70.0824C44.3459 71.2959 45.889 72.1042 47.5631 72.6515L48.4953 69.8L49.4275 66.9485C48.3283 66.5891 47.7647 66.1975 47.4948 65.9176L45.3353 68ZM48.4953 69.8L47.5631 72.6515C49.325 73.2275 51.2944 73.48 53.4153 73.48V70.48V67.48C51.7496 67.48 50.4389 67.2792 49.4275 66.9485L48.4953 69.8ZM53.4153 70.48V73.48C55.534 73.48 57.4979 73.2281 59.244 72.646L58.2953 69.8L57.3466 66.9539C56.3728 67.2786 55.0833 67.48 53.4153 67.48V70.48ZM58.2953 69.8L59.2275 72.6515C60.9019 72.1041 62.4563 71.2878 63.6137 70.0414L61.4153 68L59.2169 65.9586C58.9877 66.2056 58.4621 66.5892 57.3631 66.9485L58.2953 69.8ZM61.4153 68L63.5748 70.0824C64.5075 69.1152 65.2714 68.0203 65.7403 66.784L62.9353 65.72L60.1303 64.656C60.0126 64.9664 59.7631 65.3914 59.2558 65.9176L61.4153 68ZM62.9353 65.72L65.7207 66.8342C66.1811 65.6833 66.4153 64.4788 66.4153 63.24H63.4153H60.4153C60.4153 63.7079 60.3296 64.1567 60.1499 64.6058L62.9353 65.72ZM120.245 67.32L117.32 66.6551C117.315 66.6763 117.31 66.6975 117.306 66.7188L120.245 67.32ZM118.525 71.24L115.986 69.6416C115.984 69.6458 115.981 69.6501 115.978 69.6543L118.525 71.24ZM115.045 74.92L116.771 77.3734C116.782 77.3664 116.792 77.3592 116.801 77.352L115.045 74.92ZM108.925 77.52L109.694 80.4197C109.701 80.4179 109.708 80.4161 109.714 80.4143L108.925 77.52ZM88.765 77.52L87.9756 80.4143C87.9847 80.4168 87.9939 80.4192 88.003 80.4216L88.765 77.52ZM82.645 74.92L80.8885 77.352C80.8985 77.3592 80.9085 77.3664 80.9185 77.3734L82.645 74.92ZM79.125 71.24L76.5652 72.8044C76.5765 72.823 76.5881 72.8415 76.5999 72.8599L79.125 71.24ZM77.405 67.32L74.4659 67.9212C74.4702 67.9425 74.4748 67.9637 74.4796 67.9849L77.405 67.32ZM77.205 59.92L74.2433 59.4423C74.2382 59.4735 74.2337 59.5048 74.2297 59.5361L77.205 59.92ZM77.965 57.16L75.1745 56.0585C75.1661 56.0799 75.1579 56.1013 75.15 56.1229L77.965 57.16ZM79.485 54.36L81.921 56.1109C81.9295 56.0991 81.9379 56.0873 81.9462 56.0754L79.485 54.36ZM82.005 51.8L83.8427 54.1713L83.8508 54.1649L82.005 51.8ZM85.765 49.64L84.6331 46.8617C84.627 46.8642 84.6209 46.8667 84.6149 46.8692L85.765 49.64ZM91.045 48.24L91.5382 51.1992C91.5505 51.1971 91.5627 51.195 91.575 51.1928L91.045 48.24ZM106.685 48.24L106.155 51.1928C106.167 51.195 106.18 51.1971 106.192 51.1992L106.685 48.24ZM111.925 49.64L113.075 46.8692V46.8692L111.925 49.64ZM115.645 51.8L113.771 54.1426C113.792 54.1597 113.814 54.1765 113.836 54.193L115.645 51.8ZM118.205 54.36L115.744 56.0754C115.752 56.0873 115.76 56.0991 115.769 56.1109L118.205 54.36ZM119.685 57.16L116.87 58.1971C116.878 58.2187 116.886 58.2401 116.895 58.2615L119.685 57.16ZM120.445 59.92L117.47 60.3039C117.474 60.3352 117.478 60.3665 117.483 60.3977L120.445 59.92ZM108.365 60.32L105.56 61.384C105.575 61.4236 105.591 61.4628 105.608 61.5018L108.365 60.32ZM106.845 58.08L104.647 60.1213C104.672 60.1485 104.698 60.1751 104.724 60.2013L106.845 58.08ZM103.725 56.32L102.827 59.1824C102.832 59.1841 102.837 59.1857 102.843 59.1873L103.725 56.32ZM93.845 56.32L92.9627 53.4527H92.9627L93.845 56.32ZM90.725 58.08L92.886 60.1609C92.8986 60.1478 92.911 60.1347 92.9234 60.1214L90.725 58.08ZM89.245 60.32L92.0373 61.417C92.0416 61.406 92.0458 61.395 92.05 61.384L89.245 60.32ZM89.245 65.68L86.4284 66.7128C86.4425 66.7512 86.4573 66.7893 86.4729 66.8271L89.245 65.68ZM90.765 68L88.5313 70.0026C88.5555 70.0297 88.5803 70.0563 88.6055 70.0824L90.765 68ZM93.925 69.8L94.8572 66.9485L93.925 69.8ZM103.725 69.8L102.793 66.9485C102.787 66.9503 102.782 66.9521 102.776 66.9539L103.725 69.8ZM106.845 68L104.685 65.9176C104.672 65.9312 104.659 65.9448 104.647 65.9586L106.845 68ZM108.365 65.72L105.58 64.6058C105.573 64.6225 105.566 64.6392 105.56 64.656L108.365 65.72ZM120.645 62.48H117.645V63.68H120.645H123.645V62.48H120.645ZM120.645 63.68H117.645C117.645 64.7189 117.535 65.7088 117.32 66.6551L120.245 67.32L123.17 67.9849C123.489 66.5845 123.645 65.1477 123.645 63.68H120.645ZM120.245 67.32L117.306 66.7188C117.162 67.4233 116.775 68.3889 115.986 69.6416L118.525 71.24L121.064 72.8384C122.088 71.2111 122.848 69.5634 123.184 67.9212L120.245 67.32ZM118.525 71.24L115.978 69.6543C115.318 70.7152 114.434 71.6607 113.289 72.488L115.045 74.92L116.801 77.352C118.536 76.0993 119.972 74.5914 121.072 72.8257L118.525 71.24ZM115.045 74.92L113.319 72.4666C112.275 73.2006 110.605 73.9522 108.136 74.6257L108.925 77.52L109.714 80.4143C112.525 79.6478 114.935 78.6661 116.771 77.3734L115.045 74.92ZM108.925 77.52L108.156 74.6203C105.854 75.231 103.07 75.56 99.765 75.56V78.56V81.56C103.447 81.56 106.769 81.1957 109.694 80.4197L108.925 77.52ZM99.765 78.56V75.56H97.965V78.56V81.56H99.765V78.56ZM97.965 78.56V75.56C94.661 75.56 91.8603 75.2312 89.527 74.6184L88.765 77.52L88.003 80.4216C90.9497 81.1955 94.2823 81.56 97.965 81.56V78.56ZM88.765 77.52L89.5544 74.6257C87.085 73.9522 85.4145 73.2006 84.3715 72.4666L82.645 74.92L80.9185 77.3734C82.7555 78.6661 85.165 79.6478 87.9756 80.4143L88.765 77.52ZM82.645 74.92L84.4015 72.488C83.2485 71.6552 82.3422 70.699 81.6501 69.6201L79.125 71.24L76.5999 72.8599C77.7212 74.6077 79.1615 76.1048 80.8885 77.352L82.645 74.92ZM79.125 71.24L81.6848 69.6757C80.9118 68.4107 80.5023 67.4113 80.3304 66.6551L77.405 67.32L74.4796 67.9849C74.8411 69.5753 75.5782 71.1893 76.5652 72.8044L79.125 71.24ZM77.405 67.32L80.3441 66.7188C80.1464 65.7523 80.045 64.7408 80.045 63.68H77.045H74.045C74.045 65.1259 74.1836 66.5411 74.4659 67.9212L77.405 67.32ZM77.045 63.68H80.045V62.48H77.045H74.045V63.68H77.045ZM77.045 62.48H80.045C80.045 61.7213 80.091 60.9964 80.1803 60.3039L77.205 59.92L74.2297 59.5361C74.1057 60.4969 74.045 61.4787 74.045 62.48H77.045ZM77.205 59.92L80.1667 60.3977C80.2619 59.8073 80.4554 59.0783 80.78 58.1971L77.965 57.16L75.15 56.1229C74.7279 57.2684 74.4147 58.3793 74.2433 59.4423L77.205 59.92ZM77.965 57.16L80.7555 58.2615C81.0679 57.47 81.4574 56.756 81.921 56.1109L79.485 54.36L77.049 52.6091C76.2859 53.6707 75.6621 54.8234 75.1745 56.0585L77.965 57.16ZM79.485 54.36L81.9462 56.0754C82.348 55.4988 82.9569 54.8578 83.8427 54.1712L82.005 51.8L80.1673 49.4288C78.9198 50.3956 77.8486 51.4612 77.0238 52.6446L79.485 54.36ZM82.005 51.8L83.8508 54.1649C84.7109 53.4937 85.7255 52.9046 86.9151 52.4108L85.765 49.64L84.6149 46.8692C82.9779 47.5487 81.4858 48.3997 80.1592 49.4351L82.005 51.8ZM85.765 49.64L86.8969 52.4183C88.0734 51.939 89.6053 51.5213 91.5382 51.1992L91.045 48.24L90.5518 45.2808C88.3247 45.652 86.3366 46.1677 84.6331 46.8617L85.765 49.64ZM91.045 48.24L91.575 51.1928C93.4497 50.8563 95.5756 50.68 97.965 50.68V47.68V44.68C95.2877 44.68 92.8003 44.877 90.515 45.2872L91.045 48.24ZM97.965 47.68V50.68H99.765V47.68V44.68H97.965V47.68ZM99.765 47.68V50.68C102.154 50.68 104.28 50.8563 106.155 51.1928L106.685 48.24L107.215 45.2872C104.93 44.877 102.442 44.68 99.765 44.68V47.68ZM106.685 48.24L106.192 51.1992C108.124 51.5213 109.635 51.9376 110.775 52.4108L111.925 49.64L113.075 46.8692C111.388 46.169 109.406 45.652 107.178 45.2808L106.685 48.24ZM111.925 49.64L110.775 52.4108C111.959 52.9022 112.949 53.485 113.771 54.1426L115.645 51.8L117.519 49.4574C116.208 48.4084 114.718 47.5511 113.075 46.8692L111.925 49.64ZM115.645 51.8L113.836 54.193C114.744 54.8796 115.353 55.5145 115.744 56.0754L118.205 54.36L120.666 52.6446C119.83 51.4455 118.733 50.3737 117.454 49.407L115.645 51.8ZM118.205 54.36L115.769 56.1109C116.22 56.7385 116.588 57.4307 116.87 58.1971L119.685 57.16L122.5 56.1229C122.036 54.8627 121.417 53.6882 120.641 52.6091L118.205 54.36ZM119.685 57.16L116.895 58.2615C117.23 59.1104 117.403 59.785 117.47 60.3039L120.445 59.92L123.42 59.5361C123.274 58.4017 122.94 57.2363 122.475 56.0585L119.685 57.16ZM120.445 59.92L117.483 60.3977C117.59 61.0586 117.645 61.7519 117.645 62.48H120.645H123.645C123.645 61.4481 123.567 60.4347 123.407 59.4423L120.445 59.92ZM108.845 63.24H111.845V62.72H108.845H105.845V63.24H108.845ZM108.845 62.72H111.845C111.845 61.4813 111.611 60.2771 111.122 59.1382L108.365 60.32L105.608 61.5018C105.759 61.8563 105.845 62.2521 105.845 62.72H108.845ZM108.365 60.32L111.17 59.256C110.696 58.0052 109.919 56.9112 108.966 55.9587L106.845 58.08L104.724 60.2013C105.211 60.6888 105.448 61.0881 105.56 61.384L108.365 60.32ZM106.845 58.08L109.043 56.0386C107.871 54.7761 106.296 53.9723 104.607 53.4527L103.725 56.32L102.843 59.1873C103.927 59.5211 104.432 59.8905 104.647 60.1213L106.845 58.08ZM103.725 56.32L104.623 53.4576C102.895 52.9154 100.949 52.68 98.845 52.68V55.68V58.68C100.527 58.68 101.835 58.8713 102.827 59.1824L103.725 56.32ZM98.845 55.68V52.68C96.6945 52.68 94.7139 52.9139 92.9627 53.4527L93.845 56.32L94.7273 59.1873C95.7495 58.8728 97.1022 58.68 98.845 58.68V55.68ZM93.845 56.32L92.9627 53.4527C91.274 53.9723 89.699 54.7761 88.5266 56.0386L90.725 58.08L92.9234 60.1214C93.1377 59.8905 93.6426 59.5211 94.7273 59.1873L93.845 56.32ZM90.725 58.08L88.564 55.9991C87.6469 56.9515 86.9038 58.0334 86.44 59.256L89.245 60.32L92.05 61.384C92.1729 61.06 92.4165 60.6485 92.886 60.1609L90.725 58.08ZM89.245 60.32L86.4527 59.223C86.0136 60.341 85.805 61.5154 85.805 62.72H88.805H91.805C91.805 62.2179 91.8898 61.7924 92.0373 61.417L89.245 60.32ZM88.805 62.72H85.805V63.2H88.805H91.805V62.72H88.805ZM88.805 63.2H85.805C85.805 64.4052 86.0136 65.5815 86.4284 66.7128L89.245 65.68L92.0616 64.6472C91.8898 64.1785 91.805 63.7015 91.805 63.2H88.805ZM89.245 65.68L86.4729 66.8271C86.9497 67.9792 87.6639 69.0351 88.5313 70.0026L90.765 68L92.9987 65.9974C92.4795 65.4182 92.1803 64.9275 92.0171 64.5329L89.245 65.68ZM90.765 68L88.6055 70.0824C89.7756 71.2959 91.3187 72.1042 92.9928 72.6515L93.925 69.8L94.8572 66.9485C93.758 66.5891 93.1944 66.1975 92.9245 65.9176L90.765 68ZM93.925 69.8L92.9928 72.6515C94.7547 73.2275 96.7241 73.48 98.845 73.48V70.48V67.48C97.1793 67.48 95.8686 67.2792 94.8572 66.9485L93.925 69.8ZM98.845 70.48V73.48C100.964 73.48 102.928 73.2281 104.674 72.646L103.725 69.8L102.776 66.9539C101.802 67.2786 100.513 67.48 98.845 67.48V70.48ZM103.725 69.8L104.657 72.6515C106.332 72.1041 107.886 71.2878 109.043 70.0414L106.845 68L104.647 65.9586C104.417 66.2056 103.892 66.5892 102.793 66.9485L103.725 69.8ZM106.845 68L109.005 70.0824C109.937 69.1152 110.701 68.0203 111.17 66.784L108.365 65.72L105.56 64.656C105.442 64.9664 105.193 65.3914 104.685 65.9176L106.845 68ZM108.365 65.72L111.15 66.8342C111.611 65.6833 111.845 64.4788 111.845 63.24H108.845H105.845C105.845 63.7079 105.759 64.1567 105.58 64.6058L108.365 65.72Z" fill="#007041" mask="url(#path-1-outside-1_885_17790)"/>
</g>
<defs>
<filter id="filter0_d_885_17790" x="0.238281" y="0.679993" width="130.879" height="84.88" filterUnits="userSpaceOnUse" color-interpolation-filters="sRGB">
<feFlood flood-opacity="0" result="BackgroundImageFix"/>
<feColorMatrix in="SourceAlpha" type="matrix" values="0 0 0 0 0 0 0 0 0 0 0 0 0 0 0 0 0 0 127 0" result="hardAlpha"/>
<feOffset dy="4"/>
<feComposite in2="hardAlpha" operator="out"/>
<feColorMatrix type="matrix" values="0 0 0 0 0 0 0 0 0 0.439216 0 0 0 0 0.254902 0 0 0 1 0"/>
<feBlend mode="normal" in2="BackgroundImageFix" result="effect1_dropShadow_885_17790"/>
<feBlend mode="normal" in="SourceGraphic" in2="effect1_dropShadow_885_17790" result="shape"/>
</filter>
</defs>
</svg>
