<svg xmlns="http://www.w3.org/2000/svg" viewBox="0 0 24 24" fill="none">
  <path fill-rule="evenodd" clip-rule="evenodd" d="M17.5153 9.00171C17.4207 8.98999 17.3453 8.91618 17.3321 8.82186C17.0376 6.71432 15.3233 4.08203 12.0011 4.08203C8.42961 4.08203 6.96104 6.9916 6.67627 8.82452C6.66182 8.91756 6.58677 8.98981 6.49332 9.00126C4.13425 9.29024 2.53711 11.0981 2.53711 13.584C2.53711 15.396 3.60511 17.05 5.27611 17.806C6.07911 18.131 6.77611 18.18 7.12011 18.18H9.1427C9.3412 18.18 9.50211 18.0191 9.50211 17.8206C9.50211 17.6067 9.31574 17.4424 9.1021 17.4324C8.50577 17.4047 7.91832 17.1691 7.46311 16.713C6.48611 15.737 6.48611 14.154 7.46311 13.178L10.2321 10.409C10.3491 10.292 10.4771 10.187 10.6151 10.095C10.6761 10.055 10.7411 10.027 10.8041 9.99203C10.8841 9.94903 10.9611 9.90103 11.0451 9.86603C11.1251 9.83303 11.2091 9.81403 11.2911 9.78903C11.3651 9.76703 11.4361 9.73903 11.5121 9.72403C11.6651 9.69303 11.8191 9.67903 11.9741 9.67703C11.9831 9.67703 11.9921 9.67403 12.0011 9.67403C12.0091 9.67403 12.0161 9.67603 12.0231 9.67703C12.1801 9.67803 12.3361 9.69303 12.4901 9.72403C12.5651 9.73903 12.6341 9.76603 12.7071 9.78803C12.7911 9.81303 12.8761 9.83203 12.9571 9.86603C13.0381 9.90003 13.1121 9.94503 13.1881 9.98703C13.2551 10.023 13.3241 10.053 13.3881 10.096C13.5111 10.178 13.6241 10.273 13.7301 10.375C13.7431 10.386 13.7571 10.394 13.7691 10.406L16.5401 13.177C17.5171 14.154 17.5171 15.736 16.5401 16.713C16.0934 17.1607 15.5124 17.4014 14.9006 17.4306C14.6872 17.4408 14.5021 17.6054 14.5021 17.819C14.5021 18.0184 14.6638 18.18 14.8632 18.18H16.8731C17.2211 18.18 17.9241 18.132 18.7481 17.802C20.3971 17.056 21.4631 15.4 21.4631 13.584C21.4631 11.101 19.87 9.29355 17.5153 9.00171Z" fill="currentColor"/>
  <path fill-rule="evenodd" clip-rule="evenodd" d="M14.7713 15.6953C14.9633 15.6953 15.1553 15.6223 15.3013 15.4753C15.5943 15.1823 15.5943 14.7083 15.3013 14.4153L12.5303 11.6443C12.4613 11.5743 12.3783 11.5203 12.2863 11.4823C12.1943 11.4443 12.0973 11.4243 11.9993 11.4243C11.9953 11.4243 11.9923 11.4263 11.9883 11.4263C11.8943 11.4283 11.8013 11.4453 11.7133 11.4823C11.6213 11.5203 11.5373 11.5753 11.4683 11.6453L8.69827 14.4153C8.40527 14.7083 8.40527 15.1823 8.69827 15.4753C8.99127 15.7683 9.46627 15.7683 9.75927 15.4753L11.2503 13.9853V19.1683C11.2503 19.5833 11.5863 19.9183 12.0003 19.9183C12.4143 19.9183 12.7503 19.5823 12.7503 19.1683V13.9853L14.2413 15.4753C14.3873 15.6223 14.5793 15.6953 14.7713 15.6953Z" fill="currentColor"/>
</svg>