<svg xmlns="http://www.w3.org/2000/svg" width="30" height="30" viewBox="0 0 30 30" fill="none">
  <path d="M27.1883 13.7501V21.2501C27.2617 21.8835 27.1909 22.5252 26.9813 23.1273C26.7717 23.7294 26.4287 24.2764 25.9778 24.7272C25.527 25.178 24.9801 25.5211 24.3779 25.7307C23.7758 25.9403 23.1341 26.011 22.5008 25.9376H7.50078C6.86745 26.011 6.22573 25.9403 5.62361 25.7307C5.02149 25.5211 4.47456 25.178 4.02373 24.7272C3.5729 24.2764 3.22985 23.7294 3.02024 23.1273C2.81062 22.5252 2.73987 21.8835 2.81328 21.2501V8.75012C2.73987 8.1168 2.81062 7.47508 3.02024 6.87295C3.22985 6.27083 3.5729 5.7239 4.02373 5.27308C4.47456 4.82225 5.02149 4.4792 5.62361 4.26958C6.22573 4.05997 6.86745 3.98922 7.50078 4.06262H17.5008C17.7494 4.06262 17.9879 4.1614 18.1637 4.33721C18.3395 4.51303 18.4383 4.75148 18.4383 5.00012C18.4383 5.24876 18.3395 5.48722 18.1637 5.66304C17.9879 5.83885 17.7494 5.93762 17.5008 5.93762H7.50078C5.52953 5.93762 4.68828 6.77887 4.68828 8.75012V20.3126L7.86328 17.1376C8.09929 16.9034 8.41829 16.772 8.75078 16.772C9.08326 16.772 9.40227 16.9034 9.63828 17.1376L10.8133 18.3126C10.9301 18.4271 11.0872 18.4913 11.2508 18.4913C11.4144 18.4913 11.5714 18.4271 11.6883 18.3126L17.8633 12.1376C18.0993 11.9034 18.4183 11.772 18.7508 11.772C19.0833 11.772 19.4023 11.9034 19.6383 12.1376L25.3133 17.8126V13.7501C25.3133 13.5015 25.412 13.263 25.5879 13.0872C25.7637 12.9114 26.0021 12.8126 26.2508 12.8126C26.4994 12.8126 26.7379 12.9114 26.9137 13.0872C27.0895 13.263 27.1883 13.5015 27.1883 13.7501ZM9.99203 9.68762C9.57701 9.68878 9.17942 9.85461 8.88658 10.1487C8.59373 10.4428 8.42957 10.841 8.43015 11.2561C8.43073 11.6711 8.596 12.0689 8.88967 12.3621C9.18334 12.6554 9.58139 12.8201 9.9964 12.8201C10.4114 12.8201 10.8095 12.6554 11.1031 12.3621C11.3968 12.0689 11.5621 11.6711 11.5627 11.2561C11.5632 10.841 11.3991 10.4428 11.1062 10.1487C10.8134 9.85461 10.4158 9.68878 10.0008 9.68762H9.99203ZM23.1633 6.28762L23.4383 6.01387V8.75012C23.4383 8.99877 23.537 9.23722 23.7129 9.41304C23.8887 9.58885 24.1271 9.68762 24.3758 9.68762C24.6244 9.68762 24.8629 9.58885 25.0387 9.41304C25.2145 9.23722 25.3133 8.99877 25.3133 8.75012V6.01387L25.5883 6.28762C25.766 6.45322 26.0011 6.54338 26.2439 6.53909C26.4868 6.53481 26.7185 6.43642 26.8903 6.26465C27.0621 6.09289 27.1605 5.86115 27.1647 5.61828C27.169 5.3754 27.0789 5.14034 26.9133 4.96262L25.0383 3.08762C24.8623 2.91237 24.6241 2.81396 24.3758 2.81396C24.1274 2.81396 23.8892 2.91237 23.7133 3.08762L21.8383 4.96262C21.6727 5.14034 21.5825 5.3754 21.5868 5.61828C21.5911 5.86115 21.6895 6.09289 21.8613 6.26465C22.033 6.43642 22.2647 6.53481 22.5076 6.53909C22.7505 6.54338 22.9856 6.45322 23.1633 6.28762Z" fill="white" fill-opacity="0.8"/>
</svg>
