<svg xmlns="http://www.w3.org/2000/svg" viewBox="0 0 20 20" fill="none">
  <path fill-rule="evenodd" clip-rule="evenodd" d="M17.625 12.3748C17.2917 12.3748 16.9583 12.6248 16.9583 13.0414V14.3748C16.9583 15.7914 15.7917 17.0414 14.375 17.0414H13.2917C12.9583 17.0414 12.625 17.2914 12.625 17.7081C12.625 18.1248 12.875 18.3748 13.2917 18.3748H14.375C16.5417 18.3748 18.2083 16.6248 18.2083 14.4581V13.1248C18.2083 12.6248 17.9583 12.3748 17.625 12.3748Z" fill="currentColor"/>
  <path fill-rule="evenodd" clip-rule="evenodd" d="M6.95898 16.9584H5.87565C4.45898 16.9584 3.29232 15.7917 3.29232 14.2917V12.9584C3.29232 12.6251 3.04232 12.2917 2.62565 12.2917C2.20898 12.2917 1.95898 12.5417 1.95898 12.9584V14.2917C1.95898 16.4584 3.70898 18.2084 5.79232 18.2084H6.87565C7.20898 18.2084 7.54232 17.9584 7.54232 17.5417C7.54232 17.1251 7.29232 16.9584 6.95898 16.9584Z" fill="currentColor"/>
  <path fill-rule="evenodd" clip-rule="evenodd" d="M2.62558 7.62427C2.95891 7.62427 3.29225 7.37427 3.29225 6.9576V5.62427C3.29225 4.2076 4.45891 2.9576 5.87558 2.9576H6.95891C7.29225 2.9576 7.62558 2.7076 7.62558 2.29093C7.62558 1.87427 7.37558 1.62427 6.95891 1.62427H5.87558C3.70892 1.62427 2.04225 3.37427 2.04225 5.54093V6.87427C1.95892 7.37427 2.29225 7.62427 2.62558 7.62427Z" fill="currentColor"/>
  <path fill-rule="evenodd" clip-rule="evenodd" d="M10.0417 10.1246C11.375 10.1246 12.4583 9.04125 12.4583 7.70793C12.4583 6.29126 11.4583 5.29126 10.0417 5.29126C8.70834 5.29126 7.625 6.37459 7.625 7.70793C7.625 9.04125 8.70834 10.1246 10.0417 10.1246Z" fill="currentColor"/>
  <path fill-rule="evenodd" clip-rule="evenodd" d="M13.625 12.8744C13.625 11.2078 11.0416 11.2078 10.125 11.2078C9.2083 11.2078 6.625 11.2078 6.625 12.8744C6.625 14.5411 9.2083 14.5411 10.125 14.5411C11.0416 14.5411 13.625 14.5411 13.625 12.8744Z" fill="currentColor"/>
  <path fill-rule="evenodd" clip-rule="evenodd" d="M14.375 1.79028H13.2917C12.9583 1.79028 12.625 2.04028 12.625 2.45695C12.625 2.87362 12.875 3.12362 13.2917 3.12362H14.375C15.7917 3.12362 16.9583 4.29028 16.9583 5.79028V7.12362C16.9583 7.45695 17.2083 7.79028 17.625 7.79028C18.0417 7.79028 18.2917 7.54028 18.2917 7.12362V5.79028C18.2083 3.54028 16.5417 1.79028 14.375 1.79028Z" fill="currentColor"/>
</svg>