<svg xmlns="http://www.w3.org/2000/svg" viewBox="0 0 16 17" fill="none">
  <g clip-path="url(#clip0_2280_18307)">
    <path fill-rule="evenodd" clip-rule="evenodd" d="M12.6667 3.49251V4.16651C13.0203 4.16651 13.3594 4.30699 13.6095 4.55704C13.8595 4.80709 14 5.14623 14 5.49985V12.1665C14 12.5201 13.8595 12.8593 13.6095 13.1093C13.3594 13.3594 13.0203 13.4998 12.6667 13.4998H3.33333C2.97971 13.4998 2.64057 13.3594 2.39052 13.1093C2.14048 12.8593 2 12.5201 2 12.1665V5.49985C2 4.80318 2.55667 4.17118 3.20867 3.98518L10.542 1.88985C10.7901 1.81895 11.0512 1.80661 11.3048 1.8538C11.5585 1.90099 11.7977 2.00641 12.0037 2.16178C12.2096 2.31714 12.3767 2.5182 12.4918 2.74912C12.6068 2.98004 12.6667 3.23452 12.6667 3.49251ZM10.3333 7.83318C10.0681 7.83318 9.81376 7.93854 9.62623 8.12607C9.43869 8.31361 9.33333 8.56797 9.33333 8.83318C9.33333 9.0984 9.43869 9.35275 9.62623 9.54029C9.81376 9.72782 10.0681 9.83318 10.3333 9.83318C10.5985 9.83318 10.8529 9.72782 11.0404 9.54029C11.228 9.35275 11.3333 9.0984 11.3333 8.83318C11.3333 8.56797 11.228 8.31361 11.0404 8.12607C10.8529 7.93854 10.5985 7.83318 10.3333 7.83318ZM11.3333 3.49251C11.3334 3.44546 11.3234 3.39892 11.3042 3.35598C11.285 3.31303 11.2568 3.27465 11.2217 3.24335C11.1866 3.21205 11.1452 3.18855 11.1003 3.17438C11.0554 3.16022 11.0081 3.15572 10.9613 3.16118L10.908 3.17185L7.42667 4.16651H11.3333V3.49251Z" fill="currentColor"/>
  </g>
  <defs>
    <clipPath id="clip0_2280_18307">
      <rect width="16" height="16" fill="white" transform="translate(0 0.166504)"/>
    </clipPath>
  </defs>
</svg>