<svg xmlns="http://www.w3.org/2000/svg" width="24" height="24" viewBox="0 0 24 24" fill="none">
  <path d="M22.7368 19.5787V20.8419C22.7368 22.2313 21.6 23.3682 20.2105 23.3682H2.52632C1.12421 23.3682 0 22.2313 0 20.8419V3.15766C0 1.76819 1.12421 0.631348 2.52632 0.631348H20.2105C21.6 0.631348 22.7368 1.76819 22.7368 3.15766V4.42082H11.3684C9.96632 4.42082 8.8421 5.55766 8.8421 6.94714V17.0524C8.8421 18.4419 9.96632 19.5787 11.3684 19.5787H22.7368ZM11.3684 17.0524H24V6.94714H11.3684V17.0524ZM16.4211 13.8945C15.3726 13.8945 14.5263 13.0482 14.5263 11.9998C14.5263 10.9513 15.3726 10.105 16.4211 10.105C17.4695 10.105 18.3158 10.9513 18.3158 11.9998C18.3158 13.0482 17.4695 13.8945 16.4211 13.8945Z" fill="currentColor"/>
</svg>
