<svg viewBox="0 0 375 148" fill="none" xmlns="http://www.w3.org/2000/svg">
<g style="mix-blend-mode:overlay" opacity="0.35">
<path d="M118.165 142.529C119.588 143.796 120.892 145.1 122.097 146.575C122.267 146.778 122.267 146.778 122.442 146.985C124.296 149.192 125.925 151.436 127.331 153.953C127.603 154.441 127.882 154.924 128.161 155.408C129.508 157.792 130.428 160.237 131.276 162.836C131.418 163.235 131.56 163.633 131.702 164.032C132.608 166.799 133.223 169.662 133.637 172.54C133.681 172.818 133.725 173.096 133.771 173.383C133.992 175.095 133.963 176.816 133.964 178.539C133.965 178.734 133.965 178.928 133.966 179.128C133.964 181.996 133.811 184.697 133.112 187.489C133.061 187.743 133.011 187.997 132.958 188.259C131.849 193.452 129.481 198.404 126.031 202.439C125.853 202.648 125.676 202.857 125.494 203.072C120.052 209.305 112.298 213.767 104 214.766C102.595 214.844 101.193 214.855 99.7868 214.848C99.5952 214.847 99.4036 214.847 99.2063 214.846C91.3801 214.809 84.6773 212.827 78.9207 207.285C75.2805 203.506 73.1595 198.481 72.789 193.259C72.7696 193.004 72.7696 193.004 72.7499 192.744C72.4451 188.16 73.5402 184.052 76.5172 180.502C78.7399 178.096 81.6965 176.286 85.0298 176.124C88.676 176.058 91.2683 176.353 94.0065 178.978C94.7959 179.899 95.2236 180.842 95.6068 181.982C95.6934 182.155 95.7799 182.328 95.8691 182.506C96.1037 185.694 95.8253 188.673 94.0332 191.424C93.8871 191.586 93.7411 191.748 93.5906 191.915C93.0718 192.755 93.1086 193.344 93.2464 194.309C94.1831 195.326 95.0383 195.568 96.3867 195.653C101.563 195.836 105.984 194.779 110.035 191.414C113.279 188.209 114.822 183.901 114.889 179.4C114.887 179.1 114.886 178.799 114.884 178.49C114.882 178.014 114.882 178.014 114.881 177.528C114.76 171.042 112.739 164.9 108.458 159.951C108.267 159.767 108.076 159.583 107.879 159.393C107.409 158.902 107.409 158.902 107.409 158.377C107.176 158.272 107.176 158.272 106.938 158.165C106.35 157.847 105.981 157.517 105.508 157.049C100.079 152.198 92.6569 150.891 85.6232 151.235C83.8854 151.372 82.3023 151.767 80.6572 152.345C80.3762 152.443 80.0953 152.541 79.8058 152.642C76.7763 153.807 74.3076 155.589 72.0021 157.852C71.8216 158.027 71.6411 158.201 71.4551 158.38C69.0257 160.901 67.4 164.201 66.4944 167.557C66.4389 167.747 66.3835 167.937 66.3264 168.133C65.6469 170.604 65.6514 173.133 65.6446 175.675C65.642 176.238 65.6339 176.8 65.6256 177.363C65.5987 180.828 66.2606 184.009 67.2648 187.326C70.14 197.181 70.14 197.181 68.0014 201.225C66.4915 203.665 64.2167 205.564 61.3944 206.272C58.5359 206.704 56.2621 206.245 53.856 204.652C48.208 200.109 47.3912 189.349 46.6599 182.736C45.5973 172.69 46.1793 163.15 51.2825 154.181C51.4495 153.886 51.6165 153.591 51.7886 153.287C57.5533 143.564 67.2022 135.851 78.2007 132.97C79.0165 132.77 79.8361 132.589 80.6572 132.412C81.0041 132.328 81.0041 132.328 81.358 132.243C94.5342 129.085 108.155 133.973 118.165 142.529Z" fill="white"/>
<path d="M252.125 -20.0778C256.564 -15.9718 261.064 -10.0059 261.406 -3.71807C261.418 -2.78596 261.426 -1.85399 261.43 -0.921806C261.438 -0.441551 261.438 -0.441551 261.446 0.0484047C261.458 2.90588 260.924 5.29868 259.61 7.8316C259.473 8.09971 259.473 8.09971 259.333 8.37325C256.771 13.2542 252.819 17.7015 247.485 19.43C246.955 19.5917 246.423 19.7455 245.89 19.8962C245.662 19.9659 245.434 20.0355 245.198 20.1073C241.418 21.0705 236.725 20.7294 233.301 18.8471C231.106 17.494 229.48 15.5052 228.58 13.0771C227.821 9.37317 228.465 6.09323 230.496 2.91498C231.899 1.0489 233.731 -0.0925522 235.924 -0.823452C237.275 -0.901352 238.533 -0.832808 239.858 -0.561178C240.645 -0.538416 241.431 -0.545738 242.218 -0.561178C242.437 -2.4395 240.956 -3.88369 239.858 -5.28212C238.23 -7.2827 236.47 -8.27499 234.088 -9.21623C233.87 -9.31123 233.652 -9.40624 233.428 -9.50412C230.026 -10.7399 226.036 -10.1619 222.81 -8.69168C218.908 -6.67465 216.183 -3.80895 214.756 0.395712C214.311 1.97752 214.287 3.52511 214.302 5.15968C214.304 5.46164 214.306 5.76359 214.308 6.0747C214.35 8.244 214.552 10.0386 215.466 12.028C215.58 12.2947 215.695 12.5615 215.812 12.8363C218.471 18.6115 223.804 22.1965 229.581 24.414C237.349 27.1679 246.698 27.2863 254.259 23.837C255.763 23.0995 257.125 22.1896 258.479 21.2076C258.732 21.0274 258.985 20.8472 259.245 20.6615C264.513 16.6515 267.37 10.2999 268.451 3.91388C269.121 0.0100651 270.484 -3.08555 273.691 -5.54439C275.687 -6.94839 278.171 -6.84925 280.51 -6.59349C282.941 -6.11741 285.06 -4.76025 286.522 -2.75465C289.065 1.39346 287.868 7.19066 286.837 11.7319C286.593 12.6303 286.318 13.5075 286.018 14.3885C285.963 14.5515 285.908 14.7145 285.851 14.8824C284.497 18.8395 282.713 22.5386 280.248 25.9285C280.05 26.2041 279.853 26.4796 279.65 26.7635C272.205 36.8402 260.901 43.4005 248.6 45.3863C246.106 45.7406 243.611 45.7365 241.097 45.7071C240.244 45.6974 239.391 45.6963 238.538 45.6964C234.564 45.6835 230.8 45.4343 226.957 44.3369C226.708 44.2666 226.459 44.1964 226.202 44.124C224.392 43.6022 222.667 43.022 220.974 42.1895C220.776 42.0932 220.577 41.9969 220.373 41.8977C213.31 38.4373 207.297 33.5799 202.615 27.2399C202.502 27.0878 202.389 26.9357 202.273 26.779C199.74 23.3065 197.858 19.418 196.468 15.3556C196.38 15.1026 196.38 15.1026 196.291 14.8446C195.241 11.5695 194.877 8.28011 194.906 4.85828C194.91 4.2737 194.906 3.68959 194.901 3.10503C194.896 -0.318705 195.407 -3.54534 196.648 -6.75741C196.728 -6.96759 196.808 -7.17778 196.89 -7.39433C198.707 -12.0587 201.532 -15.8707 204.975 -19.4449C205.144 -19.6299 205.312 -19.8148 205.485 -20.0053C217.985 -33.3438 239.186 -31.6683 252.125 -20.0778Z" fill="white"/>
<path d="M142.593 19.1524C146.495 21.6576 147.614 26.9793 148.586 31.174C148.784 32.1063 148.974 33.04 149.163 33.9741C150.406 40.6836 150.406 40.6836 154.552 45.8173C157.556 47.5208 160.689 47.5763 163.995 46.7301C166.502 45.9751 168.794 44.9457 171.12 43.7564C175.267 41.6437 179.382 39.6075 184.123 40.8576C186.974 41.954 188.631 43.6794 190.025 46.3859C191.474 51.2944 189.759 57.4154 188.19 62.1223C187.918 65.5482 187.754 69.0332 189.501 72.0888C189.621 72.3102 189.741 72.5317 189.865 72.7598C191.308 75.1677 193.601 76.568 196.287 77.2687C201.223 77.6636 205.099 76.2783 209.586 74.3683C213.867 72.549 218.95 70.454 223.597 72.0888C223.76 72.1337 223.924 72.1787 224.092 72.225C226.176 72.8607 227.76 74.3254 228.826 76.2032C229.016 76.5755 229.196 76.9527 229.367 77.3342C229.462 77.533 229.558 77.7318 229.657 77.9367C230.4 80.1836 230.061 83.0865 229.226 85.266C227.535 88.4502 224.864 89.7444 221.662 90.9889C221.23 91.1596 221.23 91.1596 220.789 91.3337C210.397 95.4272 198.363 99.2679 187.419 94.9722C179.729 91.6236 174.109 85.8128 170.879 78.1211C170.772 77.8705 170.664 77.62 170.553 77.3619C169.396 74.4695 169.259 71.3093 168.964 68.2356C168.88 67.3816 168.791 66.6112 168.519 65.7942C167.233 65.6926 166.222 65.9786 165.02 66.3833C159.111 68.0581 152.135 66.6269 146.862 63.7542C143.093 61.6132 139.932 58.7311 137.308 55.3032C137.104 55.0493 136.899 54.7954 136.688 54.5338C134.456 51.6698 133.034 48.3635 131.538 45.0745C130.816 45.4196 130.16 45.802 129.502 46.2558C121.626 51.6281 113.907 55.2223 104.16 53.4591C99.895 52.6094 96.2438 50.5246 92.9839 47.6973C92.666 47.4361 92.666 47.4361 92.3416 47.1696C88.1889 43.6428 84.8815 38.4702 84.0666 33.0099C83.6548 25.8034 83.6548 25.8034 85.9927 23.0015C86.136 22.8422 86.2794 22.683 86.4271 22.5189C86.565 22.357 86.7029 22.195 86.8451 22.0282C88.696 19.9983 91.1653 19.0028 93.8691 18.7713C96.7354 18.6597 99.2323 19.1862 101.508 21.0108C102.512 21.9809 103.161 23.0915 103.737 24.3548C103.836 24.5384 103.934 24.722 104.035 24.9111C104.447 26.2825 104.27 27.7229 104.218 29.1419C104.189 30.5558 104.243 31.5264 105.049 32.7476C106.382 34.0815 107.962 34.6174 109.819 34.7147C115.327 34.5318 119.588 29.6291 123.145 25.9285C123.46 25.5762 123.772 25.2213 124.08 24.863C129.011 19.1509 135.24 15.1686 142.593 19.1524Z" fill="white"/>
<path d="M334.539 -88.1605C334.815 -88.1057 334.815 -88.1057 335.096 -88.0498C342.763 -86.4842 350.768 -82.356 355.22 -75.7304C355.693 -74.9899 356.134 -74.2364 356.57 -73.4731C356.701 -73.25 356.833 -73.0269 356.968 -72.797C360.131 -67.0256 359.768 -59.7073 358.143 -53.5403C358.066 -53.2444 357.988 -52.9486 357.908 -52.6438C357.439 -51.0005 357.439 -51.0005 357.094 -50.6553C356.998 -50.0446 356.91 -49.4326 356.832 -48.8193C357.176 -48.8244 357.52 -48.8295 357.874 -48.8347C366.95 -48.8188 375.366 -44.2144 381.748 -38.0661C381.933 -37.8977 382.118 -37.7294 382.308 -37.5559C387.644 -32.5555 391.151 -24.864 391.489 -17.5949C391.72 -9.61516 390.48 -2.0329 386.993 5.20917C386.907 5.39112 386.82 5.57307 386.731 5.76054C383.558 12.3452 379.636 18.384 374.676 23.7733C374.196 24.2967 373.733 24.8305 373.273 25.3715C372.339 26.4471 371.328 27.4386 370.315 28.4391C369.578 29.1704 368.868 29.9097 368.192 30.699C365.958 33.2937 363.347 36.0816 359.763 36.5079C356.987 36.5458 354.779 35.8493 352.637 34.0552C351.762 33.1895 351.126 32.2509 350.537 31.1743C350.448 31.0164 350.359 30.8586 350.267 30.6959C349.097 28.1985 349.57 25.0328 350.46 22.5275C351.764 19.4725 354.035 17.2798 356.312 14.9287C357.438 13.7589 358.531 12.5573 359.628 11.3602C359.964 10.9959 360.304 10.6355 360.645 10.2754C366.984 3.50388 372.319 -5.28728 372.108 -14.7954C371.947 -18.7923 370.601 -22.1825 367.819 -25.0733C363.754 -28.6436 358.433 -29.7493 353.17 -29.745C352.646 -29.749 352.122 -29.753 351.598 -29.7573C350.321 -29.7671 349.044 -29.7717 347.767 -29.7732C347.047 -29.7743 346.326 -29.7781 345.605 -29.7848C344.932 -29.7909 344.258 -29.793 343.585 -29.7902C340.176 -29.8284 337.035 -30.6336 334.548 -33.0614C332.512 -35.2869 331.495 -37.5646 331.578 -40.6192C331.981 -45.1779 334.733 -49.2186 336.941 -53.1114C338.868 -56.521 340.318 -59.5159 339.784 -63.5067C339.082 -65.5007 337.446 -66.661 335.637 -67.6047C332.045 -69.3073 328.374 -69.6385 324.425 -69.621C324.083 -69.6199 323.741 -69.6188 323.389 -69.6176C319.111 -69.5681 315.019 -68.9844 310.934 -67.7031C310.769 -67.6522 310.605 -67.6013 310.436 -67.5489C307.617 -66.662 304.956 -65.4728 302.285 -64.2136C302.027 -64.0922 301.769 -63.9708 301.503 -63.8458C301.273 -63.7363 301.044 -63.6269 300.807 -63.5141C298.609 -62.5677 295.335 -62.588 293.066 -63.2936C292.542 -63.5139 292.542 -63.5139 292.05 -63.769C291.782 -63.9074 291.782 -63.9074 291.509 -64.0487C288.949 -65.5181 287.471 -67.5392 286.542 -70.3258C286.321 -72.8798 286.376 -75.2155 287.854 -77.4072C298.076 -88.4235 320.587 -91.0447 334.539 -88.1605Z" fill="white"/>
<path d="M269.495 -67.1786C269.74 -67.0901 269.986 -67.0015 270.239 -66.9102C272.246 -66.1414 273.851 -65.1044 275.527 -63.7691C275.694 -63.6457 275.861 -63.5223 276.032 -63.3951C279.568 -60.64 281.506 -56.2546 282.346 -51.9667C282.442 -51.0561 282.507 -50.1566 282.537 -49.2415C282.561 -48.4958 282.561 -48.4958 283.133 -47.7703C283.337 -47.7893 283.54 -47.8082 283.75 -47.8277C284.68 -47.9077 285.611 -47.9733 286.543 -48.0326C286.823 -48.0505 287.104 -48.0685 287.393 -48.0869C294.537 -48.3182 301.657 -45.631 306.872 -40.7965C309.834 -37.9905 311.834 -34.8948 313.032 -30.9848C313.107 -30.763 313.182 -30.5412 313.26 -30.3127C313.833 -28.4801 313.95 -26.7012 314.026 -24.7968C314.043 -23.9069 314.043 -23.9069 314.344 -23.1166C315.213 -22.5368 315.87 -22.3876 316.885 -22.1494C321.612 -20.9531 325.516 -18.6289 329.031 -15.2483C329.368 -14.9314 329.368 -14.9314 329.712 -14.608C331.186 -13.1873 332.41 -11.7414 333.49 -10.0028C333.583 -9.85484 333.676 -9.70684 333.772 -9.55436C335.441 -6.8635 336.563 -4.12923 337.424 -1.08552C337.519 -0.752838 337.614 -0.420158 337.712 -0.0774002C338.914 4.885 338.941 11.5351 336.457 16.1098C334.839 18.4778 332.905 19.8575 330.08 20.421C327.603 20.6941 325.269 20.3702 323.196 18.9293C320.498 16.7216 319.477 13.9089 319.121 10.5265C319.056 9.83294 319 9.13895 318.945 8.44447C318.924 8.18147 318.903 7.91849 318.881 7.64753C318.841 7.12756 318.803 6.60736 318.769 6.08694C318.569 3.41462 317.995 0.961128 316.18 -1.08552C314.209 -2.76055 312.223 -3.85551 309.59 -3.79022C309.394 -3.78802 309.199 -3.78583 308.997 -3.78356C307.829 -3.75854 306.71 -3.6478 305.558 -3.44598C302.147 -2.86551 299.22 -2.74473 296.247 -4.75735C294.305 -6.22067 293.245 -7.84766 292.837 -10.2651C292.574 -13.6927 293.194 -16.7369 294.198 -20.0184C294.778 -22.0197 295.113 -23.8974 294.231 -25.854C293.728 -26.7227 293.161 -27.2861 292.313 -27.8375C292.156 -27.9403 291.999 -28.0431 291.837 -28.1489C287.486 -29.7651 282.551 -28.079 278.364 -26.7353C274.432 -25.4867 270.753 -24.7537 266.872 -26.5261C264.35 -27.9009 262.916 -29.7111 262.047 -32.4267C261.771 -33.5721 261.773 -34.6966 261.791 -35.8696C261.792 -36.1216 261.794 -36.3735 261.796 -36.6331C261.835 -38.7649 262.186 -40.7123 262.676 -42.7871C263.32 -46.1868 263.32 -46.1868 262.601 -49.3143C261.802 -49.8329 260.956 -49.7489 260.053 -49.6063C257.538 -48.7891 255.872 -46.785 254.299 -44.7706C252.713 -42.7994 251.12 -40.9385 248.498 -40.6243C245.294 -40.3544 242.913 -40.7246 240.306 -42.7236C238.272 -44.5476 237.131 -47.0427 236.891 -49.7374C236.965 -53.7044 239.365 -57.7663 241.956 -60.6218C242.15 -60.8398 242.343 -61.0579 242.543 -61.2826C249.081 -68.2485 260.625 -70.5901 269.495 -67.1786Z" fill="white"/>
<path d="M15.6135 1.79946C15.8833 1.90629 16.153 2.01313 16.431 2.1232C22.8779 4.77342 28.8225 8.54224 34.4972 12.5527C34.6953 12.6923 34.8934 12.832 35.0974 12.9758C37.925 14.9756 40.6759 17.0643 43.3964 19.207C43.8979 19.6017 44.4007 19.9948 44.9042 20.3871C46.5265 21.6533 48.1313 22.9388 49.7255 24.2403C51.2361 25.473 52.763 26.6772 54.3133 27.8599C55.5638 28.8141 56.801 29.7853 58.0408 30.7532C59.3849 31.8 60.7398 32.8313 62.0999 33.8572C70.4634 40.1763 70.4634 40.1763 71.4779 44.0256C71.7662 47.2311 71.3774 49.8804 69.3182 52.4491C67.6004 54.2809 65.5928 55.6241 63.0322 55.7422C58.3873 55.7722 55.4288 53.3688 52.0222 50.4579C51.3467 49.8917 50.6476 49.3686 49.9386 48.8449C47.2636 46.8621 44.6726 44.7763 42.0932 42.6715C40.8217 41.6355 39.5369 40.6182 38.2437 39.6094C37.2593 38.8393 36.2876 38.0552 35.321 37.2628C33.0832 35.4287 30.7977 33.6725 28.4649 31.961C28.2734 31.8203 28.0819 31.6795 27.8846 31.5346C23.5774 28.3762 19.1762 25.4774 14.5644 22.7814C14.3874 22.6766 14.2105 22.5717 14.0282 22.4637C13.5702 22.1936 13.1085 21.9299 12.6465 21.6667C12.3987 21.5247 12.1508 21.3827 11.8955 21.2364C11 20.8847 10.2736 20.9256 9.31888 20.9455C8.48475 30.3569 7.74866 39.7709 7.10306 49.197C6.88641 52.3583 6.66882 55.5196 6.42771 58.6792C6.40928 58.9332 6.39085 59.1872 6.37187 59.4489C5.97739 64.4774 5.16712 70.2084 1.45065 73.9249C0.523466 74.6035 -0.43402 75.1965 -1.43437 75.7608C-1.60138 75.8568 -1.7684 75.9529 -1.94048 76.0518C-3.93185 76.9899 -6.943 76.8588 -9.02393 76.269C-11.2982 75.3358 -12.8619 73.6903 -14.0235 71.5644C-14.1574 71.3276 -14.1574 71.3276 -14.294 71.086C-15.5515 68.4021 -14.8728 65.2804 -14.0118 62.5899C-12.8326 58.8682 -12.7368 54.8919 -12.4499 51.0251C-12.4156 50.5717 -12.4156 50.5717 -12.3806 50.1092C-12.0071 45.1397 -11.7439 40.1712 -11.5801 35.1904C-11.4659 31.8262 -11.2183 28.4906 -10.8762 25.1419C-10.8463 24.8404 -10.8163 24.539 -10.7854 24.2285C-9.9812 16.5307 -8.37533 8.10227 -2.48347 2.58628C-0.77751 1.25998 0.9259 0.449795 3.0243 -0.0364643C3.18015 -0.0841347 3.33601 -0.131805 3.49659 -0.18092C7.60869 -1.02087 11.8332 0.2701 15.6135 1.79946Z" fill="white"/>
<path opacity="0.5" d="M109.786 83.8253C110.124 83.8233 110.124 83.8233 110.468 83.8212C125.761 83.7483 140.035 89.541 151.996 98.8405C152.209 99.0059 152.209 99.0059 152.427 99.1747C156.684 102.521 160.644 106.503 163.798 110.905C164.058 111.258 164.317 111.611 164.577 111.963C166.413 114.485 168.066 117.089 169.568 119.822C169.66 119.989 169.752 120.157 169.847 120.329C175.622 130.999 179.204 144.845 175.694 156.771C174.644 160.119 172.738 163.102 169.662 164.899C167.224 166.071 164.604 166.785 161.953 166.013C159.479 165.069 157.22 163.639 155.93 161.262C154.952 159.076 154.236 156.496 155.08 154.153C155.635 152.896 156.302 151.704 156.979 150.509C158.898 147.111 157.234 141.263 156.259 137.734C155.334 134.571 154.127 131.615 152.521 128.74C152.431 128.577 152.341 128.414 152.248 128.247C150.031 124.274 147.281 120.732 144.128 117.462C143.928 117.245 143.727 117.029 143.521 116.805C136.741 109.67 126.613 104.705 116.851 103.561C116.663 103.539 116.475 103.516 116.281 103.493C113.972 103.247 111.663 103.247 109.344 103.25C109.023 103.25 109.023 103.25 108.695 103.25C100.232 103.267 92.2613 104.504 84.1018 106.722C81.3927 107.421 78.3686 107.803 75.7633 106.563C73.3796 105.091 71.7001 103.119 70.7872 100.454C70.3036 97.6189 70.4968 94.8373 72.1755 92.4517C76.3779 87.3087 84.0555 86.243 90.2632 85.3334C90.492 85.2997 90.7209 85.2661 90.9567 85.2315C91.6324 85.1331 92.3083 85.0364 92.9843 84.94C93.322 84.8909 93.6598 84.8419 94.0077 84.7914C95.0638 84.6483 96.1207 84.525 97.1807 84.4154C97.4108 84.3914 97.641 84.3673 97.8781 84.3425C101.847 83.9469 105.8 83.8362 109.786 83.8253Z" fill="white"/>
<path d="M327.719 73.3999C328.921 74.2879 330.031 75.2741 331.129 76.2849C331.358 76.4925 331.587 76.7001 331.824 76.914C333.696 78.6922 335.2 80.7066 336.637 82.8418C336.786 83.0628 336.786 83.0628 336.938 83.2882C339.636 87.3797 340.882 92.0463 340.896 96.9026C340.899 97.4239 340.907 97.9453 340.915 98.4666C340.927 101.396 340.392 103.924 339.292 106.627C339.225 106.793 339.158 106.959 339.089 107.13C338.697 108.08 338.252 108.962 337.719 109.84C337.058 110.991 336.88 111.684 337.161 113.003C338.049 113.994 339.23 114.568 340.391 115.184C346.527 118.494 350.624 124.892 352.627 131.416C354.164 137.075 354.276 143.223 352.898 148.935C352.856 149.116 352.813 149.297 352.77 149.484C350.748 157.882 345.49 165.118 338.135 169.622C333.202 172.519 326.182 175.323 320.419 174.235C319.102 173.873 318.055 173.381 316.966 172.54C316.696 172.334 316.425 172.129 316.147 171.917C314.248 170.183 313.281 167.959 313.143 165.415C313.085 162.673 313.817 160.547 315.638 158.442C317.544 156.715 320.156 155.532 322.62 154.886C323.932 154.515 325.166 153.95 326.408 153.394C326.719 153.255 327.03 153.117 327.351 152.975C330.389 151.575 332.109 150.072 333.423 146.964C334.597 143.702 335.371 139.417 334.014 136.083C333.636 135.44 333.233 134.835 332.792 134.233C332.44 133.723 332.44 133.723 332.178 132.936C331.7 132.661 331.7 132.661 331.129 132.412C330.729 132.14 330.33 131.867 329.932 131.592C328.035 130.372 325.975 129.578 323.891 128.734C321.311 127.684 318.766 126.624 316.442 125.068C316.204 124.911 315.966 124.754 315.72 124.593C314.182 123.097 313.037 121.263 312.953 119.097C312.949 118.618 312.948 118.138 312.95 117.659C312.946 117.422 312.942 117.185 312.937 116.941C312.934 113.026 315.016 110.093 317.212 107.02C318.667 104.983 319.904 102.976 320.9 100.676C321 100.463 321.099 100.25 321.201 100.031C321.883 97.9997 321.623 95.5944 320.722 93.676C319.364 91.302 317.53 89.4477 314.868 88.6118C314.12 88.5325 313.374 88.5164 312.622 88.4971C309.152 88.3469 306.276 87.7597 303.787 85.1695C302.16 83.0933 301.538 80.838 301.645 78.2243C301.999 75.3443 303.415 72.9613 305.66 71.1388C312.491 66.6732 321.46 69.1791 327.719 73.3999Z" fill="white"/>
<path opacity="0.35" d="M46.3389 69.5489C47.7958 70.6678 48.6376 72.3071 49.4463 73.9245C49.4782 74.5886 49.4952 75.2466 49.5016 75.9111C49.5084 76.3347 49.5154 76.7584 49.5226 77.182C49.5278 77.5195 49.5278 77.5195 49.5332 77.8638C49.6128 82.7249 49.8977 87.5478 50.3069 92.3913C50.6029 95.8993 50.8066 99.3819 50.8063 102.903C50.8068 103.544 50.8116 104.184 50.8166 104.825C50.8389 111.08 49.8457 117.311 47.0858 122.97C46.954 123.256 46.8221 123.542 46.6863 123.837C43.1556 131.279 36.5326 137.873 28.7288 140.734C27.4335 141.175 26.1221 141.532 24.7925 141.854C24.6144 141.897 24.4363 141.94 24.2528 141.985C15.8932 143.931 7.50714 141.997 0.240135 137.629C-4.74546 134.395 -9.35137 130.04 -12.975 125.33C-13.1469 125.11 -13.1469 125.11 -13.3223 124.885C-17.2769 119.788 -20.0954 114.374 -19.5319 107.758C-19.3154 106.782 -18.9805 105.998 -18.4828 105.135C-18.3776 104.935 -18.2725 104.734 -18.1641 104.528C-17.1461 102.784 -15.7259 101.724 -14.0241 100.677C-13.7787 100.525 -13.7787 100.525 -13.5282 100.371C-11.5138 99.4003 -8.28759 99.5631 -6.15587 100.168C-3.78997 101.157 -2.22178 102.827 -1.17266 105.135C-0.833208 106.036 -0.530693 106.949 -0.224096 107.861C0.89226 111.111 2.5341 113.874 4.85965 116.413C5.06182 116.636 5.264 116.86 5.4723 117.09C8.32955 120.1 12.6402 123.352 16.9437 123.557C20.4788 123.642 22.9292 123.106 25.5793 120.609C29.7231 116.218 31.3612 110.294 31.4118 104.374C31.4144 104.127 31.4169 103.879 31.4195 103.624C31.4259 102.822 31.4292 102.02 31.4313 101.217C31.4323 100.944 31.4332 100.671 31.4342 100.39C31.4412 95.3454 31.2157 90.2702 30.1571 85.3196C29.238 80.3668 30.1709 75.1677 32.9558 70.9904C36.451 67.108 42.0653 66.9351 46.3389 69.5489Z" fill="white"/>
<path d="M122.359 -31.2475C122.71 -31.171 122.71 -31.171 123.068 -31.093C130.867 -29.3796 139.506 -27.1041 145.701 -21.8056C145.865 -21.6693 146.03 -21.5331 146.199 -21.3927C148.072 -19.7038 149.182 -17.5451 149.324 -15.0192C149.171 -11.9405 147.555 -9.43961 145.343 -7.37946C144.314 -6.59996 143.26 -6.16592 142.029 -5.80684C141.64 -5.67702 141.64 -5.67702 141.242 -5.54457C137.413 -5.16283 133.951 -6.58833 130.547 -8.15241C129.633 -8.5714 128.713 -8.97818 127.793 -9.38443C127.614 -9.46316 127.436 -9.5419 127.252 -9.62302C123.639 -11.2082 119.95 -12.2241 116.064 -12.8882C115.653 -12.9589 115.653 -12.9589 115.234 -13.0309C112.964 -13.3901 110.754 -13.4926 108.458 -13.4784C107.966 -13.4814 107.966 -13.4814 107.464 -13.4845C98.7818 -13.4665 90.2169 -10.5932 83.5421 -5.02002C83.3464 -4.86416 83.1506 -4.7083 82.9489 -4.54772C78.1968 -0.635853 74.4782 5.95044 72.8124 11.8198C71.9791 14.718 70.7369 17.5415 68.0556 19.1738C67.5412 19.4378 67.0285 19.675 66.4943 19.896C66.189 20.0375 66.189 20.0375 65.8775 20.1819C63.685 20.9354 60.8419 20.5568 58.7592 19.5938C56.8245 18.5324 54.7778 16.8476 54.0086 14.6987C52.8997 8.56157 55.3876 1.70924 58.1015 -3.70865C58.1903 -3.88665 58.2792 -4.06465 58.3707 -4.24805C60.5175 -8.46822 63.4786 -12.1178 66.7566 -15.511C66.9848 -15.7527 67.213 -15.9945 67.4481 -16.2435C81.453 -30.7391 103.112 -35.5518 122.359 -31.2475Z" fill="white"/>
<path d="M345.559 52.932C347.278 54.0278 348.929 55.2264 350.59 56.4065C354.819 59.4059 359.166 62.146 363.651 64.7449C372.2 69.7131 372.2 69.7131 376.24 72.3508C376.468 72.4999 376.697 72.649 376.932 72.8026C379.649 74.5812 382.345 76.3699 384.895 78.3831C385.132 78.5701 385.37 78.7571 385.614 78.9497C386.346 79.5372 387.065 80.1361 387.78 80.7436C388.037 80.9617 388.294 81.1797 388.559 81.4044C391.423 83.8972 394.905 87.2828 395.236 91.2479C395.463 96.1278 393.89 100.464 391.976 104.873C391.802 105.277 391.802 105.277 391.624 105.689C390.512 108.257 389.388 110.818 388.19 113.348C387.738 114.313 387.361 115.268 387.039 116.284C386.454 118.069 385.768 119.805 385.059 121.544C384.879 121.993 384.879 121.993 384.696 122.451C383.204 126.119 381.417 129.871 377.814 131.887C377.638 131.99 377.463 132.092 377.283 132.198C375.024 133.312 372.145 133.32 369.715 132.763C367.406 131.835 365.289 129.74 364.222 127.501C363.66 126.155 363.526 124.961 363.552 123.511C363.555 123.303 363.558 123.095 363.56 122.881C363.622 120.57 364.12 119.124 365.557 117.324C367.66 114.321 368.77 110.438 370.06 107.037C370.436 106.049 370.813 105.061 371.19 104.074C371.327 103.714 371.327 103.714 371.467 103.346C371.928 102.144 372.407 100.953 372.923 99.7723C373.021 99.5455 373.12 99.3186 373.222 99.0849C373.41 98.6578 373.601 98.232 373.795 97.8079C374.167 96.9652 374.412 96.3937 374.37 95.4636C374.003 94.5689 373.284 94.1209 372.519 93.5787C372.339 93.4478 372.16 93.3169 371.975 93.1821C366.993 89.6032 361.814 86.2803 356.569 83.1041C356.136 82.8407 355.703 82.5774 355.271 82.314C352.732 80.7691 350.191 79.2278 347.647 77.6926C331.082 67.6827 331.082 67.6827 329.456 62.6364C328.995 60.4383 328.971 58.088 330.08 56.0898C330.185 55.8964 330.291 55.703 330.399 55.5038C331.677 53.3879 333.533 51.8531 335.87 51.0185C339.428 50.2099 342.486 51.0425 345.559 52.932Z" fill="white"/>
<path d="M245.018 115.699C246.806 117.024 248.003 118.693 248.512 120.872C248.847 123.784 248.43 126.752 246.676 129.166C245.526 130.511 244.197 131.682 242.872 132.852C242.289 133.367 241.713 133.89 241.136 134.412C240.71 134.794 240.283 135.177 239.857 135.559C239.42 135.952 238.983 136.346 238.546 136.739C238.33 136.933 238.114 137.127 237.892 137.327C237.448 137.727 237.004 138.128 236.56 138.528C235.578 139.414 234.595 140.298 233.595 141.165C232.555 142.071 231.541 143.005 230.526 143.939C229.638 144.756 228.737 145.555 227.825 146.345C227.106 146.98 226.4 147.629 225.694 148.279C224.656 149.235 223.609 150.178 222.543 151.103C221.484 152.029 220.444 152.976 219.4 153.918C218.745 154.508 218.09 155.097 217.435 155.687C216.991 156.087 216.547 156.487 216.103 156.887C215.121 157.773 214.137 158.657 213.138 159.524C212.239 160.307 211.359 161.11 210.483 161.918C209.444 162.873 208.397 163.816 207.331 164.741C206.272 165.667 205.232 166.614 204.188 167.557C202.814 168.797 201.438 170.031 200.04 171.244C199.466 171.754 198.906 172.277 198.346 172.803C195.273 175.671 192.702 177.746 188.336 177.628C185.563 177.315 183.463 175.903 181.632 173.851C179.901 171.531 179.171 169.137 179.534 166.245C180.794 161.519 185.465 158.218 189.016 155.128C189.667 154.559 190.306 153.977 190.943 153.394C191.761 152.647 192.582 151.906 193.418 151.181C194.312 150.404 195.186 149.606 196.057 148.804C197.096 147.848 198.143 146.905 199.209 145.98C200.268 145.055 201.308 144.108 202.352 143.165C203.007 142.575 203.662 141.986 204.317 141.397C204.761 140.997 205.205 140.597 205.649 140.196C206.631 139.31 207.615 138.426 208.614 137.559C209.513 136.776 210.392 135.973 211.269 135.166C212.308 134.21 213.355 133.267 214.421 132.342C215.48 131.416 216.52 130.469 217.564 129.527C218.001 129.133 218.438 128.74 218.875 128.347C219.092 128.152 219.308 127.957 219.531 127.756C221.498 125.986 221.498 125.986 222.152 125.398C222.596 124.998 223.04 124.598 223.484 124.197C224.466 123.311 225.449 122.427 226.448 121.56C227.348 120.778 228.227 119.974 229.104 119.167C231.627 116.849 231.627 116.849 232.776 115.889C232.922 115.765 233.069 115.641 233.219 115.514C236.75 112.745 241.441 113.414 245.018 115.699Z" fill="white"/>
<path d="M257.709 80.9244C257.9 80.9253 258.092 80.9262 258.29 80.9271C266.153 81.0808 273.793 85.1889 279.199 90.7105C281.212 92.9561 282.778 95.392 284.182 98.0542C284.325 98.3155 284.467 98.5768 284.614 98.8461C290.931 110.822 289.172 125.971 285.362 138.428C284.754 140.252 283.982 141.968 283.133 143.69C283.015 143.954 282.897 144.218 282.775 144.49C281.362 147.56 279.237 150.496 276.002 151.771C273.417 152.541 270.717 152.218 268.347 150.967C266.112 149.581 264.561 147.768 263.725 145.264C262.738 141.045 264.505 137.07 266.152 133.25C269.173 126.104 270.95 116.853 268.183 109.332C268.108 109.092 268.032 108.851 267.954 108.604C266.981 105.784 265.079 103.295 262.378 101.977C260.321 101.115 258.24 100.782 256.045 100.443C253.202 99.9534 250.559 98.842 248.775 96.4805C247.234 93.9692 246.586 91.4218 247.119 88.4975C247.753 85.9555 249.294 83.8312 251.518 82.4386C253.516 81.3888 255.453 80.9066 257.709 80.9244Z" fill="white"/>
<path d="M185.567 -71.6379C185.835 -71.471 185.835 -71.471 186.109 -71.3008C188.157 -69.9057 189.638 -68.0048 190.288 -65.6056C190.407 -64.7989 190.425 -64.0106 190.419 -63.1959C190.418 -62.9612 190.416 -62.7264 190.415 -62.4845C190.269 -56.5306 188.684 -50.4413 187.219 -44.6899C186.518 -41.8615 186.112 -38.9816 185.668 -36.104C185.515 -35.1139 185.36 -34.124 185.205 -33.1342C184.992 -31.7714 184.779 -30.4084 184.567 -29.0455C184.103 -26.0686 183.632 -23.0927 183.157 -20.1174C183.114 -19.8465 183.071 -19.5755 183.026 -19.2964C182.424 -15.5231 181.794 -11.7558 181.11 -7.99635C180.817 -6.377 180.539 -4.75964 180.309 -3.12999C179.52 2.44122 179.52 2.44122 177.961 4.68394C177.788 4.94511 177.788 4.94511 177.612 5.21156C176.244 7.02846 174.017 8.46605 171.765 8.82398C168.663 9.10455 166.252 8.72401 163.768 6.73911C162.214 5.22612 161.025 3.41658 160.844 1.22097C160.857 -1.48566 161.098 -4.13724 161.421 -6.82335C161.449 -7.05863 161.477 -7.29391 161.505 -7.53632C162.036 -12.0131 162.704 -16.4677 163.405 -20.9206C163.453 -21.2305 163.502 -21.5405 163.552 -21.8598C164.149 -25.6513 164.823 -29.4184 165.598 -33.1776C166.109 -35.6701 166.52 -38.1812 166.945 -40.6895C167.119 -41.7115 167.294 -42.7333 167.47 -43.7548C167.514 -44.0084 167.557 -44.262 167.602 -44.5232C167.906 -46.2658 168.252 -47.9963 168.614 -49.7275C168.92 -51.2323 169.171 -52.7419 169.404 -54.2591C171.576 -68.3543 171.576 -68.3543 175.419 -71.3377C178.177 -73.2041 182.725 -73.5037 185.567 -71.6379Z" fill="white"/>
<path opacity="0.35" d="M320.9 34.846C321.166 34.951 321.166 34.951 321.437 35.0581C323.864 36.1163 325.458 38.1215 326.429 40.5341C326.995 42.5736 327.108 45.5588 326.17 47.4997C323.166 52.3174 317.892 53.8068 312.77 55.5657C312.053 55.8156 311.338 56.0677 310.622 56.3197C310.446 56.3815 310.27 56.4433 310.089 56.507C309.121 56.8481 308.157 57.1945 307.196 57.5553C304.029 58.7452 300.829 59.811 297.607 60.8439C296.638 61.1553 295.669 61.4674 294.7 61.7803C294.354 61.8922 294.354 61.8922 294 62.0063C292.368 62.5364 290.752 63.1034 289.139 63.6889C288.157 64.0368 287.168 64.3346 286.165 64.6141C284.753 65.018 283.359 65.4503 281.969 65.9255C280.496 66.4205 279.019 66.8865 277.527 67.3188C277.336 67.3763 277.146 67.4338 276.95 67.493C274.194 68.2731 271.136 68.0056 268.536 66.7769C266.438 65.4605 264.921 63.7412 264.16 61.3685C263.621 58.8198 263.707 56.2685 265.036 53.992C267.401 50.3689 270.595 48.4645 274.74 47.4352C275.199 47.3528 275.658 47.2728 276.118 47.1944C277.584 46.9354 278.977 46.54 280.395 46.091C280.926 45.9257 281.457 45.7604 281.988 45.5951C282.262 45.5094 282.536 45.4237 282.817 45.3354C283.655 45.0754 284.494 44.822 285.334 44.5706C288.742 43.5467 292.097 42.4232 295.437 41.1979C296.973 40.6345 298.518 40.0986 300.066 39.5669C304.244 38.1242 308.39 36.5852 312.476 34.8962C315.314 33.8128 318.085 33.605 320.9 34.846Z" fill="white"/>
</g>
</svg>
