<svg xmlns="http://www.w3.org/2000/svg" width="24" height="24" viewBox="0 0 24 24" fill="none">
  <g clip-path="url(#clip0_131_8961)">
    <path opacity="0.998" d="M11.9998 24.0002C9.22943 24.0021 6.54374 23.0453 4.39852 21.2923C2.25329 19.5393 0.780695 17.0981 0.230632 14.3828C-0.319431 11.6676 0.0869273 8.8457 1.38075 6.396C2.67456 3.9463 4.77614 2.01972 7.32881 0.943215C10.2613 -0.295611 13.5658 -0.318767 16.5154 0.87884C19.465 2.07645 21.818 4.39672 23.0568 7.32922C24.2956 10.2617 24.3188 13.5662 23.1212 16.5158C21.9236 19.4654 19.6033 21.8184 16.6708 23.0572C15.1931 23.6826 13.6044 24.0033 11.9998 24.0002ZM5.33381 17.4402C6.65136 18.2854 8.18446 18.7333 9.74981 18.7302C10.9601 18.7415 12.1582 18.4875 13.2598 17.9862C14.2395 17.5315 15.1132 16.8768 15.8248 16.0642C17.1673 14.5377 17.9155 12.579 17.9328 10.5462C17.9328 10.4232 17.9328 10.2962 17.9248 10.1722C18.4863 9.76186 18.9739 9.25903 19.3668 8.68522C18.8398 8.91558 18.2813 9.06559 17.7098 9.13022C18.3106 8.77378 18.7605 8.2101 18.9748 7.54522C18.4107 7.88025 17.7929 8.11537 17.1488 8.24022C16.7539 7.81958 16.2418 7.52729 15.6788 7.40125C15.1158 7.27521 14.5279 7.32123 13.9913 7.53334C13.4548 7.74546 12.9944 8.11388 12.6698 8.59083C12.3451 9.06779 12.1713 9.63127 12.1708 10.2082C12.172 10.4297 12.1958 10.6505 12.2418 10.8672C11.0978 10.8076 9.97897 10.509 8.95743 9.99055C7.93589 9.47211 7.03432 8.74539 6.31081 7.85722C5.94071 8.49111 5.82663 9.2424 5.99186 9.9576C6.15709 10.6728 6.58916 11.2979 7.19981 11.7052C6.7438 11.6875 6.29839 11.5625 5.89981 11.3402V11.3752C5.8986 12.0406 6.12816 12.6859 6.54938 13.201C6.9706 13.7161 7.55741 14.0693 8.20981 14.2002C7.96273 14.2655 7.70836 14.2991 7.45281 14.3002C7.27097 14.2991 7.08946 14.2844 6.90981 14.2562C7.09506 14.8269 7.45384 15.3254 7.93607 15.6824C8.41831 16.0393 8.99995 16.2368 9.59981 16.2472C8.58245 17.0484 7.32379 17.4816 6.02881 17.4762C5.79664 17.478 5.56456 17.466 5.33381 17.4402Z" fill="currentColor" />
  </g>
  <defs>
    <clipPath id="clip0_131_8961">
      <rect width="24" height="24" fill="white"/>
    </clipPath>
  </defs>
</svg>
